<?xml version="1.0" encoding="utf-8"?>
<!-- Generator: Adobe Illustrator 26.0.2, SVG Export Plug-In . SVG Version: 6.00 Build 0)  -->
<svg version="1.1" id="Calque_1" xmlns="http://www.w3.org/2000/svg" xmlns:xlink="http://www.w3.org/1999/xlink" x="0px" y="0px"
	 viewBox="0 0 982.2 926.5" style="enable-background:new 0 0 982.2 926.5;" xml:space="preserve">
<style type="text/css">
	.st0{opacity:0.2;enable-background:new    ;}
	.st1{clip-path:url(#SVGID_00000120551218633942209290000014150747358832828036_);}
	.st2{opacity:0.5;}
	.st3{opacity:0.6;}
	.st4{opacity:0.2;}
	.st5{opacity:0.4;}
	.st6{opacity:0.4;enable-background:new    ;}
	.st7{opacity:0.6;enable-background:new    ;}
</style>
<g id="Calque_2_00000175296322289277368540000015675447111016319671_">
	<g id="Calque_1-2">
		<g>
			<path d="M563.8,466.3c-5.4,0-9.9-4.4-9.9-9.9v-56.3c0-2.7,1.1-5.4,3.2-7.2c2-1.9,4.7-2.8,7.4-2.6
				c41.7,3.2,114.1-71.4,138.5-100.4c2.5-3,6.5-4.2,10.2-3.2c3.7,1,6.5,4.2,7.1,8c0.2,1.1,3.6,24.6-5,56.8
				c8.4-3.9,20.5-11.1,31.5-21.2c7.7-7,16-14.5,24.8-21.7c17.9-14.8,20.9-18.2,21.4-18.7c2.9-3.9,8.1-5.3,12.6-3.4
				c5.5,2.5,7,8.3,8,14.1c0.7,4.3,1.3,9.7,1.7,15.8c0.6,10.2,0.5,20.2-0.3,28.2l43.6-13.1c3-0.9,6.3-0.3,8.8,1.6
				c2.5,1.9,4,4.9,3.9,8l-0.3,19.6v45c0,5.4-4.4,9.9-9.9,9.9s-9.9-4.4-9.9-9.9v-45.1c0-0.1,0-0.1,0-0.2l0.1-6.2l-38,11.4
				c0,0-0.1,0-0.1,0c-2.1,0.6-4.5,0.7-6.7,0.4c-3.9-0.7-7.3-2.8-9.6-6.1c-2.3-3.2-3.2-7.2-2.5-11.1c0-0.1,0-0.1,0-0.2
				c1.7-9.1,1.6-23.5,0.8-34.3c-3,2.5-6.6,5.6-11.1,9.3c-8.4,6.9-16.5,14.2-24,21.1c-9.5,8.7-21.5,17-32.8,22.7
				c-18.6,9.4-25.7,7.5-29.9,4.8c-3.6-2.4-7-7.8-4.5-15c4.7-13.5,6.9-25.7,7.8-35.5c-9.3,9.9-21.8,22.6-36,35.2
				c-36.1,32.2-66.6,49.8-91.1,52.6v46.7C573.6,461.9,569.2,466.3,563.8,466.3z M808.6,301.8C808.6,301.8,808.6,301.8,808.6,301.8
				C808.6,301.8,808.6,301.8,808.6,301.8z"/>
		</g>
		<g>
			<path d="M712.3,663.4c-84.4,0-153.6-66.4-158.2-149.7c-7.1-1.5-16.8-4.9-24.9-12.8c-9.6-9.4-14.4-22.5-14.4-38.9
				c0-23.3,3.4-37,11-44.5c6.6-6.5,14.2-6.3,18.7-6.2c0.4,0,0.9,0,1.3,0c5.4,0,9.9,4.4,9.9,9.9s-4.4,9.9-9.9,9.9c-0.5,0-1.1,0-1.6,0
				c-3.2-0.1-4,0.1-4.6,0.6c-1.2,1.2-5.1,6.8-5.1,30.4c0,10.9,2.8,19.2,8.4,24.8c8.3,8.3,20.5,8.3,20.7,8.3c0,0,0,0,0,0
				c2.6,0,5.2,1,7.1,2.8c1.9,1.9,2.9,4.4,2.9,7c0,76.5,62.2,138.7,138.7,138.7c76.5,0,138.7-62.2,138.7-138.7v-42.5
				c0-4.9,3.7-9.1,8.6-9.8c2.7-0.4,27-5,27-37.2c0-0.2,0-0.4,0-0.6c0-0.1,0.8-16.2-7.8-25.3c-4.1-4.4-9.9-6.5-17.6-6.5
				c-5.4,0-9.9-4.4-9.9-9.9s4.4-9.9,9.9-9.9c13.3,0,24.1,4.3,32.1,12.8c13.6,14.5,13.2,36.3,13,39.6c-0.1,25.8-11.9,39.8-21.8,47
				c-4.9,3.6-9.8,5.8-13.7,7.2V505c0,42.3-16.5,82.1-46.4,112C794.4,647,754.6,663.4,712.3,663.4z"/>
		</g>
		<g>
			<path d="M712.2,578.1c-12,0-23.7-3.1-37.4-9.2l-0.5-0.1c-5.3-1.4-8.4-6.8-7-12.1c1.4-5.3,6.8-8.4,12.1-7l1.3,0.3
				c0.5,0.1,1,0.3,1.5,0.6c20.6,9.4,34.6,11.5,62.5-0.4c5-2.1,10.8,0.2,12.9,5.2c2.1,5-0.2,10.8-5.2,12.9
				C737.2,574.9,724.5,578.1,712.2,578.1z"/>
		</g>
		<g>
			<path d="M528.9,417c-5.4,0-9.9-4.4-9.9-9.9V298.8c0-3.7,0.5-7.1,1-10.2c0.3-1.6,0.5-3.1,0.6-4.6c1.5-14.6,5.7-23.5,9.5-31.3
				c1.8-3.8,3.6-7.4,4.9-11.6c1.7-5.2,7.2-8,12.4-6.4c5.2,1.7,8,7.2,6.4,12.4c-1.8,5.4-3.9,9.8-5.9,14.1c-3.5,7.3-6.5,13.5-7.7,24.7
				c-0.2,2-0.5,3.8-0.8,5.6c-0.4,2.6-0.8,5-0.8,7.1v108.4C538.8,412.6,534.3,417,528.9,417z"/>
		</g>
		<g>
			<path d="M892.2,395.7c-5.4,0-9.9-4.4-9.9-9.9V310c0-18.9-8.6-45-11.2-52.6c-1.8-5.1,0.9-10.8,6.1-12.6c5.1-1.8,10.8,0.9,12.6,6.1
				c3.7,10.6,12.3,37.6,12.3,59.1v75.8C902.1,391.3,897.7,395.7,892.2,395.7z"/>
		</g>
		<g>
			<path d="M887.5,705c-1.8,0-3.6-0.5-5.3-1.5c-1.8-1.2-3.4-2.2-4.9-3.1c-6-3.8-8.2-5.2-10.7-5.9c-3.1-0.9-8.1-1.2-17.2-1.8
				l-1.4-0.1c0,0-0.1,0-0.1,0l-81.8-6.6c-5.1-0.4-9.1-4.7-9.1-9.8v-23.9c0-5.4,4.4-9.9,9.9-9.9s9.9,4.4,9.9,9.9V667l72.7,5.9
				l1.4,0.1c21.1,1.4,23.1,1.7,37.2,10.8c1.4,0.9,3,1.9,4.8,3c4.6,2.9,6,9,3.1,13.6C894,703.4,890.8,705,887.5,705z"/>
		</g>
		<g>
			<path d="M437.4,887.4c-0.7,0-1.4-0.1-2-0.2c-5.3-1.1-8.7-6.3-7.6-11.7l24.9-118.3c9.6-45.8,56.9-80.4,114.9-84.3l78.3-5.9v-14.8
				c0-5.4,4.4-9.9,9.9-9.9s9.9,4.4,9.9,9.9v23.9c0,5.2-4,9.4-9.1,9.8l-87.5,6.6c-49.4,3.3-89.2,31.5-97,68.7L447,879.5
				C446,884.2,441.9,887.4,437.4,887.4z"/>
		</g>
		<g>
			<path d="M712.2,759.5c-0.1,0-0.1,0-0.2,0c-38.4-0.1-73.9-17.5-97.4-47.8L595,686.4c-3.3-4.3-2.6-10.5,1.8-13.8
				c4.3-3.3,10.5-2.6,13.8,1.8l19.6,25.3c19.8,25.5,49.6,40.2,81.9,40.2c0.1,0,0.1,0,0.2,0c32.2,0,62-14.6,81.9-40l19.9-25.5
				c3.3-4.3,9.5-5.1,13.8-1.7c4.3,3.3,5.1,9.5,1.7,13.8L809.6,712C786.1,742.2,750.6,759.5,712.2,759.5z"/>
		</g>
		<g class="st0">
			<path d="M647.2,680.3c0,0,66.2,49.3,123-2.8l-0.5-29.5l-111.2,4.2L647.2,680.3z"/>
		</g>
		<g class="st0">
			<path d="M566.9,432.5c0,0,71.8-11.3,116.9-49.3l-2.8,19.7c0,0,70.4-5.6,97.2-42.2l-8.5,31c0,0,38,0,56.3-11.3l39.5-12.7
				l-4.3-26.7l-59.1,18.3l-2.8-49.3c0,0-62,54.9-101.4,54.9l8.5-52.1l-11.3,4.2c0,0-50.7,67.6-128.1,90.1L566.9,432.5z"/>
		</g>
		<g>
			<path d="M687.7,488.8h-73.9c-8.7,0-15.9-7.1-15.9-15.9v-65.5c0-8.7,7.1-15.9,15.9-15.9h73.9c8.7,0,15.9,7.1,15.9,15.9V473
				C703.5,481.7,696.4,488.8,687.7,488.8z M617.6,469.1h66.2v-57.7h-66.2V469.1z M687.7,411.4L687.7,411.4L687.7,411.4z"/>
		</g>
		<g>
			<path d="M808.8,488.8h-73.9c-8.7,0-15.9-7.1-15.9-15.9v-65.5c0-8.7,7.1-15.9,15.9-15.9h73.9c8.7,0,15.9,7.1,15.9,15.9V473
				C824.6,481.7,817.5,488.8,808.8,488.8z M738.7,469.1h66.2v-57.7h-66.2V469.1z M808.8,411.4L808.8,411.4L808.8,411.4z"/>
		</g>
		<g>
			<path d="M728.9,426.9h-35.2c-5.4,0-9.9-4.4-9.9-9.9s4.4-9.9,9.9-9.9h35.2c5.4,0,9.9,4.4,9.9,9.9S734.3,426.9,728.9,426.9z"/>
		</g>
		<g>
			<path d="M270.6,88.4c-6,0-10.9-4.9-10.9-10.9c0-3.8,2-7.3,5.2-9.3C396.8-11.5,559.3-22,700.3,40.1c5.4,2.6,7.8,9,5.2,14.4
				c-2.5,5.3-8.6,7.6-14,5.4C557,0.7,402,10.7,276.3,86.9C274.6,87.9,272.6,88.4,270.6,88.4z"/>
		</g>
		<g>
			<path d="M494.2,926.5c-126,0-244.4-49.1-333.5-138.1S22.5,580.8,22.5,454.9c0-6,4.9-10.9,10.9-10.9s10.9,4.9,10.9,10.9
				c0,248.1,201.9,450,450,450s450-201.8,450-450c0.2-6,5.2-10.7,11.2-10.5c5.7,0.2,10.4,4.8,10.5,10.5
				c0,126-49.1,244.4-138.2,333.5S620.2,926.5,494.2,926.5z"/>
		</g>
		<g>
			<defs>
				<path id="SVGID_1_" d="M482.7,647.6l-64.5,268.1c0,0-367.7-91.5-391-460.8S187,132.1,187,132.1l214.1,48.1L466.2,337
					L482.7,647.6z"/>
			</defs>
			<clipPath id="SVGID_00000073699913031962530430000014554616386558332289_">
				<use xlink:href="#SVGID_1_"  style="overflow:visible;"/>
			</clipPath>
			<g style="clip-path:url(#SVGID_00000073699913031962530430000014554616386558332289_);">
				<g>
					<path d="M182.6,520.5c-25,0-45.2-20.2-45.2-45.2s20.2-45.2,45.2-45.2s45.2,20.2,45.2,45.2C227.7,500.2,207.5,520.4,182.6,520.5
						z M182.6,447c-15.6,0-28.3,12.7-28.3,28.3c0,15.6,12.7,28.3,28.3,28.3s28.3-12.7,28.3-28.3c0,0,0,0,0,0
						C210.8,459.7,198.2,447,182.6,447L182.6,447z"/>
				</g>
				<g>
					<path d="M296,520.5c-25,0-45.2-20.2-45.2-45.2c0-25,20.2-45.2,45.2-45.2c25,0,45.2,20.2,45.2,45.2c0,0,0,0,0,0
						C341.2,500.2,320.9,520.4,296,520.5z M296,447c-15.6,0-28.3,12.7-28.3,28.3c0,15.6,12.7,28.3,28.3,28.3
						c15.6,0,28.3-12.7,28.3-28.3c0,0,0,0,0,0C324.3,459.7,311.6,447,296,447L296,447z"/>
				</g>
				<g>
					<path d="M255.5,473.3h-35c-4.7,0.2-8.6-3.5-8.7-8.1c-0.2-4.7,3.5-8.6,8.1-8.7c0.2,0,0.4,0,0.6,0h35c4.7,0.2,8.3,4.1,8.1,8.7
						C263.5,469.5,259.9,473.1,255.5,473.3z"/>
				</g>
				<g>
					<path d="M241.3,673.5c-74.7,0-135.6-60.8-135.6-135.6V414.4c-0.2-4.7,3.5-8.6,8.1-8.7c4.7-0.2,8.6,3.5,8.7,8.1
						c0,0.2,0,0.4,0,0.6v123.5c-0.6,65.5,52,119.2,117.6,119.8c65.5,0.6,119.2-52,119.8-117.6c0-0.7,0-1.5,0-2.2V414.4l0.3-41
						c0-4.6,3.8-8.4,8.4-8.4h0.1c4.7,0,8.4,3.8,8.4,8.5l-0.3,41v123.4C376.9,612.7,316,673.5,241.3,673.5z"/>
				</g>
				<g>
					<path d="M472.3,859c-4,0-7.4-2.8-8.2-6.7l-21.3-101.2c-6.7-31.8-40.8-56-83-58.8h-0.1l-70-5.7c-4.4-0.3-7.8-4-7.8-8.4v-20.5
						c0.2-4.7,4.1-8.3,8.7-8.1c4.4,0.2,8,3.7,8.1,8.1v12.7l62.2,5c49.6,3.3,90,33,98.3,72.1l21.3,101.2c1,4.6-1.9,9-6.5,10
						c0,0,0,0,0,0C473.5,859,472.9,859,472.3,859z"/>
				</g>
				<g>
					<path d="M8.5,859c-0.6,0-1.2-0.1-1.8-0.2c-4.6-1-7.5-5.4-6.5-10c0,0,0,0,0,0l21.3-101.2c8.2-39.2,48.7-68.8,98.3-72.1l67-5.1
						v-12.7c0.2-4.7,4.1-8.3,8.7-8.1c4.4,0.2,8,3.7,8.1,8.1v20.5c0,4.4-3.4,8.1-7.8,8.4l-74.8,5.7c-42.2,2.8-76.3,27-83,58.8
						L16.7,852.3C15.9,856.2,12.5,859,8.5,859z"/>
				</g>
				<g>
					<path d="M241.2,600.5c-10.2,0-20.3-2.6-32-7.9l-0.5-0.1c-4.5-1.2-7.2-5.8-6-10.3c1.2-4.5,5.8-7.2,10.3-6l0,0l1.1,0.3
						c0.4,0.1,0.9,0.3,1.3,0.5c17.7,8,29.6,9.9,53.5-0.4c4.3-1.8,9.2,0.1,11.1,4.4c1.8,4.3-0.1,9.2-4.4,11.1l0,0
						C262.5,597.7,251.8,600.5,241.2,600.5z"/>
				</g>
				<g>
					<path d="M244.6,773.5c-33,0-58.6-9.1-76.2-27c-24-24.4-23.8-56.2-23.8-57.5c0.1-4.7,3.9-8.4,8.5-8.3c4.7,0.1,8.4,3.9,8.3,8.5
						l0,0c0,0.3,0,26.3,19.1,45.6c14.3,14.5,35.9,21.8,64,21.8s49.3-7.3,63.2-21.7c18.4-19.2,17.6-45.2,17.6-45.4
						c-0.2-4.7,3.4-8.6,8-8.8c4.7-0.2,8.6,3.4,8.8,8c0.1,1.3,1.3,33.2-22.1,57.7C303,764.4,277.6,773.5,244.6,773.5z"/>
				</g>
				<g class="st2">
					<g>
						<polygon points="22.5,806.5 462.3,806.5 471.5,844.4 13.3,844.4 						"/>
					</g>
				</g>
				<g class="st2">
					<g>
						<polygon points="22.5,874.8 462.3,874.8 471.5,912.6 13.3,912.6 						"/>
					</g>
				</g>
				<g class="st2">
					<g>
						<path d="M448.4,740.2h-141c-10.1,11-35.2,18.8-64.6,18.8s-54.5-7.8-64.6-18.8H32.4l-8.7,37.9h433.4L448.4,740.2z"/>
					</g>
				</g>
				<g class="st2">
					<g>
						<path d="M47.5,711.8H153v-30.1C99.2,677.2,65.7,696.1,47.5,711.8z"/>
					</g>
				</g>
				<g>
					<path d="M115.1,514.8l-13.4-18.2c-49.3-66.8-48.6-124.3-39.3-160.9c5.5-22,15.5-42.6,29.5-60.5c-3.5-7.9-13.2-16.8-27.4-25.1
						c-8.2-4.8-10.9-15.3-6.2-23.4c2.2-3.7,5.6-6.5,9.7-7.7c25.2-7.8,54.1-5.2,73.3-1.8c-3.7-3.1-7.7-6-11.8-8.6
						c-7.9-5.2-10.2-15.8-5-23.7c2.8-4.3,7.4-7.2,12.6-7.7c52.6-5.6,88,23.3,97.8,32.5c64.8,0.5,113.2,15.9,143.8,45.8
						c28.2,27.4,41.9,66,41.9,118.1c0,94.7-44.8,129.4-46.8,130.9l-13.5,10.1V384.6c-15.8,4.4-45.2,12.3-63.4,14.6
						c-7.2,0.9-13.7-4.1-14.6-11.3c-0.4-3.4,0.5-6.7,2.5-9.5l0.9-1.2c-26.1,11.8-64.1,26.2-97.5,28.4c-7.2,0.5-13.4-5-13.9-12.2
						c-0.2-3.3,0.9-6.6,3-9.2l15.3-18.4c-8.9,1.7-17.6,4.1-26.2,7c-28.8,10.1-43.4,24.1-43.4,41.5v0.6L115.1,514.8z M377.1,362.2
						v113c11.6-17.1,26.5-49.2,26.5-101.7c0-47.3-12-81.9-36.8-106c-28-27.2-73.6-41-135.6-41h-3.7l-2.5-2.7
						c-0.3-0.3-33.9-35.5-86.3-29.9c-0.1,0-0.1,0-0.2,0c-0.1,0.1-0.1,0.2-0.1,0.4l0.1,0.1c18.8,12.2,28.5,23.5,29.9,34.7l1.6,12.9
						l-12.4-3.8c-0.5-0.1-48.5-14.4-84.9-3.1c0,0-0.1,0-0.1,0.1c0,0.1,0,0.2,0,0.4c21.6,12.5,33.9,26,36.7,40l0.8,4.2l-3,3.2
						c-0.2,0.2-20,22-28.9,57.8c-10.2,41.4-2.3,83.7,23.5,126.1l4.1-52.7c0.4-58.6,102.2-67.9,106.5-68.3l20.1-1.7L196.1,388
						c51.3-6.8,112.4-40.8,113.1-41.1l34.3-19.3l-39.7,53.5c25.2-4.7,62.1-15.6,62.5-15.7L377.1,362.2z"/>
				</g>
				<g class="st3">
					<g>
						<path d="M114.5,414.6l-4.4,56.4c-0.3,4-3.8,7-7.8,6.6c-2.3-0.2-4.4-1.4-5.6-3.4c-64.2-102.6-10.4-179,2-194.4
							c1.7-2,2.1-4.8,1.1-7.2c-5.4-13.5-22.1-24.8-34-31.4c-3.5-1.9-4.7-6.3-2.8-9.8c0.8-1.5,2.2-2.7,3.8-3.3
							c26.1-9.4,58.1-5.7,77-2c3.9,0.8,7.7-1.8,8.5-5.7c0.5-2.4-0.3-4.9-2.1-6.6c-6-5.5-12.5-10.4-19.4-14.6
							c-3.4-2.1-4.5-6.5-2.4-9.9c1.1-1.8,3-3.1,5.1-3.4c52.1-7.5,87.3,22,95.8,30c1.3,1.3,3.1,2,4.9,2
							c133.8,0.9,177.8,64.5,177.8,155.4c0,58.3-17.6,92.6-30.3,109.9c-2.4,3.2-6.9,3.9-10.1,1.5c-1.8-1.4-2.9-3.5-2.9-5.8v-96
							c0-4-3.2-7.2-7.2-7.3c-0.7,0-1.4,0.1-2,0.3c-13.5,3.8-38.9,10.7-57.2,13.8c-3.9,0.7-7.7-2-8.4-5.9c-0.3-1.9,0.1-3.9,1.3-5.5
							l0,0c2.4-3.2,1.7-7.7-1.5-10.1c-2.1-1.6-4.9-1.9-7.4-0.8c-23.9,11-60,25.4-92.3,29.1c-4,0.5-7.6-2.4-8-6.4
							c-0.2-2,0.4-3.9,1.6-5.5l13.5-16.2c2.6-3.1,2.1-7.6-0.9-10.2c-1.6-1.4-3.8-1.9-5.9-1.6c-28.6,5.4-79.7,20.1-79.8,57.3
							C114.5,414.4,114.5,414.5,114.5,414.6z"/>
					</g>
				</g>
				<g class="st4">
					<g>
						<path d="M189.2,684.3c0,0,12,27.7,51.8,27.7c0,0,42.2-3.6,49.4-27.7l-7.2-19.3l-86.8-2.4L189.2,684.3z"/>
					</g>
				</g>
				<g class="st2">
					<g>
						<path d="M377.8,680.7c-13.7,0-26.3-2.5-36.1-6.8h-7.8v37.9h94.9c-13.5-9.9-31.8-22.6-46.8-31.2
							C380.5,680.7,379.1,680.7,377.8,680.7z"/>
					</g>
				</g>
				<g class="st4">
					<g>
						<path d="M119.3,414.4l33.7-22.9c0,0-10.8,27.7,32.5,22.9s86.8-10.9,86.8-10.9l4.1,6.2c3.3,5,9.3,7.6,15.2,6.6l72.2-11.7v-24.1
							l-73.5,10.8l-3.6-10.8l3.6-7.2c0,0-97.6,39.8-110.9,26.5v-16.9l15.7-19.3C195.2,363.8,124.1,372.2,119.3,414.4z"/>
					</g>
				</g>
				<g>
					<polygon points="85.6,692.8 85.6,859 125.3,859 125.3,687.3 					"/>
				</g>
				<g>
					<polygon points="359.1,692.8 359.1,859 398.8,859 398.8,687.3 					"/>
				</g>
				<g>
					<polygon points="398.8,733.1 398.8,899.4 359.1,899.4 359.1,727.7 					"/>
				</g>
				<g>
					<path d="M410.9,642.3v57.5c0,1-0.1,2.1-0.2,3.1c5.3,2.2,10.7,4.5,16,7c0.7-3.3,1.1-6.7,1.1-10.1v-57.5
						c0-22-15.3-39.9-34.1-39.9h-33.4c-3.9,6.8-8.2,13.4-12.8,19.7h46.2C403.1,622.1,410.9,631.2,410.9,642.3z"/>
				</g>
				<g>
					<path d="M68.2,708.1c-3.3-4-5-9-5-14.1v-51.7c0-11.1,7.8-20.2,17.3-20.2h67.3c-4.4-6.4-8.5-12.9-12.2-19.7h-55
						c-18.8,0-34.1,17.9-34.1,39.9V694c0,7.7,1.9,15.3,5.7,22C56.7,713.6,62.1,710.9,68.2,708.1z"/>
				</g>
				<g class="st5">
					<g>
						<path d="M75.4,453.2c1.5-7.6,27.6-132.8,141.3-108.4c0.4,0.1,0.7,0.4,0.6,0.8c-0.1,0.3-0.3,0.5-0.6,0.6
							c-23.4,3.8-122.7,15.1-107.5,141.5c0.1,0.8-0.7,1.3-1.2,0.7l-32.4-34.6C75.4,453.7,75.3,453.5,75.4,453.2z"/>
					</g>
				</g>
				<g class="st5">
					<g>
						<polygon points="372.3,373.5 402.5,421.6 372.3,502.4 						"/>
					</g>
				</g>
				<g class="st5">
					<g>
						<path d="M210.9,368.6c0,0,71.1-32.5,130.1-39.8l-68.7,51.6l-83.1,22.1l2.7-22.6L210.9,368.6z"/>
					</g>
				</g>
				<g class="st4">
					<g>
						<rect x="114.5" y="689.2" width="31.3" height="169.9"/>
					</g>
				</g>
				<g class="st4">
					<g>
						<rect x="341" y="729.5" width="31.3" height="169.9"/>
					</g>
				</g>
				<g class="st4">
					<g>
						<polygon points="148.2,621.7 81.9,689.2 192.6,673.9 181.9,657.8 						"/>
					</g>
				</g>
				<g class="st4">
					<g>
						<polygon points="334.8,621.7 401.1,689.2 290.4,673.9 301.1,657.8 						"/>
					</g>
				</g>
				<g class="st5">
					<g>
						<path d="M333.8,337.3l-2,12.3c-0.9,5.7,3,11,8.6,12c0.1,0,0.2,0,0.3,0l35.2,4.6L297.6,394l-1.2-15.7L333.8,337.3z"/>
					</g>
				</g>
			</g>
		</g>
		<g class="st2">
			<g>
				<path d="M465.6,137.6l6-16.8l248-68.6c0,0,241.9,72.2,243.1,73.4s8.4,20.5,8.4,20.5l-9.6,10.8l-245.5,65l-232.3-63.8
					L465.6,137.6z"/>
			</g>
		</g>
		<g>
			<path d="M718,232c-2.5,0-4.9-0.3-7.3-1l-237.8-67.4c-14.3-4-22.6-18.9-18.5-33.2c2.5-8.8,9.3-15.8,18.1-18.4l237.4-71.7
				c5.1-1.6,10.5-1.6,15.6,0L963.2,113c14.2,4.3,22.2,19.4,17.9,33.6c-2.7,8.8-9.6,15.6-18.5,18L725.2,231
				C722.8,231.7,720.4,232,718,232z M717.5,56c-1,0-2,0.1-2.9,0.4l-237.3,71.7c-5.3,1.5-8.4,7.1-6.8,12.4c1,3.4,3.6,6,7,6.9
				l237.8,67.4l0,0c1.8,0.5,3.7,0.5,5.4,0L958,148.3c5.3-1.4,8.5-6.9,7.1-12.2c-0.9-3.4-3.5-6-6.9-7L720.5,56.5
				C719.5,56.2,718.5,56,717.5,56z"/>
		</g>
		<g class="st6">
			<polygon points="537.1,209.4 717.1,265.7 888.3,216.2 884.5,175.7 714.6,225.2 537.1,175.7 			"/>
		</g>
		<g>
			<path d="M719,293.3c-11.1,0-22.2-1.5-32.9-4.6l-147-42.2c-3.9-1.1-6.5-4.6-6.5-8.7v-64c0-5,4-9,9-9s9,4,9,9V231L691,271.3
				c17.9,5.1,36.9,5.2,54.9,0.3L875.5,236v-57.8c0-5,4-9,9-9s9,4,9,9v64.6c0,4.1-2.7,7.6-6.6,8.7L750.6,289
				C740.3,291.9,729.6,293.3,719,293.3z"/>
		</g>
		<g>
			<path d="M929.8,300.2c-5,0-9-4-9-9V164.4c0-5,4-9,9-9s9,4,9,9v126.8C938.8,296.1,934.8,300.2,929.8,300.2z"/>
		</g>
		<g class="st6">
			<polygon points="547.5,178.6 547.5,236.9 714.8,283.2 884.5,242.9 874.5,178.6 718,232 			"/>
		</g>
		<g class="st7">
			<path d="M893.5,697.1c-30-17.3-68.8-8.3-68.8-8.3C775.3,755,712,755,712,755c-70.4,2.8-109.8-66.2-109.8-66.2h-9.8
				C472.6,700.1,474,746.5,474,746.5l-29.6,136.6l-8.9,30l192-10.2C685.7,879.8,819.9,816,893.5,697.1z"/>
		</g>
	</g>
</g>
</svg>
