<svg xmlns="http://www.w3.org/2000/svg" viewBox="0 0 498 498"><defs><style>.cls-1{opacity:.2}</style></defs><g id="Calque_2" data-name="Calque 2"><g id="Calque_1-2" data-name="Calque 1"><g id="Entreprise"><path d="M445.1 437H33.6a5.2 5.2 0 0 1-5.2-4.5 5 5 0 0 1 5-5.5H445a5.2 5.2 0 0 1 5.3 4.5 5 5 0 0 1-5.2 5.5Zm-76.2-267H125a5.1 5.1 0 0 1-5.1-5.1V130a5.1 5.1 0 0 1 5.1-5.1h244a5.1 5.1 0 0 1 5.1 5v34.8a5.1 5.1 0 0 1-5.1 5.2ZM131 160h233v-24H131Zm237.9 74H125a5.1 5.1 0 0 1-5.1-5.1V194a5.1 5.1 0 0 1 5.1-5.1h244a5.1 5.1 0 0 1 5.1 5v34.8a5.1 5.1 0 0 1-5.1 5.2ZM131 224h233v-24H131Zm237.9 74H125a5.1 5.1 0 0 1-5.1-5.1V258a5.1 5.1 0 0 1 5.1-5.2h244a5.1 5.1 0 0 1 5.1 5.2v34.7a5.1 5.1 0 0 1-5.1 5.2ZM131 287h233v-24H131Z"/><path d="M428 426.7v-76.5a5.2 5.2 0 0 1 4.5-5.3 5 5 0 0 1 5.5 5V427a5 5 0 0 1-5.5 5 5.2 5.2 0 0 1-4.5-5.3Zm-370 0v-76.5a5.2 5.2 0 0 1 4.5-5.3 5 5 0 0 1 5.5 5V427a5 5 0 0 1-5.5 5 5.2 5.2 0 0 1-4.5-5.3Zm325.9-9.7H121a5.1 5.1 0 0 1-5.1-5.1V338a5.1 5.1 0 0 1 5.1-5.2h263a5.1 5.1 0 0 1 5.1 5.2v73.7a5.1 5.1 0 0 1-5.1 5.2ZM126 407h252v-63H126Z"/><path d="M415.9 437H77a5.1 5.1 0 0 1-5.1-5.2v-19.7A5.1 5.1 0 0 1 77 407h339a5.1 5.1 0 0 1 5.1 5.1V432a5.1 5.1 0 0 1-5.1 5.1ZM82 427h329v-9H82Z"/><path d="M121.5 338.9h258v31h-258z" class="cls-1"/><path d="M380.4 336v-1h-8.9v1Zm53-63.2a60.6 60.6 0 0 0-29.4 7.5v10.4a52 52 0 0 1 29.4-9 53 53 0 0 1 0 106.1A54 54 0 0 1 387 361v15.1a63 63 0 0 0 46.4 20.6 62 62 0 0 0 0-123.9Z"/><path d="M407 285.2V338h-29.9v.6s1.1 38.8 44.9 50.2V282a44.2 44.2 0 0 0-15 3.2Z" class="cls-1"/><path d="M63 398a39 39 0 0 1-26.8-10.6 43.2 43.2 0 0 1-13.6-31.6 44.6 44.6 0 0 1 1.4-11l29.6-142.6a10.1 10.1 0 0 1 10-8.2 10.1 10.1 0 0 1 9.8 8.3L102 345a44.4 44.4 0 0 1 1.1 14.9 43 43 0 0 1-12 26 39.5 39.5 0 0 1-25.3 12H63Zm.5-193.3L34 346.9v.3a34 34 0 0 0-1.2 8.5A33 33 0 0 0 43.2 380a28.9 28.9 0 0 0 22 7.8A31.3 31.3 0 0 0 93 359a33.9 33.9 0 0 0-.9-11.5 2.2 2.2 0 0 1 0-.3Z"/><path d="M71 231.5v157s26-2.6 27.3-29.3S71 231.5 71 231.5Z" class="cls-1"/><path d="M302.9 418H206a5.1 5.1 0 0 1-5.1-5.1V355a5.1 5.1 0 0 1 5.1-5.2h97a5.1 5.1 0 0 1 5.1 5.2v57.7a5.1 5.1 0 0 1-5.1 5.2ZM212 408h86v-48h-86Z"/><path d="M126 341v69h258v-69Zm177 67h-97v-53h97Z" opacity=".6"/><path d="M387.8 89H109.2A22.2 22.2 0 0 0 87 111.2v185l9 37v-222A13.3 13.3 0 0 1 109.3 98h278.4a13.3 13.3 0 0 1 13.3 13.3V333H95.5l2.2 9h307.9a4.5 4.5 0 0 0 4.4-4.5V111.2A22.2 22.2 0 0 0 387.8 89Z"/><path d="M307.2 97H189.3a5.1 5.1 0 0 1-5-5.1A32 32 0 0 1 216 60h64.3a32 32 0 0 1 31.9 31.9 5.1 5.1 0 0 1-5.1 5.1ZM196.7 87h103.1a21 21 0 0 0-20.4-16h-62.3a21 21 0 0 0-20.4 16Z"/><path d="M243 64.9V30.6a5.2 5.2 0 0 1 4.5-5.2 5 5 0 0 1 5.5 5v34.8a5 5 0 0 1-5.5 5 5.2 5.2 0 0 1-4.5-5.3Z"/><path d="M189 79h118v10H189z" class="cls-1"/><path d="M249 498a248 248 0 0 1-137.2-41.2 5.1 5.1 0 0 1 5.7-8.5 239 239 0 0 0 258.9 2.7 5.1 5.1 0 0 1 5.4 8.6A248.3 248.3 0 0 1 249 498ZM10.6 306a5.1 5.1 0 0 1-5-4A250.7 250.7 0 0 1 0 249 249 249 0 0 1 425 73a247.4 247.4 0 0 1 73 176 250.7 250.7 0 0 1-1.3 25.4 5.1 5.1 0 1 1-10.2-1 242.2 242.2 0 0 0 1.3-24.4c0-131.7-107.1-238.8-238.8-238.8S10.2 117.3 10.2 249a240.2 240.2 0 0 0 5.4 50.8 5.1 5.1 0 0 1-3.9 6 5 5 0 0 1-1 .2Z"/></g></g></g></svg>