<svg xmlns="http://www.w3.org/2000/svg" viewBox="0 0 1792 1792"><defs><style>.cls-1{opacity:.5}.cls-2{opacity:.4}</style></defs><g id="Calque_2" data-name="Calque 2"><g id="Calque_1-2" data-name="Calque 1"><g id="espace_inscription" data-name="espace inscription"><path d="M1069.8 377.8h-447v-186h447Zm-406-41h365v-104h-365Z"/><path class="cls-1" d="M649.4 221.2h399v127h-399z"/><path d="M1735.8 448.5A179.7 179.7 0 0 0 1556 268.8h-.1a23.4 23.4 0 0 0-16.6 6.9l-117.8 117.7-499 498.8a21.7 21.7 0 0 0-4.4 6.5l-.5 1.3-.4.9v.1a12.3 12.3 0 0 0-.9 2.1l-52 208.2A23.5 23.5 0 0 0 881 1140a23.6 23.6 0 0 0 11.8 0l208.7-52.1h.2l.5-.3a7.8 7.8 0 0 1 1.3-.6l2.1-.8a21.5 21.5 0 0 0 6.5-4.4l497.6-497.4v-.5l1-.5L1729 465.2a23.4 23.4 0 0 0 6.7-16.7ZM1350 531.6l96.5-96.6h1.2a131.8 131.8 0 0 1 62.4 21.9l2.5 1.7-464.5 464.6-1.1-.9a178.1 178.1 0 0 0-54.3-28.2l-4-1.3ZM1048 929v-.2a.7.7 0 0 1 0 .2Zm-128.7 156.3L957 934.6l2.3.3a132.3 132.3 0 0 1 110.4 110.8l.3 2.3Zm192.5-69.5-1.2-4a178.2 178.2 0 0 0-28.3-54.2l-.8-1.1L1546 491.9l1.7 2.6a131.8 131.8 0 0 1 21.8 62.3l.1 1.2ZM1610 517.6l-1.2-4A179.8 179.8 0 0 0 1491 395.8l-4-1.2 78.1-78h1.2a131.8 131.8 0 0 1 62.4 21.9l.2.1c1.1 1 28.8 23 37.3 37.5a131.7 131.7 0 0 1 21.8 62.2l.1 1.2Z"/><path class="cls-1" d="m1435.8 391 131-101s68 26 72 27 70 91 70 91v60l-107 89s-20-169-166-166Z"/><path class="cls-2" d="M1465 415s99 5 135 130l50-48.1a225.2 225.2 0 0 0-120.4-125.4L1496 357Z"/><path class="cls-2" d="m923 1082 161-90 494-486 19 73-492 497-182 6z"/><path class="cls-1" d="M942 898s141 51 152 172l-200 37Z"/><path d="M1049.4 270.8v39h285.4v170.7l39-39V270.8Zm285.4 1241h-976v-1202h284.6v-39H319.8v1280h1054v-730l-39 39Z"/><path class="cls-2" d="m1363.8 831.2-259 254.8-177 46 134.7 13.8a166.5 166.5 0 0 0 135.4-48.5l165.9-167.6Zm-720.4-530h413v56h-413z"/><path d="M737.4 1187.2h520v51h-520zm0 139h520v51h-520zm-2-769v51h390l51.1-51Zm0 190h250.5l51.2-51H735.4ZM609.8 595.8v112h-112v-112h112m39-39h-190v190h190v-190Zm-39 669v112h-112v-112h112m39-39h-190v190h190v-190Z"/><path d="M247.9 1506.6a17.4 17.4 0 0 1-13-5.7A893.6 893.6 0 0 1 0 896a891 891 0 0 1 70.4-348.8A899 899 0 0 1 547.2 70.4 890.4 890.4 0 0 1 896 0a892.6 892.6 0 0 1 580.3 213.3 17.5 17.5 0 0 1-22.6 26.7A861.3 861.3 0 0 0 896 35C421.2 35 35 421.2 35 896a858.7 858.7 0 0 0 225.8 581.3 17.5 17.5 0 0 1-12.9 29.3ZM896 1792c-179.7 0-353-53-501.4-153.3a17.5 17.5 0 1 1 19.7-29A856.5 856.5 0 0 0 896 1757c474.8 0 861-386.2 861-861a856.9 856.9 0 0 0-59.5-315.3A17.5 17.5 0 1 1 1730 568a891.8 891.8 0 0 1 62 328.1 891 891 0 0 1-70.4 348.8 899 899 0 0 1-476.8 476.8A890.2 890.2 0 0 1 896 1792Z"/></g></g></g></svg>