<svg xmlns="http://www.w3.org/2000/svg" viewBox="0 0 113.8 113.8"><defs><style>.cls-3{fill:#000201}.cls-4{opacity:.3}.cls-5{opacity:.2}</style></defs><g id="Calque_2" data-name="Calque 2"><g id="Calque_1-2" data-name="Calque 1"><g id="Console"><path d="M57 113.8a56.9 56.9 0 1 1 47-25 58.5 58.5 0 0 1-5.8 7.3A1.5 1.5 0 1 1 96 94a55 55 0 0 0 5.5-6.8 53.8 53.8 0 1 0-23 19 1.5 1.5 0 0 1 1.2 2.8 56.5 56.5 0 0 1-22.8 4.8Z" fill="#282525"/><g opacity=".5"><path class="cls-3" d="M34.2 53.7h45v40.9h-45z"/><path class="cls-3" d="M79.6 95.1h-46v-42h46Zm-45-1h44v-40h-44Z"/></g><path class="cls-3" d="M81.6 96.8H32V51.5h49.6Zm-46.6-3h43.6V54.5H35Z"/><path class="cls-3" d="M55.1 69.9h3.4v13.9h-3.4z"/><g class="cls-4"><path class="cls-3" d="M55.1 69.8h4.7v15.3h-4.7z"/></g><path class="cls-3" d="M43.7 53h-4V43a17 17 0 0 1 34 0v9.5h-4V43a13 13 0 0 0-26 0Z"/><path class="cls-3" d="m92.1 36.3-.3-.1v-.4a25.6 25.6 0 0 0-25.3-24 25 25 0 0 0-21.4 12l-.2.4-.4-.1a17.6 17.6 0 0 0-5.9-1 16.7 16.7 0 0 0-8.6 2.3 18 18 0 0 0-8.3 14.3v.4h-.3a19.6 19.6 0 0 0-13.8 19c0 10 9.4 18.5 21.1 19.4v-3.6c-10-.7-17.5-7.5-17.5-15.9 0-7.6 5.5-14.5 12.5-15.6a1.8 1.8 0 0 0 1.5-1.8c0-5.9 2.4-10.5 6.7-13a13.4 13.4 0 0 1 12.8-.6 1.8 1.8 0 0 0 1.4.1 1.8 1.8 0 0 0 1-1 21.6 21.6 0 0 1 34.7-5.4 22.3 22.3 0 0 1 6.5 15.8 1.8 1.8 0 0 0 1.3 1.8 18 18 0 0 1-4.4 35.4h-1.1v3.7h1.1a21.6 21.6 0 0 0 7-42.1Z"/><g class="cls-5"><path class="cls-3" d="M87 72.2s8.7-.7 12-7.7a20.5 20.5 0 0 0 1.6-6.2c1.3-11-6-14.4-9.5-15.5-.8-.2-1.8 1-1 1.5l.1.2c5.7 4 2.8 13-4.2 13h-4.3v15l5.3-.3Z"/></g><g class="cls-5"><path class="cls-3" d="M27.7 66.6c-4 0-7-1.1-8.9-3.4-2.5-3-2.4-7.5-2.1-9.6a1.2 1.2 0 0 0-1-1.3 1.3 1.3 0 0 0-1.5.8c-1.6 4.8-1.4 9 .7 12.3 3.7 6.3 12.3 7.6 12.6 7.6l2.2.2v-6.6Z"/></g><g class="cls-4"><path class="cls-3" d="M82.8 57.2h-1.2v39.4H38v-2.3h-3V97a3 3 0 0 0 2.7 3h44a3 3 0 0 0 2.6-3V59a1.7 1.7 0 0 0-1.5-1.8Z"/></g><g class="cls-4"><path class="cls-3" d="M58.9 32.3c4.5 1 4.5-.4 4.5-.4a10.8 10.8 0 0 0-4.7-2.2l.1-.7s-9.9-.9-13.2 3.2-4.2 15.5-4.2 15.5l.5 4.9 4.4-1v-9.7s-.2-3 2.6-6.4a9.8 9.8 0 0 1 10-3.2Z"/></g></g></g></g></svg>