<svg xmlns="http://www.w3.org/2000/svg" viewBox="0 0 1592.4 1616.7"><defs><style>.cls-3{fill:none;stroke:#000;stroke-miterlimit:10;stroke-width:43px}</style></defs><g id="Calque_2" data-name="Calque 2"><g id="Calque_1-2" data-name="Calque 1"><path d="M1359.2 257.5A803.9 803.9 0 0 0 1236.8 157a19.4 19.4 0 0 0-25.8 3.8 19.4 19.4 0 0 0 4.3 28.6 757.8 757.8 0 0 1 338.8 623c4.5 430.2-353.3 779.8-783.4 765.5-406.1-13.4-732.4-348-732.4-757.4a758 758 0 0 1 353.5-640.7 19.4 19.4 0 0 0 3.7-30A19.4 19.4 0 0 0 371 147 798.5 798.5 0 0 0 0 833.5c4 252.7 125.1 486.3 337.5 638.4a768.8 768.8 0 0 0 322.8 133.6c311.8 51.2 613.2-76 794.2-336.3a764.8 764.8 0 0 0 125.9-308.6c44.7-263.5-38.2-520-221.3-703.1Z" id="élèves"/><path d="M1152.3 809.4c-4.4 4.7-8.8 9.4-13.4 14a484.2 484.2 0 0 1-685.4 0q-12.2-12.2-23.5-25.2c-152.7 66.1-270.6 179.9-341 342 51.8 142.4 200.7 434.5 655 459.5 456 25.2 677-259.8 773.8-431.6-75.9-155.3-205.2-282.1-365.5-358.7Z" style="isolation:isolate" opacity=".5"/><circle cx="796.2" cy="433.7" r="412.2" opacity=".5"/><circle class="cls-3" cx="796.2" cy="433.7" r="412.2"/><path class="cls-3" d="M1508.3 1148.4c-75.8-155.3-195.7-262.4-356-339-4.4 4.8-8.8 9.5-13.4 14a484.2 484.2 0 0 1-685.4 0q-12.2-12.2-23.5-25.1c-152.7 66-270.6 179.8-341 342"/><path d="M384 504.7s167.9 167.9 419.4 158.7 388.5-113.9 388.5-113.9S1083.5 881.8 796.2 846 384 504.7 384 504.7Zm-276 637.5s182 276 664 276c459 0 707.1-269.8 707.1-269.8s-108.1 451-691.1 452.9-680-459.1-680-459.1Z" opacity=".4"/></g></g></svg>