<?xml version="1.0" encoding="utf-8"?>
<!-- Generator: Adobe Illustrator 27.8.1, SVG Export Plug-In . SVG Version: 6.00 Build 0)  -->
<svg version="1.1" id="Calque_2_00000129911043260615207860000003821318373535187337_"
	 xmlns="http://www.w3.org/2000/svg" xmlns:xlink="http://www.w3.org/1999/xlink" x="0px" y="0px" viewBox="0 0 385.7 678"
	 style="enable-background:new 0 0 385.7 678;" xml:space="preserve">
<style type="text/css">
	.st0{fill:#D1DBE0;}
	.st1{fill:#FFD112;}
	.st2{fill:#FFB510;}
	.st3{fill:#2E2C80;}
	.st4{fill:#31254A;}
</style>
<g>
	<path class="st0" d="M201.5,286.8c0.7,1.2,1.4,2.3,2,3.5C203.8,288.4,203.7,286.7,201.5,286.8z"/>
	<path class="st0" d="M271.7,416.4L271.7,416.4c0,0.2,0,0.3,0.1,0.5C271.8,416.7,271.7,416.6,271.7,416.4L271.7,416.4L271.7,416.4z"
		/>
	<path class="st0" d="M194.7,275.7c0.7,1.2,1.5,2.4,2.2,3.6v-0.1L194.7,275.7C194.8,275.7,194.8,275.7,194.7,275.7L194.7,275.7z"/>
	<path class="st0" d="M251,252.4c-0.4-0.6-0.7-1.3-1.1-1.9C250.1,251.2,250.4,251.8,251,252.4z"/>
	<path class="st0" d="M239.5,242.8c1.8,1.6,2.9-1.8,4.8-1.5c-0.4-0.7-0.9-1.4-1.3-2.1l-1.8,1.1C240.8,241.2,240.3,242,239.5,242.8
		L239.5,242.8z"/>
	<path class="st0" d="M272.3,296.3c0.4,0.2,0.8,0.4,1.2,0.6c-0.3-0.7-0.6-1.4-0.9-2.1c-0.5,0.1-1,0.3-1,0.9c0.2,0.2,0.3,0.4,0.5,0.6
		C272.1,296.2,272.2,296.2,272.3,296.3L272.3,296.3z"/>
	<path class="st0" d="M260.3,275.7c0.7,0.1,1.3,0.1,2,0.1l1.3-0.1c-0.5-1-1-2-1.5-3.1C260.8,273.5,258,274.2,260.3,275.7
		L260.3,275.7z"/>
	<path class="st0" d="M247.5,247.4c0.1-0.1,0.2-0.1,0.4-0.2c-0.5-0.9-1-1.7-1.6-2.6c-0.4,0.1-0.9,0.3-1.5,0.4
		c-0.3,0.1-0.1,2.1-0.1,3.2l0,0C245.7,248,246.6,247.7,247.5,247.4L247.5,247.4z"/>
	<path class="st0" d="M267.6,287.4c-0.1,0.4-0.2,0.8-0.3,1.2l-1,1.6c1.4,0.4,2.7,0.8,4.1,1.1c0.2,0,0.4,0,0.6,0
		c-0.5-1.1-1-2.1-1.5-3.2c0,0.1,0,0.3-0.1,0.5c0,0.3-0.9,0.4-1.4,0.6L267.6,287.4L267.6,287.4z"/>
	<path class="st0" d="M226.1,332.5l-0.2-0.1l-0.5-0.3l-0.1-0.1c0.2,0.3,0.3,0.6,0.6,1c0.2-0.1,0.4-0.2,0.6-0.3L226.1,332.5
		L226.1,332.5z"/>
	<path class="st0" d="M310.5,528.1L310.5,528.1h0.2c0.2-2.7,0.4-5.5,0.5-8.2l-0.4,0.1l-0.5,0.1l-0.7-1.2c0.3-0.1,0.7-0.3,0.8-0.2
		c0.2,0.2,0.3,0.3,0.4,0.5s0.2,0.3,0.3,0.5c0.1-2.7,0.3-5.4,0.4-8.1h-0.8c0-0.2-0.1-0.3-0.1-0.5c0-0.1-0.1-0.3-0.1-0.4
		c0.2,0,0.5,0,0.7,0l0,0c0.1,0,0.3,0,0.4,0.1c1-28-0.1-55.9-3.4-83.2c-0.1,0.1-0.3,0.1-0.4,0.2l0,0c0,0.2,0.1,0.4,0.1,0.5l-1.4,0.2
		c-0.1-0.2-0.1-0.5-0.2-0.8l0,0c0.4-0.2,0.8-0.4,1.3-0.5c0,0.1,0,0.2,0.1,0.3c0.1-0.1,0.3-0.1,0.5-0.2c-0.7-5.8-1.5-11.5-2.4-17.2
		H305l-0.2-0.9l0,0c0.3,0,0.6,0,0.9,0.1c-1.2-7.8-2.7-15.6-4.2-23.4h-0.1c-0.3-0.4-0.5-0.7-0.7-1.1l0,0l0,0l0,0l0.5-0.1
		c-0.3-1.3-0.6-2.6-0.8-3.9c-0.5,0-0.9-0.1-1.4-0.3l0.1-0.2c-0.2,0.1-0.4,0.2-0.7,0.4l0.1,0.5l-1.4,0.2c-0.1-0.2-0.1-0.5-0.2-0.8
		l0,0c0.4-0.2,0.8-0.4,1.3-0.5c0,0.1,0,0.2,0.1,0.3c0.3-0.1,0.6-0.3,1.1-0.5l0,0l0.7-0.1c-2.3-10.3-4.9-20.5-7.8-30.6l-1.1,0.1
		c-0.1-0.2-0.1-0.5-0.2-0.8l0,0c0.3-0.1,0.6-0.3,1-0.4c-2.4-8.3-5.1-16.4-8-24.5c-0.2,0.1-0.4,0.2-0.6,0.3c-0.2,0.1-0.4,0.2-0.6,0.3
		l0,0l0,0l0,0l-0.9-3.4l1-0.2c-0.5-1.3-0.9-2.5-1.4-3.8c-0.1,0.1-0.2,0.1-0.4,0.2c-0.1-0.3-0.1-0.6-0.2-0.9l0.2-0.1
		c-1-2.8-2.1-5.5-3.2-8.3c-0.1,0-0.2-0.1-0.3-0.2c-0.3-0.7-0.5-1.4-0.6-2c-0.1-0.2-0.1-0.3-0.2-0.5c-0.2,0-0.4,0.1-0.6,0.1
		c0,0.1,0.1,0.3,0.2,0.4l-3.7,0.4l-1.3-2.6c1.2-0.3,2.5-1,3.5-0.7c0.5,0.2,0.8,1,1.1,1.9l0,0c0.2,0,0.4,0,0.6,0
		c-0.5-1.3-1.1-2.7-1.7-4c-0.9-0.1-1.8-0.1-2.7-0.3c-0.3,0-0.5-0.1-0.8-0.1c-0.5-0.1-1.4-1.5-1.2-1.9c0.4-0.7,0.9-1.2,1.6-1.6
		c-0.5-0.5-1-0.9-1.4-1.2c-0.2-0.1-0.3-0.3-0.5-0.4c-1.7-1.4-2.7-1.7-4-0.4c0.2,0.6,0.4,1.2,0.6,1.9l0,0l-1.6-0.3l1-1.5
		c-2-1.1-3.6-3.1-6.4-2c-0.3,0.1-1.2-1-1.8-1.6c0.6-0.4,1.2-0.8,1.9-1c1.7-0.3,3.4-0.4,5.1-0.5l2.1-0.5c0.2-1.2,0.3-2.4,0.3-3.6
		c0.4,0.1,0.8,0.1,1.1,0.2c-0.9-1.8-1.7-3.7-2.6-5.5c-0.3,0.1-0.6,0.2-1,0.3c0.1-0.4,0.1-0.8,0.3-1.7c-0.4-0.9-0.9-1.7-1.3-2.6
		c-0.1,0.4-0.2,1-0.3,1c-0.5,0-1-0.1-1.5-0.3l0.2-0.4c-0.2,0.1-0.4,0.1-0.6,0.2c0.1,0,0.2,0.1,0.3,0.1l-3.3,1.2
		c-0.6-1.2-1-2.5-1.2-3.8c0-0.1,0-0.2,0-0.3l0,0c0.4-2,2-2.6,3.7-2.9c-0.4-0.8-0.9-1.7-1.3-2.5c-0.4,0-0.8-0.1-1.1-0.2l-1.9,0.6
		c0.1-0.5,0.2-1.1,0.3-1.6l0,0l-0.7-0.4c0-0.5-0.1-0.9-0.1-1.4c0.4,0.1,1.1,0.2,1.1,0.3c0,0.5-0.1,1-0.3,1.5l0.8,0.5l0.3,0.2
		l0.2,0.1l0,0c0.2-0.1,0.4-0.3,0.7-0.5h0.2c-1.4-2.5-2.7-5.1-4.1-7.6c-0.2,0.4-0.5,0.9-0.8,1.2l0.6,1.9l-1.6-0.3l-1.9,0.6
		c0.1-0.5,0.2-1.1,0.3-1.6l0,0l-0.6-1.9l1.6,0.3c0.2-0.5,0.6-1.1,1-1.5c0.2-0.1,0.4-0.2,0.5-0.2c-0.9-1.6-1.8-3.1-2.7-4.7
		c-0.2,1.1-0.7,2.3-1.3,3.3c-1.7,2.9-1.8,2.9-3.8-0.8l-2.9,0.3c-0.1-0.8-0.1-1.5-0.2-2.3c-2.1-1.3-2.3,0.9-3.3,1.7
		c-0.9,0.5-1.8,0.8-2.8,1l-1.9,0.6c0.1-0.5,0.2-1.1,0.3-1.6c-2-1.9-0.5-3.9,1-3.4l0,0c4.4,1.4,5.8-1.8,8-4c-3.5-0.1-5.4-1.9-5.3-5.5
		l0,0l-1.1-0.7l-1,0.7c-0.3,0.4-0.5,0.8-0.9,1.2c-0.8,0.7-1.6,1.3-2.4,1.9c-0.2-0.2-0.3-0.5-0.5-0.7l-2.6,1.6c1,0,2.1,0.3,3.1,1.1
		c0.1,0.1,0.2,0.2,0.4,0.3c0.4-0.2,0.8-0.5,1.2-0.8c1.4,0.7,2.3,1.1,3.1,1.6c0.1,0,0.1,0.1,0.2,0.1s-0.2,0.8-0.4,1.1
		c-0.7-0.2-1.4-0.5-2.1-0.8c-1.8,1.3-3.4,2.7-4.9,4.3l0,0l-2.9-5.5l-3,1.9c0.8,2.2,3.4,3.3,5.5,4.8c0.7,0.5,0.7,1.8,1.1,2.8
		c0.8,0.5,1.6,1,2.3,1.5c1.9,1.3,3.8,3,5.9,0.1c0.2-0.2,2,0.8,3.1,1.2c0.3,0,0.6,0.1,0.9,0.1c-0.1-0.3-0.3-0.6-0.4-0.9l3.1,0.5
		l1.5,2.2c-1.2-0.3-2.4-0.6-3.6-1c-2.6,1.6-5.6,2.8-8.6,3.4c2.2,1.6,0.1,2.8-0.4,4.1c0.9-0.2,1.9-0.5,2.7-1c1.5-1,2-0.8,1.6,1
		c-0.2,0.8-0.3,1.6-0.4,2.4c0.7-0.5,1.7-0.8,1.9-1.5c0.5-1.2,0.4-2.8,0.9-4c0.4-0.9,1.3-1.5,2-2.3l1.4,3l0,0c1.1-0.2,2.1-0.6,3-1.3
		l1.4-0.1c-0.1,0.4-0.2,1.1-0.3,1.1l0,0c-0.5,0-1-0.1-1.5-0.3l-2.5,0.6c-1.3,2.4,1.1,2.5,2.1,3.5c1,0.5,0.7-0.1,0.5-0.8
		c1.2-0.3,2.6-1,3.5-0.6c0.6,0.2,0.7,2,1.1,3.1c-0.6,0.2-1.3,0.2-1.9,0.2c-0.6-0.1-1-0.6-2.1-1.2c-1.4-0.1-1.7,0.4-2,0.9
		c1.2,1.6,4.9,1,3.7,4.5c1.1,0.6,2.1,1.2,3,2c0.5,0.5,0.6,1.4,0.9,2.1l-2.8,1c0,0.8,0.1,1.5,0.2,2.3c0.2,1,0.6,1.9,0.9,2.8l4.1,0.4
		c0.1-0.2,0.3-0.5,0.5-0.7l1.4-0.1c-0.1,0.4-0.2,1.1-0.3,1.1c-0.5,0-1-0.1-1.5-0.3c-0.1,0.1-0.1,0.1-0.2,0.2c-0.3,0.5-0.5,1-0.8,1.4
		c0,0.1-0.1,0.2-0.1,0.3c-0.4,0.7-1.3,0.8-2,0.4l0,0c-0.6-0.3-0.7-1.8-1-2.7c-1.3-0.5-2.5-2.6-4.1-0.4c0.1,1,0.2,2,0.3,3
		c-0.8,0.1-1.6,0.2-2.3,0.1c-1.8-0.6-3-2.2-2.9-4.1c-0.3-2.6-1.4-3-4.1-3.2c-2-0.1,0.6-2,0.7-3.2l-1.6-1l-1.9,0.6
		c0.1-0.5,0.2-1.1,0.3-1.6c-1.2-1.3-2.9-3.9-3.6-3.6c-3.2,1-1.4-2.8-3.2-2.9c-1,1.3-2.4,4.2-3.7,1.8c-2.9-5.4-3.2-0.4-4.4,0.7
		c-0.2,0.2-0.4,0.5-0.5,0.8c1.9,0.3,3.9,0.8,5.7,1.5c2.6,1.2,4.3,2.5,0.3,4.7c-0.3,0.2-0.6,0.5-0.9,0.8c-1.3,1.6-1,4,0.6,5.4
		c0.4,0.3,0.2,1.5,0.3,2.3l1.6,1l-2.5,0.6c0,0.8-0.1,1.6-0.1,2.4c0,2-0.4,3.3-2.8,2.3l-1,1.6c0.2,0.9,0.4,1.7,0.6,2.5l3.1,2
		c0.7,0.2,0.5-0.7,0.3-1.7c-0.1-0.5-0.2-1.1-0.2-1.7c0.6,0,1.3-0.2,1.7,0.1c1.1,0.9,2.1,2,2.9,3.1c0.4,0.6,0.1,1.5,0.2,2.3
		c-0.8-0.3-1.6-0.5-2.4-0.8c-0.5-0.3-1.1-0.6-1.5-1c-0.8-0.2-1.1-0.1-1.2,0.1v0.1c-0.1,0.9-0.1,1.8-0.2,2.8l-2.9-1.3l-1,1.6
		c1.2,1.6,4.9,1,3.7,4.5l0,0l1.6,1l0.4-0.7l1.4-0.1c-0.1,0.4-0.2,1.1-0.3,1.1c-0.5,0-0.9-0.1-1.3-0.2c-0.2,0.5-0.3,1-0.4,1.6
		c-0.1,0.6-0.4,1.3-0.5,1.9l0,0l0,0l0,0c-0.5-0.2-1.5-0.5-1.5-0.7c0.2-1.3,0.4-2.6,0.8-3.8l0,0L222,306l-3.5,2.1
		c-1.5-0.8-3-1.8-4.4-2.8c-0.6-0.5-0.6-1.8-0.9-2.6c-0.2-0.9-0.4-1.7-0.6-2.5c-1.4-0.7-4.4,0.7-3.9-2.7c0.3-1.1,0.4-2.2,0.5-3.3
		c-0.1-0.8-0.4-1.5-0.8-2.2c-0.1-0.2-0.2-0.5-0.3-0.7c-0.6,0.6-1.2,1.3-1.8,1.8c-0.2,0.2-0.5,0.5-0.7,0.7c3.2,5.7,6.3,11.5,9.3,17.3
		c0.1-0.2,0.1-0.4,0.1-0.6l0,0l1.6,1c-0.1,0.5-0.2,1.1-0.3,1.6c0,0.2-0.1,0.4-0.1,0.5c1.8,3.6,3.6,7.2,5.2,10.8
		c0.6-0.8,1.5-1.5,1.6-2.4c-0.2-0.6-0.4-1.2-0.6-1.9l1.6,0.3c1-1,1.1-3.5,3.5-2.1c0.8-1.3,1.6-2.6,2.5-3.8c0.1-0.2,0.9,0,1.4,0.1
		c0.1,0,0.3,0.6,0.1,0.8c-0.8,1.3-1.6,2.6-2.4,3.9c3.4-1.4,3.9,2.2,5.3,3.6c1.2,1.2-0.4,1.4-1.6,0.9c-0.6-0.2-1.9-0.2-2.2,0.2l0,0
		c-3.6,4.6-1.5-2.7-3.4-1.6l-2.5,0.6c-0.1,2.7-0.1,3.1-1.9,4.1c0.7,1.5,1.4,3,2.1,4.6c0-0.6,0-1.2,0.1-1.8c0-0.1,0-0.2,0.1-0.4
		c0.1-0.2,0.5-0.3,0.9-0.3c0.3,0,0.6-0.1,0.8-0.1c0,0.7,0.1,1.4,0.1,2l0.1,2l0,0l2.2,4.9c-0.6-0.2-1.2-0.4-1.8-0.7
		c0.4,1,0.9,2,1.3,3c0.2-0.1,0.4-0.2,0.6-0.3l0,0l1.4-0.1c-0.1,0.4-0.2,1.1-0.3,1.1c-0.5,0-1-0.1-1.4-0.3c0.4,1,0.8,2,1.2,3l0,0
		c0,0.1,0.1,0.3,0.1,0.5c1.3,3.1,2.5,6.3,3.7,9.4l0,0l0,0c0.3,0,0.7,0,1,0.1c0.1,0,0.1,0.5,0.2,0.8c-0.3,0-0.6,0-0.9-0.1
		c1.5,4,3,8,4.4,12c0.6-0.1,1.2-0.3,2.8-1.9c0-0.1,0-0.2,0-0.3c0.1-1.4,0.5-2.8,1.2-4c0-0.1,0.1-0.1,0.2-0.2
		c0.9-0.2,1.8-0.2,2.7-0.1c-0.2,0.7-0.4,1.4-0.6,2.1l-1.1-0.2c0.1,0.8,0.1,1.7,0.1,2.5l0,0c0,0.2,0,0.4-0.1,0.5
		c-0.2,0.6-1.3,1-1.9,1.5c-0.1-0.3-0.2-0.7-0.3-1c-0.1,0.2-0.3,0.3-0.5,0.5c-0.8,0.2-1.6,0.4-2.4,0.7c2.7,7.7,5.1,15.4,7.3,23.2
		c0.4-0.1,0.9-0.1,1.4-0.1c0.3-0.2,0.6-0.4,1-0.7l1.4-0.1c-0.1,0.4-0.2,1.1-0.3,1.1c-0.4,0-0.9-0.1-1.3-0.2
		c-0.1,0.1-0.3,0.2-0.4,0.4c-0.2,0.4-0.4,0.7-0.7,1c-0.2,0.1-0.3,0.2-0.5,0.4c0.3,1,0.6,2,0.8,3c0.4,0.1,1,0.2,1.1,0.3
		c0,0.5-0.1,1-0.3,1.5l-0.2-0.1c0.1,0.2,0.2,0.4,0.4,0.7l0.6-0.1c0.1,0.5,0.1,0.9,0.2,1.4c-0.2,0.1-0.4,0.1-0.6,0.1
		c0.5,1.9,0.9,3.8,1.4,5.6h0.1l-0.1,0.1c3.5,14.2,6.1,28.5,8,42.9c0.2-0.1,0.5-0.2,0.6-0.1c0.3,0.4,0.5,0.7,0.7,1.1l-0.9,0.2
		l-0.4-0.7c1.6,12.2,2.6,24.5,3,36.7c0-0.2,0-0.4,0-0.5l0.9-0.2l0,0c0,0.5-0.1,0.9-0.2,1.4c0,0.1-0.5,0.1-0.7,0.2
		c0.1,4.6,0.2,9.2,0.2,13.7c0.1,0,0.1,0,0.2,0l0.1,0.1c0.1,0.2,0.1,0.5,0.1,0.7l0,0h-0.4c0,1.4,0,2.7,0,4.1l0.4-0.1l0.5-0.1l0.7,1.2
		c-0.3,0.1-0.7,0.3-0.8,0.2c-0.2-0.2-0.3-0.4-0.4-0.5l0,0c-0.1-0.2-0.2-0.4-0.3-0.6c-0.2,16-1.5,31.9-3.8,47.7l1.3-0.1
		c-0.1,0.4-0.2,1.1-0.3,1.1c-0.4,0-0.7-0.1-1.1-0.2c-6.4,43.8-20.7,86.3-43,126.1c7-2,71-21,74-24c12.4-40.9,20-83,22.9-125.1
		C310.6,528.8,310.6,528.4,310.5,528.1L310.5,528.1z M262.6,281.4c0.5,0.9,0.8,1.8,0.9,2.7c0,0.1-0.3,0.2-0.6,0.3l0,0
		c-0.4,0.1-0.8,0.2-1.1,0.4c-0.1-0.6-0.3-1.1-0.5-1.7s-0.3-1.1-0.5-1.7C261.5,281.4,262.4,281.2,262.6,281.4L262.6,281.4z
		 M257.5,283.5l-1.4-0.1c-0.1-0.3-0.1-0.6-0.2-0.9c0.5,0,0.9,0.1,1.3,0.2C257.4,282.7,257.4,283.2,257.5,283.5L257.5,283.5
		L257.5,283.5z M214.7,309.9L214.7,309.9l-0.7-0.4c-0.1-0.5-0.1-0.9-0.1-1.4l0,0c0.4,0.1,1.1,0.2,1.1,0.3
		C214.9,309,214.8,309.5,214.7,309.9L214.7,309.9z M218.2,307.8l2.5,2.2l-4.5,0.9L218.2,307.8L218.2,307.8z M220.9,316.8
		c-0.4,0.3-0.7,0.5-1.1,0.7l-0.2-0.9l1.2-0.6l0,0C220.7,316.2,221,316.7,220.9,316.8L220.9,316.8z M223.1,315l-0.2-0.9
		c0.2,0,0.5,0,0.7,0s0.4,0,0.7,0.1c0.1,0,0.1,0.5,0.2,0.8H223.1z M230.1,305.8l-0.5,0.1l-0.4,0.1c0-0.1,0-0.2,0-0.3l0,0
		c0-0.3,0.1-0.7,0.1-1c0.1-0.1,0.5-0.1,0.8-0.2C230.1,304.9,230.1,305.4,230.1,305.8L230.1,305.8z M237.8,637.9
		c0-0.2-0.1-0.3-0.1-0.5s-0.1-0.3-0.1-0.4c0.2,0,0.5,0,0.7,0l0,0c0.2,0,0.4,0.1,0.7,0.1c0.1,0,0.1,0.5,0.2,0.8L237.8,637.9z
		 M248.2,609.1c-0.4-0.2-0.9-0.4-1.3-0.6c0.5-0.7,1-1.4,1.6-2l0,0l0,0l0,0c0.4,0.2,0.7,0.4,1,0.6
		C249.1,607.7,248.7,608.4,248.2,609.1L248.2,609.1z M250.3,654.1l-0.1,0.1c-0.2,0.1-0.5,0.1-0.7,0.1c0-0.3,0-0.7,0.1-1l0,0
		c0-0.1,0.1-0.2,0.1-0.3c0.1-0.2,0.5-0.1,0.8-0.2C250.5,653.2,250.4,653.6,250.3,654.1L250.3,654.1z M252.6,584L252.6,584
		c-0.2-0.4-0.4-0.8-0.5-1.3l0.3-0.1c-0.1-0.3-0.3-0.6-0.5-1.1c-0.1-0.5-0.1-0.9-0.1-1.4c0.4,0.1,1.1,0.2,1.1,0.3
		c0,0.5-0.1,1-0.3,1.5l-0.2-0.2c0.1,0.2,0.2,0.4,0.4,0.7l0,0l0.6-0.1c0.1,0.5,0.1,0.9,0.2,1.4C253.1,583.9,252.8,584,252.6,584
		L252.6,584z M303.5,418.9h0.2c0.1,0,0.2,0,0.3,0.1c0.1,0,0.2,0.1,0.2,0.1c0,0.5-0.1,1-0.3,1.5l-0.2-0.1c0.1,0.2,0.2,0.4,0.4,0.7
		l0.5-0.1c0,0.5,0.1,0.9,0.2,1.4c-0.2,0.1-0.5,0.1-0.8,0.2l0,0c-0.2-0.4-0.4-0.8-0.5-1.3l0.3-0.1c-0.1-0.3-0.3-0.6-0.5-1.1l-0.1-1.4
		C303.3,418.8,303.4,418.9,303.5,418.9L303.5,418.9z M303.3,438.3c-0.4,0.3-0.7,0.5-1.1,0.7l-0.2-0.9l0,0l1.2-0.7
		C303.2,437.8,303.4,438.2,303.3,438.3L303.3,438.3z M302.4,407c0.3,0.4,0.5,0.7,0.7,1.1l-0.9,0.2l0,0c-0.2-0.4-0.4-0.8-0.7-1.2
		C301.9,407.1,302.3,406.9,302.4,407L302.4,407z M300.3,418.7c0.1,0.2,0.1,0.5,0.1,0.7l-1.4-0.1c0-0.2-0.1-0.3-0.1-0.5
		s-0.1-0.3-0.1-0.4c0.1,0,0.2,0,0.3,0c0.3,0,0.7,0,1,0.1C300.2,418.7,300.3,418.7,300.3,418.7L300.3,418.7z M299.4,423.7
		c-0.2,0.1-0.5,0.1-0.7,0.1c0-0.3,0-0.7,0.1-1c0-0.1,0-0.2,0.1-0.3c0-0.1,0.2-0.1,0.3-0.1c0.2,0,0.4,0,0.5-0.1c0,0.2,0,0.5,0,0.7
		C299.7,423.2,299.6,423.4,299.4,423.7L299.4,423.7C299.5,423.6,299.5,423.7,299.4,423.7L299.4,423.7z M297.9,437.9
		c0.2-0.2,0.4-0.3,0.5-0.4c0.2-0.1,0.4-0.2,0.6-0.3c0,0.1,0.1,0.3,0.1,0.4l0.1,0.5l0,0l-1.2,0.6C298,438.4,297.8,438,297.9,437.9z
		 M297.3,433.5l-0.7-1.2c0.3-0.1,0.7-0.3,0.8-0.2l0,0c0.3,0.4,0.5,0.7,0.7,1.1L297.3,433.5L297.3,433.5z M299.1,428.4
		c-0.6,0.4-1.2,0.6-1.8,0.7c0.1-0.5,0.2-1.1,0.4-2.6l0,0l1.7,0.3C299.3,427.3,299.4,428.1,299.1,428.4z M296.7,414.9
		c0.3-0.1,0.7-0.3,0.8-0.2c0.3,0.4,0.5,0.7,0.7,1.1l0,0l0,0l0,0l-0.9,0.2L296.7,414.9L296.7,414.9z M295.2,385.1
		c0,0.5-0.1,1-0.3,1.5c0.1,0.2,0.3,0.3,0.5,0.5c0.9,0.5,1.8,0.8,2.5,1.3c0.8,0.5,1.2,1.2,0.7,2.8c0.1,0.2,0.1,0.4,0.1,0.6l0.5-0.1
		c0.1,0.5,0.1,0.9,0.2,1.4c-0.2,0.1-0.5,0.1-0.8,0.2l0,0c-0.2-0.4-0.4-0.8-0.5-1.3l0.4-0.1c-1.5-1.5-3.2-1.9-3.7-3.1
		c-0.2-0.6-0.2-1.2,0-1.8c-0.2-0.2-0.5-0.4-0.7-0.6l0,0c0-0.5-0.1-0.9-0.1-1.4C294.5,384.9,295.2,385,295.2,385.1L295.2,385.1z
		 M295.3,411.2l0.4-0.1c0,0.5,0.1,0.9,0.2,1.4c-0.2,0.1-0.5,0.1-0.8,0.2l0,0c-0.1-0.2-0.2-0.5-0.3-0.7c-0.4-0.5-0.8-0.9-1.2-1.3
		c0.8-1.5,1.2-2.4,1.7-3.3c0-0.1,0.8,0.2,1.1,0.4l0,0c-0.2,0.8-0.5,1.5-0.9,2.2c-0.1,0.1-0.2,0.2-0.5,0.2
		C295.1,410.4,295.2,410.8,295.3,411.2L295.3,411.2z M295.7,392.4c-0.3,0-0.7,0-1-0.1c-0.1,0-0.2,0-0.3-0.1c-0.1,0-0.1-0.5-0.2-0.8
		c0.5,0,0.9,0.1,1.4,0.2l0,0C295.6,391.7,295.6,392.1,295.7,392.4L295.7,392.4z M294.6,399.9c0,0.5-0.1,1-0.3,1.5l-0.2-0.1
		c0.1,0.2,0.2,0.4,0.4,0.7l0.5-0.1c0,0.5,0.1,0.9,0.2,1.4c-0.2,0.1-0.5,0.1-0.8,0.2l0,0c-0.2-0.4-0.4-0.8-0.5-1.3l0.3-0.1
		c-0.1-0.3-0.3-0.6-0.5-1.1l0,0c0-0.5-0.1-0.9-0.1-1.4C293.9,399.7,294.6,399.8,294.6,399.9L294.6,399.9z M292.7,395.5
		c-0.1,0-0.2,0-0.3-0.1l0,0c-0.1,0-0.1-0.5-0.2-0.8c0.5,0,0.9,0.1,1.4,0.2l0.1,0.1c0.1,0.2,0.1,0.5,0.1,0.7
		C293.3,395.5,293,395.5,292.7,395.5L292.7,395.5z M292.2,418.6l-1.4-0.1l-0.1-0.5l-0.1-0.4c0.1,0,0.2,0,0.3,0l0,0
		c0.3,0,0.7,0,1,0.1C292.1,417.9,292.1,418.4,292.2,418.6z M292.8,433.2L292.8,433.2c0.1,0.3,0.3,0.7,0.2,0.8
		c-0.4,0.3-0.7,0.5-1.1,0.7c-0.1-0.3-0.1-0.6-0.2-0.9L292.8,433.2z M293.8,466.9l0.1,0.1c0.1,0.2,0.1,0.5,0.1,0.7
		c-0.3,0-0.7,0-1-0.1l0,0c-0.1,0-0.2,0-0.3-0.1c-0.1,0-0.1-0.5-0.2-0.8C292.9,466.7,293.4,466.8,293.8,466.9L293.8,466.9z
		 M295,430.6c0.1,0.2,0.1,0.5,0.1,0.7c-0.3,0-0.7,0-1-0.1c-0.1,0-0.2,0-0.3-0.1c-0.1,0-0.1-0.5-0.2-0.8
		C294.1,430.3,294.5,430.4,295,430.6L295,430.6C294.9,430.5,295,430.5,295,430.6L295,430.6z M295.1,454.6c0.1,0.2,0.1,0.5,0.1,0.7
		c-0.3,0-0.7,0-1-0.1c-0.1,0-0.2,0-0.3-0.1c-0.1,0-0.1-0.5-0.2-0.8C294.2,454.3,294.6,454.4,295.1,454.6L295.1,454.6
		C295,454.5,295.1,454.6,295.1,454.6L295.1,454.6z M294.8,484.9c0.3,0.4,0.5,0.7,0.7,1.1l0,0l0,0l0,0l-0.9,0.2l-0.7-1.2
		C294.2,485,294.7,484.8,294.8,484.9L294.8,484.9z M294.2,378.1c0-0.1,0.5-0.1,0.8-0.2c0,0.5,0,0.9-0.1,1.4l-0.9,0.2l0,0
		C294,379,294,378.5,294.2,378.1L294.2,378.1z M292.9,373.3c0-0.1,0-0.2,0.1-0.3c0-0.1,0.5-0.1,0.8-0.2c0,0.5-0.1,0.9-0.2,1.4l0,0
		l-0.1,0.1c-0.2,0.1-0.5,0.1-0.7,0.1C292.9,374,292.9,373.7,292.9,373.3L292.9,373.3z M291.3,376.3c0.2,0,0.5,0.1,0.7,0.1
		c0.1,0,0.1,0.5,0.2,0.8l-1.4-0.1l0,0l-0.1-0.5c0-0.1-0.1-0.3-0.1-0.4C290.8,376.3,291,376.3,291.3,376.3L291.3,376.3z M291.9,388
		H290l-0.6-1l-0.6-1l0,0c0.4-0.1,0.9-0.1,1.3-0.1c0.1,0,0.2,0,0.3,0.1C291,386.6,291.5,387.2,291.9,388L291.9,388z M286.4,516.2
		L286.4,516.2L286.4,516.2c0-0.1-0.1-0.3-0.1-0.4c0-0.2-0.1-0.3-0.1-0.5l1.2-0.7c0.1,0.3,0.3,0.7,0.2,0.8
		C287.1,515.8,286.8,516,286.4,516.2L286.4,516.2L286.4,516.2z M286,485.2L286,485.2L286,485.2c0-0.2-0.1-0.3-0.1-0.5
		c0-0.1-0.1-0.3-0.1-0.4c0.1,0,0.2,0,0.3,0c0.3,0,0.7,0,1,0.1c0.1,0,0.1,0.5,0.2,0.8H286L286,485.2z M285.3,494.2l0.1,0.1
		c0.1,0.2,0.1,0.5,0.1,0.7c-0.3,0-0.7,0-1-0.1c-0.1,0-0.2,0-0.3-0.1c-0.1,0-0.1-0.3-0.2-0.6c0-0.1,0-0.2,0-0.2c0.2,0,0.5,0,0.7,0
		l0,0C284.9,494.1,285.1,494.1,285.3,494.2L285.3,494.2z M284.9,480.4l-0.2-0.9l1.2-0.7l0,0c0.1,0.3,0.3,0.7,0.2,0.8
		C285.7,480,285.3,480.2,284.9,480.4L284.9,480.4z M283.7,457.6L283.7,457.6L283.7,457.6c0-0.2-0.1-0.3-0.1-0.5l-0.1-0.4
		c0.1,0,0.2,0,0.3,0c0.3,0,0.7,0,1,0.1c0.1,0,0.1,0.5,0.2,0.8H283.7L283.7,457.6L283.7,457.6z M282.5,358c0.3-0.1,0.7-0.3,0.8-0.2
		c0.3,0.4,0.5,0.7,0.7,1.1l-0.9,0.2l0,0L282.5,358L282.5,358z M282.8,389c0.2-0.1,0.4-0.2,0.6-0.3h0.1c0.5-0.4,0.9-0.8,1.3-1.2
		c1.5,0.8,2.4,1.2,3.3,1.7c0.1,0-0.2,0.8-0.4,1.1c-0.8-0.2-1.5-0.5-2.2-0.9c-0.1-0.1-0.2-0.2-0.2-0.5c-0.3,0.1-0.6,0.2-1,0.4
		c0,0.1,0.1,0.3,0.1,0.4l0,0l-1.4,0.2C282.9,389.5,282.9,389.2,282.8,389C282.8,389,282.8,388.9,282.8,389L282.8,389z M284.4,354.9
		l1.4,0.1c0.1,0.3,0.1,0.6,0.2,0.9c-0.5,0-0.9-0.1-1.4-0.2C284.5,355.6,284.5,355.2,284.4,354.9L284.4,354.9z M286.7,378.2
		L286.7,378.2L286.7,378.2l1.7,0.3c-0.1,0.5,0,1.3-0.3,1.6c-0.6,0.4-1.2,0.6-1.8,0.7C286.4,380.2,286.5,379.7,286.7,378.2
		L286.7,378.2z M287.1,396.1c0.6-0.2,1.3-0.2,2-0.1c0.2,0.1,0.4,0.3,0.5,0.5s0.3,0.5,0.5,0.8l-1.2,0.8l-0.2,0.2l0,0
		C287.8,397,287.5,396.6,287.1,396.1z M288.3,413.4L288.3,413.4c0,0.5-0.1,1-0.3,1.5c0,0.1-0.1,0.2-0.2,0.2
		c-0.1-0.2-0.3-0.4-0.5-0.7c0-0.5-0.1-0.9-0.1-1.4C287.6,413.2,288.3,413.3,288.3,413.4L288.3,413.4z M286.4,410.6
		c-0.5,0-0.9-0.1-1.4-0.2c-0.1,0-0.1-0.5-0.2-0.8c0.5,0,0.9,0.1,1.4,0.2l0.1,0.1l0,0C286.4,410.1,286.4,410.4,286.4,410.6z
		 M286.3,416.1c0,0,0.1,0.1,0.1,0.2c0.6-0.2,1-0.6,1.4-1.1l0.2-0.2l0.6,1.9l-1.6-0.3h-0.6c0,0.2,0.1,0.5,0.1,0.7l0,0h-2.2
		c-0.4-0.7-0.6-1.2-0.9-1.6C284.4,415.6,285.4,415.8,286.3,416.1L286.3,416.1z M286.5,449.3l0.5-0.1c0,0.5,0.1,0.9,0.2,1.4
		c-0.2,0.1-0.5,0.1-0.8,0.2l0,0c-0.2-0.4-0.4-0.8-0.5-1.3l0.3-0.1c-0.1-0.3-0.3-0.6-0.5-1.1c0-0.5-0.1-0.9-0.1-1.4
		c0.4,0.1,1.1,0.2,1.1,0.3l0,0c0,0.5-0.1,1-0.3,1.5l-0.2-0.1C286.2,448.8,286.4,449,286.5,449.3L286.5,449.3z M285.2,464.3
		L285.2,464.3l0.9-0.2c0.2,0.4,0.4,0.8,0.7,1.2c-0.3,0.1-0.7,0.3-0.8,0.2C285.7,465.1,285.4,464.7,285.2,464.3L285.2,464.3
		L285.2,464.3z M284.8,439l-0.2-0.9l1.2-0.7l0,0c0.1,0.3,0.3,0.7,0.2,0.8C285.6,438.6,285.2,438.8,284.8,439L284.8,439z M286.2,433
		l-0.2-0.9c0.5,0,0.9,0.1,1.4,0.2c0.1,0,0.1,0.5,0.2,0.8L286.2,433L286.2,433z M287.4,442.5l-0.7-1.2c0.3-0.1,0.7-0.3,0.8-0.2l0,0
		c0.3,0.4,0.5,0.7,0.7,1.1L287.4,442.5z M288.1,429.8c-0.1,0-0.1-0.5-0.2-0.8c0.5,0,0.9,0.1,1.4,0.2l0.1,0.1
		c0.1,0.2,0.1,0.5,0.1,0.7l0,0c-0.3,0-0.7,0-1-0.1C288.3,429.8,288.2,429.8,288.1,429.8L288.1,429.8z M289.2,462.1l0.9-0.2l0,0
		c0,0.5-0.1,0.9-0.2,1.4c0,0.1-0.5,0.1-0.8,0.2C289.1,463,289.1,462.5,289.2,462.1L289.2,462.1z M289.2,421.7c-0.1,0-0.2,0-0.3-0.1
		c-0.1,0-0.1-0.5-0.2-0.8c0.5,0,0.9,0.1,1.4,0.2l0.1,0.1c0.1,0.2,0.1,0.5,0.1,0.7l0,0C289.9,421.8,289.5,421.8,289.2,421.7
		L289.2,421.7z M289.1,361.9l0.9-0.2l0,0c0,0.5-0.1,0.9-0.2,1.4c0,0.1-0.5,0.1-0.8,0.2C289,362.8,289,362.3,289.1,361.9L289.1,361.9
		z M289,369c0.4-0.3,0.7-0.5,1.1-0.7c0.1,0.3,0.1,0.6,0.2,0.9l0,0l-1.2,0.7C289.1,369.6,288.9,369.2,289,369z M288.8,374.4
		c0.1,0,0.1,0.5,0.2,0.8l-1.4-0.1l-0.2-0.9C287.9,374.3,288.4,374.3,288.8,374.4L288.8,374.4z M286.8,335.7c0.1,0.3,0.3,0.7,0.2,0.8
		l0,0c-0.4,0.3-0.7,0.5-1.1,0.7l-0.2-0.9L286.8,335.7L286.8,335.7z M285.6,348.1c0.6,0.5,1.2,1.1,1.8,1.8c-0.4,0.2-1,0.7-1.2,0.6
		l0,0c-0.7-0.5-1.4-1-2.1-1.7C284.8,348.4,285.4,347.9,285.6,348.1L285.6,348.1z M284.9,339.2c0,0.2,0.1,0.3,0.1,0.5
		c0,0.1,0.1,0.3,0.1,0.4c-0.2,0-0.5,0-0.7,0l0,0c-0.2,0-0.5-0.1-0.7-0.1l-0.1-0.1c-0.1-0.2-0.1-0.5-0.1-0.7L284.9,339.2L284.9,339.2
		z M284.5,343.4l0.1,0.1c0.1,0.2,0.1,0.5,0.1,0.7l-1.4-0.1l0,0l-0.2-0.9C283.6,343.2,284,343.3,284.5,343.4L284.5,343.4z
		 M281.3,332.2l1.9-0.6c-0.1,0.5-0.2,1.1-0.3,1.6c0.1,1,0.2,2,0.3,2.9l-2.3,0.2l-2.5,0.6c-0.3,0.5-0.6,1-0.9,1.4
		c-0.8,0.6-1.5,1.2-2.4,1.7c0.2-0.9,0.5-1.8,0.9-2.6c0-0.1,0.1-0.2,0.2-0.3c0.4-0.3,1.2-0.2,1.9-0.2c0.5-0.5,0.9-1,1.2-1.6
		c-0.7-1.2-1.4-2.4-2.1-3.5c-0.3,0.5-0.6,1-0.9,1.4c-0.8,0.6-1.5,1.2-2.4,1.7c0.2-0.9,0.5-1.8,0.9-2.6c0-0.1,0.1-0.2,0.2-0.3l0,0
		c0.4-0.3,1.2-0.2,1.9-0.2c0.5-0.5,0.9-1,1.2-1.5L281.3,332.2L281.3,332.2z M280.4,375.2l0.1-0.2c-0.2,0.1-0.4,0.2-0.7,0.4
		c0,0.2,0.1,0.4,0.1,0.5l-1.4,0.2c-0.1-0.2-0.1-0.5-0.2-0.8l0,0c0.4-0.2,0.8-0.4,1.3-0.5c0,0.1,0,0.2,0.1,0.3
		c0.3-0.1,0.6-0.3,1.1-0.5l1.4-0.1c-0.1,0.4-0.2,1.1-0.3,1.1l0,0C281.4,375.5,280.9,375.4,280.4,375.2L280.4,375.2z M280.1,412.1
		c0-0.5-0.1-0.9-0.1-1.4c0.4,0.1,1.1,0.2,1.1,0.3c0,0.4,0,0.8-0.2,1.1c0,0.1-0.1,0.2-0.1,0.4l0.6,1.9l0,0l-1.6-0.3l0.8-1.3
		C280.5,412.6,280.4,412.4,280.1,412.1L280.1,412.1z M281.6,471.8c0-0.3,0-0.7,0.1-1c0-0.1,0-0.2,0.1-0.3c0-0.1,0.5-0.1,0.8-0.2l0,0
		l0,0l0,0c0,0.5-0.1,0.9-0.2,1.4C282.4,471.8,281.9,471.8,281.6,471.8L281.6,471.8z M282.2,491.8c0,0.5,0,0.9-0.1,1.4l-0.9,0.2l0,0
		c0-0.5,0.1-0.9,0.2-1.4C281.4,491.9,281.9,491.9,282.2,491.8L282.2,491.8z M281.6,452.8c-0.2,0.4-1,0.5-1.5,0.7l0,0
		c0.1-0.8,0.1-1.6,0.2-2.3l1.8-0.8C282,451.2,281.9,452,281.6,452.8z M280.8,468l-1.4-0.1l-0.1-0.5l-0.1-0.4l0,0c0.1,0,0.2,0,0.3,0
		c0.3,0,0.7,0,1,0.1C280.7,467.3,280.7,467.8,280.8,468z M280.8,438.6c0,0.5-0.1,0.9-0.2,1.4c0,0.1-0.5,0.1-0.8,0.2l0,0l0,0l0,0
		c0-0.5,0-0.9,0.1-1.4L280.8,438.6L280.8,438.6z M280.3,460.1c0.1,0.3,0.3,0.7,0.2,0.8c-0.2,0.2-0.4,0.3-0.5,0.4
		c-0.2,0.1-0.4,0.2-0.6,0.3l-0.1-0.4l0,0l-0.1-0.5L280.3,460.1z M279.4,434.9c0,0,0,0.1-0.1,0.1c-0.2,0.1-0.5,0.1-0.7,0.1l0,0
		c0-0.5,0.1-0.9,0.2-1.4c0-0.1,0.5-0.1,0.8-0.2C279.6,434,279.5,434.4,279.4,434.9L279.4,434.9z M278.7,401.6c0,0.2-0.1,0.5-0.2,0.7
		c-0.6,0.4-1.2,0.6-1.8,0.7c0.1-0.5,0.2-1.1,0.4-2.6l1.2,0.2l0.5,0.1C278.8,401,278.8,401.3,278.7,401.6L278.7,401.6L278.7,401.6z
		 M276.1,424.1l1.2-0.7c0.1,0.3,0.3,0.7,0.2,0.8c-0.2,0.2-0.4,0.3-0.5,0.4c-0.2,0.1-0.4,0.2-0.6,0.3c0-0.1-0.1-0.3-0.1-0.4l0,0
		C276.2,424.4,276.1,424.2,276.1,424.1z M275.2,396.4c0,0.2,0.1,0.4,0.1,0.5l-1.4,0.2c-0.1-0.2-0.1-0.5-0.2-0.8l0,0
		c0.4-0.2,0.8-0.4,1.3-0.5c0,0.1,0,0.2,0.1,0.3c0.3-0.1,0.6-0.3,1.1-0.5l1.4-0.1c-0.1,0.4-0.2,1.1-0.3,1.1l0,0c-0.5,0-1-0.1-1.5-0.3
		l0.1-0.2C275.7,396.1,275.5,396.3,275.2,396.4L275.2,396.4z M272.4,460.5l0.3-0.1c-0.1-0.3-0.3-0.6-0.5-1.1c0-0.5-0.1-0.9-0.1-1.4
		c0.1,0,0.2,0,0.3,0.1c0.4,0.1,0.8,0.1,0.8,0.3c0,0.5-0.1,1-0.3,1.5l-0.2-0.1c0.1,0.2,0.2,0.4,0.4,0.7l0.5-0.1
		c0.1,0.5,0.1,0.9,0.2,1.4c-0.2,0.1-0.5,0.1-0.8,0.2l0,0l0,0C272.7,461.4,272.6,460.9,272.4,460.5L272.4,460.5z M270,429.7l0.1-0.2
		c-0.2,0.1-0.4,0.2-0.7,0.4c0,0.2,0.1,0.4,0.1,0.5l-1.4,0.2c-0.1-0.2-0.1-0.5-0.2-0.8l0,0c0.4-0.2,0.8-0.4,1.3-0.5
		c0,0.1,0,0.2,0.1,0.3c0.3-0.1,0.6-0.3,1.1-0.5l1.4-0.1c-0.1,0.4-0.2,1.1-0.3,1.1l0,0C271,430,270.5,429.9,270,429.7L270,429.7z
		 M268.3,536.3l0.3-0.1c-0.1-0.3-0.3-0.6-0.5-1.1c0-0.5-0.1-0.9-0.1-1.4c0.4,0.1,1.1,0.2,1.1,0.3c0,0.5-0.1,1-0.3,1.5l-0.2-0.2
		c0.1,0.2,0.2,0.4,0.4,0.7l0.5-0.1c0,0.5,0.1,0.9,0.2,1.4c-0.2,0.1-0.5,0.1-0.8,0.2l0,0l0,0C268.6,537.2,268.4,536.8,268.3,536.3
		L268.3,536.3z M267.8,446.5c-0.4,0.3-0.7,0.5-1.1,0.7l-0.2-0.9l1.2-0.7C267.7,445.9,267.9,446.4,267.8,446.5L267.8,446.5
		L267.8,446.5z M264,415.7c0.4,0.1,0.7,0.4,1,0.6l0,0c-0.4,0.7-0.8,1.4-1.3,2c-0.5-0.2-0.9-0.4-1.3-0.6
		C262.9,417.1,263.4,416.4,264,415.7L264,415.7z M261.5,406.9c0-0.5,0.1-0.9,0.2-1.4c0-0.1,0.5-0.1,0.8-0.2l0,0l0,0l0,0
		c0,0.5,0,0.9-0.1,1.4L261.5,406.9L261.5,406.9z M264.2,463.8c0-0.1,0.5-0.1,0.8-0.2l0,0l0,0c0,0.5,0,0.9-0.1,1.4l-0.9,0.2
		C264,464.7,264.1,464.2,264.2,463.8L264.2,463.8z M264.9,386.1c0.8-0.4,1.6-0.8,2.4-1.1c0-0.2-0.1-0.5-0.1-0.7
		c0-0.5-0.1-0.9-0.1-1.4c0.4,0.1,1.1,0.2,1.1,0.3c0,0.5-0.1,1-0.3,1.5l-0.1-0.1l0.1,0.2l0,0c0.2-0.1,0.7,1.2,1.5,2.4
		c-0.9,0.3-1.8,0.5-2.8,0.6c-0.2,0-0.3,0-0.5,0l0,0C265.6,387.8,265.3,386.7,264.9,386.1L264.9,386.1z M260.7,426.6
		c-0.4,0.3-0.7,0.5-1.1,0.7l-0.2-0.9l1.2-0.7C260.6,426.1,260.8,426.5,260.7,426.6L260.7,426.6L260.7,426.6z M259.2,414.1
		L259.2,414.1L259.2,414.1l-0.1-0.4l-0.1-0.5l1.2-0.7c0.1,0.3,0.3,0.7,0.2,0.8C260,413.6,259.6,413.9,259.2,414.1L259.2,414.1
		L259.2,414.1z M258.4,393.2l1.2-0.7c0.1,0.3,0.3,0.7,0.2,0.8c-0.2,0.2-0.4,0.3-0.5,0.4l0,0c-0.2,0.1-0.4,0.2-0.6,0.3
		C258.6,393.9,258.5,393.6,258.4,393.2L258.4,393.2z M258.6,399.5l-0.4,0.1l-0.5,0.1l-0.7-1.2c0.3-0.1,0.7-0.3,0.8-0.2l0,0
		c0.2,0.2,0.3,0.3,0.4,0.5C258.3,399.1,258.4,399.3,258.6,399.5L258.6,399.5z M260,401.9l0.7,1.2c-0.3,0.1-0.7,0.3-0.8,0.2l0,0
		c-0.3-0.4-0.5-0.7-0.7-1.1L260,401.9z M260.5,389.4c-0.2,0.4-1,0.4-1.5,0.6c0-0.4-0.1-0.8-0.1-1.2c-0.2,0.2-0.4,0.5-0.6,0.8
		c-0.9,0.2-1.7,0.4-2.5,0.6c1.3-0.3,2.4-1,3.1-2.2l0,0l0,0l0,0l2.2-0.8C261,388,260.8,388.7,260.5,389.4L260.5,389.4z M253.9,393.8
		l0.5-0.1c0.1,0.5,0.1,0.9,0.2,1.4c-0.2,0.1-0.5,0.1-0.8,0.2l0,0c-0.2-0.4-0.4-0.8-0.5-1.3l0.4-0.1c-0.2-0.4-0.4-0.8-0.6-1.2
		c-1.1-1.3,0.6-2.3,1.1-3.5l1.1,0.7l0,0h0.1l0.4,0.2l-2,3.1C253.9,393.5,253.9,393.7,253.9,393.8L253.9,393.8z M250.7,400L250.7,400
		L250.7,400l-0.2-0.9l1.2-0.7c0.1,0.3,0.3,0.7,0.2,0.8C251.4,399.6,251.1,399.8,250.7,400L250.7,400z M251.5,383.1l0.1-0.2
		c-0.2,0.1-0.4,0.2-0.7,0.4c0,0.2,0.1,0.4,0.1,0.5l-1.4,0.2c-0.1-0.2-0.1-0.5-0.2-0.8l0,0c0.4-0.2,0.8-0.4,1.3-0.5
		c0,0.1,0,0.2,0.1,0.3c0.3-0.1,0.6-0.3,1.1-0.5l1.4-0.1l0,0c-0.1,0.4-0.2,1.1-0.3,1.1C252.5,383.3,252,383.3,251.5,383.1
		L251.5,383.1z M250.2,353.3c-0.1,0.1-0.5,0.1-0.8,0.2c0-0.5,0.1-0.9,0.1-1.4l0.9-0.2C250.4,352.4,250.3,352.9,250.2,353.3
		L250.2,353.3z M248.4,349.1c0.1-2,0.2-4,0.3-6c0.8,0.3,2.3,0.5,2.3,0.8l0,0c0,0.3,0,0.6,0,0.9c0.4-0.3,0.8-0.6,1.3-1.1l1.4-0.1
		c-0.1,0.4-0.2,1.1-0.3,1.1c-0.4,0-0.7,0-1-0.2c-0.3,0.3-0.8,0.8-1.3,1.4c0,1.1-0.1,2.2-0.2,3.4L248.4,349.1L248.4,349.1z
		 M245.1,337.7l0.3-0.5l-0.7,0.2C244.8,337.6,245,337.7,245.1,337.7c0,0-0.3,0.7-0.5,0.7c-1.7,0.3-3.4,0.4-4.9,0.6
		c-0.2-0.4-0.4-0.8-0.6-1.2c0,0,0,0,0-0.1c0.2-0.4,0.6-0.8,1-0.9c1.1-0.2,2.3-0.2,3.4-0.1c0.3,0.1,0.6,0.2,0.9,0.5
		c0.3-0.1,0.7-0.1,1.1-0.2l1.4-0.1c-0.1,0.4-0.2,1.1-0.3,1.1l0,0C246.1,338,245.6,337.9,245.1,337.7L245.1,337.7z M236.9,333.5
		l-1.4,0.2c-0.1-0.2-0.1-0.5-0.2-0.8l0,0c0.4-0.2,0.7-0.3,1.1-0.4c1.1-1.6,1.9-3.4,2.3-5.3c1,0.9,3.3,1.1,2.3,3.1l0,0
		c-0.7,1.3-0.9,3.9-3.7,2.6c-0.2,0.1-0.4,0.1-0.6,0.1C236.8,333.2,236.9,333.4,236.9,333.5z M235.9,317.8c0.2,0,0.5,0,0.7,0
		s0.4,0,0.7,0.1c0.1,0,0.1,0.5,0.2,0.8l-1.4-0.1l-0.1-0.5l0,0C236,318.1,235.9,317.9,235.9,317.8z M236.5,314.6
		c0-0.2-0.1-0.3-0.1-0.5s-0.1-0.3-0.1-0.4c0.1,0,0.2,0,0.3,0c0.3,0,0.7,0,1,0.1c0.1,0,0.1,0.5,0.2,0.8l0,0l0,0l0,0H236.5
		L236.5,314.6z M237.4,311.1c-0.3-0.5-0.5-1-0.7-1.5c0.6,0,1.2-0.2,1.7,0c1.3,0.7,2.6,1.6,3.9,2.4l0,0c5.2,3.1,5.8,2.9,9.8-2.5
		c-0.8,0-1.5,0-2.3,0.2c0.1,0.7-0.3,1.4-1,1.6s-1.4-0.3-1.6-1c-0.2-0.7,0.3-1.4,1-1.6c-0.1-0.6-0.3-1.1-0.6-1.6
		c-0.1-0.2-0.2-0.4-0.2-0.5l1-1.6l4.7,2.9l0.4-0.7l1.4-0.1l0,0l0,0l0,0c-0.1,0.4-0.2,1.1-0.3,1.1c-0.5,0-1-0.1-1.5-0.3l-0.5,0.8
		l-0.2,0.3l-0.1,0.2l-0.2,0.3l0,0c0.2,0.1,0.7,0.4,0.7,0.5c-0.7,1.5-1.2,3-1.4,4.6c0.2,1.5,0.8,2.9,1.5,4.1c0.1,0.2,0.2,0.5,0.4,0.7
		l0.4-0.2l2.2,4.6c-0.3,0.2-0.7,0.3-1,0.3c-0.1,0-0.1,0-0.2,0c-1.7-0.2-3.3-0.5-4.9-1c-0.4-0.1-0.8-1.4-0.8-1.4
		c1.1-0.6,2.1-1.2,3.2-1.8c-1.1-1.1-2.5-2-4.1-2.4c-0.3-0.1-0.6-0.1-0.9-0.2c-0.7-0.1-1.9-0.2-2.2,0.1c-3.6,4.6-1.6-2.6-3.4-1.6
		c-0.2,0.1-0.4,0.1-0.6,0.1l0.1,0.5l-1.4,0.2c-0.1-0.2-0.1-0.5-0.2-0.8l0,0c0.2-0.1,0.5-0.2,0.8-0.3
		C241.7,312.4,238.5,312.7,237.4,311.1L237.4,311.1z M237.4,298.1L237.4,298.1l-0.6-1.9l1.6,0.3L237.4,298.1L237.4,298.1z
		 M238.8,305.5l0.4,0.2l-1.9,0.6c0.1-0.5,0.2-1.1,0.3-1.6l0.4,0.3l0,0L238.8,305.5L238.8,305.5z M244.2,307.2
		c-1.8,0.1-3.6-0.4-5-1.5l2-3.1l6.2,3.9C246.3,307,245.3,307.2,244.2,307.2L244.2,307.2L244.2,307.2z M237.6,304.8L237.6,304.8
		l-0.7-0.4c-0.1-0.5-0.1-0.9-0.1-1.4l0,0l0,0l0,0c0.4,0.1,1.1,0.2,1.1,0.3C237.9,303.8,237.8,304.3,237.6,304.8L237.6,304.8z
		 M247.7,303.1L247.7,303.1l1.6,0.3c-0.3,0.5-0.6,1-1,1.6L247.7,303.1z M249.6,301.4c-0.1-0.5-0.1-0.9-0.1-1.4l0,0
		c0.1,0,0.2,0,0.3,0.1h0.2c0.1,0,0.2,0,0.3,0.1c0.1,0,0.2,0.1,0.2,0.1c0,0.5-0.1,1-0.3,1.5l0,0l0.6,1.9l-1.6-0.3l0.8-1.3
		C250,301.9,249.8,301.7,249.6,301.4L249.6,301.4z M255,313.9c0.1,0,0.1,0.5,0.2,0.8l-1.4-0.1l-0.2-0.9
		C254.2,313.8,254.6,313.8,255,313.9L255,313.9z M275.9,374.2c-0.2-0.6-0.2-1.3-0.1-2l0,0c0.1-0.4,0.8-0.6,1.3-1
		c0.4,0.6,0.8,1.2,1,1.4L275.9,374.2z M278.4,387c0,0.5,0,0.9-0.1,1.4l0,0l-0.9,0.2c0-0.5,0.1-0.9,0.2-1.4
		C277.6,387.1,278.1,387.1,278.4,387L278.4,387z M275,350.3l1,1.4l-2.1,1.5c-0.2-0.6-0.2-1.3-0.1-2l0,0
		C273.8,350.9,274.5,350.7,275,350.3z M274.9,342.4L274.9,342.4L274.9,342.4l0.9-0.2l0.7,1.2c-0.3,0.1-0.7,0.3-0.8,0.2
		C275.4,343.2,275.1,342.8,274.9,342.4L274.9,342.4L274.9,342.4z M273.2,369.5L273.2,369.5L273.2,369.5c0.5-0.6,1.1-1.2,1.8-1.8
		c0.2,0.4,0.7,1,0.6,1.2c-0.5,0.7-1,1.4-1.7,2.1C273.5,370.3,273.1,369.6,273.2,369.5L273.2,369.5L273.2,369.5z M272.6,361.6
		L272.6,361.6c0-0.5,0-0.9,0.1-1.4l0.9-0.2c0,0.5-0.1,0.9-0.2,1.4C273.4,361.5,272.9,361.5,272.6,361.6L272.6,361.6z M272.6,326.4
		c0.1-0.5,0.2-1.1,0.3-1.6l1.6,1L272.6,326.4L272.6,326.4z M273.3,377.3c0.4,0.2,0.4,1,0.6,1.5l-1.3,0.1c0.2,0.2,0.5,0.5,0.8,0.9
		v-0.2c0.5,0.3,1,0.6,1.4,0.9c0.6,0.8,1.2,1.5,1.7,2.4c-0.9-0.2-1.8-0.5-2.6-0.9c-0.1,0-0.2-0.1-0.3-0.2c-0.2-0.3-0.3-0.6-0.2-1
		c-0.4-0.4-0.8-1-1.5-1.8l0,0c-0.3-0.9-0.6-1.6-0.8-2.2C271.8,376.7,272.5,377,273.3,377.3L273.3,377.3z M267.3,352.1
		c0.3,0.4,0.5,0.7,0.7,1.1l-0.9,0.2c-0.2-0.4-0.4-0.8-0.7-1.2l0,0C266.7,352.2,267.2,352,267.3,352.1L267.3,352.1z M267.2,349.4
		c0-0.5,0.1-0.9,0.2-1.4c0-0.1,0.5-0.1,0.8-0.2c0,0.5,0,0.9-0.1,1.4L267.2,349.4L267.2,349.4L267.2,349.4z M268.5,361.3L268.5,361.3
		c0.6,0.5,1.2,1.1,1.8,1.8c-0.4,0.2-1,0.7-1.2,0.6c-0.7-0.5-1.4-1-2.1-1.7C267.7,361.6,268.3,361.1,268.5,361.3L268.5,361.3z
		 M270.7,341.2c0.1,0.2,0.1,0.5,0.1,0.7c-0.3,0-0.7,0-1-0.1c-0.1,0-0.2,0-0.3-0.1c-0.1,0-0.1-0.3-0.2-0.6c0-0.1,0-0.2,0-0.2
		c0.2,0,0.5,0,0.7,0C270.1,341,270.4,341.1,270.7,341.2l-0.1-0.1C270.6,341.1,270.6,341.2,270.7,341.2L270.7,341.2z M270.8,354
		c0,0.5,0,0.9-0.1,1.4l-0.5,0.1l-0.4,0.1c0-0.3,0-0.7,0.1-1l0,0c0-0.1,0-0.2,0.1-0.3C270.1,354,270.5,354,270.8,354L270.8,354z
		 M268.9,373.2c0.3,0,0.7,0,1,0.1l0.1,0.1c0.1,0.2,0.1,0.5,0.1,0.7l0,0c-0.3,0-0.7,0-1-0.1c-0.1,0-0.2,0-0.3-0.1
		c-0.1,0-0.1-0.2-0.1-0.3c0-0.2,0-0.4-0.1-0.5C268.7,373.2,268.8,373.2,268.9,373.2L268.9,373.2z M270.3,388.9
		c0.3,0.4,0.5,0.7,0.7,1.1l0,0l0,0l0,0l-0.9,0.2l-0.7-1.2C269.8,389,270.2,388.8,270.3,388.9z M271.3,337.6c-0.7,0.1-1.5,0.1-2.2,0
		c-1.1-0.4-1.4-0.8-1.3-1.2c-0.1,0.1-0.1,0.2-0.2,0.3c-0.3,0.5-0.6,1-1,1.6c1.9,1.8,0.9,3.2-1,3.4c-1.2,0.2-2.7-1-1.6-2.9l-2.5-2.3
		c0.9-0.5,1.9-0.9,2.9-1.1c1.1,0.2,2.1,0.6,3.1,1.2c0.1-0.2,0.3-0.5,0.5-0.8v-0.1l0,0c0.3-0.5,0.6-1.1,1-1.8l2.3-1.2
		C271.4,334.3,271.4,335.9,271.3,337.6L271.3,337.6z M264.8,350.9c-0.4,0.3-0.7,0.5-1.1,0.7c-0.1-0.3-0.1-0.6-0.2-0.9l1.2-0.7l0,0
		C264.6,350.3,264.9,350.7,264.8,350.9L264.8,350.9z M257.9,376.7L257.9,376.7L257.9,376.7l-1-2.1l3.9-0.4c-0.1,0.5,0,1.4-0.4,1.5
		C259.6,376.1,258.8,376.4,257.9,376.7L257.9,376.7z M258.9,368c0-0.1,0.1-0.1,0.2-0.2c0-0.5,0-1.1,0-1.8c0-0.5-0.1-0.9-0.1-1.4
		c0.4,0.1,1.1,0.2,1.1,0.3c0,0.5-0.1,1-0.3,1.5l-0.6-0.4c0.1,0.4,0.2,0.8,0.3,1.4c0.3-0.2,0.7-0.3,1-0.5c-0.2,1-0.3,2.1-0.5,3.1
		l-2.2,1.5C258,370.4,258.4,369.2,258.9,368L258.9,368L258.9,368z M260.5,362.6c-0.5-0.9-0.8-1.8-0.9-2.7c0-0.3,0.8-0.6,1.3-0.9
		c0.5,1.2,0.9,2.5,1.4,3.8l0,0C261.6,362.6,260.7,362.8,260.5,362.6L260.5,362.6z M261.8,346c1.1,2.9,0.2,4.5-2.9,4.7
		c-0.2,0.1-0.4,0.1-0.6,0.1l0.1,0.5l-1.4,0.2c-0.1-0.2-0.1-0.5-0.2-0.8l0,0c0.2-0.1,0.5-0.2,0.7-0.3l0,0
		C259,347.5,259.2,347.4,261.8,346L261.8,346z M254.1,370l-1.5-2.1c0.6-0.2,1.3-0.2,2-0.1l0,0c0.4,0.1,0.6,0.8,1,1.3L254.1,370
		L254.1,370z M254.4,387.7c0,0.5-0.1,1-0.3,1.5H254l-0.6-0.4c-0.1-0.5-0.1-0.9-0.1-1.4l0,0C253.7,387.5,254.4,387.5,254.4,387.7
		L254.4,387.7z M253.1,358.5c0.1,0,0.1,0.5,0.2,0.8l-1.4-0.1l-0.1-0.5l-0.1-0.4c0.1,0,0.2,0,0.3,0l0,0
		C252.5,358.3,252.8,358.4,253.1,358.5L253.1,358.5z M252,335.6c-0.1-0.5-0.1-0.9-0.1-1.4c0.4,0.1,1.1,0.2,1.1,0.3l0,0
		c0,0.1,0,0.2,0,0.4c-0.1,0.3-0.1,0.6-0.2,0.9c0.1,0.1,0.2,0.3,0.4,0.5c-0.1-0.1-0.3-0.2-0.4-0.2c0.1,0.1,0.3,0.2,0.4,0.2l0.3,0.2
		c0.2,0.1,0.5,0.3,0.7,0.5c0.6,0.8,1.2,1.5,1.7,2.4c-0.9-0.2-1.8-0.5-2.7-0.9c-0.1,0-0.2-0.1-0.3-0.2c-0.2-0.3-0.3-0.6-0.2-1
		c0-0.2,0-0.4,0-0.6C252.5,336.3,252.3,336,252,335.6L252,335.6z M254.8,328.2c-0.3-0.4-0.5-0.7-0.7-1.1l0,0l0,0l0,0l0.9-0.2
		l0.7,1.2C255.3,328.1,254.9,328.3,254.8,328.2L254.8,328.2z M256.5,332.2l0.2,0.9c-0.5,0-0.9-0.1-1.4-0.2l0,0
		c-0.1,0-0.1-0.5-0.2-0.8L256.5,332.2L256.5,332.2z M255.3,361.5c0-0.5,0.1-0.9,0.1-1.4l0.5-0.1l0,0l0.4-0.1c0,0.1,0,0.2,0,0.3
		c0,0.3,0,0.7-0.1,1C256,361.4,255.5,361.4,255.3,361.5L255.3,361.5z M255.6,357.4c0-0.5,0.1-0.9,0.1-1.4l0,0l0.9-0.2
		c0,0.5-0.1,0.9-0.2,1.4C256.4,357.4,255.9,357.4,255.6,357.4z M255.3,348.1c-0.2-0.6-0.2-1.3-0.1-2l0,0c0.1-0.2,0.3-0.4,0.5-0.5
		s0.5-0.3,0.8-0.5l0.3,0.4l0.7,1L255.3,348.1L255.3,348.1z M258.4,341.7c-0.2,0.1-0.5,0.1-0.8,0.2c0,0.1,0,0.2,0.1,0.3l-1.4,0.2
		c-0.1-0.2-0.1-0.5-0.2-0.8l0,0c0.4-0.2,0.8-0.4,1.3-0.5l0.1,0.6c0.2,0,0.4-0.1,0.6-0.1l0,0l2.9-0.3c0.1,0.8,0.1,1.5,0.2,2.3
		L258.4,341.7L258.4,341.7z M259.2,311.1c-0.5,0-1-0.1-1.5-0.3l0.1-0.2c-0.2,0.1-0.4,0.2-0.7,0.4l0.1,0.5l0,0l-1.4,0.2
		c-0.1-0.2-0.1-0.5-0.2-0.8l0,0c0.4-0.2,0.8-0.4,1.3-0.5c0,0.1,0,0.2,0.1,0.3c0.3-0.1,0.6-0.3,1.1-0.5l1.4-0.1
		C259.4,310.4,259.3,311.1,259.2,311.1L259.2,311.1z M243.7,326.7l0.8-0.2c0.1,0.5,0.1,0.9,0.2,1.4c-0.2,0.1-0.5,0.1-0.8,0.2l0,0
		c-0.2-0.4-0.4-0.8-0.5-1.3h0.1c-0.2-0.3-0.4-0.6-0.7-1.1l-1.4-2c1.6-0.2,3.1-0.5,4.7-0.6l0,0c0.2,0,0.5,0.9,0.8,1.4l-4,1.1
		C243,325.9,243.3,326.3,243.7,326.7L243.7,326.7z M238.8,320.2c0.2-0.4,1-0.5,1.5-0.7l0,0c-0.1,0.8-0.1,1.6-0.2,2.3l-1.8,0.8
		C238.4,321.8,238.6,321,238.8,320.2L238.8,320.2z M244.4,331.5l0.1,0.3l-1.4,0.2c-0.1-0.2-0.1-0.5-0.2-0.8l0,0
		c0.4-0.2,0.8-0.4,1.3-0.5c0,0.2,0.1,0.4,0.1,0.6c0.2,0,0.4-0.1,0.6-0.1l0,0c1.3-0.2,2.4-1,3.1-2.2l2.2-0.8
		c-0.1,0.8-0.3,1.5-0.6,2.3c-0.2,0.4-0.9,0.4-1.5,0.6c0-0.4-0.1-0.8-0.1-1.2c-0.2,0.2-0.4,0.5-0.6,0.8
		C246.4,330.8,245.4,331.2,244.4,331.5L244.4,331.5z M250.3,340c-0.5,0-0.9-0.1-1.4-0.2c-0.1,0-0.1-0.5-0.2-0.8l1.4,0.1
		C250.2,339.4,250.2,339.7,250.3,340L250.3,340z M247.6,355.3c0.1-0.1,0.5-0.1,0.8-0.2c0,0.5-0.1,0.9-0.2,1.4l-0.1,0.1l0,0
		c-0.2,0.1-0.5,0.1-0.7,0.1c0-0.3,0-0.7,0.1-1C247.5,355.5,247.5,355.4,247.6,355.3L247.6,355.3z M247.8,334.8
		c0-0.2-0.1-0.3-0.1-0.5l-0.1-0.4c0.2,0,0.5,0,0.7,0s0.4,0,0.7,0.1l0,0c0.1,0.1,0.1,0.5,0.2,0.8H247.8L247.8,334.8z M250.8,364
		L250.8,364c0.3,0,0.7,0,1,0.1c0.1,0,0.1,0.5,0.2,0.8l-1.4-0.1c0-0.2-0.1-0.3-0.1-0.5c0-0.1-0.1-0.3-0.1-0.4
		C250.5,364,250.6,364,250.8,364L250.8,364z M251.9,370.3c0,0.5-0.1,0.9-0.1,1.4l0,0l-0.9,0.2c0-0.5,0.1-0.9,0.2-1.4
		C251.1,370.4,251.6,370.4,251.9,370.3L251.9,370.3z M255.1,378.5L255.1,378.5L255.1,378.5L255.1,378.5c-0.1-0.1-0.1-0.5-0.2-0.8
		c0.5,0,0.9,0.1,1.4,0.2c0.1,0,0.1,0.5,0.2,0.8C256,378.6,255.6,378.6,255.1,378.5L255.1,378.5z M260.6,382.8l-0.8-2.2
		c0.8,0.1,1.6,0.3,2.3,0.6c0.4,0.2,0.4,1,0.6,1.5l-1.6,0.1c0.3,0.4,0.6,0.8,1,1.2l0.8-0.2c0,0.5,0.1,0.9,0.2,1.4
		c-0.2,0.1-0.5,0.1-0.8,0.2l0,0l0,0c-0.2-0.3-0.3-0.6-0.4-1C261.5,383.8,261,383.3,260.6,382.8L260.6,382.8z M261.9,390.8
		c0.3-0.1,0.7-0.3,0.8-0.2c0.3,0.4,0.5,0.7,0.7,1.1l-0.9,0.2L261.9,390.8L261.9,390.8z M263.3,357.4c0.5-0.7,1-1.4,1.6-2
		c0.4,0.1,0.7,0.4,1,0.6c-0.4,0.7-0.8,1.4-1.3,2l0,0C264.2,357.9,263.8,357.6,263.3,357.4L263.3,357.4z M265.8,363.9L265.8,363.9
		c0.4,0.1,0.6,0.8,1,1.3l-1.4,1l-1.5-2.1C264.4,363.9,265.1,363.8,265.8,363.9z M264.7,379.4L264.7,379.4c0.5-0.6,1.1-1.2,1.8-1.7
		c0.2,0.4,0.7,1,0.6,1.2c-0.5,0.7-1,1.4-1.7,2.1C265.1,380.2,264.6,379.6,264.7,379.4L264.7,379.4z M265,393
		c0.4-0.2,0.8-0.4,1.3-0.5c0,0.1,0,0.2,0.1,0.3c0.3-0.1,0.6-0.3,1.1-0.5l1.4-0.1c-0.1,0.4-0.2,1.1-0.3,1.1c-0.5,0-1-0.1-1.5-0.3
		l0.1-0.2c-0.2,0.1-0.4,0.2-0.7,0.4c0,0.2,0.1,0.4,0.1,0.5l0,0l0,0l0,0l-1.4,0.2C265.1,393.6,265.1,393.3,265,393
		C265,393.1,265,393,265,393L265,393z M266.1,423.3c0.3,0.4,0.5,0.7,0.7,1.1l0,0l0,0l0,0l-0.9,0.2l-0.7-1.2
		C265.5,423.4,266,423.2,266.1,423.3L266.1,423.3z M267.5,404c-0.1-0.2-0.1-0.5-0.2-0.8l0,0c0.4-0.2,0.8-0.4,1.3-0.5
		c0,0.1,0,0.2,0.1,0.3c0.3-0.1,0.6-0.3,1.1-0.5l1.4-0.1c-0.1,0.4-0.2,1.1-0.3,1.1c-0.5,0-1-0.1-1.5-0.3l0.1-0.2
		c-0.2,0.1-0.4,0.2-0.7,0.4c0,0.2,0.1,0.4,0.1,0.5L267.5,404L267.5,404z M268.2,465.6l-0.2-0.9l1.2-0.7l0,0c0.1,0.3,0.3,0.7,0.2,0.8
		C269,465.1,268.6,465.4,268.2,465.6L268.2,465.6z M268.9,454.7c-0.2-0.2-0.3-0.4-0.4-0.5c-0.1-0.2-0.2-0.4-0.3-0.6l0.4-0.1l0.5-0.1
		l0,0c0.2,0.4,0.4,0.8,0.7,1.2C269.4,454.6,269,454.8,268.9,454.7L268.9,454.7z M268.7,437.1c-0.1,0-0.2,0-0.3-0.1
		c-0.1,0-0.1-0.5-0.2-0.8c0.5,0,0.9,0.1,1.4,0.2c0.1,0,0.1,0.5,0.2,0.8l0,0C269.4,437.1,269,437.1,268.7,437.1L268.7,437.1z
		 M271,425.2l1.2-0.7l0,0c0.1,0.3,0.3,0.7,0.2,0.8c-0.4,0.3-0.7,0.5-1.1,0.7L271,425.2z M272.5,451.2l0.7,1.2l0,0
		c-0.3,0.1-0.7,0.3-0.8,0.2c-0.3-0.4-0.5-0.7-0.7-1.1L272.5,451.2L272.5,451.2z M273,448.5c-0.2,0.1-0.5,0.1-0.7,0.1
		c0-0.3,0-0.7,0.1-1c0-0.1,0-0.2,0.1-0.3c0-0.1,0.5-0.1,0.8-0.2C273.3,447.6,273.2,448,273,448.5L273,448.5
		C273.1,448.4,273.1,448.5,273,448.5L273,448.5z M273.4,437.6l-0.5,0.1l-0.7-1.2c0.3-0.1,0.7-0.3,0.8-0.2c0.2,0.2,0.3,0.4,0.4,0.5
		l0,0c0.1,0.2,0.2,0.4,0.3,0.6L273.4,437.6L273.4,437.6z M271.9,417.3L271.9,417.3l0.4,1.8h-0.4l-1.7,0.2c-0.3-0.8-0.5-1.6-0.6-2.4
		c0-0.1,0-0.2,0-0.3c0.1-0.5,1.2-0.9,1.9-1.3c0.1,0.3,0.1,0.7,0.2,1c0.2-0.2,0.3-0.3,0.5-0.5l0,0l2.5-0.6
		C274.1,415.4,273.5,415.6,271.9,417.3L271.9,417.3z M279.7,369.4l0.9-0.2l0.7,1.2l0,0c-0.3,0.1-0.7,0.3-0.8,0.2
		C280.2,370.2,279.9,369.8,279.7,369.4z M282.1,364.8c-0.5,0-1-0.1-1.5-0.3l0.3-0.4c-0.2,0.1-0.5,0.2-0.9,0.3
		c0.1,0.2,0.1,0.6,0.1,0.9l-2.2-0.1l-0.9-1.6c0.9,0.2,1.8,0.3,2.6,0.5c0.4,0,0.9-0.1,1.4-0.2l0,0l1.4-0.1
		C282.3,364,282.2,364.8,282.1,364.8z M278.6,346.9l-0.9,0.2l-0.7-1.2l0,0c0.3-0.1,0.7-0.3,0.8-0.2
		C278.2,346.1,278.4,346.5,278.6,346.9L278.6,346.9z M278.4,340.3c0.1,0,0.2,0,0.3,0c0.3,0,0.7,0,1,0.1c0.1,0,0.1,0.5,0.2,0.8l0,0
		l-1.4-0.1c0-0.2-0.1-0.3-0.1-0.5C278.5,340.5,278.4,340.4,278.4,340.3L278.4,340.3z M280.8,353.7c-0.2,0.5-0.6,1.1-1,1.5
		c-0.6,0.3-1.2,0.5-1.9,0.7c0.1-0.5,0.2-1.1,0.3-1.6c0.3-0.5,0.6-1,0.9-1.5c-1.9-1.8-0.9-3.2,1-3.4c1.2-0.2,2.7,1,1.6,2.9l0,0
		l0.6,1.9L280.8,353.7L280.8,353.7z M278.2,330.3l-3.7-4.5c1.9-2.4,3.3-0.1,4.4,0.7C280.7,327.8,278.7,329,278.2,330.3L278.2,330.3z
		 M275.7,310.6c0.4-0.3,0.7-0.5,1.1-0.7l0,0l0,0l0,0l0.2,0.9l-1.2,0.7C275.8,311.2,275.6,310.7,275.7,310.6z M275.4,321.2
		L275.4,321.2c0.4-0.2,0.8-0.4,1.3-0.5l0.1,0.3c0.3-0.1,0.6-0.3,1.1-0.5l1.4-0.1c-0.1,0.4-0.2,1.1-0.3,1.1c-0.5,0-1-0.1-1.5-0.3
		l0.1-0.2c-0.2,0.1-0.4,0.2-0.7,0.4l0.1,0.5l-1.4,0.2C275.5,321.7,275.5,321.5,275.4,321.2L275.4,321.2L275.4,321.2z M275,313.5
		l0.1,0.1c0.1,0.2,0.1,0.5,0.1,0.7l0,0c-0.3,0-0.7,0-1-0.1c-0.1,0-0.2,0-0.3-0.1c-0.1,0-0.1-0.5-0.2-0.8
		C274.1,313.3,274.6,313.3,275,313.5L275,313.5z M272.9,324.8l-1.5-0.9c-0.2,0.1-0.4,0.2-0.6,0.2l0.1,0.4l-1.4,0.2
		c-0.1-0.2-0.1-0.5-0.2-0.8l0,0c0.4-0.2,0.8-0.4,1.3-0.5c0,0.2,0.1,0.4,0.1,0.6c0.2,0,0.4-0.1,0.6-0.1l0,0l1.9-0.6
		C273.1,323.7,273,324.3,272.9,324.8L272.9,324.8z M271.9,319.4c-0.4,0.6-1.3,0.9-1.9,1.4c0.1-0.6,0.1-1.1,0.2-1.8
		c-0.3,0.4-0.6,0.8-0.9,1.3c-1,0.1-2,0.2-3,0.3c-0.5,0-1.1,0.1-1.6,0.1l2.9,5.9c1.1,1,0.9,5-0.4,5.3c-0.6,0.1-1.5-0.9-2.3-1.3
		c-0.3,0.5-0.6,1-0.9,1.4c-0.8,0.6-1.5,1.2-2.4,1.7c0.2-0.9,0.5-1.8,0.9-2.6c0-0.1,0.1-0.2,0.2-0.3c0.3-0.2,0.6-0.2,0.9-0.2
		c1.3-2.5,0.5-2.9-0.8-2.7c-0.2,0-0.4,0.1-0.6,0.1c-0.8,0.2-1.3,1.1-2,1.6c0-1.6,0-3.2,0.1-4.9c0.6-0.2,1.3-0.3,1.9-0.2
		c1.5,0.5,2.8-0.1,1.4-1.1l0,0c-3.5-2.4,0.8-5-0.6-7.2l0,0l0,0l0,0l0,0c-0.1-1-0.2-1.9-0.3-2.9l2.3-0.2l-2,3.1
		c0.8,0.5,1.8,1.5,2.2,1.3c2.5-1.3,2.7,0.7,3.4,1.9c0.6-0.5,1.2-1.2,1.7-1.8l2.7-1.5C272.7,317.4,272.3,318.4,271.9,319.4
		L271.9,319.4z M262.2,307.2L262.2,307.2L262.2,307.2L262.2,307.2l-0.2-0.1c0.1,0.2,0.2,0.4,0.4,0.7l0.5-0.1c0,0.5,0.1,0.9,0.2,1.4
		c-0.2,0.1-0.5,0.1-0.8,0.2l0,0c-0.2-0.4-0.4-0.8-0.5-1.3l0.3-0.1c-0.1-0.3-0.3-0.6-0.5-1.1c0-0.5-0.1-0.9-0.1-1.4
		c0.4,0.1,1.1,0.2,1.1,0.3c0,0.4,0,0.8-0.2,1.1C262.3,307,262.2,307.1,262.2,307.2L262.2,307.2L262.2,307.2z M270.5,308
		c0.1-0.3,0.5-0.5,0.9-0.7c0.1-0.1,0.2-0.1,0.4-0.2l0.6,0.8l0,0l0.4,0.6l-2.1,1.5C270.5,309.3,270.4,308.7,270.5,308L270.5,308z
		 M269.5,313l1.4-0.1c-0.1,0.4-0.2,1.1-0.3,1.1c-0.5,0-1-0.1-1.5-0.3c-1.6,2.2-2.8,0.1-4.1-0.4c1.6-2.2,2.7-0.2,4,0.4
		C269.1,313.4,269.3,313.2,269.5,313L269.5,313L269.5,313z M265.7,309.3c0.3-0.8,0.7-1.6,1.1-2.4c0.1-0.2,0.9,0,1.4,0
		c-0.2,0.8-0.5,1.6-0.8,2.3l0,0C267.3,309.5,266.5,309.3,265.7,309.3L265.7,309.3z M260.5,299.6L260.5,299.6c-0.1-1-0.2-2-0.3-2.9
		l0,0l0,0l2.3-0.2L260.5,299.6c2.7,1.2,6-2.4,8.4,0.9c0.4,0.7,0.6,1.5,0.5,2.2c0,0.4-0.8,0.7-1.2,1.1c-2.2-4.2-6.2-1.9-7.5-0.5l0,0
		c-4,4.4-1.9-2.6-3.7-1.6c-0.1,0-0.3,0.1-0.4,0.1C258.5,300.8,259.5,300.2,260.5,299.6L260.5,299.6z M256.4,301.9h0.2H256.4
		L256.4,301.9l0.1,0.6l-1.4,0.2c-0.1-0.2-0.1-0.5-0.2-0.8l0,0c0.4-0.2,0.8-0.4,1.3-0.5C256.3,301.5,256.3,301.7,256.4,301.9
		L256.4,301.9z M252.4,290.5L252.4,290.5c0.1,0,0.1,0.5,0.2,0.8l-1.4-0.1l-0.2-0.9C251.5,290.4,251.9,290.4,252.4,290.5L252.4,290.5
		z M244,294.9c0.4-0.2,0.8-0.4,1.3-0.5c0,0.1,0.1,0.3,0.1,0.5c1.1-0.7,2.1-1.6,2.9-2.6c-0.3,2.9,3.7,1.1,3.9,3.5
		c0.1,0.3,0.2,0.6,0.5,0.8c0.4-0.3,0.7-0.7,1-1l2.2-0.8c-0.1,0.8-0.3,1.6-0.6,2.3c-0.2,0.4-0.9,0.4-1.5,0.6c0-0.4-0.1-0.8-0.1-1.2
		c-0.2,0.2-0.4,0.5-0.6,0.8c-0.9,0.1-2,0.6-2.8,0.3l0,0c-1.6-0.8-3-1.7-4.4-2.7c-0.2,0.1-0.4,0.1-0.6,0.1c0,0.2,0.1,0.4,0.1,0.5
		l-1.4,0.2C244.1,295.5,244.1,295.2,244,294.9L244,294.9L244,294.9z M243.3,298.5c0.4,2.8,3.7-0.1,3.3,2.2c-0.5,2.8-2.5,1.5-4.1,1.1
		c-0.3-0.1-0.9,0.6-1.4,0.9l0,0c-1.2-1.6-4.9-1-3.7-4.5c1.2,0.5,2.2,2.4,3.9,0.8C241.9,298.4,243,296.3,243.3,298.5L243.3,298.5z
		 M239.1,285.1l1.4-0.1l0,0l0,0l0,0c-0.1,0.4-0.2,1.1-0.3,1.1c-0.5,0-1-0.1-1.5-0.3L239.1,285.1L239.1,285.1z M230,289.1
		c0.9-1.3,4.3-1.1,2.4-4.1c-0.7-1.1-1.4-2.3-1.9-3.6c-0.1-0.3,0.6-1,1-1.3c0.4-0.1,0.9,0.1,1.1,0.4c0.4,0.9,0.3,2.8,1.9,1.1
		c2.3-2.2,2.8-2.2,1.6,1c-0.8,2.1,1.4,2.2,2.4,3.1l-1,1.6c0.2,0.9,0.4,1.7,0.6,2.5c2.9,1.1,3.2,2.8,1.2,5.1l0,0l0,0l0.6,1.9l0,0
		l-1.6-0.3l1-1.5l-3.1-2l2-3.1l-1.6-1c-0.1,0.1-0.1,0.2-0.2,0.2C234.6,290.9,231.8,290.9,230,289.1L230,289.1z M233.1,295.7l0.4-0.1
		c0.1,0.5,0.1,0.9,0.2,1.4c-0.2,0.1-0.5,0.1-0.8,0.2l0,0c-0.2-0.4-0.4-0.8-0.5-1.3l0.6-0.1c0-0.2-0.1-0.4-0.1-0.6l-0.6-1.9l0,0
		l1.6,0.3l-0.9,1.5C232.9,295.2,233,295.4,233.1,295.7L233.1,295.7z M233.4,313L233.4,313c-0.2,0-0.5-0.3-1.5-0.9
		c0.4-1.2,0.8-2.6,1.5-3.9c0.1-0.1,0.1-0.2,0.2-0.2c0.4-0.2,0.8-0.4,1.2-0.5c0,0.8-0.1,1.7-0.1,2.5s-0.1,1.7-0.2,2.5
		C234.6,312.6,233.9,312.9,233.4,313z M234.5,326.8c0.4-0.6,0.8-1.2,1.2-1.8c0,0,0.1-0.1,0.1-0.2c0.4-0.6,1.3-0.8,1.9-0.4l0,0
		c0.6,0.3,0.7,1.8,1,2.7L234.5,326.8c0.1,0.8,0.3,1.8-0.1,2.4s-1.5,0.6-2.4,1l-1.7-3.2L234.5,326.8L234.5,326.8z M229.4,331.8
		c0.7-0.4,1.3-0.8,1.5-0.7l0,0c0.3,0.2,0.6,0.5,0.9,0.8c0.3,0.3,0.6,0.6,0.8,0.9c-0.1,0.1-0.2,0.1-0.3,0.2c-0.3,0.2-0.7,0.5-0.9,0.4
		C230.7,333,230,332.4,229.4,331.8L229.4,331.8z M231.1,336.3c1.7,0.1,3.3,0.1,5,0.3l0,0c0.1,0,0.2,1.4,0,1.5
		c-1.2,0.5-2.4,1-3.7,1.4L231.1,336.3L231.1,336.3z M234.2,347.6l-0.1,0.1l0,0c-0.2,0.1-0.5,0.1-0.7,0.1c0-0.5,0.1-0.9,0.2-1.4
		c0.1-0.1,0.5-0.1,0.8-0.2C234.4,346.7,234.3,347.2,234.2,347.6L234.2,347.6z M236.7,360.4c-0.3-0.7-1-1.4-0.9-2
		c0.1-1.4,0.5-2.7,1.1-4c0.2-0.5,1.4-0.6,2.1-0.8c0.3,0.9,0.6,1.9,0.9,2.8l0.6,1.9l-1.6-0.3L236.7,360.4L236.7,360.4z M236.3,347.7
		l2.1-1c0.1,1.3,0.3,2.6,0.4,3.9c-0.5-0.1-1.4,0-1.6-0.4l0,0C236.9,349.4,236.5,348.6,236.3,347.7z M244.2,356.1l-0.9,0.2l0,0
		c0-0.5,0.1-0.9,0.2-1.4c0.1-0.1,0.5-0.1,0.8-0.2C244.3,355.2,244.2,355.6,244.2,356.1z M244.4,348c-0.2-0.4-0.4-0.8-0.5-1.3
		l0.5-0.1l0,0c-0.4-0.6-0.9-1.2-1.6-1.6c-0.9,0.1-2,0.6-2.8,0.3l0,0c-1.5-0.8-2.9-1.6-4.2-2.6l-0.7,0.3c0,0.1,0.1,0.2,0.1,0.3
		l-1.4,0.2c-0.1-0.2-0.1-0.5-0.2-0.8l0,0c0.4-0.2,0.8-0.4,1.3-0.5c0,0.2,0.1,0.4,0.1,0.6c0.2,0,0.4-0.1,0.6-0.1
		c0.9-0.1,2-0.6,2.8-0.3c1.6,0.8,3,1.7,4.4,2.7c0.3-0.4,0.5-0.8,0.8-1.2c-0.1-0.2-0.3-0.5-0.5-0.8c-0.1-0.5-0.1-0.9-0.1-1.4
		c0.4,0.1,1.1,0.2,1.1,0.3c0,0.5-0.1,1-0.3,1.5c0.2,0.9,0.4,1.7,0.6,2.5c0.1,0.2,0.1,0.4,0.1,0.6l0.5-0.1c0.1,0.5,0.1,0.9,0.2,1.4
		C244.9,347.9,244.7,348,244.4,348C244.4,348.1,244.4,348.1,244.4,348L244.4,348z M245.1,351.9c0.5-0.6,1.1-1.2,1.8-1.8
		c0.2,0.4,0.7,1,0.6,1.2c-0.5,0.7-1.1,1.4-1.7,2.1l0,0C245.4,352.7,245,352.1,245.1,351.9L245.1,351.9z M243.4,368.6L243.4,368.6
		c0.4-0.2,0.8-0.4,1.3-0.5c0,0.2,0.1,0.3,0.1,0.5c0.5-0.3,1-0.8,1.4-1.3l0,0l0.1-0.1c0,0,0,0-0.1,0.1c-0.1-0.3-0.3-0.5-0.5-0.8
		c-0.1-0.5-0.1-0.9-0.1-1.4c0.4,0.1,1.1,0.2,1.1,0.3l0,0c0,0.5-0.1,1-0.3,1.5l0,0l0.6,2.5c0.1,0.2,0.1,0.4,0.1,0.6l0.5-0.1
		c0.1,0.5,0.1,0.9,0.2,1.4c-0.2,0.1-0.5,0.1-0.8,0.2l0,0c-0.2-0.4-0.4-0.8-0.5-1.3l0.5-0.1c-0.4-0.6-0.9-1.2-1.6-1.6
		c-0.2,0.1-0.4,0.1-0.5,0.1l0.1,0.5l-1.4,0.2C243.5,369.1,243.5,368.9,243.4,368.6L243.4,368.6z M245.5,385.2l-0.5,0.1l-0.4,0.1
		c0-0.2,0-0.5,0.1-0.7l0,0c0-0.2,0.1-0.5,0.1-0.7c0.1-0.1,0.5-0.1,0.8-0.2C245.5,384.3,245.5,384.7,245.5,385.2L245.5,385.2z
		 M245.4,382c-0.2-0.9-0.2-1.8-0.2-2.7c0.1-0.4,0.8-0.7,1.2-1l0,0c0.4,1.2,0.9,2.5,1.3,3.7H245.4L245.4,382z M248.4,377.1l-0.8-1.8
		c0.8,0.1,1.6,0.2,2.4,0.5c0.4,0.2,0.5,1,0.7,1.5l0,0L248.4,377.1L248.4,377.1z M249.4,403.7l2.5-0.6c0.6,0.4,1,0.6,1.2,0.8
		c-0.1-0.1-0.3-0.2-0.4-0.3c-0.2-0.2-0.2-0.8-0.3-1.2c0.5-0.1,1.1-0.1,1.6,0c0.8,0.3,1.6,0.8,2.2,1.4c0.8,0.7,1.6,1.6,2.3,2.4
		c-1-0.2-2-0.4-2.9-0.6c-0.3-0.1-0.5-0.3-0.8-0.5l0,0C251.1,403.3,250.3,403.5,249.4,403.7L249.4,403.7z M253.6,407.4l-1.4-0.1
		l-0.2-0.9c0.5,0,0.9,0.1,1.4,0.2C253.5,406.6,253.5,407.1,253.6,407.4L253.6,407.4z M253.3,411.4l-1.4,0.2
		c-0.1-0.2-0.1-0.5-0.2-0.8l0,0c0.4-0.2,0.8-0.4,1.3-0.5l0.1,0.6c0.2,0,0.4-0.1,0.6-0.1c1.1-0.2,2.1-0.6,3-1.3l1.4-0.1
		c-0.1,0.4-0.2,1.1-0.3,1.1l0,0l0,0l0,0c-0.5,0-1-0.1-1.5-0.3c-1,0.2-2.1,0.5-3.1,0.9C253.2,411.2,253.2,411.3,253.3,411.4
		L253.3,411.4z M257.2,439c-0.4-0.2-0.5-1-0.7-1.5c0.8,0.1,1.6,0.2,2.4,0.5l0,0c0.4,0.2,0.5,1,0.9,1.8
		C258.8,439.6,258,439.3,257.2,439L257.2,439z M260.2,436.8L260.2,436.8L260,437l-1.5-2.1c0.6-0.2,1.3-0.2,2-0.1
		c0.3,0.1,0.5,0.5,0.7,0.9c0.1,0.1,0.1,0.2,0.2,0.4L260.2,436.8z M261.3,400c-0.1-0.2-0.1-0.5-0.2-0.8l0,0c0.4-0.2,0.8-0.4,1.3-0.5
		c0,0.1,0,0.2,0.1,0.3c0.3-0.1,0.6-0.3,1.1-0.5l1.4-0.1c-0.1,0.4-0.2,1.1-0.3,1.1c-0.5,0-1-0.1-1.5-0.3l0.1-0.2
		c-0.2,0.1-0.4,0.2-0.7,0.4c0,0.2,0.1,0.4,0.1,0.5l0,0L261.3,400L261.3,400z M262.1,490.3l-0.8-1.8c0.8,0.1,1.6,0.2,2.4,0.5l0,0
		c0.4,0.2,0.5,1,0.7,1.5L262.1,490.3L262.1,490.3z M259.9,533.3c0-0.1,0-0.2,0.1-0.3c0-0.2,0.5-0.1,0.8-0.2c0,0.5-0.1,0.9-0.2,1.3
		l-0.1,0.1l0,0c-0.2,0.1-0.5,0.1-0.7,0.1C259.8,534,259.8,533.6,259.9,533.3L259.9,533.3z M260.6,606.3c-0.3-0.3-0.5-0.7-0.7-1.2
		l0.9-0.2l0,0l0.7,1.2C261.1,606.2,260.7,606.4,260.6,606.3L260.6,606.3z M261.5,622.2c-0.3-0.3-0.5-0.7-0.7-1.1l0,0l0,0l0,0
		l0.9-0.2l0.7,1.2C262.1,622.1,261.6,622.3,261.5,622.2L261.5,622.2z M263.2,496.4c0.4-0.2,0.8-0.4,1.3-0.5c0,0.1,0,0.2,0.1,0.3
		c0.3-0.1,0.6-0.3,1.1-0.5l1.4-0.1c-0.1,0.4-0.2,1.1-0.3,1.1c-0.5,0-1-0.1-1.5-0.3l0.1-0.2c-0.2,0.1-0.4,0.2-0.7,0.4
		c0,0.2,0.1,0.4,0.1,0.5l0,0l-1.4,0.2C263.3,497,263.2,496.7,263.2,496.4L263.2,496.4L263.2,496.4z M263.5,562.4
		c-0.1,0-0.1-0.5-0.2-0.8c0.5,0,0.9,0.1,1.4,0.2c0.1,0,0.1,0.5,0.2,0.8l0,0c-0.3,0-0.7,0-1-0.1C263.7,562.5,263.6,562.4,263.5,562.4
		L263.5,562.4z M264.8,566.9c0-0.1,0-0.2,0.1-0.3c0-0.2,0.5-0.1,0.8-0.2c0,0.5,0,0.9-0.1,1.3l0,0l0,0l0,0l-0.5,0.1l-0.4,0.1
		C264.8,567.6,264.8,567.2,264.8,566.9L264.8,566.9z M265.7,574.4c0,0.1-0.5,0.1-0.8,0.2c0-0.3,0-0.7,0.1-1l0,0c0-0.1,0-0.2,0.1-0.3
		c0-0.2,0.5-0.1,0.8-0.2C265.9,573.5,265.8,573.9,265.7,574.4L265.7,574.4z M266.2,507.4c-0.3-0.4-0.5-0.7-0.7-1.1l0.9-0.2l0,0
		l0.7,1.2C266.7,507.3,266.3,507.5,266.2,507.4L266.2,507.4z M267.2,517.9c0.1,0,0.3-0.1,0.3,0c0.3,0.3,0.5,0.7,0.7,1.2l0,0
		l-0.9,0.2l-0.7-1.2C266.9,518,267.1,517.9,267.2,517.9L267.2,517.9z M269.1,587c-0.1,0.2-0.9,0-1.7,0c0.3-0.8,0.7-1.6,1.1-2.4l0,0
		c0.1-0.2,0.9,0,1.4,0C269.7,585.4,269.4,586.2,269.1,587L269.1,587z M270.9,573.3l-0.9,0.2l0,0c0-0.5,0.1-0.9,0.2-1.3
		c0-0.2,0.5-0.1,0.8-0.2C271,572.4,271,572.8,270.9,573.3L270.9,573.3z M270.8,471.2c-0.1,0-0.1-0.5-0.2-0.8c0.5,0,0.9,0.1,1.4,0.2
		c0.1,0,0.1,0.5,0.2,0.8l0,0c-0.3,0-0.7,0-1-0.1C271.1,471.3,271,471.2,270.8,471.2L270.8,471.2z M271.8,569.5
		c0-0.2-0.1-0.3-0.1-0.4c0.2,0,0.5,0,0.7,0s0.5,0,0.7,0.1l0,0c0.1,0.1,0.1,0.5,0.2,0.8l-1.4-0.1
		C271.9,569.8,271.9,569.6,271.8,569.5L271.8,569.5z M274.4,598.7c-0.4,0.3-0.7,0.5-1.1,0.7l-0.2-0.9l0,0l1.2-0.7
		C274.3,598.2,274.5,598.6,274.4,598.7z M274,455.9l-0.2-0.9c0.5,0,0.9,0.1,1.4,0.2l0.1,0.1c0.1,0.2,0.1,0.5,0.1,0.7L274,455.9
		L274,455.9z M274.7,429.5l4.9-2.1l0,0c-0.2,0.8-0.3,1.8-0.8,2.3c-0.9,0.8-1.9,1.4-2.9,2L274.7,429.5z M276.5,437.4
		c0-0.1-0.1-0.3-0.1-0.4c0.1,0,0.2,0,0.3,0c0.3,0,0.7,0,1,0.1l0,0c0.1,0,0.1,0.5,0.2,0.8l-1.4-0.1
		C276.6,437.7,276.5,437.6,276.5,437.4z M277.9,569l-0.1,0.1c-0.2,0.1-0.5,0.1-0.7,0.1c0-0.3,0-0.7,0.1-1l0,0c0-0.1,0-0.2,0.1-0.3
		c0-0.1,0.5-0.1,0.8-0.2C278,568.1,278,568.5,277.9,569L277.9,569z M280,505.8c0.6,0.5,1.2,1.1,1.8,1.8l0,0c-0.4,0.2-1,0.7-1.2,0.6
		c-0.7-0.5-1.4-1-2.1-1.7C279.2,506.1,279.8,505.7,280,505.8L280,505.8z M280.1,530.3c0,0.5-0.1,1-0.3,1.5l-0.2-0.2
		c0.1,0.2,0.2,0.4,0.4,0.7l0.5-0.1l0.2,1.4c-0.2,0.1-0.5,0.1-0.8,0.2l0,0c-0.2-0.4-0.4-0.8-0.5-1.3l0.3-0.1
		c-0.1-0.3-0.3-0.6-0.5-1.1l0,0c0-0.5-0.1-0.9-0.1-1.4C279.4,530,280.1,530.1,280.1,530.3L280.1,530.3z M279.3,561.6
		c0-0.2-0.1-0.3-0.1-0.5s-0.1-0.3-0.1-0.4c0.1,0,0.2,0,0.3,0l0,0c0.3,0,0.7,0,1,0.2c0.1,0,0.1,0.5,0.2,0.8L279.3,561.6L279.3,561.6z
		 M280.8,549.3c-0.1,0-0.2,0-0.3-0.1c-0.1,0-0.1-0.5-0.2-0.8l0,0l0,0l0,0c0.5,0,0.9,0.1,1.4,0.2c0.1,0,0.1,0.5,0.2,0.8
		C281.5,549.3,281.2,549.3,280.8,549.3L280.8,549.3z M282.8,578.6l-0.5,0.1l-0.4,0.1c0-0.1,0-0.2,0-0.3c0-0.3,0-0.7,0.1-1l0,0
		c0-0.1,0.2-0.1,0.3-0.1s0.4,0,0.5-0.1C282.8,577.7,282.8,578.1,282.8,578.6L282.8,578.6z M281.6,404.4c-0.2,0.1-0.4,0.1-0.6,0.1
		c0,0.2,0.1,0.4,0.1,0.5l-1.4,0.2c-0.1-0.2-0.1-0.5-0.2-0.8l0,0c0.4-0.2,0.8-0.4,1.3-0.5l0.1,0.5c0.5-0.4,1-0.8,1.4-1.3
		c-0.1-0.2-0.3-0.4-0.5-0.7c0-0.5-0.1-0.9-0.1-1.4c0.4,0.1,1.1,0.2,1.1,0.3l0,0c0,0.5-0.1,1-0.3,1.5c0,0.1-0.1,0.2-0.2,0.2l0,0
		l0.2-0.2l0.6,1.9L281.6,404.4L281.6,404.4z M283.5,474.4c0-0.1,0-0.2,0-0.2c0.2,0,0.5,0,0.7,0s0.5,0,0.7,0.1c0.1,0,0.1,0.5,0.2,0.8
		l0,0c-0.3,0-0.7,0-1-0.1c-0.1,0-0.2,0-0.3-0.1C283.6,474.9,283.6,474.6,283.5,474.4L283.5,474.4z M283.9,511.5
		c0.3-0.1,0.7-0.3,0.8-0.2l0,0c0.3,0.3,0.5,0.7,0.7,1.1l-0.9,0.2L283.9,511.5z M287.5,521.4c0.2,0.1,0.3,0.2,0.5,0.3
		c0.5,0.4,0.8,1,1.3,1.5l-1.4,0.1l0,0l-1.3,0.1l-1.8-2.3C285.7,521,286.6,521.2,287.5,521.4L287.5,521.4z M286.6,568.3l-0.7-1.2l0,0
		c0.3-0.1,0.7-0.3,0.8-0.2c0.3,0.3,0.5,0.7,0.7,1.2L286.6,568.3L286.6,568.3z M289.5,550.2c-0.5,0-1-0.1-1.5-0.3l0.1-0.2
		c-0.2,0.1-0.4,0.2-0.7,0.4c0,0.2,0.1,0.4,0.1,0.5l-1.4,0.2c-0.1-0.2-0.1-0.5-0.2-0.8l0,0c0.4-0.2,0.8-0.4,1.3-0.5
		c0,0.1,0,0.2,0.1,0.3c0.3-0.1,0.6-0.3,1.1-0.5l0,0l1.4-0.1C289.7,549.5,289.6,550.2,289.5,550.2L289.5,550.2z M290.4,538
		c-0.2-0.2-0.3-0.3-0.4-0.5s-0.2-0.4-0.3-0.6l0.4-0.1l0.5-0.1l0,0l0.7,1.2C291,537.9,290.6,538.1,290.4,538L290.4,538z M291.4,552.5
		c0.2,0,0.4,0,0.5-0.1c0,0.5,0,0.9-0.1,1.3l-0.5,0.1l-0.4,0.1c0-0.1,0-0.2,0-0.3c0-0.3,0-0.7,0.1-1l0,0
		C291.1,552.5,291.3,552.5,291.4,552.5L291.4,552.5z M292,560.3c-0.3,0-0.7,0-1-0.2c-0.1,0-0.1-0.5-0.2-0.8l1.4,0.1l0,0l0,0l0,0
		c0,0.2,0.1,0.3,0.1,0.5l0.1,0.4C292.3,560.3,292.1,560.3,292,560.3L292,560.3z M291.6,501.7c-0.3-0.4-0.5-0.7-0.7-1.1l0.9-0.2l0,0
		l0.7,1.2C292.1,501.6,291.7,501.8,291.6,501.7L291.6,501.7z M292.3,495.2L292.3,495.2c0.4-0.2,0.8-0.4,1.3-0.5c0,0.1,0,0.2,0.1,0.3
		c0.3-0.1,0.6-0.3,1.1-0.5l1.4-0.1c-0.1,0.4-0.2,1.1-0.3,1.1c-0.5,0-1-0.1-1.5-0.3l0.1-0.2c-0.2,0.1-0.4,0.2-0.7,0.4l0,0l0.1,0.5
		l-1.4,0.2C292.3,495.7,292.3,495.4,292.3,495.2L292.3,495.2z M294.5,505.1l-0.9,0.2l-0.7-1.2l0,0c0.3-0.1,0.7-0.3,0.8-0.2
		C294,504.2,294.3,504.6,294.5,505.1L294.5,505.1z M292.9,591.9l-0.2-0.9l0,0c0.5,0,0.9,0.1,1.4,0.2c0.1,0,0.1,0.5,0.2,0.8
		L292.9,591.9L292.9,591.9z M293.3,587.8c-0.1-0.3-0.1-0.6-0.2-0.9l0,0l0,0c0.5,0,0.9,0.1,1.4,0.2c0.1,0,0.1,0.5,0.2,0.8
		L293.3,587.8L293.3,587.8z M295.4,554.3l-0.7-1.2l0,0c0.3-0.1,0.7-0.3,0.8-0.2c0.3,0.3,0.5,0.7,0.7,1.2L295.4,554.3L295.4,554.3z
		 M296.6,522l-0.5,0.1l-0.4,0.1c0-0.1,0-0.2,0-0.3l0,0c0-0.3,0-0.7,0.1-1c0-0.2,0.5-0.1,0.8-0.2C296.7,521.1,296.6,521.5,296.6,522
		L296.6,522z M296,472.2c0.3-0.8,0.7-1.6,1.1-2.4l0,0c0.1-0.2,0.9,0,1.4,0c-0.2,0.8-0.5,1.6-0.8,2.3
		C297.6,472.3,296.8,472.2,296,472.2L296,472.2z M299.2,500c-0.2-0.2-0.3-0.4-0.4-0.5c-0.1-0.2-0.2-0.4-0.3-0.6l0.4-0.1l0,0l0.5-0.1
		l0.7,1.2C299.7,499.9,299.3,500.1,299.2,500L299.2,500z M300.4,487.6c-0.3-0.4-0.5-0.7-0.7-1.1l0,0l0,0l0,0l0.9-0.2l0.7,1.2
		C300.9,487.5,300.5,487.8,300.4,487.6L300.4,487.6z M301.3,468.7c-0.2-0.4-0.4-0.8-0.5-1.3l0.3-0.1c-0.1-0.3-0.3-0.6-0.5-1.1
		c0-0.5-0.1-0.9-0.1-1.4c0.4,0.1,1.1,0.2,1.1,0.3c0,0.5-0.1,1-0.3,1.5l-0.2-0.1c0.1,0.2,0.2,0.4,0.4,0.7l0.5-0.1l0,0l0,0l0,0
		c0,0.5,0.1,0.9,0.2,1.4C301.8,468.6,301.6,468.7,301.3,468.7L301.3,468.7L301.3,468.7z M302.5,495.2c0,0.1-0.5,0.1-0.8,0.2l0,0
		c0-0.5,0-0.9,0.1-1.4l0.9-0.2C302.7,494.3,302.6,494.7,302.5,495.2L302.5,495.2z M303.4,485.3c0-0.2-0.1-0.3-0.1-0.5l-0.1-0.4
		c0.2,0,0.5,0,0.7,0l0,0c0.2,0,0.5,0.1,0.7,0.1c0.1,0,0.1,0.5,0.2,0.8H303.4z M304.5,457.3c-0.5,0-1-0.1-1.5-0.3l0.1-0.2
		c-0.2,0.1-0.4,0.2-0.7,0.4c0,0.2,0.1,0.4,0.1,0.5l-1.4,0.2c-0.1-0.2-0.1-0.5-0.2-0.8l0,0c0.4-0.2,0.8-0.4,1.3-0.5
		c0,0.1,0,0.2,0.1,0.3c0.3-0.1,0.6-0.3,1.1-0.5l0,0l1.4-0.1C304.7,456.5,304.6,457.2,304.5,457.3L304.5,457.3z M305.8,451.6
		c-0.5,0-1-0.1-1.5-0.3l0.1-0.2c-0.2,0.1-0.4,0.2-0.7,0.4l0.1,0.5l-1.4,0.2c-0.1-0.2-0.1-0.5-0.2-0.8l0,0c0.4-0.2,0.8-0.4,1.3-0.5
		c0,0.1,0,0.2,0.1,0.3c0.3-0.1,0.6-0.3,1.1-0.5l0,0l1.4-0.1C306.1,450.9,306,451.6,305.8,451.6L305.8,451.6z M305.4,445
		c-0.3-0.4-0.5-0.7-0.7-1.1l0,0l0,0l0,0l0.9-0.2l0.7,1.2C306,445,305.5,445.2,305.4,445L305.4,445z M308.3,506.8
		c-0.4,0.3-0.7,0.5-1.1,0.7l-0.2-0.9l0,0l1.2-0.7C308.2,506.2,308.4,506.7,308.3,506.8z M308.2,479.2l-0.1,0.1
		c-0.2,0.1-0.5,0.1-0.7,0.1c0-0.3,0-0.7,0.1-1l0,0c0-0.1,0-0.2,0.1-0.3c0-0.1,0.5-0.1,0.8-0.2C308.4,478.3,308.3,478.7,308.2,479.2
		L308.2,479.2z M307.7,437.9l-0.7-1.2l0,0c0.3-0.1,0.7-0.3,0.8-0.2c0.3,0.4,0.5,0.7,0.7,1.1L307.7,437.9L307.7,437.9z"/>
	<path class="st0" d="M228.3,340.1v0.1l0.1-0.2C228.4,340.1,228.3,340.1,228.3,340.1L228.3,340.1z"/>
</g>
<circle class="st0" cx="346.2" cy="217.5" r="9.5"/>
<circle class="st0" cx="346.2" cy="165.5" r="9.5"/>
<circle class="st0" cx="346.2" cy="113.5" r="9.5"/>
<circle class="st0" cx="346.2" cy="61.5" r="9.5"/>
<circle class="st0" cx="346.2" cy="9.5" r="9.5"/>
<g>
	<path id="Trac_4756" class="st1" d="M160.5,259.3L160.5,259.3c-20.7,15.9-50.4,11.9-66.2-8.8c-15.9-20.7-11.9-50.4,8.8-66.2l0,0
		l23.5-18c7.7-5.9,18.8-4.4,24.7,3.3l18,23.5C185.1,213.8,181.2,243.5,160.5,259.3L160.5,259.3"/>
	<path id="Trac_4757" class="st1" d="M252.2,193.3L252.2,193.3c21.5-16.3,25.7-47,9.4-68.5s-47-25.7-68.5-9.4
		c-0.1,0.1-0.2,0.2-0.3,0.2l-24.4,18.6c-8,6.1-9.5,17.6-3.4,25.5l18.6,24.4C200.1,205.6,230.8,209.7,252.2,193.3"/>
	<path id="Trac_4758" class="st2" d="M192.9,46.2c6.8-5.2,8.1-14.9,2.9-21.7l0,0c-0.2-0.3-0.4-0.5-0.6-0.8
		c-8.4,6.1-15.9,13.2-22.5,21.1C178.2,50.3,186.8,50.8,192.9,46.2"/>
	<path id="Trac_4759" class="st2" d="M160,65.9c0.2,0.2,0.3,0.3,0.5,0.4c0.1,0.1,0.2,0.2,0.3,0.2c0.2,0.1,0.3,0.2,0.5,0.3
		c0.1,0.1,0.2,0.1,0.4,0.2s0.3,0.2,0.5,0.3c0.1,0.1,0.2,0.1,0.4,0.2s0.3,0.2,0.5,0.2c0.1,0.1,0.3,0.1,0.4,0.2
		c0.2,0.1,0.3,0.1,0.5,0.2c0.1,0,0.3,0.1,0.4,0.1c0.2,0,0.3,0.1,0.5,0.1c0.1,0,0.3,0.1,0.4,0.1s0.3,0.1,0.5,0.1s0.3,0,0.4,0
		s0.3,0,0.5,0s0.3,0,0.4,0s0.3,0,0.5,0s0.3,0,0.4-0.1s0.3,0,0.5-0.1s0.3-0.1,0.4-0.1s0.3-0.1,0.5-0.1s0.3-0.1,0.4-0.1
		s0.3-0.1,0.5-0.2s0.3-0.1,0.4-0.2s0.3-0.1,0.5-0.2s0.3-0.2,0.4-0.2s0.3-0.2,0.4-0.3s0.3-0.2,0.4-0.3s0.3-0.2,0.4-0.3
		s0.2-0.2,0.4-0.3s0.2-0.2,0.4-0.3c0.1-0.1,0.2-0.2,0.2-0.3c0.2-0.2,0.3-0.3,0.4-0.5l0.1-0.1c2.6-3.2,2.8-7.7,0.7-11.2
		c-0.1-0.1-0.1-0.2-0.2-0.3c-0.1-0.2-0.2-0.3-0.3-0.5c-0.1-0.1-0.2-0.2-0.3-0.3s-0.2-0.2-0.3-0.3s-0.2-0.2-0.3-0.3s-0.2-0.2-0.3-0.3
		s-0.2-0.2-0.3-0.3s-0.2-0.2-0.3-0.2s-0.2-0.2-0.4-0.3s-0.2-0.2-0.3-0.2s-0.3-0.2-0.4-0.2c-0.1-0.1-0.2-0.1-0.3-0.2
		c-0.1-0.1-0.3-0.1-0.4-0.2c-0.1,0-0.2-0.1-0.3-0.1c-0.2-0.1-0.3-0.1-0.5-0.2c-0.1,0-0.2-0.1-0.3-0.1c-0.2-0.1-0.5-0.2-0.8-0.2
		c-3.6,4.9-7,10-9.9,15.4c0.2,0.3,0.4,0.5,0.6,0.8C159.8,65.7,159.9,65.8,160,65.9"/>
	<path id="Trac_4760" class="st2" d="M164.6,68.4c-0.2,0-0.3-0.1-0.5-0.1C164.3,68.3,164.5,68.3,164.6,68.4"/>
	<path id="Trac_4761" class="st2" d="M165.6,68.5c-0.2,0-0.3-0.1-0.5-0.1C165.2,68.5,165.4,68.5,165.6,68.5"/>
	<path id="Trac_4762" class="st2" d="M159.1,64.9c0.2,0.3,0.4,0.5,0.6,0.8C159.5,65.4,159.3,65.2,159.1,64.9"/>
	<path id="Trac_4763" class="st2" d="M174.2,65c2.6-3.2,2.9-7.7,0.7-11.2C177.1,57.3,176.8,61.8,174.2,65"/>
	<path id="Trac_4764" class="st2" d="M173.5,65.9c-0.1,0.1-0.2,0.2-0.4,0.3C173.2,66.1,173.3,66,173.5,65.9"/>
	<path id="Trac_4765" class="st2" d="M162.9,67.8c-0.2-0.1-0.3-0.2-0.5-0.2C162.6,67.7,162.7,67.7,162.9,67.8"/>
	<path id="Trac_4766" class="st2" d="M160.5,66.3c-0.2-0.1-0.3-0.3-0.5-0.4C160.1,66,160.3,66.2,160.5,66.3"/>
	<path id="Trac_4767" class="st2" d="M162,67.4c-0.2-0.1-0.3-0.2-0.5-0.3C161.7,67.2,161.9,67.3,162,67.4"/>
	<path id="Trac_4768" class="st2" d="M163.8,68.1c-0.2-0.1-0.3-0.1-0.5-0.2C163.4,68,163.6,68.1,163.8,68.1"/>
	<path id="Trac_4769" class="st2" d="M161.2,66.9c-0.2-0.1-0.3-0.2-0.5-0.3C160.9,66.7,161.1,66.8,161.2,66.9"/>
	<path id="Trac_4770" class="st2" d="M169.8,49.8c0.1,0,0.2,0.1,0.3,0.1C169.9,49.8,169.9,49.8,169.8,49.8"/>
	<path id="Trac_4771" class="st2" d="M174.4,53L174.4,53c0.1,0.1,0.2,0.3,0.3,0.5C174.6,53.4,174.5,53.2,174.4,53"/>
	<path id="Trac_4772" class="st2" d="M171.9,50.8c0.1,0.1,0.2,0.1,0.3,0.2C172.1,50.9,172.1,50.9,171.9,50.8"/>
	<path id="Trac_4773" class="st2" d="M169.3,68.3c-0.2,0-0.3,0.1-0.5,0.1C169,68.3,169.1,68.3,169.3,68.3"/>
	<path id="Trac_4774" class="st2" d="M173.8,52.4c0.1,0.1,0.2,0.2,0.3,0.3C174,52.6,173.9,52.5,173.8,52.4"/>
	<path id="Trac_4775" class="st2" d="M171.2,50.4c0.1,0.1,0.2,0.1,0.3,0.2C171.5,50.5,171.4,50.4,171.2,50.4"/>
	<path id="Trac_4776" class="st2" d="M171.9,67.1c-0.1,0.1-0.3,0.2-0.4,0.3C171.6,67.3,171.8,67.2,171.9,67.1"/>
	<path id="Trac_4777" class="st2" d="M168.4,68.5c-0.2,0-0.3,0.1-0.5,0.1C168,68.5,168.2,68.5,168.4,68.5"/>
	<path id="Trac_4778" class="st2" d="M174.2,65.1c-0.1,0.2-0.3,0.3-0.4,0.5C173.9,65.4,174,65.3,174.2,65.1"/>
	<path id="Trac_4779" class="st2" d="M170.5,50c0.1,0,0.2,0.1,0.3,0.1C170.7,50.1,170.6,50.1,170.5,50"/>
	<path id="Trac_4780" class="st2" d="M170.2,68c-0.2,0.1-0.3,0.1-0.5,0.2C169.9,68.1,170,68,170.2,68"/>
	<path id="Trac_4781" class="st2" d="M166.5,68.6c-0.2,0-0.3,0-0.5,0C166.2,68.6,166.3,68.6,166.5,68.6"/>
	<path id="Trac_4782" class="st2" d="M172.6,66.6l0.1-0.1c-0.1,0.1-0.3,0.2-0.4,0.3C172.4,66.8,172.5,66.7,172.6,66.6"/>
	<path id="Trac_4783" class="st2" d="M171.1,67.6c-0.2,0.1-0.3,0.1-0.5,0.2C170.8,67.7,170.9,67.7,171.1,67.6"/>
	<path id="Trac_4784" class="st2" d="M167.4,68.6c-0.2,0-0.3,0-0.5,0C167.1,68.6,167.3,68.6,167.4,68.6"/>
	<path id="Trac_4785" class="st2" d="M172.6,51.3c0.1,0.1,0.2,0.2,0.3,0.2C172.8,51.4,172.7,51.4,172.6,51.3"/>
	<path id="Trac_4786" class="st2" d="M173.2,51.8c0.1,0.1,0.2,0.2,0.3,0.3C173.4,52,173.4,51.9,173.2,51.8"/>
	<path id="Trac_4787" class="st2" d="M205.5,17c-1.8,1.1-3.6,2.2-5.3,3.3c0,0.3,0,0.6,0,1c0,0.1,0,0.2,0,0.3c0,0.2,0,0.4,0.1,0.6
		c0,0.1,0,0.2,0.1,0.4c0,0.2,0.1,0.4,0.1,0.6c0,0.1,0.1,0.2,0.1,0.4c0.1,0.2,0.1,0.4,0.2,0.6c0,0.1,0.1,0.2,0.1,0.4
		c0.1,0.2,0.2,0.4,0.3,0.6c0,0.1,0.1,0.2,0.1,0.3c0.1,0.3,0.3,0.6,0.5,0.9c0,0,0,0,0.1,0.1c0.2,0.3,0.3,0.5,0.5,0.8
		c0.1,0.1,0.2,0.2,0.2,0.3c0.1,0.2,0.3,0.3,0.4,0.5s0.3,0.3,0.5,0.5l0.1,0.1c0.2,0.2,0.5,0.4,0.7,0.6l0,0c0.2,0.2,0.5,0.3,0.7,0.5
		c0.1,0.1,0.2,0.1,0.3,0.2s0.3,0.2,0.4,0.2s0.3,0.1,0.4,0.2c0.1,0,0.2,0.1,0.3,0.1c0.2,0.1,0.3,0.1,0.5,0.2c0.1,0,0.1,0,0.2,0.1
		c0.6,0.2,1.3,0.3,2,0.4c0.1,0,0.1,0,0.2,0c0.2,0,0.4,0,0.5,0h0.4c0.1,0,0.3,0,0.4,0s0.3,0,0.5,0c0.1,0,0.2,0,0.3,0
		c0.2,0,0.5-0.1,0.7-0.2h0.1c0.6-0.2,1.2-0.4,1.7-0.6c0,0,0.1,0,0.1-0.1c0.2-0.1,0.4-0.2,0.6-0.4c0.1-0.1,0.2-0.1,0.3-0.2
		c0.2-0.1,0.3-0.2,0.5-0.3c0.1-0.1,0.2-0.1,0.2-0.2c0.3-0.3,0.6-0.5,0.9-0.8c0.1,0,0.1-0.1,0.2-0.2c0.3-0.3,0.6-0.6,0.8-0.9l0.1-0.1
		c0.2-0.3,0.5-0.7,0.7-1.1l0,0c0.2-0.4,0.4-0.8,0.5-1.1c0,0,0-0.1,0.1-0.1c0.1-0.4,0.2-0.8,0.3-1.2c0-0.1,0-0.1,0-0.2
		c0.1-0.4,0.1-0.8,0.1-1.2c0-0.1,0-0.1,0-0.2c0-0.4,0-0.8,0-1.2c0,0,0-0.1,0-0.2c0-0.4-0.1-0.8-0.2-1.2l-0.1-0.1
		C215.9,14.4,210.2,14.2,205.5,17"/>
	<path id="Trac_4788" class="st2" d="M150.1,178.4c4.4,5.7,3.3,13.9-2.4,18.2c-5.7,4.4-13.9,3.3-18.2-2.4s-3.3-13.9,2.4-18.2l0,0
		C137.6,171.6,145.8,172.7,150.1,178.4L150.1,178.4"/>
	<path id="Trac_4789" class="st2" d="M135.9,213.9c2.7,3.5,2,8.6-1.5,11.3s-8.6,2-11.3-1.5s-2-8.6,1.5-11.3l0,0
		C128.1,209.7,133.2,210.4,135.9,213.9"/>
	<path id="Trac_4790" class="st2" d="M225.6,145.2c2.7,3.5,2,8.6-1.5,11.3s-8.6,2-11.3-1.5s-2-8.6,1.5-11.3l0,0
		C217.8,141,222.9,141.7,225.6,145.2"/>
	<path id="Trac_4791" class="st2" d="M193.9,144.9c4.4,5.7,3.3,13.9-2.4,18.2c-5.7,4.4-13.9,3.3-18.2-2.4
		c-4.4-5.7-3.3-13.8,2.4-18.2C181.4,138.2,189.5,139.2,193.9,144.9L193.9,144.9"/>
	<path id="Trac_4792" class="st2" d="M200.1,21.5c0,0.2,0,0.4,0.1,0.6C200.2,21.9,200.2,21.7,200.1,21.5"/>
	<path id="Trac_4793" class="st2" d="M200.2,22.5c0,0.2,0.1,0.4,0.1,0.6C200.3,22.9,200.3,22.7,200.2,22.5"/>
	<path id="Trac_4794" class="st2" d="M200.4,23.5c0.1,0.2,0.1,0.4,0.2,0.6C200.6,23.9,200.5,23.7,200.4,23.5"/>
	<path id="Trac_4795" class="st2" d="M204.9,29.4c0.1,0.1,0.2,0.1,0.3,0.2C205.1,29.5,205,29.5,204.9,29.4"/>
	<path id="Trac_4796" class="st2" d="M200.2,20.3c0,0.3,0,0.6,0,1C200.1,20.9,200.1,20.6,200.2,20.3"/>
	<path id="Trac_4797" class="st2" d="M203.4,28.3l0.1,0.1C203.4,28.3,203.4,28.3,203.4,28.3"/>
	<path id="Trac_4798" class="st2" d="M201.1,25.3c0.1,0.3,0.3,0.6,0.5,0.9C201.4,25.9,201.3,25.6,201.1,25.3"/>
	<path id="Trac_4800" class="st2" d="M202.4,27.3c0.1,0.2,0.3,0.3,0.4,0.5C202.7,27.6,202.6,27.5,202.4,27.3"/>
	<path id="Trac_4801" class="st2" d="M200.7,24.4c0.1,0.2,0.2,0.4,0.3,0.6C200.9,24.8,200.8,24.6,200.7,24.4"/>
	<path id="Trac_4802" class="st2" d="M212.1,30.4h0.1H212.1"/>
	<path id="Trac_4803" class="st2" d="M217.6,26.7l0.1-0.1C217.7,26.6,217.6,26.7,217.6,26.7"/>
	<path id="Trac_4804" class="st2" d="M218.4,25.5L218.4,25.5L218.4,25.5"/>
	<path id="Trac_4805" class="st2" d="M209.1,30.7c-0.7,0-1.3-0.2-2-0.4C207.8,30.5,208.4,30.6,209.1,30.7"/>
	<path id="Trac_4806" class="st2" d="M202.2,27c-0.2-0.2-0.4-0.5-0.5-0.8C201.8,26.5,201.9,26.7,202.2,27
		C202.1,27,202.2,27,202.2,27"/>
	<path id="Trac_4807" class="st2" d="M218.9,24.3c0,0,0-0.1,0.1-0.1C218.9,24.2,218.9,24.3,218.9,24.3"/>
	<path id="Trac_4808" class="st2" d="M215.8,28.7c-0.1,0.1-0.2,0.1-0.2,0.2C215.6,28.8,215.6,28.8,215.8,28.7
		C215.7,28.7,215.7,28.7,215.8,28.7"/>
	<path id="Trac_4809" class="st2" d="M219.4,20.3c0,0,0-0.1,0-0.2C219.4,20.2,219.4,20.2,219.4,20.3"/>
	<path id="Trac_4810" class="st2" d="M219.4,21.7c0-0.1,0-0.1,0-0.2C219.4,21.5,219.4,21.6,219.4,21.7"/>
	<path id="Trac_4811" class="st2" d="M216.7,27.8c0.1,0,0.1-0.1,0.2-0.2C216.8,27.7,216.7,27.8,216.7,27.8"/>
	<path id="Trac_4812" class="st2" d="M209.3,30.7c0.2,0,0.4,0,0.5,0C209.6,30.7,209.4,30.7,209.3,30.7"/>
	<path id="Trac_4813" class="st2" d="M206.4,30.1c0.2,0.1,0.3,0.1,0.5,0.2C206.7,30.2,206.6,30.2,206.4,30.1"/>
	<path id="Trac_4814" class="st2" d="M219.3,22.8c0,0.1,0,0.1,0,0.2C219.3,23,219.3,22.9,219.3,22.8"/>
	<path id="Trac_4815" class="st2" d="M210.2,30.7c0.1,0,0.3,0,0.4,0C210.5,30.7,210.3,30.7,210.2,30.7"/>
	<path id="Trac_4816" class="st2" d="M205.7,29.8c0.1,0.1,0.3,0.1,0.4,0.2C205.9,29.9,205.8,29.9,205.7,29.8"/>
	<path id="Trac_4817" class="st2" d="M211.1,30.6c0.1,0,0.2,0,0.3,0C211.3,30.6,211.2,30.6,211.1,30.6"/>
	<path id="Trac_4818" class="st2" d="M214.7,29.4c0.1,0,0.2-0.1,0.3-0.2C214.9,29.2,214.8,29.3,214.7,29.4"/>
	<path id="Trac_4819" class="st3" d="M219.4,20.1c0,0,0,0.1,0,0.2c0,0.4,0,0.8,0,1.2c0,0.1,0,0.1,0,0.2c0,0.4-0.1,0.8-0.1,1.2
		c0,0.1,0,0.1,0,0.2c-0.1,0.4-0.2,0.8-0.3,1.2c0,0,0,0.1-0.1,0.1c-0.1,0.4-0.3,0.8-0.5,1.1l0,0c-0.2,0.4-0.4,0.7-0.7,1.1l-0.1,0.1
		c-0.2,0.3-0.5,0.6-0.8,0.9c-0.1,0-0.1,0.1-0.2,0.2c-0.3,0.3-0.6,0.6-0.9,0.8c0,0,0,0-0.1,0.1c-0.1,0-0.1,0.1-0.2,0.1
		c-0.2,0.1-0.3,0.2-0.5,0.4c-0.1,0.1-0.2,0.1-0.3,0.2s-0.1,0.1-0.2,0.1c-0.1,0.1-0.3,0.1-0.4,0.2c0,0-0.1,0-0.1,0.1
		c-0.6,0.3-1.1,0.5-1.7,0.6h-0.1c-0.2,0.1-0.5,0.1-0.7,0.2c-0.1,0-0.2,0-0.3,0c-0.2,0-0.3,0-0.5,0s-0.3,0-0.4,0h-0.4
		c-0.2,0-0.4,0-0.5,0s-0.1,0-0.2,0c-0.7,0-1.3-0.2-2-0.4c-0.1,0-0.1,0-0.2-0.1c-0.2,0-0.3-0.1-0.5-0.2c-0.1,0-0.2-0.1-0.3-0.1
		c-0.1-0.1-0.3-0.1-0.4-0.2s-0.3-0.1-0.4-0.2c-0.1,0-0.2-0.1-0.3-0.2c-0.2-0.1-0.5-0.3-0.7-0.5l0,0c-0.2-0.2-0.5-0.4-0.7-0.6
		l-0.1-0.1c-0.1-0.1-0.3-0.2-0.4-0.4l-0.1-0.1c-0.2-0.2-0.3-0.3-0.4-0.5c-0.1-0.1-0.2-0.2-0.2-0.3c0,0,0,0-0.1-0.1
		c-0.2-0.2-0.3-0.5-0.5-0.7c0,0,0,0-0.1-0.1c-0.2-0.3-0.3-0.6-0.5-0.9c-0.1-0.1-0.1-0.2-0.1-0.3c-0.1-0.2-0.2-0.4-0.3-0.6
		c0-0.1-0.1-0.2-0.1-0.3c-0.1-0.2-0.1-0.4-0.2-0.6c0-0.1-0.1-0.2-0.1-0.4c0-0.2-0.1-0.4-0.1-0.6c0-0.1,0-0.2-0.1-0.4
		c0-0.2,0-0.4-0.1-0.6c0-0.1,0-0.2,0-0.3c0-0.3,0.3-0.3,0.3-0.7c-1.7,1.1-3.7,2.7-5.3,3.9c0.2,0.2,0.4-0.2,0.6,0.1
		c5.2,6.8,3.9,16.5-2.9,21.6c-6.1,4.7-14.8,4.2-20.2-1.3c-1.3,1.5-2.5,3.1-3.6,4.7c0.3,0.1,0.5,0.1,0.8,0.2c0.1,0,0.2,0.1,0.3,0.1
		c0.2,0.1,0.3,0.1,0.5,0.2c0.1,0,0.2,0.1,0.3,0.1c0.1,0.1,0.3,0.1,0.4,0.2c0.1,0.1,0.2,0.1,0.3,0.2c0.1,0.1,0.3,0.2,0.4,0.2
		c0.1,0.1,0.2,0.1,0.3,0.2s0.2,0.2,0.4,0.3s0.2,0.2,0.3,0.2s0.2,0.2,0.4,0.3s0.2,0.2,0.3,0.3s0.2,0.2,0.3,0.3s0.2,0.2,0.3,0.3
		s0.2,0.2,0.3,0.3l0,0l0,0c0.1,0.2,0.2,0.3,0.3,0.5c0.1,0.1,0.1,0.2,0.2,0.3c2.2,3.5,1.9,8-0.7,11.2l-0.1,0.1
		c-0.1,0.2-0.3,0.3-0.4,0.5c-0.1,0.1-0.2,0.2-0.2,0.3c-0.1,0.1-0.2,0.2-0.4,0.3c-0.1,0.1-0.2,0.2-0.2,0.2L173,66l-0.1,0.1
		c-0.1,0.1-0.2,0.1-0.3,0.2s-0.3,0.2-0.4,0.3s-0.3,0.2-0.4,0.3s-0.3,0.2-0.4,0.2s-0.3,0.1-0.5,0.2s-0.3,0.1-0.4,0.2
		s-0.3,0.1-0.5,0.2s-0.3,0.1-0.4,0.1s-0.3,0.1-0.5,0.1s-0.3,0.1-0.4,0.1s-0.3,0.1-0.5,0.1s-0.3,0-0.4,0.1s-0.3,0-0.5,0s-0.3,0-0.4,0
		s-0.3,0-0.5,0s-0.3,0-0.4,0s-0.3-0.1-0.5-0.1s-0.3,0-0.4-0.1c-0.2,0-0.3-0.1-0.5-0.1c-0.1,0-0.3-0.1-0.4-0.1
		c-0.2-0.1-0.3-0.1-0.5-0.2c-0.1-0.1-0.3-0.1-0.4-0.2c-0.2-0.1-0.3-0.2-0.5-0.2c-0.1-0.1-0.2-0.1-0.4-0.2s-0.3-0.2-0.5-0.3
		c-0.1-0.1-0.2-0.1-0.4-0.2s-0.3-0.2-0.5-0.3c-0.1-0.1-0.2-0.2-0.3-0.2c-0.2-0.1-0.3-0.3-0.5-0.4c-0.1-0.1-0.2-0.1-0.2-0.2
		c-0.2-0.2-0.4-0.5-0.6-0.8c-7.2,13.2-12.4,27.4-15.5,42c-1.8,8.2-2.9,16.5-3.4,24.8c-0.2,3.8-0.2,6-0.2,6l21.6,28.2l3-2.3l43-32.9
		l39.3-30.1c12.2-9.3,14.5-26.8,5.2-39l-32.8-42.9C219.3,19.3,219.3,19.8,219.4,20.1"/>
	<path id="Trac_4820" class="st2" d="M214,29.8c0,0,0.1,0,0.1-0.1C214.1,29.7,214,29.8,214,29.8"/>
	<path id="Trac_4821" class="st2" d="M203.5,101.2c2,2.6,1.5,6.4-1.1,8.4s-6.4,1.5-8.4-1.1s-1.5-6.4,1.1-8.4l0,0
		C197.7,98.1,201.4,98.6,203.5,101.2"/>
	<path id="Trac_4822" class="st3" d="M3.2,171.8c-3.9,3.8-4.3,9.9-1.1,14.2l32.3,42.2c9.3,12.2,26.8,14.5,39,5.2l85.3-65.3
		l-21.6-28.2C137.2,139.9,58.9,116.9,3.2,171.8"/>
	<path id="Trac_4823" class="st2" d="M35.1,166.9c-6.8,5.2-16.5,3.9-21.7-2.9c-0.2-0.3-0.4-0.6-0.6-0.8c8-6.5,16.9-11.9,26.3-16.2
		C43,153.8,41.2,162.3,35.1,166.9"/>
	<path id="Trac_4824" class="st2" d="M62.7,140.3c0.1,0.2,0.2,0.4,0.3,0.6c0.1,0.1,0.1,0.2,0.2,0.4c0.1,0.2,0.2,0.4,0.2,0.5
		s0.1,0.3,0.1,0.4c0,0.2,0.1,0.3,0.2,0.5c0,0.1,0.1,0.3,0.1,0.4c0,0.2,0.1,0.3,0.1,0.5c0,0.1,0,0.3,0,0.4c0,0.2,0,0.3,0,0.5v0.9
		c0,0.1,0,0.3,0,0.4s0,0.3,0,0.5s0,0.3-0.1,0.4s-0.1,0.3-0.1,0.5s-0.1,0.3-0.1,0.4s-0.1,0.3-0.1,0.5s-0.1,0.3-0.2,0.4
		s-0.1,0.3-0.2,0.5s-0.1,0.3-0.2,0.4s-0.2,0.3-0.2,0.4s-0.2,0.2-0.2,0.4s-0.2,0.3-0.3,0.4s-0.2,0.2-0.3,0.4s-0.2,0.3-0.3,0.4
		s-0.2,0.2-0.3,0.3s-0.2,0.2-0.4,0.4s-0.2,0.2-0.4,0.3s-0.3,0.2-0.4,0.3s-0.3,0.2-0.4,0.3s-0.3,0.2-0.4,0.3
		c-0.1,0.1-0.2,0.1-0.3,0.2c-0.2,0.1-0.4,0.2-0.6,0.3h-0.1c-3.8,1.6-8.2,0.7-11-2.2c-0.1-0.1-0.2-0.2-0.2-0.3
		c-0.1-0.1-0.3-0.3-0.4-0.4c-0.1-0.1-0.2-0.2-0.2-0.4s-0.2-0.2-0.2-0.3s-0.2-0.3-0.2-0.4s-0.1-0.2-0.2-0.3s-0.1-0.3-0.2-0.4
		c0-0.1-0.1-0.2-0.2-0.3c-0.1-0.1-0.1-0.3-0.2-0.4c0-0.1-0.1-0.2-0.1-0.4c0-0.1-0.1-0.3-0.1-0.4c0-0.1-0.1-0.2-0.1-0.3
		c0-0.2-0.1-0.3-0.1-0.5c0-0.1,0-0.2-0.1-0.3c0-0.2,0-0.4,0-0.5s0-0.2,0-0.3c0-0.3,0-0.5,0-0.8c5.7-2.2,11.5-4.1,17.4-5.6
		c0.2,0.3,0.4,0.5,0.5,0.8C62.7,140.1,62.7,140.2,62.7,140.3"/>
	<path id="Trac_4826" class="st2" d="M94.1,184.9c2,2.6,1.5,6.4-1.1,8.4s-6.4,1.5-8.4-1.1s-1.5-6.4,1.1-8.4l0,0
		C88.3,181.8,92.1,182.3,94.1,184.9"/>
	<path class="st4" d="M205.1,216.7l-77.4-101.2c-0.1-0.2-0.2-0.3-0.3-0.4c-0.3-0.3-0.5-0.6-0.8-0.8c5.1-7.1,5.2-16.8-0.3-24.1
		l-5.3-6.9c-0.3-0.4-0.9-0.5-1.3-0.2s-0.5,0.9-0.2,1.3l5.3,6.9c5.1,6.7,5,15.7,0.2,22.2c-1.7-0.6-3.7-0.3-5.2,0.9
		c-1.5,1.2-2.1,3-1.9,4.8c-7.7,3.6-17,1.5-22.3-5.5l-5.3-6.9c-0.3-0.4-0.9-0.5-1.3-0.2s-0.5,0.9-0.2,1.3l5.3,6.9
		c5.8,7.6,16,10,24.3,6.2c0.2,0.4,0.4,0.7,0.7,1l77.4,101.2c1.8,2.4,5.2,2.8,7.6,1C206.4,222.3,206.9,219,205.1,216.7z"/>
</g>
</svg>
