<?xml version="1.0" encoding="utf-8"?>
<!-- Generator: Adobe Illustrator 27.8.1, SVG Export Plug-In . SVG Version: 6.00 Build 0)  -->
<svg version="1.1" id="Calque_2_00000168815172751157485040000000185531854322413697_"
	 xmlns="http://www.w3.org/2000/svg" xmlns:xlink="http://www.w3.org/1999/xlink" x="0px" y="0px" viewBox="0 0 630.7 676.1"
	 style="enable-background:new 0 0 630.7 676.1;" xml:space="preserve">
<style type="text/css">
	.st0{fill:#D1DBE0;}
	.st1{fill:#FDC90A;}
	.st2{fill:#16A477;}
</style>
<g id="Calque_1-2">
	<circle class="st0" cx="330.5" cy="271.6" r="9.5"/>
	<circle class="st0" cx="330.5" cy="219.6" r="9.5"/>
	<circle class="st0" cx="330.5" cy="167.6" r="9.5"/>
	<circle class="st0" cx="330.5" cy="115.6" r="9.5"/>
	<circle class="st0" cx="330.5" cy="63.6" r="9.5"/>
	<circle class="st0" cx="388.5" cy="219.6" r="9.5"/>
	<circle class="st0" cx="388.5" cy="167.6" r="9.5"/>
	<circle class="st0" cx="388.5" cy="115.6" r="9.5"/>
	<circle class="st0" cx="388.5" cy="63.6" r="9.5"/>
	<circle class="st0" cx="271.5" cy="271.6" r="9.5"/>
	<circle class="st0" cx="271.5" cy="219.6" r="9.5"/>
	<circle class="st0" cx="271.5" cy="167.6" r="9.5"/>
	<circle class="st0" cx="271.5" cy="115.6" r="9.5"/>
	<circle class="st0" cx="271.5" cy="63.6" r="9.5"/>
	<circle class="st0" cx="212.5" cy="271.6" r="9.5"/>
	<circle class="st0" cx="212.5" cy="219.6" r="9.5"/>
	<circle class="st0" cx="212.5" cy="167.6" r="9.5"/>
	<circle class="st0" cx="212.5" cy="115.6" r="9.5"/>
	<circle class="st0" cx="212.5" cy="63.6" r="9.5"/>
	<circle class="st0" cx="153.5" cy="271.6" r="9.5"/>
	<circle class="st0" cx="153.5" cy="219.6" r="9.5"/>
	<circle class="st0" cx="153.5" cy="167.6" r="9.5"/>
	<circle class="st0" cx="153.5" cy="115.6" r="9.5"/>
	<circle class="st0" cx="153.5" cy="63.6" r="9.5"/>
	<circle class="st0" cx="94.5" cy="271.6" r="9.5"/>
	<circle class="st0" cx="94.5" cy="219.6" r="9.5"/>
	<circle class="st0" cx="94.5" cy="167.6" r="9.5"/>
	<circle class="st0" cx="94.5" cy="115.6" r="9.5"/>
	<circle class="st0" cx="94.5" cy="63.6" r="9.5"/>
	<circle class="st0" cx="35.5" cy="271.6" r="9.5"/>
	<circle class="st0" cx="35.5" cy="219.6" r="9.5"/>
	<circle class="st0" cx="35.5" cy="167.6" r="9.5"/>
	<circle class="st0" cx="35.5" cy="115.6" r="9.5"/>
	<g>
		<path class="st1" d="M308.9,364L296,318.5c-72.9,20.7-242.9,91-263,335.4l45.9,22.2C71.3,486.6,232.9,385.6,308.9,364
			C308.9,364.1,308.9,364.1,308.9,364L308.9,364L308.9,364z"/>
		<path class="st2" d="M608.2,104.9c0-0.2,0-0.3,0-0.4s0-0.3,0-0.4c0.2,0.1,0.4,0.1,0.6,0.2l0,0c0.2,0.1,0.4,0.2,0.5,0.3
			c0,0,0,0.1,0,0.2c4.5-12.6,8.5-25.5,11.7-38.6l-0.5,0c-0.1-0.4-0.2-0.8-0.3-1.2h0.2c0.2,0,0.5,0,0.5,0.1c0.1,0.2,0.2,0.4,0.2,0.6
			c3.8-15.3,6.7-30.9,8.7-46.7c-0.1,0-0.3,0-0.4,0c-0.1,0-0.2,0-0.2,0c0.1-0.4,0.3-0.8,0.4-1.1l0.4,0c0.2-1.6,0.4-3.2,0.6-4.8
			C614,7.6,596.9,3.2,579.3,0c-12.2,136.7-105.2,259.2-244.3,302c0,0,0,0,0,0l15.4,50.2c124.8-38.4,217.4-132.6,258.7-246.9
			L608.2,104.9L608.2,104.9z M609.8,22.5c-0.4-0.1-0.8-0.3-1.1-0.6c-0.1-0.1,0-0.5,0-0.7c0.4,0.1,0.8,0.3,1.1,0.5c0,0,0,0.1,0,0.1
			C609.9,22,609.9,22.2,609.8,22.5L609.8,22.5L609.8,22.5z M609.8,71.6L609.8,71.6c0.1,0.1,0,0.5,0,0.7l-1.1-0.4c0-0.2,0-0.3,0-0.4
			s0-0.3,0-0.4c0.2,0.1,0.4,0.1,0.6,0.2C609.4,71.4,609.6,71.5,609.8,71.6L609.8,71.6z M608.6,95.8c0-0.2,0-0.3,0-0.4s0-0.3,0-0.4
			c0.2,0.1,0.4,0.1,0.6,0.2c0.2,0.1,0.4,0.2,0.5,0.3l0,0c0.1,0.1,0,0.5,0,0.7L608.6,95.8L608.6,95.8z M610.8,98.6L610.8,98.6
			c-0.1,0.4-0.3,0.7-0.5,1.1c0,0-0.1,0.1-0.1,0.1c-0.1,0-0.1,0-0.2,0c-0.1,0-0.3-0.1-0.4-0.1c0.1-0.4,0.3-0.8,0.5-1.1
			c0-0.1,0.2-0.1,0.3,0C610.5,98.6,610.6,98.6,610.8,98.6L610.8,98.6L610.8,98.6L610.8,98.6z M611.7,54.9c-0.1,0.4-0.3,0.8-0.6,1.2
			l-0.2-0.2c0,0.2,0.1,0.4,0.2,0.7l0.5,0c-0.1,0.4-0.1,0.8-0.2,1.2c-0.2,0-0.5,0-0.7,0c0,0,0,0,0,0c-0.1-0.4-0.1-0.8-0.1-1.2h0.2
			c0-0.3-0.1-0.6-0.2-1c0.1-0.4,0.1-0.8,0.2-1.2C611.1,54.5,611.7,54.8,611.7,54.9L611.7,54.9L611.7,54.9z M610.8,27.1
			c0-0.2,0-0.5,0-0.8l0,0l1.2-0.3c0,0.3,0.1,0.7,0,0.7C611.5,27,611.2,27.1,610.8,27.1L610.8,27.1z M612.5,37.3c0,0.1,0,0.3,0,0.4
			c-0.2-0.1-0.4-0.1-0.6-0.2c-0.2-0.1-0.4-0.2-0.5-0.3l0,0c-0.1-0.1,0-0.5,0-0.7l1.1,0.4C612.5,37,612.5,37.1,612.5,37.3L612.5,37.3
			z M612.4,15.9c-0.4-0.1-0.8-0.3-1.1-0.5c-0.1-0.1,0-0.5,0-0.7l0,0c0.4,0.1,0.8,0.3,1.1,0.4c0,0,0,0.1,0,0.1
			C612.5,15.5,612.5,15.7,612.4,15.9L612.4,15.9z M614.1,68.1c0,0-0.1,0.1-0.1,0.1c-0.2,0-0.4-0.1-0.6-0.1c0.1-0.4,0.3-0.8,0.5-1.1
			h0c0.1-0.1,0.5,0,0.7,0C614.4,67.4,614.3,67.8,614.1,68.1L614.1,68.1z M618.5,44.5c-0.3-0.1-0.6-0.2-0.9-0.4
			c-0.1-0.1-0.2-0.1-0.3-0.2c0,0,0,0,0.1-0.1l0.1-0.1c-0.2,0-0.4,0.1-0.7,0.2c0,0.2,0,0.3,0,0.5l-1.2-0.2c0-0.2,0-0.5,0-0.7
			c0,0,0,0,0,0c0.4-0.1,0.8-0.1,1.2-0.1c0,0.1,0,0.2,0,0.2c0.3,0,0.6-0.1,1-0.2l0,0l1.2,0.2C618.9,43.9,618.6,44.5,618.5,44.5
			L618.5,44.5z M618.4,33.2c0-0.2,0-0.5,0-0.8l1.2-0.3c0,0.3,0.1,0.7,0,0.7C619.2,33,618.8,33.1,618.4,33.2L618.4,33.2z M619.3,37.7
			l0.8,0l0,0c0.1,0.4,0.2,0.8,0.3,1.2c-0.3,0-0.7,0.1-0.7,0C619.5,38.5,619.4,38.1,619.3,37.7L619.3,37.7z M628.1,21.2L628.1,21.2
			l0.8,0c0.1,0.4,0.2,0.8,0.3,1.1c-0.3,0-0.7,0.1-0.7,0C628.2,21.9,628.1,21.6,628.1,21.2L628.1,21.2L628.1,21.2L628.1,21.2z
			 M627.9,24.8c-0.2,0.3-0.4,0.9-0.5,0.9c-0.4-0.1-0.8-0.3-1.2-0.6l0.2-0.2c-0.2,0-0.4,0.1-0.7,0.2c0,0.2,0,0.3,0,0.5l-1.2-0.2
			c0-0.2,0-0.5,0-0.7c0,0,0,0,0,0c0.4-0.1,0.8-0.1,1.2-0.1c0,0.1,0,0.2,0,0.2c0.3,0,0.6-0.1,1-0.2l0,0L627.9,24.8L627.9,24.8z
			 M625.6,12.7c0.1-0.1,0.5,0,0.7,0c-0.1,0.4-0.3,0.8-0.5,1.1c0,0-0.1,0.1-0.1,0.1c-0.2,0-0.4-0.1-0.6-0.1
			C625.3,13.4,625.5,13,625.6,12.7L625.6,12.7z M623.8,17.6l0.2-1.2c0.3,0.2,0.9,0.4,0.8,0.5c-0.1,0.4-0.3,0.8-0.6,1.2l-0.2-0.2
			c0,0.2,0.1,0.4,0.2,0.7l0.5,0l0,0l0,0l0,0c-0.1,0.4-0.1,0.8-0.2,1.2c-0.2,0-0.5,0-0.7,0c0,0,0,0,0,0c-0.1-0.4-0.1-0.8-0.1-1.2h0.2
			C623.9,18.4,623.9,18,623.8,17.6L623.8,17.6z M623,32.3c0.3,0,0.7-0.1,0.7,0c0.2,0.4,0.3,0.7,0.3,1.1l-0.8,0
			C623.2,33,623.1,32.7,623,32.3L623,32.3L623,32.3z M622.1,54.9c0.1-0.1,0.6,0.4,0.9,0.6c-0.4,0.6-0.8,1.2-1.3,1.7
			c-0.1,0.1-0.3,0.1-0.5,0.1c0,0.3,0,0.6,0.1,0.9l0.3,0c-0.1,0.4-0.1,0.8-0.2,1.2c-0.2,0-0.5,0-0.7,0c0,0,0,0,0,0
			c0-0.2-0.1-0.4-0.1-0.6v-0.1c-0.2-0.5-0.5-1-0.7-1.4l0,0C621,56.2,621.5,55.5,622.1,54.9L622.1,54.9z M621.5,15.6
			c0.1,0.1,0,0.5,0,0.7l-1.1-0.4c0-0.3,0-0.6,0-0.8C620.8,15.2,621.2,15.4,621.5,15.6L621.5,15.6L621.5,15.6z M620.2,11.7
			L620.2,11.7c0.2,0.4,0.3,0.7,0.3,1.1l-0.8,0c-0.1-0.4-0.2-0.8-0.3-1.1C619.7,11.7,620.1,11.6,620.2,11.7L620.2,11.7z M619.5,18.5
			c0-0.1,0.3,0,0.5,0c0.1,0,0.2,0,0.2,0c-0.1,0.4-0.3,0.7-0.5,1.1l0,0l0,0l0,0c0,0-0.1,0-0.1,0c-0.1,0-0.1,0-0.2,0
			c-0.1,0-0.3,0-0.4,0C619.2,19.2,619.3,18.9,619.5,18.5L619.5,18.5z M617.6,21.6l1.4,0.6l0,0c-0.2,0.4-0.3,1.1-0.6,1.2
			c-0.5,0.2-1.1,0.2-1.7,0.2C616.8,23.2,617,22.8,617.6,21.6L617.6,21.6z M616.1,26.3L616.1,26.3c0.2,0.4,0.3,0.7,0.3,1.1l-0.8,0
			c-0.1-0.4-0.2-0.8-0.3-1.1C615.6,26.2,616,26.2,616.1,26.3L616.1,26.3z M615.1,31.2c0.2-0.1,0.4-0.2,0.5-0.2s0.4-0.1,0.6-0.1
			c0,0.1,0,0.2,0,0.4c0,0.1,0,0.3,0,0.4l0,0l-1.2,0.3C615.1,31.6,615,31.2,615.1,31.2L615.1,31.2z M613.7,12.6
			c0.4,0.1,0.8,0.3,1.1,0.5l0,0c0.1,0.1,0,0.5,0,0.7l-1.1-0.4C613.7,13.1,613.7,12.8,613.7,12.6L613.7,12.6z M613.2,23.9
			c0.4,0.1,0.8,0.3,1.1,0.5c0,0,0,0.2,0,0.3c0,0.1,0,0.3,0,0.4l0,0c-0.4-0.1-0.8-0.3-1.1-0.5C613.1,24.5,613.2,24.1,613.2,23.9
			L613.2,23.9z M613.2,47.9C613.2,47.9,613.2,47.9,613.2,47.9c0.4-0.1,0.8-0.1,1.2-0.1c0,0.1,0,0.2,0,0.2c0.3,0,0.6-0.1,1-0.2l0,0
			l1.2,0.2c-0.2,0.3-0.4,0.9-0.5,0.8c-0.4-0.1-0.8-0.3-1.2-0.6l0.2-0.2c-0.2,0-0.4,0.1-0.7,0.2c0,0.2,0,0.3,0,0.5l-1.2-0.2
			C613.1,48.4,613.1,48.2,613.2,47.9L613.2,47.9z M612.8,86.5c0.4,0.1,0.8,0.3,1.1,0.5c0.1,0.1,0,0.3,0,0.5c0,0.1,0,0.2,0,0.2
			l-1.1-0.4C612.8,87,612.8,86.8,612.8,86.5L612.8,86.5L612.8,86.5z M611.9,7.9c0.3,0.2,0.9,0.4,0.8,0.5c-0.1,0.4-0.3,0.8-0.6,1.2
			c-0.1,0.1-0.1,0.1-0.2,0.2c-0.1-0.2-0.2-0.4-0.3-0.7C611.8,8.7,611.8,8.3,611.9,7.9L611.9,7.9L611.9,7.9z M610.5,10.2
			c0,0,0.1,0.1,0.1,0.2c0.5-0.1,1-0.3,1.5-0.6l0,0l0,0l0.2-0.2c0,0.6,0.1,1.1,0.1,1.7l-1.3-0.6c-0.2-0.1-0.3-0.1-0.5-0.2
			c0,0.2-0.1,0.5-0.1,0.6l-1.8-0.6c-0.2-0.7-0.3-1.1-0.4-1.6C609,9.4,609.7,9.8,610.5,10.2L610.5,10.2z M607.9,14.6
			c0-0.1,0-0.1,0-0.2c0.2,0.1,0.4,0.1,0.6,0.2h0c0.2,0.1,0.4,0.2,0.5,0.3c0,0,0,0.1,0,0.1c0,0.1,0,0.1,0,0.2c0,0.1,0,0.3,0,0.4
			c-0.4-0.1-0.8-0.3-1.1-0.5C607.8,15,607.9,14.8,607.9,14.6L607.9,14.6z M607.7,44.1c0-0.1,0-0.1,0-0.2c0,0,0,0,0,0h0l0,0
			c0.2,0.1,0.4,0.1,0.6,0.2c0.2,0.1,0.4,0.2,0.5,0.3c0,0,0,0.1,0,0.1c0,0.2-0.1,0.4-0.1,0.6c-0.4-0.1-0.8-0.3-1.1-0.5
			C607.6,44.6,607.6,44.4,607.7,44.1L607.7,44.1z M606.4,23.9c0-0.1,0-0.3,0-0.4c0.2,0.1,0.4,0.1,0.6,0.2c0.2,0.1,0.4,0.1,0.5,0.3
			l0,0c0.1,0.1,0,0.5,0,0.7l-1.1-0.4C606.4,24.2,606.4,24,606.4,23.9L606.4,23.9z M605.6,31.4c0.2,0.4,0.3,0.7,0.3,1.1l0,0l0,0
			l-0.8,0c-0.1-0.4-0.2-0.8-0.3-1.1C605.1,31.4,605.5,31.3,605.6,31.4L605.6,31.4z M604,8.2L604,8.2c0.4,0.1,0.8,0.3,1.1,0.5
			c0.1,0.1,0,0.5,0,0.7L604,9C604,8.7,604,8.5,604,8.2z M603.9,28.7c0-0.1,0-0.3,0-0.4l1.2-0.3c0,0.3,0.1,0.7,0,0.7l0,0
			c-0.2,0.1-0.4,0.2-0.5,0.2s-0.4,0.1-0.6,0.1C603.9,28.9,603.9,28.8,603.9,28.7L603.9,28.7z M602.1,18c-0.4,0.6-0.7,1.4-1.2,1.8
			c-0.9,0.4-1.9,0.8-2.9,1l-0.4-2.1L602.1,18L602.1,18L602.1,18z M597.2,38.2l1.7-0.3l0,0c-0.2,0.7-0.6,1.3-1,1.9
			c-0.2,0.3-0.9,0.2-1.4,0.3C596.8,39.4,597,38.7,597.2,38.2L597.2,38.2z M597.2,26.1c0-0.3,0-0.5,0-0.8c0.4,0.1,0.8,0.3,1.1,0.5
			l0,0c0.1,0.1,0,0.5,0,0.7L597.2,26.1L597.2,26.1z M598.6,44.4c0-0.2,0-0.3,0-0.4c0-0.1,0-0.3,0-0.4c0.2,0.1,0.4,0.1,0.6,0.2
			c0.2,0.1,0.4,0.2,0.5,0.3l0,0c0.1,0.1,0,0.5,0,0.7L598.6,44.4L598.6,44.4z M599.4,51.5c-0.3,0-0.7,0.1-0.7,0l0,0
			c-0.2-0.4-0.3-0.7-0.3-1.1l0.8,0L599.4,51.5L599.4,51.5z M599.4,28.8c0.1-0.4,0.3-0.8,0.4-1.1l0,0l0.4,0l0.4,0
			c-0.1,0.2-0.1,0.4-0.2,0.6c-0.1,0.2-0.2,0.4-0.3,0.5C600,29,599.6,28.9,599.4,28.8L599.4,28.8z M600.3,24.3c0,0-0.1,0-0.1,0
			c-0.2,0-0.4,0-0.6-0.1c0.1-0.4,0.3-0.8,0.5-1.1l0,0c0.1-0.1,0.5,0,0.7,0C600.6,23.6,600.5,24,600.3,24.3L600.3,24.3z M601.1,14.9
			L601.1,14.9c-0.2,0.1-0.4,0.2-0.5,0.2s-0.4,0.1-0.6,0.1c0-0.1,0-0.2,0-0.4s0-0.3,0-0.4l1.2-0.3C601.2,14.4,601.2,14.8,601.1,14.9
			L601.1,14.9z M596.2,7.2c0-0.1,0.1-0.3,0.1-0.4c0.2-0.4,1.2-0.4,1.9-0.7l0,0.9c0.2-0.1,0.3-0.2,0.5-0.4l2.3,0.1
			c-0.6,0-1.2-0.1-2.9,1c0,0.5-0.1,1.1-0.1,1.6l-1.8-0.3C596.1,8.5,596.1,7.8,596.2,7.2L596.2,7.2z M595.5,14.2l1.2-0.3
			c0,0.3,0.1,0.7,0,0.7c-0.4,0.2-0.7,0.3-1.1,0.4C595.4,14.8,595.5,14.5,595.5,14.2L595.5,14.2z M595.6,59.2L595.6,59.2L595.6,59.2
			c-0.4-0.1-0.8-0.3-1.1-0.5c-0.1-0.1,0-0.5,0-0.7c0.4,0.1,0.8,0.3,1.1,0.5c0,0,0,0.1,0,0.1c0,0.1,0,0.2,0,0.2
			C595.6,59,595.6,59.1,595.6,59.2L595.6,59.2L595.6,59.2z M594.2,63.7c0-0.2,0-0.5,0-0.8l1.2-0.3c0,0.3,0.1,0.7,0,0.7
			C595,63.5,594.6,63.6,594.2,63.7L594.2,63.7z M595.2,68.3l-1.1-0.4c0-0.2,0-0.3,0-0.4s0-0.3,0-0.4l0,0c0.2,0.1,0.4,0.1,0.6,0.2
			c0.2,0.1,0.4,0.2,0.5,0.3C595.3,67.6,595.2,68,595.2,68.3L595.2,68.3z M594,45.9l1.2-0.3c0,0.1,0,0.3,0,0.4l0,0
			c0,0.1,0,0.3-0.1,0.3c-0.4,0.2-0.7,0.3-1.1,0.3C593.9,46.5,593.9,46.2,594,45.9L594,45.9z M593.9,24c0.3,0,0.7-0.1,0.7,0
			c0.2,0.4,0.3,0.7,0.3,1.1l0,0l-0.8,0C594,24.8,593.9,24.4,593.9,24L593.9,24z M594.1,17.3l1.2,0.2c-0.2,0.3-0.4,0.9-0.5,0.9
			c-0.1,0-0.2,0-0.3-0.1l0,0c-0.3-0.1-0.6-0.3-0.9-0.5l0.2-0.2c-0.2,0-0.4,0.1-0.7,0.2c0,0.2,0,0.3,0,0.5l-1.2-0.2
			c0-0.2,0-0.5,0-0.7c0,0,0,0,0,0c0.4-0.1,0.8-0.1,1.2-0.1c0,0.1,0,0.2,0,0.2C593.4,17.4,593.7,17.4,594.1,17.3L594.1,17.3z
			 M591.6,23.9c-0.4-0.1-0.8-0.3-1.1-0.5c-0.1-0.1,0-0.5,0-0.7c0.4,0.1,0.8,0.3,1.1,0.5c0,0,0,0.1,0,0.1c0,0.1,0,0.1,0,0.2
			C591.6,23.7,591.6,23.8,591.6,23.9L591.6,23.9L591.6,23.9z M591.3,12.6c-0.1-0.4-0.2-0.8-0.3-1.1c0.3,0,0.7-0.1,0.7,0.1l0,0
			c0.2,0.4,0.3,0.7,0.3,1.1L591.3,12.6L591.3,12.6z M591.8,4.7c0.3,0.2,0.5,0.5,0.7,0.7c-0.5,0.5-1,1-1.6,1.4l0,0l0,0l0,0
			c-0.1,0-0.5-0.4-0.9-0.8C590.5,5.5,591.1,5.1,591.8,4.7z M587.9,30.6L587.9,30.6c0,0.3,0.1,0.7,0,0.7c-0.4,0.2-0.7,0.3-1.1,0.4
			c0-0.2,0-0.5,0-0.8L587.9,30.6L587.9,30.6L587.9,30.6L587.9,30.6z M586.8,38.5c-0.2-0.4-0.3-0.7-0.3-1.1l0.8,0l0,0
			c0.1,0.4,0.2,0.8,0.3,1.2C587.2,38.5,586.8,38.6,586.8,38.5L586.8,38.5z M587.3,90.7l-0.8,0c-0.1-0.4-0.2-0.8-0.3-1.2l0,0
			c0.3,0,0.7-0.1,0.7,0.1C587.1,89.9,587.2,90.3,587.3,90.7L587.3,90.7z M586.2,3.4l1.2-0.3c0,0.3,0.1,0.7,0,0.7l0,0
			c-0.4,0.2-0.7,0.3-1.1,0.3C586.2,3.9,586.2,3.7,586.2,3.4L586.2,3.4z M585.3,12.6l1.2-0.3l0,0c0,0.3,0.1,0.7,0,0.7
			c-0.4,0.2-0.7,0.3-1.1,0.4C585.3,13.2,585.3,13,585.3,12.6L585.3,12.6z M584.6,52c0.4,0.1,0.8,0.3,1.1,0.5c0,0,0,0.1,0,0.1
			c0,0.1,0,0.2,0,0.2c0,0.1,0,0.3,0,0.4l0,0c-0.4-0.1-0.8-0.3-1.1-0.5C584.5,52.6,584.6,52.2,584.6,52L584.6,52z M583.7,47.4
			c0-0.2,0-0.5,0-0.8l1.2-0.3c0,0.3,0.1,0.7,0,0.7C584.5,47.2,584.1,47.3,583.7,47.4L583.7,47.4z M584.4,19.7
			c0.3,0.2,0.4,0.9,0.5,1.3l-1.4,0.5c-0.5-1.2-0.6-1.7-0.8-2.1C583.3,19.4,583.9,19.5,584.4,19.7z M582.6,23.7
			c-0.7-0.3-1.3-0.7-1.9-1.2c-0.3-0.3-0.2-0.9-0.3-1.4c0.7,0.2,1.3,0.6,1.9,1l0,0C582.6,22.3,582.5,23,582.6,23.7z M581.5,45
			c-0.1,0.4-0.3,0.8-0.4,1.1l-0.8,0l0,0c0.1-0.4,0.3-0.8,0.5-1.1C580.9,44.8,581.3,44.9,581.5,45L581.5,45z M580.1,4L580.1,4
			L580.1,4c0.4,0.1,0.8,0.3,1.1,0.5c0,0,0,0.1,0,0.1c0,0.1,0,0.1,0,0.2c0,0.1,0,0.3,0,0.4c-0.4-0.1-0.8-0.3-1.1-0.5
			C579.9,4.7,580.1,4.3,580.1,4L580.1,4L580.1,4z M578.5,14.2c0.4,0.1,0.8,0.3,1.1,0.5c0,0,0,0.1,0,0.1c0,0.2,0,0.4-0.1,0.6v0.1
			c-0.4-0.1-0.8-0.3-1.1-0.5C578.3,14.8,578.4,14.4,578.5,14.2L578.5,14.2z M578,23.2c0.3,0,0.7-0.1,0.7,0c0.2,0.4,0.3,0.7,0.3,1.1
			l-0.8,0C578.2,24,578.1,23.6,578,23.2L578,23.2L578,23.2z M574.8,67.4L574.8,67.4l-1.9-0.7c-0.1-0.7-0.2-1.2-0.3-1.7
			c0.7,0.2,1.3,0.6,1.9,1C574.8,66.2,574.7,66.9,574.8,67.4L574.8,67.4z M574,60.5c-0.1,0.4-0.3,0.8-0.5,1.1l0,0
			c-0.1,0.1-0.5,0-0.7,0c0.1-0.4,0.3-0.8,0.4-1.1L574,60.5L574,60.5z M572,56c0.1-0.4,0.1-0.8,0.2-1.2c0.3,0.2,0.9,0.4,0.8,0.5
			c-0.1,0.4-0.3,0.8-0.6,1.2l-0.2-0.2c0,0.2,0.1,0.4,0.2,0.7l0.5,0c-0.1,0.4-0.1,0.8-0.2,1.2c-0.2,0-0.5,0-0.7,0c0,0,0,0,0,0h0
			c-0.1-0.4-0.1-0.8-0.1-1.2h0.2C572.2,56.7,572.1,56.4,572,56L572,56z M556,136.8c0.1-0.1,0.5,0,0.7,0c-0.1,0.4-0.3,0.8-0.5,1.1
			c0,0-0.1,0.1-0.1,0.1c-0.1,0-0.1,0-0.2,0c-0.1,0-0.3-0.1-0.4-0.1C555.7,137.6,555.8,137.2,556,136.8L556,136.8z M543.6,135.1
			l0.4,0c0.1,0.4,0.2,0.8,0.3,1.1c-0.3,0-0.7,0.1-0.7-0.1l0,0c-0.1-0.2-0.2-0.4-0.2-0.6c0-0.2-0.1-0.4-0.2-0.6L543.6,135.1
			L543.6,135.1z M519.2,185l-1.1-0.4c0-0.3,0-0.6,0-0.8l0,0c0.4,0.1,0.8,0.3,1.1,0.5C519.4,184.3,519.3,184.7,519.2,185L519.2,185z
			 M525.2,200.6c-0.1,0.2-0.2,0.4-0.3,0.5c0,0-0.1,0.1-0.1,0.1c-0.1,0-0.2,0-0.2,0c-0.1,0-0.3-0.1-0.4-0.1c0.1-0.4,0.3-0.8,0.5-1.1
			l0,0c0-0.1,0.2-0.1,0.3,0s0.3,0.1,0.4,0.1C525.3,200.2,525.2,200.4,525.2,200.6L525.2,200.6z M533.4,229.9
			c-0.2-0.4-0.3-0.7-0.4-1.1l0,0l0.8,0c0.1,0.4,0.2,0.8,0.3,1.1C533.9,229.9,533.5,230,533.4,229.9L533.4,229.9z M533.5,162.9
			c-0.1,0.1-0.5-0.4-0.9-0.8c0.6-0.5,1.2-0.9,1.8-1.3l0,0c0.3,0.2,0.5,0.5,0.7,0.7C534.6,162,534.1,162.5,533.5,162.9L533.5,162.9z
			 M540.5,143.6c0,0.1,0,0.3,0,0.4c-0.4-0.1-0.8-0.3-1.1-0.5c-0.1-0.1,0-0.5,0-0.7l0,0c0.4,0.1,0.8,0.3,1.1,0.5c0,0,0,0.1,0,0.1
			C540.5,143.5,540.5,143.5,540.5,143.6L540.5,143.6z M541.6,177c-0.2-0.4-0.3-0.7-0.3-1.1l0,0l0,0l0.8,0c0.1,0.4,0.2,0.8,0.3,1.1
			C542.1,177,541.6,177.1,541.6,177L541.6,177z M544,140.2c-0.1,0.4-0.3,0.8-0.6,1.2l-0.2-0.2c0,0.2,0.1,0.4,0.2,0.7l0.5,0
			c-0.1,0.4-0.1,0.8-0.2,1.2c-0.2,0-0.5,0-0.7,0c0,0,0,0,0,0c-0.1-0.4-0.1-0.8-0.1-1.2h0.2c0-0.3-0.1-0.6-0.2-1l0.2-1.2
			C543.5,139.8,544.1,140,544,140.2L544,140.2L544,140.2z M544.5,163.5c-0.2-0.4-0.3-0.7-0.4-1.1l0.8,0c0.1,0.4,0.2,0.8,0.3,1.1
			C545,163.5,544.6,163.6,544.5,163.5L544.5,163.5z M553.2,116.9c0,0.2,0,0.3,0,0.5l-1.2-0.2c0-0.2,0-0.4,0-0.7c0,0,0,0,0,0
			c0.4-0.1,0.8-0.1,1.2-0.1c0,0.1,0,0.2,0,0.2c0.3,0,0.6-0.1,1-0.2l1.2,0.2c-0.2,0.3-0.4,0.9-0.5,0.8l0,0c-0.4-0.1-0.8-0.3-1.2-0.6
			l0.2-0.2C553.7,116.7,553.4,116.8,553.2,116.9L553.2,116.9z M554.7,148.9c0.5-0.6,1-1.2,1.5-1.7l0,0c0.2-0.1,0.7,0.2,1.1,0.3
			c-0.3,0.6-0.8,1.2-1.2,1.8C556,149.4,555.4,149,554.7,148.9z M557.8,160.3c-0.4,0.2-0.7,0.3-1.1,0.4c0-0.2,0-0.5,0-0.8l0,0
			l1.2-0.3C557.9,159.8,558,160.2,557.8,160.3L557.8,160.3z M557.8,132.4l-0.8,0c0.1-0.4,0.3-0.8,0.5-1.1l0,0c0.1-0.1,0.5,0,0.7,0
			L557.8,132.4L557.8,132.4z M558.3,127.5c0,0.1,0,0.3,0,0.4c-0.4-0.1-0.8-0.3-1.1-0.5c-0.1-0.1,0-0.5,0-0.7l0,0
			c0.4,0.1,0.8,0.3,1.1,0.5c0,0,0,0.1,0,0.1C558.4,127.3,558.4,127.4,558.3,127.5L558.3,127.5z M560.9,138.2l-0.8,0
			c0.1-0.4,0.3-0.8,0.5-1.1l0,0c0.1-0.1,0.5,0,0.7,0C561.1,137.4,561,137.8,560.9,138.2z M561.3,103c-0.1,0.1-0.5,0-0.7,0
			c0.1-0.4,0.3-0.8,0.5-1.1c0.1-0.1,0.5,0,0.7,0C561.7,102.3,561.5,102.7,561.3,103z M563.6,136l-1.1-0.4c0-0.3,0-0.6,0-0.8l0,0
			c0.4,0.1,0.8,0.3,1.1,0.5C563.7,135.4,563.6,135.8,563.6,136L563.6,136z M567.7,136.2c0,0-0.1,0.1-0.1,0.1c-0.2,0-0.4-0.1-0.6-0.1
			c0.1-0.4,0.3-0.8,0.5-1.1l0,0c0.1-0.1,0.5,0,0.7,0C568,135.5,567.9,135.9,567.7,136.2L567.7,136.2z M568.4,105
			c-0.1,0.4-0.3,0.8-0.6,1.2l-0.2-0.2c0,0.2,0.1,0.4,0.2,0.7l0.5,0c-0.1,0.4-0.1,0.8-0.2,1.2c-0.2,0-0.5,0-0.7,0c0,0,0,0,0,0
			c-0.1-0.4-0.1-0.8-0.1-1.2h0.2c0-0.3-0.1-0.6-0.2-1l0.2-1.2c0.2,0.1,0.4,0.2,0.5,0.3C568.3,104.8,568.4,104.9,568.4,105L568.4,105
			L568.4,105z M569.6,145.4l-0.8,0c0.1-0.2,0.1-0.4,0.2-0.6c0.1-0.2,0.2-0.4,0.3-0.5l0,0c0.1-0.1,0.5,0,0.7,0
			C569.9,144.7,569.7,145,569.6,145.4L569.6,145.4z M568.6,77.3l0.8,0c0.1,0.4,0.2,0.8,0.3,1.2h-0.2c-0.2,0-0.5,0-0.5-0.1
			C568.8,78.1,568.7,77.7,568.6,77.3L568.6,77.3z M569.9,74l-1.1-0.4c0-0.2,0-0.3,0-0.4s0-0.3,0-0.4c0.2,0.1,0.4,0.1,0.6,0.2l0,0
			c0.2,0.1,0.4,0.2,0.5,0.3C570.1,73.3,570,73.7,569.9,74L569.9,74z M570.3,91c0.3,0,0.7-0.1,0.7,0.1l0,0c0.2,0.4,0.3,0.7,0.3,1.1
			l-0.8,0C570.4,91.8,570.4,91.4,570.3,91L570.3,91z M571.8,130.8l-1.1-0.4c0-0.3,0-0.6,0-0.8l0,0c0.4,0.1,0.8,0.3,1.1,0.5
			C571.9,130.1,571.8,130.5,571.8,130.8z M572.2,82c-0.2-0.4-0.3-0.7-0.3-1.1l0,0l0.8,0c0.1,0.4,0.2,0.8,0.3,1.2
			C572.7,82,572.3,82.1,572.2,82L572.2,82z M573.5,72.4c0,0.2,0,0.3,0,0.5l-1.2-0.2c0-0.2,0-0.4,0-0.7c0,0,0,0,0,0
			c0.4-0.1,0.8-0.1,1.2-0.1c0,0.1,0,0.2,0,0.2c0.3,0,0.6-0.1,1-0.2l1.2,0.2c-0.2,0.3-0.4,0.9-0.5,0.8l0,0c-0.4-0.1-0.8-0.3-1.2-0.6
			l0.2-0.2C574,72.3,573.7,72.4,573.5,72.4L573.5,72.4z M574.6,119.6c0.4,0.1,0.8,0.3,1.1,0.5c0,0,0,0.1,0,0.1
			c0,0.2-0.1,0.4-0.1,0.6v0c-0.4-0.1-0.8-0.3-1.1-0.4C574.5,120.2,574.6,119.8,574.6,119.6L574.6,119.6z M575.7,136.6
			c0.2,0.4,0.3,0.7,0.3,1.1l0,0l0,0l-0.8,0c-0.1-0.4-0.2-0.8-0.3-1.1C575.2,136.6,575.6,136.5,575.7,136.6L575.7,136.6z
			 M576.1,159.3l-1.1-0.4c0-0.3,0-0.6,0-0.8l0,0c0.4,0.1,0.8,0.3,1.1,0.5C576.2,158.7,576.1,159.1,576.1,159.3L576.1,159.3z
			 M577.4,155.8c0,0.1,0,0.1,0,0.2l-1.1-0.4c0-0.3,0-0.6,0-0.8l0,0c0.4,0.1,0.8,0.3,1.1,0.5C577.5,155.3,577.4,155.6,577.4,155.8
			L577.4,155.8z M578.7,104.3c-0.1,0.4-0.3,0.8-0.6,1.2l-0.2-0.2c0,0.2,0.1,0.4,0.2,0.7l0.5,0c-0.1,0.4-0.1,0.8-0.2,1.2
			c-0.2,0-0.5,0-0.7,0c0,0,0,0,0,0c-0.1-0.4-0.1-0.8-0.1-1.2h0.2c0-0.3-0.1-0.6-0.2-1l0.2-1.2C578.1,104,578.7,104.2,578.7,104.3
			L578.7,104.3L578.7,104.3z M579.6,29.1c0.2,0.4,0.3,0.7,0.3,1.1l0,0l0,0l-0.8,0c-0.1-0.4-0.2-0.8-0.3-1.1
			C579.2,29,579.6,28.9,579.6,29.1L579.6,29.1z M580.2,122.7c0,0.2,0,0.3,0,0.5L579,123c0-0.2,0-0.4,0-0.7c0,0,0,0,0,0
			c0.4-0.1,0.8-0.1,1.2-0.1c0,0.1,0,0.2,0,0.2c0.3,0,0.6-0.1,1-0.2l0,0l1.2,0.2c-0.2,0.3-0.4,0.9-0.5,0.8c-0.4-0.1-0.8-0.3-1.2-0.6
			l0.2-0.2C580.7,122.6,580.4,122.6,580.2,122.7L580.2,122.7z M581.9,132.3c-0.4-0.1-0.8-0.3-1.1-0.5l0,0c-0.1-0.1,0-0.5,0-0.7
			l1.1,0.4C582,131.8,581.9,132.1,581.9,132.3L581.9,132.3z M583,126.8l-0.4,0l-0.4,0c0.1-0.2,0.1-0.4,0.2-0.6
			c0.1-0.2,0.2-0.4,0.3-0.5l0,0c0.1-0.1,0.5,0,0.7,0C583.2,126,583.1,126.4,583,126.8L583,126.8z M584.1,85.9
			c-0.5-0.6-1-1.2-1.3-1.9c0.7-0.1,1.3-0.4,1.4-0.2l0,0c0.4,0.6,0.8,1.2,1,1.9C584.9,85.7,584.3,86,584.1,85.9L584.1,85.9z
			 M585.3,112.7c0-0.2-0.1-0.4-0.1-0.6l0.4,0l0.4,0c0.1,0.4,0.2,0.8,0.3,1.2l0,0c-0.3,0-0.7,0.1-0.7-0.1
			C585.4,113.1,585.3,112.9,585.3,112.7L585.3,112.7z M585.9,128c-0.1-0.4-0.2-0.8-0.3-1.2l0,0l0,0l0,0c0.3,0,0.7-0.1,0.7,0.1
			c0.2,0.4,0.3,0.7,0.3,1.1L585.9,128L585.9,128z M587.1,100.3l-1.4-0.3c-0.4-1-0.7-1.7-1-2.4c0.8,0.2,1.5,0.5,2.2,1l0,0
			c0.1,0.1,0.2,0.2,0.3,0.4c0.3,0.4,0.5,1,0.7,1.5L587.1,100.3L587.1,100.3z M588.3,93.7c-0.4,0.2-0.7,0.3-1.1,0.3
			c0-0.2,0-0.5,0-0.8l0,0l1.2-0.3C588.4,93.2,588.4,93.6,588.3,93.7L588.3,93.7z M588.9,73.7l-0.8,0c0.1-0.4,0.3-0.8,0.5-1.1l0,0
			c0.1-0.1,0.5,0,0.7,0C589.2,73,589.1,73.3,588.9,73.7L588.9,73.7z M589.6,42.5c-0.1,0.4-0.3,0.8-0.6,1.2l-0.2-0.2
			c0,0.2,0.1,0.4,0.2,0.7l0.5,0c-0.1,0.4-0.1,0.8-0.2,1.2c-0.2,0-0.5,0-0.7,0c0,0,0,0,0,0c0-0.2-0.1-0.4-0.1-0.6s0-0.4,0-0.6h0.2
			c0-0.3-0.1-0.6-0.2-1c0.1-0.4,0.1-0.8,0.2-1.2C589,42.1,589.6,42.4,589.6,42.5L589.6,42.5L589.6,42.5z M589.9,36.3l0.8,0
			c0.1,0.4,0.2,0.8,0.3,1.2l0,0c-0.3,0-0.7,0.1-0.7,0C590.1,37.1,590,36.7,589.9,36.3L589.9,36.3z M591.5,75.5c0,0.2,0,0.4-0.1,0.6
			c-0.4-0.1-0.8-0.3-1.1-0.5c-0.1-0.1,0-0.5,0-0.7c0.4,0.1,0.8,0.3,1.1,0.5C591.5,75.4,591.5,75.4,591.5,75.5L591.5,75.5L591.5,75.5
			z M592,40.8c0,0.1,0,0.2,0,0.2l-1.1-0.4c0-0.3,0-0.5,0-0.8h0c0.4,0.1,0.8,0.3,1.1,0.5C592.1,40.3,592,40.5,592,40.8L592,40.8z
			 M591.9,34.1c0,0-0.2,0-0.3,0h0c-0.1,0-0.3,0-0.4,0c0.1-0.4,0.3-0.8,0.5-1.1l0,0c0.1-0.1,0.5,0,0.7,0
			C592.3,33.4,592.1,33.8,591.9,34.1L591.9,34.1z M592.6,51.2c0.4,0.1,0.8,0.3,1.1,0.5l0,0c0.1,0.1,0,0.5,0,0.7l-1.1-0.4
			C592.6,51.7,592.6,51.4,592.6,51.2L592.6,51.2z M594,54.7c0.1-0.1,0.5,0,0.7,0c-0.1,0.4-0.3,0.8-0.5,1.1c0,0-0.1,0-0.1,0l0,0
			c-0.2,0-0.4,0-0.6-0.1C593.6,55.4,593.8,55,594,54.7L594,54.7z M594.4,101.2l-0.8,0c0.1-0.4,0.3-0.8,0.5-1.1l0,0
			c0.1-0.1,0.5,0,0.7,0C594.7,100.4,594.6,100.8,594.4,101.2L594.4,101.2z M594.9,83c-0.2-0.4-0.3-0.7-0.3-1.1l0.8,0l0,0
			c0.1,0.4,0.2,0.8,0.3,1.2C595.4,83.1,595,83.2,594.9,83L594.9,83z M595.8,86.5c-0.1-0.4-0.2-0.8-0.3-1.2l0,0
			c0.3,0,0.7-0.1,0.7,0.1c0.2,0.4,0.3,0.7,0.3,1.1L595.8,86.5L595.8,86.5z M598.2,78.1c0,0.2,0,0.3,0,0.5l-1.2-0.2
			c0-0.2,0-0.4,0-0.7c0,0,0,0,0,0c0.4-0.1,0.8-0.1,1.2-0.1c0,0.1,0,0.2,0,0.2c0.3,0,0.6-0.1,1-0.2l0,0l1.2,0.2
			c-0.2,0.3-0.4,0.9-0.5,0.8c-0.4-0.1-0.8-0.3-1.2-0.6l0.2-0.2C598.7,78,598.5,78.1,598.2,78.1L598.2,78.1z M600.1,106.1
			c-0.2-0.4-0.3-0.7-0.3-1.1l0,0l0,0l0,0l0.8,0c0.1,0.4,0.2,0.8,0.3,1.2C600.5,106.1,600.1,106.2,600.1,106.1L600.1,106.1z
			 M600.8,69.7c0.3,0,0.7-0.1,0.7,0.1c0.2,0.4,0.3,0.7,0.4,1.1l-0.8,0C601,70.5,600.9,70.1,600.8,69.7L600.8,69.7z M601.7,83.4
			c-0.2-0.4-0.3-0.7-0.3-1.1l0.8,0c0.1,0.4,0.2,0.8,0.3,1.2C602.1,83.4,601.7,83.5,601.7,83.4L601.7,83.4z M602.4,50.5
			c-0.1,0.1-0.5,0-0.7,0l0,0l0,0l0,0c0.1-0.4,0.3-0.8,0.4-1.1l0.8,0C602.8,49.8,602.6,50.2,602.4,50.5z M603.4,36.4
			c-0.1,0.4-0.3,0.8-0.6,1.2l-0.2-0.2c0,0.2,0.1,0.4,0.2,0.7l0.5,0c-0.1,0.4-0.1,0.8-0.2,1.2c-0.2,0-0.5,0-0.7,0c0,0,0,0,0,0
			c-0.1-0.4-0.1-0.8-0.1-1.2h0.2c0-0.3-0.1-0.6-0.2-1c0.1-0.4,0.1-0.8,0.2-1.2C602.9,36,603.5,36.2,603.4,36.4L603.4,36.4
			L603.4,36.4z M603.8,54c0.4,0.1,0.8,0.3,1.1,0.5c0,0,0,0.1,0,0.1c0,0.1,0,0.2,0,0.2c0,0.1,0,0.3,0,0.4l0,0
			c-0.4-0.1-0.8-0.3-1.1-0.5C603.7,54.7,603.8,54.3,603.8,54L603.8,54z M605.6,110.4c0,0.1,0,0.3,0,0.4c-0.4-0.1-0.8-0.3-1.1-0.5
			l0,0c-0.1-0.1,0-0.5,0-0.7l1.1,0.4C605.7,110.2,605.6,110.3,605.6,110.4L605.6,110.4z M605.5,80.2c-0.1,0.1-0.5,0-0.7,0l0,0l0,0
			l0,0c0.1-0.4,0.3-0.8,0.4-1.1l0.8,0C605.9,79.5,605.7,79.8,605.5,80.2L605.5,80.2z M605.2,72.2l0.8,0c0.1,0.4,0.2,0.8,0.3,1.2l0,0
			c-0.3,0-0.7,0.1-0.7-0.1C605.4,73,605.2,72.6,605.2,72.2L605.2,72.2z M606.3,102.9c-0.1-0.4-0.2-0.8-0.3-1.2c0.2,0,0.5,0,0.6,0
			l0,0c0,0,0.1,0,0.1,0.1c0.2,0.4,0.3,0.7,0.3,1.1L606.3,102.9L606.3,102.9z M607.7,91.2c-0.4,0.2-0.7,0.3-1.1,0.3
			c0-0.2,0-0.5,0-0.8l1.2-0.3C607.7,90.8,607.8,91.2,607.7,91.2L607.7,91.2z M606.9,59.8c-0.1,0.1-0.7-0.2-1.4-0.4
			c0.5-0.6,1-1.2,1.5-1.7l0,0c0.2-0.1,0.7,0.2,1.1,0.3C607.8,58.6,607.4,59.2,606.9,59.8L606.9,59.8z"/>
	</g>
	<circle class="st0" cx="35.5" cy="63.6" r="9.5"/>
</g>
</svg>
