<?xml version="1.0" encoding="utf-8"?>
<!-- Generator: Adobe Illustrator 27.8.1, SVG Export Plug-In . SVG Version: 6.00 Build 0)  -->
<svg version="1.1" id="Calque_2_00000011737992569082256490000003313262387243328425_"
	 xmlns="http://www.w3.org/2000/svg" xmlns:xlink="http://www.w3.org/1999/xlink" x="0px" y="0px" viewBox="0 0 269.8 379.3"
	 style="enable-background:new 0 0 269.8 379.3;" xml:space="preserve">
<style type="text/css">
	.st0{fill:#5CD676;}
	.st1{fill:#16A477;}
	.st2{fill:#E8AB00;}
	.st3{fill:#0FA277;}
</style>
<g id="Calque_1-2">
	<g>
		<path id="Tracé_4739" d="M133.4,105.3C133.4,105.3,133.4,105.3,133.4,105.3c-0.4-0.2-0.5-0.7-0.3-1c2.2-3.2,5-6.1,8.1-8.6
			c7.1-5.7,15.8-9.2,24.8-9.8c11.1-0.9,17.1-4.2,20.1-6.9c1.8-1.5,3.2-3.4,3.9-5.6c0.1-0.3,0.4-0.6,0.8-0.5c0.3,0.1,0.6,0.4,0.5,0.8
			c-0.8,2.4-2.2,4.6-4.2,6.2c-3.2,2.9-9.4,6.4-20.9,7.3c-8.8,0.7-17.2,4-24.1,9.5c-3,2.4-5.6,5.2-7.8,8.3
			C134.1,105.4,133.8,105.5,133.4,105.3"/>
		<path id="Tracé_4740" d="M129.4,103.4c-0.3-0.1-0.4-0.5-0.3-0.8c1-3.7,1.5-7.5,1.4-11.3c-0.1-8.8-2.8-17.4-7.9-24.7
			c-6.6-9.5-7.8-16.6-7.6-20.9c0-2.6,0.8-5.1,2.2-7.2c0.2-0.3,0.7-0.3,0.9-0.1c0.3,0.2,0.3,0.6,0.1,0.9c-1.2,2-1.9,4.3-1.9,6.6
			c-0.2,4,1,10.8,7.3,19.9c5.2,7.5,8,16.3,8.1,25.4c0.1,3.9-0.4,7.9-1.5,11.7C130.2,103.4,129.8,103.6,129.4,103.4
			C129.2,103.4,129.2,103.4,129.4,103.4C129.8,103.6,129.4,103.4,129.4,103.4"/>
		<path id="Tracé_4741" class="st0" d="M150.1,175c-0.3-0.4-0.5-0.8-0.8-1.1h0c0,0-1.6-2-4.2-5.1c-0.5-0.6-1.1-1.2-1.6-1.8
			c-4-4.9-27.7-20.9-27.7-20.9c-5.6,9.6-10,19.9-12.9,30.6l0,0c-10.5,30.1,4.5,64.4,35.1,78.9l5,2.4c4.3,2.2,9.7,0.5,11.9-3.8
			c0,0,0-0.1,0-0.1l3.5-7.5c2.9-6.4,4.8-13.1,5.7-20.1c5.9,3.3,12.4,5.3,19.1,6l0,0c2.6,0.3,4.9-1.6,5.1-4.2l0,0
			C190.8,203.5,174.5,180.7,150.1,175"/>
		<path id="Tracé_4742" class="st0" d="M96.1,172.9c6.2-9.2,11.1-19.2,14.7-29.8c0,0-27.6-7.5-33.9-7.3c-0.8,0-1.6-0.1-2.4-0.1
			c-4,0.1-6.6,0.2-6.6,0.2l0,0c-0.5,0-0.9,0.1-1.4,0.1c-20.2-14.7-48.2-12-65.3,6.2c-1.8,1.9-1.7,4.8,0.2,6.6
			c4.9,4.6,10.7,8.2,17,10.5c-4.7,5.2-8.6,11.1-11.5,17.4l-3.4,7.6c-1.9,4.5,0.3,9.7,4.8,11.5c0,0,0.1,0,0.1,0l5,2.2
			C44.5,211.7,80.3,200.5,96.1,172.9L96.1,172.9L96.1,172.9z"/>
		<path id="Tracé_4743" class="st1" d="M118.8,77.2c-10.3,4.4-22.2-0.3-26.6-10.6c-2.3-5.3-2.2-11.2,0.2-16.4
			c0.2-0.5,0.5-1,0.8-1.5c-2.3-1.7-4.8-3.5-7.4-5.2C59.5,26.5,49.3,9.4,45.4,2c-1-1.8-3.2-2.5-5-1.5c-0.8,0.4-1.4,1.1-1.7,1.9
			C26.1,29-5,110,37.3,129.3c51.5,23.5,58.1,49.2,58.1,49.2l29.4-70.8C124.8,107.8,128,94.6,118.8,77.2"/>
		<path id="Tracé_4744" class="st2" d="M102.3,77.1c5.2,2.4,11.2,2.4,16.4,0.2c-4.7-8.8-12.6-18.7-25.7-28.5
			c-0.3,0.5-0.5,1-0.8,1.5C87.7,60.4,92.2,72.4,102.3,77.1"/>
		<path id="Tracé_4745" class="st1" d="M269.4,108.5c0.9-1.8,0.2-4.1-1.6-5c-0.8-0.4-1.7-0.5-2.5-0.3c-8.1,2-27.8,5.4-57.8-3.2
			c-3.4-1-6.6-1.8-9.8-2.4c-0.1,0.2-0.2,0.4-0.3,0.7c-4.6,10.2-16.7,14.7-26.8,10c-4.8-2.2-8.6-6.2-10.5-11.2
			c-19,4.4-26.8,15.4-26.8,15.4L99.1,181c0,0,23.8-11.8,75.3,11.7C216.6,212,257.5,135.4,269.4,108.5"/>
		<path id="Tracé_4746" class="st2" d="M197.4,98.2c0.1-0.2,0.2-0.4,0.3-0.7c-15.7-3.3-28.1-2.7-37.6-0.5
			c4,10.4,15.7,15.6,26.2,11.6C191.2,106.8,195.2,103.1,197.4,98.2"/>
		<path id="Tracé_4747" class="st3" d="M59.4,146.6c0,0-24.9,14.5-44.4,2.1c-2.1-1.1-2.9-3.7-1.8-5.9c0.3-0.6,0.7-1.1,1.2-1.4
			C18.4,138.7,25.3,129.3,59.4,146.6"/>
		<path id="Tracé_4748" class="st2" d="M66.3,58.8c-3.8,8.4-13.7,12-22.1,8.2c-8.4-3.8-12-13.7-8.2-22.1c3.8-8.4,13.7-12,22.1-8.2
			l0,0C66.5,40.6,70.2,50.5,66.3,58.8"/>
		<path id="Tracé_4749" class="st3" d="M56.6,190.8c-15.8-3.3-34.2-13-34.2-13v0c-3.9-2-8.6-0.5-10.6,3.4s-0.5,8.6,3.4,10.6
			c0,0,0.1,0,0.1,0.1c0.4,0.2,0.8,0.4,1.2,0.5l0,0c0.2,0.1,0.3,0.1,0.5,0.2c12.5,4.5,29,3.1,39.5,1.4c0.9-0.1,1.5-1,1.3-1.8
			C57.8,191.5,57.3,190.9,56.6,190.8"/>
		<path id="Tracé_4750" class="st3" d="M146.8,187.4c0,0,5.4,28.4,27.4,34.9c2.2,0.9,4.7-0.3,5.6-2.5c0.2-0.6,0.3-1.2,0.3-1.9
			C179.5,213.2,182.2,201.8,146.8,187.4"/>
		<path id="Tracé_4751" class="st2" d="M208.6,124.6c-3.8,8.4-0.1,18.3,8.2,22.1c8.4,3.8,18.2,0.1,22.1-8.2
			c3.8-8.4,0.1-18.2-8.2-22.1l0,0C222.3,112.6,212.4,116.3,208.6,124.6"/>
		<path id="Tracé_4752" class="st3" d="M115.2,218.4c12.8,9.8,32.2,17.3,32.2,17.3v0c4,1.6,5.9,6.2,4.3,10.3
			c-1.6,4-6.2,5.9-10.3,4.3c-0.4-0.1-0.8-0.3-1.2-0.6l0,0c-0.1-0.1-0.3-0.2-0.4-0.3c-11.6-6.5-21.3-19.9-26.9-29
			c-0.5-0.8-0.2-1.7,0.5-2.2C113.9,218,114.7,218,115.2,218.4"/>
		<path id="Tracé_4753" d="M134,99.5L134,99.5c2.5,1.2,3.6,4.1,2.5,6.7l0,0l-37.7,82.5c-1.2,2.5-4.1,3.6-6.7,2.5
			c-2.5-1.1-3.6-4.1-2.5-6.6l37.7-82.5C128.5,99.5,131.5,98.4,134,99.5L134,99.5"/>
	</g>
</g>
</svg>
