<?xml version="1.0" encoding="UTF-8"?>
<svg id="Calque_2" data-name="Calque 2" xmlns="http://www.w3.org/2000/svg" version="1.1" viewBox="0 0 385.7 678">
  <defs>
    <style>
      .cls-1 {
        fill: #000;
      }

      .cls-1, .cls-2, .cls-3, .cls-4, .cls-5, .cls-6 {
        stroke-width: 0px;
      }

      .cls-2 {
        fill: #555859;
      }

      .cls-3 {
        fill: #3d6cc1;
      }

      .cls-4 {
        fill: #f26144;
      }

      .cls-5 {
        fill: #ffb510;
      }

      .cls-6 {
        fill: #033c8e;
      }
    </style>
  </defs>
  <circle class="cls-2" cx="346.2" cy="217.5" r="9.5"/>
  <circle class="cls-2" cx="346.2" cy="165.5" r="9.5"/>
  <circle class="cls-2" cx="346.2" cy="113.5" r="9.5"/>
  <circle class="cls-2" cx="346.2" cy="61.5" r="9.5"/>
  <circle class="cls-2" cx="346.2" cy="9.5" r="9.5"/>
  <path class="cls-3" d="M310.5,528.1h.2c.2-2.7.4-5.5.5-8.2h-.4l-.5.2-.7-1.2c.3,0,.7-.3.8-.2.2.2.3.3.4.5s.2.3.3.5c.1-2.7.3-5.4.4-8.1h-.8c0-.2-.1-.3-.1-.5s-.1-.3-.1-.4h.7c.1,0,.3,0,.4.1,1-28-.1-55.9-3.4-83.2-.1.1-.3.1-.4.2h0c0,.2.1.4.1.5l-1.4.2c-.1-.2-.1-.5-.2-.8h0c.4-.2.8-.4,1.3-.5,0,.1,0,.2.1.3.1-.1.3-.1.5-.2-.7-5.8-1.5-11.5-2.4-17.2h-.8l-.2-.9h0c.3,0,.6,0,.9.1-1.2-7.8-2.7-15.6-4.2-23.4h-.1c-.3-.4-.5-.7-.7-1.1h.5c-.3-1.4-.6-2.7-.8-4-.5,0-.9-.1-1.4-.3v-.2c-.1.1-.3.2-.6.4v.5c.1,0-1.3.2-1.3.2-.1-.2-.1-.5-.2-.8h0c.4-.2.8-.4,1.3-.5,0,.1,0,.2.1.3.3-.1.6-.3,1.1-.5h.7c-2.3-10.4-4.9-20.6-7.8-30.7h-1.1c-.1-.1-.1-.4-.2-.7h0c.3-.1.6-.3,1-.4-2.4-8.3-5.1-16.4-8-24.5-.2.1-.4.2-.6.3-.2.1-.4.2-.6.3h0l-.9-3.4,1-.2c-.5-1.3-.9-2.5-1.4-3.8-.1.1-.2.1-.4.2-.1-.3-.1-.6-.2-.9h.2c-1-2.9-2.1-5.6-3.2-8.4-.1,0-.2-.1-.3-.2-.3-.7-.5-1.4-.6-2-.1-.2-.1-.3-.2-.5-.2,0-.4.1-.6.1,0,.1.1.3.2.4l-3.7.4-1.3-2.6c1.2-.3,2.5-1,3.5-.7.5.2.8,1,1.1,1.9h.6c-.5-1.3-1.1-2.7-1.7-4-.9-.1-1.8-.1-2.7-.3-.3,0-.5-.1-.8-.1-.5-.1-1.4-1.5-1.2-1.9.4-.7.9-1.2,1.6-1.6-.5-.5-1-.9-1.4-1.2-.2-.1-.3-.3-.5-.4-1.7-1.4-2.7-1.7-4-.4.2.6.4,1.2.6,1.9h0l-1.6-.3,1-1.5c-2-1.1-3.6-3.1-6.4-2-.3.1-1.2-1-1.8-1.6.6-.4,1.2-.8,1.9-1,1.7-.3,3.4-.4,5.1-.5l2.1-.5c.2-1.2.3-2.4.3-3.6.4.1.8.1,1.1.2-.9-1.8-1.7-3.7-2.6-5.5-.3.1-.6.2-1,.3.1-.4.1-.8.3-1.7-.4-.9-.9-1.7-1.3-2.6-.1.4-.2,1-.3,1-.5,0-1-.1-1.5-.3l.2-.4c-.2.1-.4.1-.6.2.1,0,.2.1.3.1l-3.3,1.2c-.6-1.2-1-2.5-1.2-3.8v-.3h0c.4-2,2-2.6,3.7-2.9-.4-.8-.9-1.7-1.3-2.5-.4,0-.8-.1-1.1-.2l-1.9.6c.1-.5.2-1.1.3-1.6h0l-.7-.4c0-.5-.1-.9-.1-1.4.4.1,1.1.2,1.1.3,0,.5-.1,1-.3,1.5l.8.5.3.2h.2c.2,0,.4-.2.7-.4h.2c-1.4-2.5-2.7-5.1-4.1-7.6-.2.4-.5.9-.8,1.2l.6,1.9-1.6-.3-1.9.6c.1-.5.2-1.1.3-1.6h0l-.6-1.9,1.6.3c.2-.5.6-1.1,1-1.5.2-.1.4-.2.5-.2-.9-1.6-1.8-3.1-2.7-4.7-.2,1.1-.7,2.3-1.3,3.3-1.7,2.9-1.8,2.9-3.8-.8l-2.9.3c-.1-.8-.1-1.5-.2-2.3-2.1-1.3-2.3.9-3.3,1.7-.9.5-1.8.8-2.8,1l-1.9.6c.1-.5.2-1.1.3-1.6-2-1.9-.5-3.9,1-3.4h0c4.4,1.4,5.8-1.8,8-4-3.5-.1-5.4-1.9-5.3-5.5h0l-1.1-.7-1,.7c-.3.4-.5.8-.9,1.2-.8.7-1.6,1.3-2.4,1.9-.2-.2-.3-.5-.5-.7l-2.6,1.6c1,0,2.1.3,3.1,1.1.1.1.2.2.4.3.4-.2.8-.5,1.2-.8,1.4.7,2.3,1.1,3.1,1.6.1,0,.1.1.2.1s-.2.8-.4,1.1c-.7-.2-1.4-.5-2.1-.8-1.8,1.3-3.4,2.7-4.9,4.3h0l-2.9-5.5-3,1.9c.8,2.2,3.4,3.3,5.5,4.8.7.5.7,1.8,1.1,2.8.8.5,1.6,1,2.3,1.5,1.9,1.3,3.8,3,5.9.1.2-.2,2,.8,3.1,1.2.3,0,.6.1.9.1-.1-.3-.3-.6-.4-.9l3.1.5,1.5,2.2c-1.2-.3-2.4-.6-3.6-1-2.6,1.6-5.6,2.8-8.6,3.4,2.2,1.6.1,2.8-.4,4.1.9-.2,1.9-.5,2.7-1,1.5-1,2-.8,1.6,1-.2.8-.3,1.6-.4,2.4.7-.5,1.7-.8,1.9-1.5.5-1.2.4-2.8.9-4,.4-.9,1.3-1.5,2-2.3l1.4,3h0c1.1-.2,2.1-.6,3-1.3h1.4c-.1.3-.2,1-.3,1h0c-.5,0-1-.1-1.5-.3l-2.5.6c-1.3,2.4,1.1,2.5,2.1,3.5,1,.5.7-.1.5-.8,1.2-.3,2.6-1,3.5-.6.6.2.7,2,1.1,3.1-.6.2-1.3.2-1.9.2-.6-.1-1-.6-2.1-1.2-1.4-.1-1.7.4-2,.9,1.2,1.6,4.9,1,3.7,4.5,1.1.6,2.1,1.2,3,2,.5.5.6,1.4.9,2.1l-2.8,1c0,.8.1,1.5.2,2.3.2,1,.6,1.9.9,2.8l4.1.4c.1-.2.3-.5.5-.7h1.4c-.1.3-.2,1-.3,1-.5,0-1-.1-1.5-.3l-.2.2c-.3.5-.5,1-.8,1.4,0,.1-.1.2-.1.3-.4.7-1.3.8-2,.4h0c-.6-.3-.7-1.8-1-2.7-1.3-.5-2.5-2.6-4.1-.4.1,1,.2,2,.3,3-.8.1-1.6.2-2.3.1-1.8-.6-3-2.2-2.9-4.1-.3-2.6-1.4-3-4.1-3.2-2-.1.6-2,.7-3.2l-1.6-1-1.9.6c.1-.5.2-1.1.3-1.6-1.2-1.3-2.9-3.9-3.6-3.6-3.2,1-1.4-2.8-3.2-2.9-1,1.3-2.4,4.2-3.7,1.8-2.9-5.4-3.2-.4-4.4.7-.2.2-.4.5-.5.8,1.9.3,3.9.8,5.7,1.5,2.6,1.2,4.3,2.5.3,4.7-.3.2-.6.5-.9.8-1.3,1.6-1,4,.6,5.4.4.3.2,1.5.3,2.3l1.6,1-2.5.6c0,.8-.1,1.6-.1,2.4,0,2-.4,3.3-2.8,2.3l-1,1.6c.2.9.4,1.7.6,2.5l3.1,2c.7.2.5-.7.3-1.7-.1-.5-.2-1.1-.2-1.7.6,0,1.3-.2,1.7.1,1.1.9,2.1,2,2.9,3.1.4.6.1,1.5.2,2.3-.8-.3-1.6-.5-2.4-.8-.5-.3-1.1-.6-1.5-1-.8-.2-1.1-.1-1.2.1h0c-.1,1-.1,1.9-.2,2.9l-2.9-1.3-1,1.6c1.2,1.6,4.9,1,3.7,4.5h0l1.6,1,.4-.7h1.4c-.1.3-.2,1-.3,1-.5,0-.9-.1-1.3-.2-.2.5-.3,1-.4,1.6-.1.6-.4,1.3-.5,1.9h0c-.5-.2-1.5-.5-1.5-.7.2-1.3.4-2.6.8-3.8h0l-4.7-2.9-3.5,2.1c-1.5-.8-3-1.8-4.4-2.8-.6-.5-.6-1.8-.9-2.6-.2-.9-.4-1.7-.6-2.5-1.4-.7-4.4.7-3.9-2.7.3-1.1.4-2.2.5-3.3-.1-.8-.4-1.5-.8-2.2-.1-.2-.2-.5-.3-.7-.6.6-1.2,1.3-1.8,1.8-.2.2-.5.5-.7.7,3.2,5.7,6.3,11.5,9.3,17.3.1-.2.1-.4.1-.6h0l1.6,1c-.1.5-.2,1.1-.3,1.6,0,.2-.1.4-.1.5,1.8,3.6,3.6,7.2,5.2,10.8.6-.8,1.5-1.5,1.6-2.4-.2-.6-.4-1.2-.6-1.9l1.6.3c1-1,1.1-3.5,3.5-2.1.8-1.3,1.6-2.6,2.5-3.8.1-.2.9,0,1.4.1.1,0,.3.6.1.8-.8,1.3-1.6,2.6-2.4,3.9,3.4-1.4,3.9,2.2,5.3,3.6,1.2,1.2-.4,1.4-1.6.9-.6-.2-1.9-.2-2.2.2h0c-3.6,4.6-1.5-2.7-3.4-1.6l-2.5.6c-.1,2.7-.1,3.1-1.9,4.1.7,1.5,1.4,3,2.1,4.6,0-.6,0-1.2.1-1.8,0-.1,0-.2.1-.4.1-.2.5-.3.9-.3s.6-.1.8-.1c0,.7.1,1.4.1,2v2h.1l2.2,4.9c-.6-.2-1.2-.4-1.8-.7.4,1,.9,2,1.3,3,.2-.1.4-.2.6-.3h1.4c-.1.3-.2,1-.3,1-.5,0-1-.1-1.4-.3.4,1,.8,2,1.2,3h0c0,.1.1.3.1.5,1.3,3.1,2.5,6.3,3.7,9.4h0c.3,0,.7,0,1,.1.1,0,.1.5.2.8-.3,0-.6,0-.9-.1,1.5,4,3,8,4.4,12,.6-.1,1.2-.3,2.8-1.9v-.3c.1-1.4.5-2.8,1.2-4,0-.1.1-.1.2-.2.9-.2,1.8-.2,2.7-.1-.2.7-.4,1.4-.6,2.1l-1.1-.2c.1.8.1,1.7.1,2.5h0c0,.2,0,.4-.1.5-.2.6-1.3,1-1.9,1.5-.1-.3-.2-.7-.3-1-.1.2-.3.3-.5.5-.8.2-1.6.4-2.4.7,2.7,7.7,5.1,15.4,7.3,23.2.4-.1.9-.1,1.4-.1.3-.2.6-.4,1-.7h1.4c-.1.3-.2,1-.3,1-.4,0-.9-.1-1.3-.2-.1.1-.3.2-.4.4-.2.4-.4.7-.7,1-.2.1-.3.2-.5.4.3,1,.6,2,.8,3,.4.1,1,.2,1.1.3,0,.5-.1,1-.3,1.5h-.2c.1.1.2.3.4.6h.6c.1.4.1.8.2,1.3-.2.1-.4.1-.6.1.5,1.9.9,3.8,1.4,5.6h.1-.1c3.5,14.3,6.1,28.6,8,43,.2-.1.5-.2.6-.1.3.4.5.7.7,1.1l-.9.2-.4-.7c1.6,12.2,2.6,24.5,3,36.7v-.5l.9-.2h0c0,.5-.1.9-.2,1.4,0,.1-.5.1-.7.2.1,4.6.2,9.2.2,13.7h.3c.1.3.1.6.1.8h-.4v4.1h.4c0-.1.5-.2.5-.2l.7,1.2c-.3.1-.7.3-.8.2-.2-.2-.3-.4-.4-.5h0c-.1-.2-.2-.4-.3-.6-.2,16-1.5,31.9-3.8,47.7h1.3c-.1.3-.2,1-.3,1-.4,0-.7,0-1.1-.2-6.4,43.8-20.7,86.3-43,126.1,7-2,71-21,74-24,12.4-40.9,20-83,22.9-125.1-.8-.4-.8-.8-.9-1.1h0ZM262.6,281.4c.5.9.8,1.8.9,2.7,0,.1-.3.2-.6.3h0c-.4.1-.8.2-1.1.4-.1-.6-.3-1.1-.5-1.7s-.3-1.1-.5-1.7c.7,0,1.6-.2,1.8,0h0ZM257.5,283.5h-1.4c-.1-.4-.1-.7-.2-1,.5,0,.9.1,1.3.2.2,0,.2.5.3.8h0ZM214.7,309.9h0l-.7-.4c-.1-.5-.1-.9-.1-1.4h0c.4.1,1.1.2,1.1.3-.1.6-.2,1.1-.3,1.5h0ZM218.2,307.8l2.5,2.2-4.5.9,2-3.1h0ZM220.9,316.8c-.4.3-.7.5-1.1.7l-.2-.9,1.2-.6h0c0,.2.2.7.1.8h0ZM223.1,315l-.2-.9h.7c.2,0,.4,0,.7.1.1,0,.1.5.2.8h-1.4ZM230.1,305.8h-.5c0,.1-.4.2-.4.2v-.3h0c0-.3.1-.7.1-1,.1-.1.5-.1.8-.2v1.3h0ZM237.8,637.9c0-.2-.1-.3-.1-.5s-.1-.3-.1-.4h1.4c.3,0,.1.5.2.8h-1.4,0ZM248.2,609.1c-.4-.2-.9-.4-1.3-.6.5-.7,1-1.4,1.6-2h0c.4.2.7.4,1,.6-.4.6-.8,1.3-1.3,2h0ZM250.3,654.1h-.1c-.2.2-.5.2-.7.2,0-.3,0-.7.1-1h0s.1-.2.1-.3c.1-.2.5,0,.8-.2,0,.4-.1.8-.2,1.3h0ZM252.6,584h0c-.2-.4-.4-.8-.5-1.3h.3c-.1-.4-.3-.7-.5-1.2-.1-.5-.1-.9-.1-1.4.4,0,1.1.2,1.1.3,0,.5-.1,1-.3,1.5l-.2-.2c.1.2.2.4.4.7h.6c.1.4.1.8.2,1.3-.5.2-.8.3-1,.3h0ZM303.5,418.9h.2c.1,0,.2,0,.3.1.1,0,.2.1.2.1,0,.5-.1,1-.3,1.5h-.2c.1.1.2.3.4.6h.5c0,.4.1.8.2,1.3-.2.1-.5.1-.8.2h0c-.2-.4-.4-.8-.5-1.3h.3c-.1-.4-.3-.7-.5-1.2v-1.4h.2,0ZM303.3,438.3c-.4.3-.7.5-1.1.7l-.2-.9h0l1.2-.7c0,.4.2.8.1.9h0ZM302.4,407c.3.4.5.7.7,1.1l-.9.2h0c-.2-.4-.4-.8-.7-1.2.4,0,.8-.2.9-.1h0ZM300.3,418.7c.1.2.1.5.1.7h-1.4c0-.3-.1-.4-.1-.6s-.1-.3-.1-.4h.3c.3,0,.7,0,1,.1.1.2.2.2.2.2h0ZM299.4,423.7c-.2.1-.5.1-.7.1,0-.3,0-.7.1-1,0-.1,0-.2.1-.3,0-.1.2-.1.3-.1.2,0,.4,0,.5-.1v.7c0,.2,0,.4-.3.7h0c.1-.1.1,0,0,0h0ZM297.9,437.9c.2-.2.4-.3.5-.4.2-.1.4-.2.6-.3,0,.1.1.3.1.4v.5h.1l-1.2.6c0-.3-.2-.7-.1-.8h0ZM297.3,433.5l-.7-1.2c.3-.1.7-.3.8-.2h0c.3.4.5.7.7,1.1l-.8.3h0ZM299.1,428.4c-.6.4-1.2.6-1.8.7.1-.5.2-1.1.4-2.6h0l1.7.3c-.1.5,0,1.3-.3,1.6h0ZM296.7,414.9c.3-.1.7-.3.8-.2.3.4.5.7.7,1.1h0l-.9.2-.6-1.1h0ZM295.2,385.1c0,.5-.1,1-.3,1.5.1.2.3.3.5.5.9.5,1.8.8,2.5,1.3.8.5,1.2,1.2.7,2.8.1.2.1.4.1.6h.5c.1.4.1.8.2,1.3-.2.1-.5.1-.8.2h0c-.2-.4-.4-.8-.5-1.3h.4c-1.5-1.6-3.2-2-3.7-3.2-.2-.6-.2-1.2,0-1.8-.2-.2-.5-.4-.7-.6h0c0-.5-.1-.9-.1-1.4.5-.1,1.2,0,1.2.1h0ZM295.3,411.2h.4c0,.4.1.8.2,1.3-.2.1-.5.1-.8.2h0c-.1-.2-.2-.5-.3-.7-.4-.5-.8-.9-1.2-1.3.8-1.5,1.2-2.4,1.7-3.3,0-.1.8.2,1.1.4h0c-.2.8-.5,1.5-.9,2.2-.1.1-.2.2-.5.2,0,.2.2.6.3,1h0ZM295.7,392.4c-.3,0-.7,0-1-.1-.1,0-.2,0-.3-.1-.1,0-.1-.5-.2-.8.5,0,.9.1,1.4.2h0c0,.1,0,.5.1.8h0ZM294.6,399.9c0,.5-.1,1-.3,1.5h-.2c.1.1.2.3.4.6h.5c0,.4.1.8.2,1.3-.2.1-.5.1-.8.2h0c-.2-.4-.4-.8-.5-1.3h.3c-.1-.4-.3-.7-.5-1.2h0c0-.5-.1-.9-.1-1.4.3.1,1,.2,1,.3h0ZM292.7,395.5c-.1,0-.2,0-.3-.1h0c-.1,0-.1-.5-.2-.8.5,0,.9.1,1.4.2h.1c.1.3.1.6.1.8-.5-.1-.8-.1-1.1-.1h0ZM292.2,418.6h-1.4c0-.1-.1-.6-.1-.6v-.4h.2c.3,0,.7,0,1,.1.2.2.2.7.3.9ZM292.8,433.2h0c.1.3.3.7.2.8-.4.3-.7.5-1.1.7-.1-.3-.1-.6-.2-.9l1.1-.6ZM293.8,466.9h.1c.1.3.1.6.1.8-.3,0-.7,0-1-.1h0c-.1,0-.2,0-.3-.1-.1,0-.1-.5-.2-.8.4,0,.9,0,1.3.2h0ZM295,430.6c.1.2.1.5.1.7-.3,0-.7,0-1-.1-.1,0-.2,0-.3-.1-.1,0-.1-.5-.2-.8.5,0,.9,0,1.4.3h0c-.1-.1,0-.1,0,0h0ZM295.1,454.6c.1.2.1.5.1.7-.3,0-.7,0-1-.1-.1,0-.2,0-.3-.1-.1,0-.1-.5-.2-.8.5,0,.9,0,1.4.3h0c-.1-.1,0,0,0,0h0ZM294.8,484.9c.3.4.5.7.7,1.1h0l-.9.2-.7-1.2c.3,0,.8-.2.9-.1h0ZM294.2,378.1c0-.1.5-.1.8-.2,0,.5,0,.9-.1,1.4l-.9.2h0c0-.5,0-1,.2-1.4h0ZM292.9,373.3c0-.1,0-.2.1-.3,0-.1.5-.1.8-.2,0,.5-.1.9-.2,1.4h-.1c-.2.2-.5.2-.7.2.1-.4.1-.7.1-1.1h0ZM291.3,376.3c.2,0,.5.1.7.1s.1.5.2.8h-1.4c0-.1-.1-.6-.1-.6,0-.1-.1-.3-.1-.4.2.1.4.1.7.1h0ZM291.9,388h-1.9l-.6-1-.6-1h0c.4-.1.9-.1,1.3-.1s.2,0,.3.1c.6.6,1.1,1.2,1.5,2h0ZM286.4,516.2h0s-.1-.3-.1-.4c0-.2-.1-.3-.1-.5l1.2-.7c.1.3.3.7.2.8-.5.4-.8.6-1.2.8h0ZM286,485.2h0c0-.2-.1-.3-.1-.5s-.1-.3-.1-.4h.3c.3,0,.7,0,1,.1.1,0,.1.5.2.8h-1.3ZM285.3,494.2h.1c.1.3.1.6.1.8-.3,0-.7,0-1-.1-.1,0-.2,0-.3-.1-.1,0-.1-.3-.2-.6v-.2h.7c.2.1.4.1.6.2h0ZM284.9,480.4l-.2-.9,1.2-.7h0c.1.3.3.7.2.8-.4.4-.8.6-1.2.8h0ZM283.7,457.6h0c0-.2-.1-.3-.1-.5v-.4h.2c.3,0,.7,0,1,.1.1,0,.1.5.2.8h-1.3ZM282.5,358c.3-.1.7-.3.8-.2.3.4.5.7.7,1.1l-.9.2h0l-.6-1.1h0ZM282.8,389c.2-.1.4-.2.6-.3h.1c.5-.4.9-.8,1.3-1.2,1.5.8,2.4,1.2,3.3,1.7.1,0-.2.8-.4,1.1-.8-.2-1.5-.5-2.2-.9-.1-.1-.2-.2-.2-.5-.3.1-.6.2-1,.4,0,.1.1.3.1.4h0l-1.4.2c0-.4,0-.7-.2-.9,0,0,0-.1,0,0h0ZM284.4,354.9h1.4c.1.4.1.7.2,1-.5,0-.9-.1-1.4-.2-.1,0-.1-.5-.2-.8h0ZM286.7,378.2h0l1.7.3c-.1.5,0,1.3-.3,1.6-.6.4-1.2.6-1.8.7,0-.6.2-1.1.4-2.6h0ZM287.1,396.1c.6-.2,1.3-.2,2-.1.2.1.4.3.5.5s.3.5.5.8l-1.2.8-.2.2h0c-.9-1.3-1.2-1.7-1.6-2.2h0ZM288.3,413.4h0c0,.5-.1,1-.3,1.5,0,.1-.1.2-.2.2-.1-.2-.3-.4-.5-.7,0-.5-.1-.9-.1-1.4.4.2,1.1.3,1.1.4h0ZM286.4,410.6c-.5,0-.9-.1-1.4-.2-.1,0-.1-.5-.2-.8.5,0,.9.1,1.4.2h.1c.1.3.1.6.1.8ZM286.3,416.1s.1.1.1.2c.6-.2,1-.6,1.4-1.1l.2-.2.6,1.9-1.6-.3h-.6c0,.2.1.5.1.7h-2.2c-.4-.7-.6-1.2-.9-1.6,1-.1,2,0,2.9.4h0ZM286.5,449.3h.5c0,.4.1.8.2,1.3-.2.1-.5.1-.8.2h0c-.2-.4-.4-.8-.5-1.3h.3c-.1-.4-.3-.7-.5-1.2,0-.5-.1-.9-.1-1.4.4.1,1.1.2,1.1.3h0c0,.5-.1,1-.3,1.5h-.2c0,.1.2.3.3.6h0ZM285.2,464.3h0l.9-.2c.2.4.4.8.7,1.2-.3.1-.7.3-.8.2-.3-.4-.6-.8-.8-1.2h0ZM284.8,439l-.2-.9,1.2-.7h0c.1.3.3.7.2.8-.4.4-.8.6-1.2.8h0ZM286.2,433l-.2-.9c.5,0,.9.1,1.4.2.1,0,.1.5.2.8h-1.4ZM287.4,442.5l-.7-1.2c.3-.1.7-.3.8-.2h0c.3.4.5.7.7,1.1l-.8.3h0ZM288.1,429.8c-.1,0-.1-.5-.2-.8.5,0,.9.1,1.4.2h.1c.1.3.1.6.1.8h0c-.3,0-.7,0-1-.1-.2-.1-.3-.1-.4-.1h0ZM289.2,462.1l.9-.2h0c0,.5-.1.9-.2,1.4,0,.1-.5.1-.8.2,0-.5,0-1,.1-1.4h0ZM289.2,421.7c-.1,0-.2,0-.3-.1-.1,0-.1-.5-.2-.8.5,0,.9.1,1.4.2h.1c.1.3.1.6.1.8h0c-.4,0-.8,0-1.1-.1h0ZM289.1,361.9l.9-.2h0c0,.5-.1.9-.2,1.4,0,.1-.5.1-.8.2,0-.5,0-1,.1-1.4h0ZM289,369c.4-.3.7-.5,1.1-.7.1.3.1.6.2.9h0l-1.2.7c0-.3-.2-.7-.1-.9ZM288.8,374.4c.1,0,.1.5.2.8h-1.4c0-.1-.2-1-.2-1,.5.1,1,.1,1.4.2h0ZM286.8,335.7c.1.3.3.7.2.8h0c-.4.3-.7.5-1.1.7l-.2-.9,1.1-.6h0ZM285.6,348.1c.6.5,1.2,1.1,1.8,1.8-.4.2-1,.7-1.2.6h0c-.7-.5-1.4-1-2.1-1.7.7-.4,1.3-.9,1.5-.7h0ZM284.9,339.2c0,.2.1.3.1.5s.1.3.1.4h-.7c-.2,0-.5-.1-.7-.1h-.1c-.1-.3-.1-.6-.1-.8h1.4ZM284.5,343.4h.1c.1.3.1.6.1.8h-1.4c0-.1-.2-1-.2-1,.5,0,.9,0,1.4.2h0ZM281.3,332.2l1.9-.6c-.1.5-.2,1.1-.3,1.6.1,1,.2,2,.3,2.9l-2.3.2-2.5.6c-.3.5-.6,1-.9,1.4-.8.6-1.5,1.2-2.4,1.7.2-.9.5-1.8.9-2.6,0-.1.1-.2.2-.3.4-.3,1.2-.2,1.9-.2.5-.5.9-1,1.2-1.6-.7-1.2-1.4-2.4-2.1-3.5-.3.5-.6,1-.9,1.4-.8.6-1.5,1.2-2.4,1.7.2-.9.5-1.8.9-2.6,0-.1.1-.2.2-.3h0c.4-.3,1.2-.2,1.9-.2.5-.5.9-1,1.2-1.5l3.2,1.9h0ZM280.4,375.2v-.2c-.1.1-.3.2-.6.4,0,.2.1.4.1.5l-1.4.2c-.1-.2-.1-.5-.2-.8h0c.4-.2.8-.4,1.3-.5,0,.1,0,.2.1.3.3-.1.6-.3,1.1-.5h1.4c-.1.3-.2,1-.3,1h0c-.5-.1-1-.2-1.5-.4h0ZM280.1,412.1c0-.5-.1-.9-.1-1.4.4.1,1.1.2,1.1.3,0,.4,0,.8-.2,1.1,0,.1-.1.2-.1.4l.6,1.9h0l-1.6-.3.8-1.3c0-.2-.2-.4-.5-.7h0ZM281.6,471.8c0-.3,0-.7.1-1,0-.1,0-.2.1-.3,0-.1.5-.1.8-.2h0c0,.5-.1.9-.2,1.4,0,.1-.5.1-.8.1h0ZM282.2,491.8c0,.5,0,.9-.1,1.4l-.9.2h0c0-.5.1-.9.2-1.4,0-.1.5-.1.8-.2h0ZM281.6,452.8c-.2.4-1,.5-1.5.7h0c.1-.8.1-1.6.2-2.3l1.8-.8c-.1.8-.2,1.6-.5,2.4h0ZM280.8,468h-1.4c0-.1-.1-.6-.1-.6v-.4h-.1.3c.3,0,.7,0,1,.1.2.2.2.7.3.9h0ZM280.8,438.6c0,.5-.1.9-.2,1.4,0,.1-.5.1-.8.2h0c0-.5,0-.9.1-1.4l.9-.2h0ZM280.3,460.1c.1.3.3.7.2.8-.2.2-.4.3-.5.4-.2.1-.4.2-.6.3v-.4h-.1v-.5c-.1,0,1-.6,1-.6h0ZM279.4,434.9s0,.1-.1.1c-.2.1-.5.1-.7.1h0c0-.5.1-.9.2-1.4,0-.1.5-.1.8-.2,0,.5,0,.9-.2,1.4h0ZM278.7,401.6c0,.2-.1.5-.2.7-.6.4-1.2.6-1.8.7.1-.5.2-1.1.4-2.6l1.2.2h.5c0,.4,0,.7-.1,1h0ZM276.1,424.1l1.2-.7c.1.3.3.7.2.8-.2.2-.4.3-.5.4-.2.1-.4.2-.6.3,0-.1-.1-.3-.1-.4h0c-.1,0-.2-.3-.2-.4h0ZM275.2,396.4c0,.2.1.4.1.5l-1.4.2c-.1-.2-.1-.5-.2-.8h0c.4-.2.8-.4,1.3-.5,0,.1,0,.2.1.3.3-.1.6-.3,1.1-.5h1.4c-.1.3-.2,1-.3,1h0c-.5,0-1-.1-1.5-.3v-.2c-.1,0-.3.2-.6.3h0ZM272.4,460.5h.3c-.1-.4-.3-.7-.5-1.2,0-.5-.1-.9-.1-1.4.1,0,.2,0,.3.1.4.1.8.1.8.3,0,.5-.1,1-.3,1.5h-.2c.1.1.2.3.4.6h.5c.1.4.1.8.2,1.3-.2.1-.5.1-.8.2h0c-.3-.5-.4-1-.6-1.4h0ZM270,429.7v-.2c-.1.1-.3.2-.6.4,0,.2.1.4.1.5l-1.4.2c-.1-.2-.1-.5-.2-.8h0c.4-.2.8-.4,1.3-.5,0,.1,0,.2.1.3.3-.1.6-.3,1.1-.5h1.4c-.1.3-.2,1-.3,1h0c-.5-.1-1-.2-1.5-.4h0ZM268.3,536.3h.3c-.1-.4-.3-.7-.5-1.2,0-.5-.1-.9-.1-1.4.4,0,1.1.2,1.1.3,0,.5-.1,1-.3,1.5l-.2-.2c.1.2.2.4.4.7h.5c0,.4.1.8.2,1.3-.2,0-.5,0-.8.2h0c-.3-.3-.5-.7-.6-1.2h0ZM267.8,446.5c-.4.3-.7.5-1.1.7l-.2-.9,1.2-.7c0,.3.2.8.1.9h0ZM264,415.7c.4.1.7.4,1,.6h0c-.4.7-.8,1.4-1.3,2-.5-.2-.9-.4-1.3-.6.5-.6,1-1.3,1.6-2h0ZM261.5,406.9c0-.5.1-.9.2-1.4,0-.1.5-.1.8-.2h0c0,.5,0,.9-.1,1.4l-.9.2h0ZM264.2,463.8c0-.1.5-.1.8-.2h0c0,.5,0,.9-.1,1.4l-.9.2c0-.5.1-1,.2-1.4h0ZM264.9,386.1c.8-.4,1.6-.8,2.4-1.1,0-.2-.1-.5-.1-.7,0-.5-.1-.9-.1-1.4.4.1,1.1.2,1.1.3,0,.5-.1,1-.3,1.5h-.1c0-.1.1.1.1.1h0c.2-.1.7,1.2,1.5,2.4-.9.3-1.8.5-2.8.6h-.5c-.5,0-.8-1.1-1.2-1.7h0ZM260.7,426.6c-.4.3-.7.5-1.1.7l-.2-.9,1.2-.7c0,.4.2.8.1.9h0ZM259.2,414.1h0v-.4c-.1,0-.2-.5-.2-.5l1.2-.7c.1.3.3.7.2.8-.4.3-.8.6-1.2.8h0ZM258.4,393.2l1.2-.7c.1.3.3.7.2.8-.2.2-.4.3-.5.4h0c-.2.1-.4.2-.6.3-.1,0-.2-.4-.3-.8h0ZM258.6,399.5h-.4c0,.1-.5.2-.5.2l-.7-1.2c.3-.1.7-.3.8-.2h0c.2.2.3.3.4.5.1.3.2.5.4.7h0ZM260,401.9l.7,1.2c-.3.1-.7.3-.8.2h0c-.3-.4-.5-.7-.7-1.1l.8-.3h0ZM260.5,389.4c-.2.4-1,.4-1.5.6,0-.4-.1-.8-.1-1.2-.2.2-.4.5-.6.8-.9.2-1.7.4-2.5.6,1.3-.3,2.4-1,3.1-2.2h0l2.2-.8c-.1.8-.3,1.5-.6,2.2h0ZM253.9,393.8h.5c.1.4.1.8.2,1.3-.2.1-.5.1-.8.2h0c-.2-.4-.4-.8-.5-1.3h.4c-.2-.5-.4-.9-.6-1.3-1.1-1.3.6-2.3,1.1-3.5l1.1.7h.1l.4.2-2,3.1c.1.3.1.5.1.6h0ZM250.7,400h0l-.2-.9,1.2-.7c.1.3.3.7.2.8-.5.4-.8.6-1.2.8h0ZM251.5,383.1v-.2c0,.1-.3.2-.6.4,0,.2.1.4.1.5l-1.4.2c-.1-.2-.1-.5-.2-.8h0c.4-.2.8-.4,1.3-.5,0,.1,0,.2.1.3.3-.1.6-.3,1.1-.5h1.4c-.1.3-.2,1-.3,1-.5-.2-1-.2-1.5-.4h0ZM250.2,353.3c-.1.1-.5.1-.8.2,0-.5.1-.9.1-1.4l.9-.2c0,.5,0,1-.2,1.4h0ZM248.4,349.1c.1-2,.2-4,.3-6,.8.3,2.3.5,2.3.8h0v.9c.4-.3.8-.6,1.3-1.1h1.4c-.1.3-.2,1-.3,1-.4,0-.7,0-1-.2-.3.3-.8.8-1.3,1.4,0,1.1-.1,2.2-.2,3.4l-2.5-.2h0ZM245.1,337.7l.3-.5-.7.2c0,.2.3.3.4.3,0,0-.3.7-.5.7-1.7.3-3.4.4-4.9.6l-.6-1.2h0c.2-.5.6-.9,1-1,1.1-.2,2.3-.2,3.4-.1.3.1.6.2.9.5.3-.1.7-.1,1.1-.2h1.4c-.1.3-.2,1-.3,1h0c-.5,0-1-.1-1.5-.3h0ZM236.9,333.5l-1.4.2c-.1-.2-.1-.5-.2-.8h0c.4-.2.7-.3,1.1-.4,1.1-1.6,1.9-3.4,2.3-5.3,1,.9,3.3,1.1,2.3,3.1h0c-.7,1.3-.9,3.9-3.7,2.6-.2.1-.4.1-.6.1,0,.2.2.4.2.5h0ZM235.9,317.8h.7c.2,0,.4,0,.7.1.1,0,.1.5.2.8h-1.4c0-.1-.1-.6-.1-.6h0v-.3h0ZM236.5,314.6c0-.2-.1-.3-.1-.5s-.1-.3-.1-.4h.3c.3,0,.7,0,1,.1.1,0,.1.5.2.8h-1.3,0ZM237.4,311.1c-.3-.5-.5-1-.7-1.5.6,0,1.2-.2,1.7,0,1.3.7,2.6,1.6,3.9,2.4h0c5.2,3.1,5.8,2.9,9.8-2.5-.8,0-1.5,0-2.3.2.1.7-.3,1.4-1,1.6s-1.4-.3-1.6-1c-.2-.7.3-1.4,1-1.6-.1-.6-.3-1.1-.6-1.6-.1-.2-.2-.4-.2-.5l1-1.6,4.7,2.9.4-.7h1.4c-.1.3-.2,1-.3,1-.5,0-1-.1-1.5-.3l-.5.8-.2.3v.2c-.1,0-.3.3-.3.3h0c.2.1.7.4.7.5-.7,1.5-1.2,3-1.4,4.6.2,1.5.8,2.9,1.5,4.1.1.2.2.5.4.7l.4-.2,2.2,4.6c-.3.2-.7.3-1,.3h-.2c-1.7-.2-3.3-.5-4.9-1-.4-.1-.8-1.4-.8-1.4,1.1-.6,2.1-1.2,3.2-1.8-1.1-1.1-2.5-2-4.1-2.4-.3-.1-.6-.1-.9-.2-.7-.1-1.9-.2-2.2.1-3.6,4.6-1.6-2.6-3.4-1.6-.2.1-.4.1-.6.1v.5c.1,0-1.3.2-1.3.2-.1-.2-.1-.5-.2-.8h0c.2-.1.5-.2.8-.3,1.4-3.1-1.8-2.8-2.9-4.4h0ZM237.4,298.1h0l-.6-1.9,1.6.3-1,1.6h0ZM238.8,305.5l.4.2-1.9.6c.1-.5.2-1.1.3-1.6l.4.3h0l.8.5h0ZM244.2,307.2c-1.8.1-3.6-.4-5-1.5l2-3.1,6.2,3.9c-1.1.5-2.1.7-3.2.7h0ZM237.6,304.8h0l-.7-.4c-.1-.5-.1-.9-.1-1.4h0c.4.1,1.1.2,1.1.3,0,.5-.1,1-.3,1.5h0ZM247.7,303.1h0l1.6.3c-.3.5-.6,1-1,1.6l-.6-1.9ZM249.6,301.4c-.1-.5-.1-.9-.1-1.4h0c.1,0,.2,0,.3.1h.2c.1,0,.2,0,.3.1.1,0,.2.1.2.1,0,.5-.1,1-.3,1.5h0l.6,1.9-1.6-.3.8-1.3c0-.2-.2-.4-.4-.7h0ZM255,313.9c.1,0,.1.5.2.8h-1.4c0-.1-.2-1-.2-1,.6.1,1,.1,1.4.2h0ZM275.9,374.2c-.2-.6-.2-1.3-.1-2h0c.1-.4.8-.6,1.3-1,.4.6.8,1.2,1,1.4l-2.2,1.6h0ZM278.4,387c0,.5,0,.9-.1,1.4h0l-.9.2c0-.5.1-.9.2-1.4,0-.1.5-.1.8-.2h0ZM275,350.3l1,1.4-2.1,1.5c-.2-.6-.2-1.3-.1-2h0c0-.3.7-.5,1.2-.9ZM274.9,342.4h0l.9-.2.7,1.2c-.3.1-.7.3-.8.2-.3-.4-.6-.8-.8-1.2h0ZM273.2,369.5h0c.5-.6,1.1-1.2,1.8-1.8.2.4.7,1,.6,1.2-.5.7-1,1.4-1.7,2.1-.4-.7-.8-1.4-.7-1.5h0ZM272.6,361.6h0c0-.5,0-.9.1-1.4l.9-.2c0,.5-.1.9-.2,1.4,0,.1-.5.1-.8.2h0ZM272.6,326.4c.1-.5.2-1.1.3-1.6l1.6,1-1.9.6h0ZM273.3,377.3c.4.2.4,1,.6,1.5h-1.3c.2.3.5.6.8,1v-.2c.5.3,1,.6,1.4.9.6.8,1.2,1.5,1.7,2.4-.9-.2-1.8-.5-2.6-.9-.1,0-.2-.1-.3-.2-.2-.3-.3-.6-.2-1-.4-.4-.8-1-1.5-1.8h0c-.3-.9-.6-1.6-.8-2.2.7,0,1.4.2,2.2.5h0ZM267.3,352.1c.3.4.5.7.7,1.1l-.9.2c-.2-.4-.4-.8-.7-1.2h0c.3,0,.8-.2.9-.1h0ZM267.2,349.4c0-.5.1-.9.2-1.4,0-.1.5-.1.8-.2,0,.5,0,.9-.1,1.4l-.9.2h0ZM268.5,361.3h0c.6.5,1.2,1.1,1.8,1.8-.4.2-1,.7-1.2.6-.7-.5-1.4-1-2.1-1.7.7-.4,1.3-.9,1.5-.7h0ZM270.7,341.2c.1.2.1.5.1.7-.3,0-.7,0-1-.1-.1,0-.2,0-.3-.1-.1,0-.1-.3-.2-.6v-.2h.7c0,.1.4.2.7.3h-.1c0-.1,0,0,.1,0h0ZM270.8,354c0,.5,0,.9-.1,1.4h-.5c0,.1-.4.2-.4.2,0-.3,0-.7.1-1h0c0-.1,0-.2.1-.3.1-.3.5-.3.8-.3h0ZM268.9,373.2c.3,0,.7,0,1,.1h.1c.1.3.1.6.1.8h0c-.3,0-.7,0-1-.1-.1,0-.2,0-.3-.1-.1,0-.1-.2-.1-.3,0-.2,0-.4-.1-.5h.3ZM270.3,388.9c.3.4.5.7.7,1.1h0l-.9.2-.7-1.2c.4,0,.8-.2.9-.1ZM271.3,337.6c-.7.1-1.5.1-2.2,0-1.1-.4-1.4-.8-1.3-1.2-.1.1-.1.2-.2.3-.3.5-.6,1-1,1.6,1.9,1.8.9,3.2-1,3.4-1.2.2-2.7-1-1.6-2.9l-2.5-2.3c.9-.5,1.9-.9,2.9-1.1,1.1.2,2.1.6,3.1,1.2.1-.2.3-.5.5-.8h0c.3-.6.6-1.2,1-1.9l2.3-1.2c.1,1.6.1,3.2,0,4.9h0ZM264.8,350.9c-.4.3-.7.5-1.1.7-.1-.3-.1-.6-.2-.9l1.2-.7h0c0,.3.2.7.1.9h0ZM257.9,376.7h0l-1-2.1,3.9-.4c-.1.5,0,1.4-.4,1.5-.8.4-1.6.7-2.5,1h0ZM258.9,368c0-.1.1-.1.2-.2v-1.8c0-.5-.1-.9-.1-1.4.4.1,1.1.2,1.1.3,0,.5-.1,1-.3,1.5l-.6-.4c.1.4.2.8.3,1.4.3-.2.7-.3,1-.5-.2,1-.3,2.1-.5,3.1l-2.2,1.5c.2-1.1.6-2.3,1.1-3.5h0ZM260.5,362.6c-.5-.9-.8-1.8-.9-2.7,0-.3.8-.6,1.3-.9.5,1.2.9,2.5,1.4,3.8h0c-.7-.2-1.6,0-1.8-.2h0ZM261.8,346c1.1,2.9.2,4.5-2.9,4.7-.2.1-.4.1-.6.1v.5c.1,0-1.3.2-1.3.2-.1-.2-.1-.5-.2-.8h0c.2-.1.5-.2.7-.3h0c1.5-2.9,1.7-3,4.3-4.4h0ZM254.1,370l-1.5-2.1c.6-.2,1.3-.2,2-.1h0c.4.1.6.8,1,1.3l-1.5.9h0ZM254.4,387.7c0,.5-.1,1-.3,1.5h0l-.6-.4c-.1-.5-.1-.9-.1-1.4h0c.4,0,1.1,0,1.1.3h0ZM253.1,358.5c.1,0,.1.5.2.8h-1.4c0-.1-.1-.6-.1-.6v-.4h.2c.5,0,.8.1,1.1.2h0ZM252,335.6c-.1-.5-.1-.9-.1-1.4.4.1,1.1.2,1.1.3h0v.4c-.1.3-.1.6-.2.9.1.1.2.3.4.5-.1-.1-.3-.2-.4-.2.1.1.3.2.4.2l.3.2c.2.1.5.3.7.5.6.8,1.2,1.5,1.7,2.4-.9-.2-1.8-.5-2.7-.9-.1,0-.2-.1-.3-.2-.2-.3-.3-.6-.2-1v-.6c-.2-.4-.4-.7-.7-1.1h0ZM254.8,328.2c-.3-.4-.5-.7-.7-1.1h0l.9-.2.7,1.2c-.4,0-.8.2-.9.1h0ZM256.5,332.2l.2.9c-.5,0-.9-.1-1.4-.2h0c-.1,0-.1-.5-.2-.8h1.4,0ZM255.3,361.5c0-.5.1-.9.1-1.4h.5c0-.1.4-.2.4-.2v.3c0,.3,0,.7-.1,1-.2.2-.7.2-.9.3h0ZM255.6,357.4c0-.5.1-.9.1-1.4h0l.9-.2c0,.5-.1.9-.2,1.4,0,.2-.5.2-.8.2h0ZM255.3,348.1c-.2-.6-.2-1.3-.1-2h0c.1-.2.3-.4.5-.5s.5-.3.8-.5l.3.4.7,1-2.2,1.6h0ZM258.4,341.7c-.2.1-.5.1-.8.2,0,.1,0,.2.1.3l-1.4.2c-.1-.2-.1-.5-.2-.8h0c.4-.2.8-.4,1.3-.5v.6c.3,0,.5-.1.7-.1h0l2.9-.3c.1.8.1,1.5.2,2.3l-2.8-1.9h0ZM259.2,311.1c-.5,0-1-.1-1.5-.3v-.2c-.1.1-.3.2-.6.4v.5h.1l-1.4.2c-.1-.2-.1-.5-.2-.8h0c.4-.2.8-.4,1.3-.5,0,.1,0,.2.1.3.3-.1.6-.3,1.1-.5h1.4c-.1.2-.2.9-.3.9h0ZM243.7,326.7l.8-.2c.1.5.1.9.2,1.4-.2.1-.5.1-.8.2h0c-.2-.4-.4-.8-.5-1.3h.1c-.2-.3-.4-.6-.7-1.1l-1.4-2c1.6-.2,3.1-.5,4.7-.6h0c.2,0,.5.9.8,1.4l-4,1.1c0,.3.4.7.8,1.1h0ZM238.8,320.2c.2-.4,1-.5,1.5-.7h0c-.1.8-.1,1.6-.2,2.3l-1.8.8c0-.8.3-1.6.5-2.4h0ZM244.4,331.5v.3c.1,0-1.3.2-1.3.2-.1-.2-.1-.5-.2-.8h0c.4-.2.8-.4,1.3-.5,0,.2.1.4.1.6.2,0,.4-.1.6-.1h0c1.3-.2,2.4-1,3.1-2.2l2.2-.8c-.1.8-.3,1.5-.6,2.3-.2.4-.9.4-1.5.6,0-.4-.1-.8-.1-1.2-.2.2-.4.5-.6.8-1,.1-2,.5-3,.8h0ZM250.3,340c-.5,0-.9-.1-1.4-.2-.1,0-.1-.5-.2-.8h1.4c0,.4,0,.7.2,1h0ZM247.6,355.3c.1-.1.5-.1.8-.2,0,.5-.1.9-.2,1.4h-.1c-.2.2-.5.2-.7.2,0-.3,0-.7.1-1v-.4h0ZM247.8,334.8c0-.2-.1-.3-.1-.5v-.4h.6c.2,0,.4,0,.7.1h0c.1.1.1.5.2.8h-1.4ZM250.8,364h0c.3,0,.7,0,1,.1.1,0,.1.5.2.8h-1.4c0-.3-.1-.4-.1-.6s-.1-.3-.1-.4c.1.1.2.1.4.1h0ZM251.9,370.3c0,.5-.1.9-.1,1.4h0l-.9.2c0-.5.1-.9.2-1.4,0-.1.5-.1.8-.2h0ZM255.1,378.5h0c-.1-.1-.1-.5-.2-.8.5,0,.9.1,1.4.2.1,0,.1.5.2.8-.5-.1-.9-.1-1.4-.2h0ZM260.6,382.8l-.8-2.2c.8.1,1.6.3,2.3.6.4.2.4,1,.6,1.5h-1.6c.3.5.6.9,1,1.3l.8-.2c0,.5.1.9.2,1.4-.2.1-.5.1-.8.2h0c-.2-.3-.3-.6-.4-1-.4-.6-.9-1.1-1.3-1.6h0ZM261.9,390.8c.3-.1.7-.3.8-.2.3.4.5.7.7,1.1l-.9.2-.6-1.1h0ZM263.3,357.4c.5-.7,1-1.4,1.6-2,.4.1.7.4,1,.6-.4.7-.8,1.4-1.3,2h0c-.4-.1-.8-.4-1.3-.6h0ZM265.8,363.9h0c.4.1.6.8,1,1.3l-1.4,1-1.5-2.1c.5-.2,1.2-.3,1.9-.2h0ZM264.7,379.4h0c.5-.6,1.1-1.2,1.8-1.7.2.4.7,1,.6,1.2-.5.7-1,1.4-1.7,2.1-.3-.8-.8-1.4-.7-1.6h0ZM265,393c.4-.2.8-.4,1.3-.5,0,.1,0,.2.1.3.3-.1.6-.3,1.1-.5h1.4c-.1.3-.2,1-.3,1-.5,0-1-.1-1.5-.3v-.2c-.1.1-.3.2-.6.4,0,.2.1.4.1.5h0l-1.4.2c-.1-.3-.1-.6-.2-.9,0,.1,0,0,0,0h0ZM266.1,423.3c.3.4.5.7.7,1.1h0l-.9.2-.7-1.2c.3,0,.8-.2.9-.1h0ZM267.5,404c-.1-.2-.1-.5-.2-.8h0c.4-.2.8-.4,1.3-.5,0,.1,0,.2.1.3.3-.1.6-.3,1.1-.5h1.4c-.1.3-.2,1-.3,1-.5,0-1-.1-1.5-.3v-.2c-.1.1-.3.2-.6.4,0,.2.1.4.1.5h-1.4ZM268.2,465.6l-.2-.9,1.2-.7h0c.1.3.3.7.2.8-.4.3-.8.6-1.2.8h0ZM268.9,454.7c-.2-.2-.3-.4-.4-.5-.1-.2-.2-.4-.3-.6h.4c0-.1.5-.2.5-.2h0c.2.4.4.8.7,1.2-.4,0-.8.2-.9.1h0ZM268.7,437.1c-.1,0-.2,0-.3-.1-.1,0-.1-.5-.2-.8.5,0,.9.1,1.4.2.1,0,.1.5.2.8h0c-.4-.1-.8-.1-1.1-.1h0ZM271,425.2l1.2-.7h0c.1.3.3.7.2.8-.4.3-.7.5-1.1.7l-.3-.8h0ZM272.5,451.2l.7,1.2h0c-.3.1-.7.3-.8.2-.3-.4-.5-.7-.7-1.1l.8-.3h0ZM273,448.5c-.2.1-.5.1-.7.1,0-.3,0-.7.1-1,0-.1,0-.2.1-.3,0-.1.5-.1.8-.2,0,.5,0,.9-.3,1.4h0c.1-.1.1,0,0,0h0ZM273.4,437.6h-.5c0,.1-.7-1.1-.7-1.1.3-.1.7-.3.8-.2.2.2.3.4.4.5h0c.1.2.2.4.3.6l-.3.2h0ZM271.9,417.3h0l.4,1.8h-.4l-1.7.2c-.3-.8-.5-1.6-.6-2.4v-.3c.1-.5,1.2-.9,1.9-1.3.1.3.1.7.2,1l.5-.5h0l2.5-.6c-.6.2-1.2.4-2.8,2.1h0ZM279.7,369.4l.9-.2.7,1.2h0c-.3.1-.7.3-.8.2-.3-.4-.6-.8-.8-1.2h0ZM282.1,364.8c-.5,0-1-.1-1.5-.3l.3-.4c-.2.1-.5.2-.9.3.1.2.1.6.1.9h-2.2c0-.1-.9-1.7-.9-1.7.9.2,1.8.3,2.6.5.4,0,.9-.1,1.4-.2h1.4c-.1.1-.2.9-.3.9h0ZM278.6,346.9l-.9.2-.7-1.2h0c.3-.1.7-.3.8-.2.4.4.6.8.8,1.2h0ZM278.4,340.3h.3c.3,0,.7,0,1,.1.1,0,.1.5.2.8h-1.4c0-.3-.1-.4-.1-.6.1,0,0-.2,0-.3h0ZM280.8,353.7c-.2.5-.6,1.1-1,1.5-.6.3-1.2.5-1.9.7.1-.5.2-1.1.3-1.6.3-.5.6-1,.9-1.5-1.9-1.8-.9-3.2,1-3.4,1.2-.2,2.7,1,1.6,2.9h0l.6,1.9-1.5-.5h0ZM278.2,330.3l-3.7-4.5c1.9-2.4,3.3-.1,4.4.7,1.8,1.3-.2,2.5-.7,3.8h0ZM275.7,310.6c.4-.3.7-.5,1.1-.7h0l.2.9-1.2.7c0-.3-.2-.8-.1-.9ZM275.4,321.2h0c.4-.2.8-.4,1.3-.5v.3c.4-.1.7-.3,1.2-.5h1.4c-.1.3-.2,1-.3,1-.5,0-1-.1-1.5-.3v-.2c-.1.1-.3.2-.6.4v.5c.1,0-1.3.2-1.3.2-.1-.4-.1-.6-.2-.9h0ZM275,313.5h.1c.1.3.1.6.1.8h0c-.3,0-.7,0-1-.1-.1,0-.2,0-.3-.1-.1,0-.1-.5-.2-.8.4,0,.9,0,1.3.2h0ZM272.9,324.8l-1.5-.9c-.2.1-.4.2-.6.2v.4c.1,0-1.3.2-1.3.2-.1-.2-.1-.5-.2-.8h0c.4-.2.8-.4,1.3-.5,0,.2.1.4.1.6.2,0,.4-.1.6-.1h0l1.9-.6c0,.4-.2,1-.3,1.5h0ZM271.9,319.4c-.4.6-1.3.9-1.9,1.4.1-.6.1-1.1.2-1.8-.3.4-.6.8-.9,1.3-1,.1-2,.2-3,.3-.5,0-1.1.1-1.6.1l2.9,5.9c1.1,1,.9,5-.4,5.3-.6.1-1.5-.9-2.3-1.3-.3.5-.6,1-.9,1.4-.8.6-1.5,1.2-2.4,1.7.2-.9.5-1.8.9-2.6,0-.1.1-.2.2-.3.3-.2.6-.2.9-.2,1.3-2.5.5-2.9-.8-2.7-.2,0-.4.1-.6.1-.8.2-1.3,1.1-2,1.6,0-1.6,0-3.2.1-4.9.6-.2,1.3-.3,1.9-.2,1.5.5,2.8-.1,1.4-1.1h0c-3.5-2.4.8-5-.6-7.2h0c-.1-1-.2-1.9-.3-2.9l2.3-.2-2,3.1c.8.5,1.8,1.5,2.2,1.3,2.5-1.3,2.7.7,3.4,1.9.6-.5,1.2-1.2,1.7-1.8l2.7-1.5c-.3,1.3-.7,2.3-1.1,3.3h0ZM262.2,307.2h-.2c.1.1.2.3.4.6h.5c0,.4.1.8.2,1.3-.2.1-.5.1-.8.2h0c-.2-.4-.4-.8-.5-1.3h.3c-.1-.4-.3-.7-.5-1.2,0-.5-.1-.9-.1-1.4.4.1,1.1.2,1.1.3,0,.4,0,.8-.2,1.1-.1.2-.2.3-.2.4h0ZM270.5,308c.1-.3.5-.5.9-.7.1-.1.2-.1.4-.2l.6.8h0l.4.6-2.1,1.5c-.2-.7-.3-1.3-.2-2h0ZM269.5,313h1.4c-.1.3-.2,1-.3,1-.5,0-1-.1-1.5-.3-1.6,2.2-2.8.1-4.1-.4,1.6-2.2,2.7-.2,4,.4.1-.3.3-.5.5-.7h0ZM265.7,309.3c.3-.8.7-1.6,1.1-2.4s.9,0,1.4,0c-.2.8-.5,1.6-.8,2.3h0c-.1.3-.9.1-1.7.1h0ZM260.5,299.6h0c-.1-1-.2-2-.3-2.9h0l2.3-.2-2,3.1c2.7,1.2,6-2.4,8.4.9.4.7.6,1.5.5,2.2,0,.4-.8.7-1.2,1.1-2.2-4.2-6.2-1.9-7.5-.5h0c-4,4.4-1.9-2.6-3.7-1.6-.1,0-.3.1-.4.1,1.9-1,2.9-1.6,3.9-2.2h0ZM256.4,301.9h.2-.2v.6c.1,0-1.3.2-1.3.2-.1-.2-.1-.5-.2-.8h0c.4-.2.8-.4,1.3-.5,0,0,0,.3.2.5h0ZM252.4,290.5h0c.1,0,.1.5.2.8h-1.4c0-.1-.2-1-.2-1,.5.1.9.1,1.4.2h0ZM244,294.9c.4-.2.8-.4,1.3-.5,0,.1.1.3.1.5,1.1-.7,2.1-1.6,2.9-2.6-.3,2.9,3.7,1.1,3.9,3.5.1.3.2.6.5.8.4-.3.7-.7,1-1l2.2-.8c-.1.8-.3,1.6-.6,2.3-.2.4-.9.4-1.5.6,0-.4-.1-.8-.1-1.2-.2.2-.4.5-.6.8-.9.1-2,.6-2.8.3h0c-1.6-.8-3-1.7-4.4-2.7-.2.1-.4.1-.6.1,0,.2.1.4.1.5l-1.4.2c.1-.2.1-.5,0-.8h0ZM243.3,298.5c.4,2.8,3.7-.1,3.3,2.2-.5,2.8-2.5,1.5-4.1,1.1-.3-.1-.9.6-1.4.9h0c-1.2-1.6-4.9-1-3.7-4.5,1.2.5,2.2,2.4,3.9.8.6-.6,1.7-2.7,2-.5h0ZM239.1,285.1h1.4c-.1.3-.2,1-.3,1-.5,0-1-.1-1.5-.3l.4-.7h0ZM230,289.1c.9-1.3,4.3-1.1,2.4-4.1-.7-1.1-1.4-2.3-1.9-3.6-.1-.3.6-1,1-1.3.4-.1.9.1,1.1.4.4.9.3,2.8,1.9,1.1,2.3-2.2,2.8-2.2,1.6,1-.8,2.1,1.4,2.2,2.4,3.1l-1,1.6c.2.9.4,1.7.6,2.5,2.9,1.1,3.2,2.8,1.2,5.1h0l.6,1.9h0l-1.6-.3,1-1.5-3.1-2,2-3.1-1.6-1c-.1.1-.1.2-.2.2-1.8,1.8-4.6,1.8-6.4,0h0ZM233.1,295.7h.4c.1.4.1.8.2,1.3-.2.1-.5.1-.8.2h0c-.2-.4-.4-.8-.5-1.3h.6c0-.3-.1-.5-.1-.7l-.6-1.9h0l1.6.3-.9,1.5c-.1.1,0,.3.1.6h0ZM233.4,313h0c-.2,0-.5-.3-1.5-.9.4-1.2.8-2.6,1.5-3.9.1-.1.1-.2.2-.2.4-.2.8-.4,1.2-.5,0,.8-.1,1.7-.1,2.5s-.1,1.7-.2,2.5c.1.1-.6.4-1.1.5h0ZM234.5,326.8c.4-.6.8-1.2,1.2-1.8,0,0,.1-.1.1-.2.4-.6,1.3-.8,1.9-.4h0c.6.3.7,1.8,1,2.7l-4.2-.3c.1.8.3,1.8-.1,2.4s-1.5.6-2.4,1l-1.7-3.2,4.2-.2h0ZM229.4,331.8c.7-.4,1.3-.8,1.5-.7h0c.3.2.6.5.9.8.3.3.6.6.8.9-.1.1-.2.1-.3.2-.3.2-.7.5-.9.4-.7-.4-1.4-1-2-1.6h0ZM231.1,336.3c1.7.1,3.3.1,5,.3h0c.1,0,.2,1.4,0,1.5-1.2.5-2.4,1-3.7,1.4l-1.3-3.2h0ZM234.2,347.6h-.1c-.2.2-.5.2-.7.2,0-.5.1-.9.2-1.4.1-.1.5-.1.8-.2,0,.5,0,1-.2,1.4h0ZM236.7,360.4c-.3-.7-1-1.4-.9-2,.1-1.4.5-2.7,1.1-4,.2-.5,1.4-.6,2.1-.8.3.9.6,1.9.9,2.8l.6,1.9-1.6-.3-2.2,2.4h0ZM236.3,347.7l2.1-1c.1,1.3.3,2.6.4,3.9-.5-.1-1.4,0-1.6-.4h0c-.3-.8-.7-1.6-.9-2.5ZM244.2,356.1l-.9.2h0c0-.5.1-.9.2-1.4.1-.1.5-.1.8-.2,0,.5-.1.9-.1,1.4ZM244.4,348c-.2-.4-.4-.8-.5-1.3h.5c-.4-.7-.9-1.3-1.6-1.7-.9.1-2,.6-2.8.3h0c-1.5-.8-2.9-1.6-4.2-2.6l-.7.3c0,.1.1.2.1.3l-1.4.2c-.1-.2-.1-.5-.2-.8h0c.4-.2.8-.4,1.3-.5,0,.2.1.4.1.6.2,0,.4-.1.6-.1.9-.1,2-.6,2.8-.3,1.6.8,3,1.7,4.4,2.7.3-.4.5-.8.8-1.2-.1-.2-.3-.5-.5-.8-.1-.5-.1-.9-.1-1.4.4.1,1.1.2,1.1.3,0,.5-.1,1-.3,1.5.2.9.4,1.7.6,2.5.1.2.1.4.1.6h.5c.1.4.1.8.2,1.3-.3,0-.5.1-.8.1q0,0,0,0h0ZM245.1,351.9c.5-.6,1.1-1.2,1.8-1.8.2.4.7,1,.6,1.2-.5.7-1.1,1.4-1.7,2.1h0c-.4-.7-.8-1.3-.7-1.5h0ZM243.4,368.6h0c.4-.2.8-.4,1.3-.5,0,.2.1.3.1.5.5-.3,1-.8,1.4-1.3h.1c0,0,0,0-.1,0-.1-.3-.3-.5-.5-.8-.1-.5-.1-.9-.1-1.4.4.1,1.1.2,1.1.3h0c0,.5-.1,1-.3,1.5h0l.6,2.5c.1.2.1.4.1.6h.5c.1.4.1.8.2,1.3-.2.1-.5.1-.8.2h0c-.2-.4-.4-.8-.5-1.3h.5c-.4-.7-.9-1.3-1.6-1.7-.2.1-.4.1-.5.1v.5c.1,0-1.3.2-1.3.2-.1-.2-.1-.4-.2-.7h0ZM245.5,385.2h-.5c0,.1-.4.2-.4.2,0-.2,0-.5.1-.7h0c0-.2.1-.5.1-.7.1-.1.5-.1.8-.2-.1.5-.1.9-.1,1.4h0ZM245.4,382c-.2-.9-.2-1.8-.2-2.7.1-.4.8-.7,1.2-1h0c.4,1.2.9,2.5,1.3,3.7h-2.3ZM248.4,377.1l-.8-1.8c.8.1,1.6.2,2.4.5.4.2.5,1,.7,1.5h0l-2.3-.2h0ZM249.4,403.7l2.5-.6c.6.4,1,.6,1.2.8-.1-.1-.3-.2-.4-.3-.2-.2-.2-.8-.3-1.2.5-.1,1.1-.1,1.6,0,.8.3,1.6.8,2.2,1.4.8.7,1.6,1.6,2.3,2.4-1-.2-2-.4-2.9-.6-.3-.1-.5-.3-.8-.5h0c-3.7-1.8-4.5-1.6-5.4-1.4h0ZM253.6,407.4h-1.4c0-.1-.2-1-.2-1,.5,0,.9.1,1.4.2,0,0,0,.5.2.8h0ZM253.3,411.4l-1.4.2c-.1-.2-.1-.5-.2-.8h0c.4-.2.8-.4,1.3-.5v.6c.3,0,.5-.1.7-.1,1.1-.2,2.1-.6,3-1.3h1.4c-.1.3-.2,1-.3,1h0c-.5,0-1-.1-1.5-.3-1,.2-2.1.5-3.1.9v.3h0ZM257.2,439c-.4-.2-.5-1-.7-1.5.8.1,1.6.2,2.4.5h0c.4.2.5,1,.9,1.8-1-.2-1.8-.5-2.6-.8h0ZM260.2,436.8h0l-.2.2-1.5-2.1c.6-.2,1.3-.2,2-.1.3.1.5.5.7.9.1.1.1.2.2.4l-1.2.7ZM261.3,400c-.1-.2-.1-.5-.2-.8h0c.4-.2.8-.4,1.3-.5,0,.1,0,.2.1.3.3-.1.6-.3,1.1-.5h1.4c-.1.3-.2,1-.3,1-.5,0-1-.1-1.5-.3v-.2c-.1.1-.3.2-.6.4,0,.2.1.4.1.5h-1.4ZM262.1,490.3l-.8-1.8c.8.1,1.6.2,2.4.5h0c.4.2.5,1,.7,1.5l-2.3-.2h0ZM259.9,533.3s0-.2.1-.3c0-.2.5,0,.8-.2,0,.5-.1.9-.2,1.3h-.1c-.2.2-.5.2-.7.2,0-.3,0-.7.1-1h0ZM260.6,606.3c-.3-.3-.5-.7-.7-1.2l.9-.2h0l.7,1.2c-.4,0-.8.3-.9.2h0ZM261.5,622.2c-.3-.3-.5-.7-.7-1.1h0l.9-.2.7,1.2c-.3,0-.8.2-.9,0h0ZM263.2,496.4c.4-.2.8-.4,1.3-.5,0,.1,0,.2.1.3.3-.1.6-.3,1.1-.5h1.4c-.1.3-.2,1-.3,1-.5,0-1-.1-1.5-.3v-.2c-.1.1-.3.2-.6.4,0,.2.1.4.1.5h0l-1.4.2c-.1-.3-.2-.6-.2-.9h0ZM263.5,562.4c-.1,0-.1-.5-.2-.8.5,0,.9,0,1.4.2.1,0,.1.5.2.8h-1c-.2,0-.3,0-.4,0h0ZM264.8,566.9s0-.2.1-.3c0-.2.5,0,.8-.2,0,.5,0,.9-.1,1.3h-.5l-.4.2c.1-.3.1-.7.1-1h0ZM265.7,574.4s-.5,0-.8.2c0-.3,0-.7.1-1h0s0-.2.1-.3c0-.2.5,0,.8-.2,0,.4-.1.8-.2,1.3h0ZM266.2,507.4c-.3-.4-.5-.7-.7-1.1l.9-.2h0l.7,1.2c-.4,0-.8.2-.9.1h0ZM267.2,517.9h.3c.3.3.5.7.7,1.2h0l-.9.2-.7-1.2c.3,0,.5-.2.6-.2h0ZM269.1,587c-.1.2-.9,0-1.7,0,.3-.8.7-1.6,1.1-2.4h0c.1-.2.9,0,1.4,0-.2.8-.5,1.6-.8,2.4h0ZM270.9,573.3l-.9.2h0c0-.5.1-.9.2-1.3,0-.2.5,0,.8-.2,0,.4,0,.8-.1,1.3h0ZM270.8,471.2c-.1,0-.1-.5-.2-.8.5,0,.9.1,1.4.2.1,0,.1.5.2.8h0c-.3,0-.7,0-1-.1,0,0-.2-.1-.4-.1h0ZM271.8,569.5c0-.2-.1-.3-.1-.4h1.4c.1,0,.1.5.2.8h-1.4c0-.2,0-.4-.1-.5h0ZM274.4,598.7c-.4.3-.7.5-1.1.7l-.2-.9h0l1.2-.7c0,.4.2.8.1.9ZM274,455.9l-.2-.9c.5,0,.9.1,1.4.2h.1c.1.3.1.6.1.8h-1.4ZM274.7,429.5l4.9-2.1h0c-.2.8-.3,1.8-.8,2.3-.9.8-1.9,1.4-2.9,2l-1.2-2.2h0ZM276.5,437.4c0-.1-.1-.3-.1-.4h.3c.3,0,.7,0,1,.1h0c.1,0,.1.5.2.8h-1.4c.1-.2,0-.3,0-.5ZM277.9,569h-.1c-.2.2-.5.2-.7.2,0-.3,0-.7.1-1h0s0-.2.1-.3c0,0,.5,0,.8-.2,0,.4,0,.8-.2,1.3h0ZM280,505.8c.6.5,1.2,1.1,1.8,1.8h0c-.4.2-1,.7-1.2.6-.7-.5-1.4-1-2.1-1.7.7-.4,1.3-.8,1.5-.7h0ZM280.1,530.3c0,.5-.1,1-.3,1.5l-.2-.2c.1.2.2.4.4.7h.5l.2,1.3c-.2,0-.5,0-.8.2h0c-.2-.4-.4-.8-.5-1.3h.3c-.1-.4-.3-.7-.5-1.2h0c0-.5-.1-.9-.1-1.4.3,0,1,.2,1,.4h0ZM279.3,561.6c0-.2-.1-.3-.1-.5s-.1-.3-.1-.4h.3c.3,0,.7,0,1,.2.1,0,.1.5.2.8h-1.3ZM280.8,549.3h-.3c-.1,0-.1-.5-.2-.8h0c.5,0,.9,0,1.4.2.1,0,.1.5.2.8-.4,0-.7,0-1.1,0h0ZM282.8,578.6h-.5l-.4.2v-.3c0-.3,0-.7.1-1h.8v1.3h0v-.2ZM281.6,404.4c-.2.1-.4.1-.6.1,0,.2.1.4.1.5l-1.4.2c-.1-.2-.1-.5-.2-.8h0c.4-.2.8-.4,1.3-.5v.5c.6-.4,1.1-.8,1.5-1.3-.1-.2-.3-.4-.5-.7,0-.5-.1-.9-.1-1.4.4.1,1.1.2,1.1.3h0c0,.5-.1,1-.3,1.5,0,.1-.1.2-.2.2h0l.2-.2.6,1.9-1.5-.3h0ZM283.5,474.4v-.2h.7c.2,0,.5,0,.7.1.1,0,.1.5.2.8h0c-.3,0-.7,0-1-.1-.1,0-.2,0-.3-.1-.2,0-.2-.3-.3-.5h0ZM283.9,511.5c.3-.1.7-.3.8-.2h0c.3.3.5.7.7,1.1l-.9.2-.6-1.1h0ZM287.5,521.4c.2,0,.3.2.5.3.5.4.8,1,1.3,1.5h-1.4l-1.3.2-1.8-2.3c.9,0,1.8,0,2.7.3h0ZM286.6,568.3l-.7-1.2h0c.3,0,.7-.3.8-.2.3.3.5.7.7,1.2l-.8.2h0ZM289.5,550.2c-.5,0-1,0-1.5-.3v-.2c-.1,0-.3.2-.6.4,0,.2.1.4.1.5l-1.4.2c-.1-.2-.1-.5-.2-.8h0c.4-.2.8-.4,1.3-.5,0,0,0,.2.1.3.3,0,.6-.3,1.1-.5h1.4c0,.2-.2.9-.3.9h0ZM290.4,538c-.2-.2-.3-.3-.4-.5l-.3-.6h.4l.5-.2h0l.7,1.2c-.3,0-.7.2-.9,0h0ZM291.4,552.5h.5c0,.5,0,.9-.1,1.3h-.5l-.4.2v-.3c0-.3,0-.7.1-1h.4v-.2ZM292,560.3c-.3,0-.7,0-1-.2-.1,0-.1-.5-.2-.8h1.4c0,.3.1.4.1.6v.4h-.3ZM291.6,501.7c-.3-.4-.5-.7-.7-1.1l.9-.2h0l.7,1.2c-.4,0-.8.2-.9.1h0ZM292.3,495.2h0c.4-.2.8-.4,1.3-.5,0,.1,0,.2.1.3.3-.1.6-.3,1.1-.5h1.4c-.1.3-.2,1-.3,1-.5,0-1-.1-1.5-.3v-.2c-.1.1-.3.2-.6.4h0v.5c.1,0-1.3.2-1.3.2-.2-.4-.2-.7-.2-.9h0ZM294.5,505.1l-.9.2-.7-1.2h0c.3-.1.7-.3.8-.2.3.3.6.7.8,1.2h0ZM292.9,591.9l-.2-.9h0c.5,0,.9,0,1.4.2.1,0,.1.5.2.8h-1.4ZM293.3,587.8c-.1-.3-.1-.6-.2-.9h0c.5,0,.9,0,1.4.2.1,0,.1.5.2.8h-1.4ZM295.4,554.3l-.7-1.2h0c.3,0,.7-.3.8-.2.3.3.5.7.7,1.2l-.8.2h0ZM296.6,522h-.5l-.4.2v-.3h0c0-.3,0-.7.1-1,0-.2.5,0,.8-.2.1.4,0,.8,0,1.3h0ZM296,472.2c.3-.8.7-1.6,1.1-2.4h0c.1-.2.9,0,1.4,0-.2.8-.5,1.6-.8,2.3-.1.2-.9.1-1.7.1h0ZM299.2,500c-.2-.2-.3-.4-.4-.5-.1-.2-.2-.4-.3-.6h.4c0-.1.5-.2.5-.2l.7,1.2c-.4,0-.8.2-.9.1h0ZM300.4,487.6c-.3-.4-.5-.7-.7-1.1h0l.9-.2.7,1.2c-.4,0-.8.3-.9.1h0ZM301.3,468.7c-.2-.4-.4-.8-.5-1.3h.3c-.1-.4-.3-.7-.5-1.2,0-.5-.1-.9-.1-1.4.4.1,1.1.2,1.1.3,0,.5-.1,1-.3,1.5h-.2c.1.1.2.3.4.6h.5c0,.4.1.8.2,1.3-.4.1-.6.2-.9.2h0ZM302.5,495.2c0,.1-.5.1-.8.2h0c0-.5,0-.9.1-1.4l.9-.2c0,.5-.1.9-.2,1.4h0ZM303.4,485.3c0-.2-.1-.3-.1-.5v-.4h.6c.2,0,.5.1.7.1s.1.5.2.8h-1.4ZM304.5,457.3c-.5,0-1-.1-1.5-.3v-.2c-.1.1-.3.2-.6.4,0,.2.1.4.1.5l-1.4.2c-.1-.2-.1-.5-.2-.8h0c.4-.2.8-.4,1.3-.5,0,.1,0,.2.1.3.3-.1.6-.3,1.1-.5h1.4c0,.1-.2.8-.3.9h0ZM305.8,451.6c-.5,0-1-.1-1.5-.3v-.2c-.1.1-.3.2-.6.4v.5c.1,0-1.3.2-1.3.2-.1-.2-.1-.5-.2-.8h0c.4-.2.8-.4,1.3-.5,0,.1,0,.2.1.3.3-.1.6-.3,1.1-.5h1.4c0,.2,0,.9-.3.9h0ZM305.4,445c-.3-.4-.5-.7-.7-1.1h0l.9-.2.7,1.2c-.3.1-.8.3-.9.1h0ZM308.3,506.8c-.4.3-.7.5-1.1.7l-.2-.9h0l1.2-.7c0,.3.2.8.1.9ZM308.2,479.2h-.1c-.2.2-.5.2-.7.2,0-.3,0-.7.1-1h0c0-.1,0-.2.1-.3,0-.1.5-.1.8-.2,0,.4-.1.8-.2,1.3h0ZM307.7,437.9l-.7-1.2h0c.3-.1.7-.3.8-.2.3.4.5.7.7,1.1l-.8.3h0Z"/>
  <g>
    <path id="Tracé_4756" data-name="Tracé 4756" class="cls-4" d="M160.5,259.3h0c-20.7,15.9-50.4,11.9-66.2-8.8-15.9-20.7-11.9-50.4,8.8-66.2h0l23.5-18c7.7-5.9,18.8-4.4,24.7,3.3l18,23.5c15.8,20.7,11.9,50.4-8.8,66.2h0"/>
    <path id="Tracé_4757" data-name="Tracé 4757" class="cls-4" d="M252.2,193.3h0c21.5-16.3,25.7-47,9.4-68.5s-47-25.7-68.5-9.4c-.1,0-.2.2-.3.2l-24.4,18.6c-8,6.1-9.5,17.6-3.4,25.5l18.6,24.4c16.5,21.5,47.2,25.6,68.6,9.2"/>
    <path id="Tracé_4758" data-name="Tracé 4758" class="cls-6" d="M192.9,46.2c6.8-5.2,8.1-14.9,2.9-21.7h0c-.2-.3-.4-.5-.6-.8-8.4,6.1-15.9,13.2-22.5,21.1,5.5,5.5,14.1,6,20.2,1.4"/>
    <path id="Tracé_4759" data-name="Tracé 4759" class="cls-6" d="M160,65.9c.2.2.3.3.5.4.1,0,.2.2.3.2.2,0,.3.2.5.3.1,0,.2,0,.4.2s.3.2.5.3c.1,0,.2,0,.4.2s.3.2.5.2.3,0,.4.2c.2,0,.3,0,.5.2h5.8c0,0,.3,0,.5-.2s.3,0,.4-.2.3,0,.5-.2.3-.2.4-.2.3-.2.4-.3.3-.2.4-.3.3-.2.4-.3.2-.2.4-.3.2-.2.4-.3c.1,0,.2-.2.2-.3.2-.2.3-.3.4-.5h.1c2.6-3.3,2.8-7.8.7-11.3-.1,0-.1-.2-.2-.3-.1-.2-.2-.3-.3-.5-.1,0-.2-.2-.3-.3s-.2-.2-.3-.3-.2-.2-.3-.3-.2-.2-.3-.3-.2-.2-.3-.3-.2-.2-.3-.2-.2-.2-.4-.3-.2-.2-.3-.2-.3-.2-.4-.2-.2,0-.3-.2c-.1,0-.3,0-.4-.2h-.3c-.2,0-.3,0-.5-.2h-.3c-.2,0-.5-.2-.8-.2-3.6,4.9-7,10-9.9,15.4.2.3.4.5.6.8.1,0,.2.2.3.3"/>
    <path id="Tracé_4760" data-name="Tracé 4760" class="cls-5" d="M164.6,68.4h-.5.5"/>
    <path id="Tracé_4761" data-name="Tracé 4761" class="cls-5" d="M165.6,68.5h-.5.5"/>
    <path id="Tracé_4762" data-name="Tracé 4762" class="cls-5" d="M159.1,64.9c.2.3.4.5.6.8-.2-.3-.4-.5-.6-.8"/>
    <path id="Tracé_4763" data-name="Tracé 4763" class="cls-5" d="M174.2,65c2.6-3.2,2.9-7.7.7-11.2,2.2,3.5,1.9,8-.7,11.2"/>
    <path id="Tracé_4764" data-name="Tracé 4764" class="cls-5" d="M173.5,65.9c-.1,0-.2.2-.4.3,0,0,.2-.2.4-.3"/>
    <path id="Tracé_4765" data-name="Tracé 4765" class="cls-5" d="M162.9,67.8c-.2,0-.3-.2-.5-.2.2,0,.3,0,.5.2"/>
    <path id="Tracé_4766" data-name="Tracé 4766" class="cls-5" d="M160.5,66.3c-.2,0-.3-.3-.5-.4.1,0,.3.3.5.4"/>
    <path id="Tracé_4767" data-name="Tracé 4767" class="cls-5" d="M162,67.4c-.2,0-.3-.2-.5-.3.2,0,.4.2.5.3"/>
    <path id="Tracé_4768" data-name="Tracé 4768" class="cls-5" d="M163.8,68.1c-.2,0-.3,0-.5-.2,0,0,.3.2.5.2"/>
    <path id="Tracé_4769" data-name="Tracé 4769" class="cls-5" d="M161.2,66.9c-.2,0-.3-.2-.5-.3.2,0,.4.2.5.3"/>
    <path id="Tracé_4770" data-name="Tracé 4770" class="cls-5" d="M169.8,49.8h.3-.3"/>
    <path id="Tracé_4771" data-name="Tracé 4771" class="cls-5" d="M174.4,53h0c.1,0,.2.3.3.5,0,0-.2-.3-.3-.5"/>
    <path id="Tracé_4772" data-name="Tracé 4772" class="cls-5" d="M171.9,50.8c.1,0,.2,0,.3.2,0,0-.1,0-.3-.2"/>
    <path id="Tracé_4773" data-name="Tracé 4773" class="cls-5" d="M169.3,68.3h-.5.5"/>
    <path id="Tracé_4774" data-name="Tracé 4774" class="cls-5" d="M173.8,52.4c.1,0,.2.2.3.3-.1,0-.2-.2-.3-.3"/>
    <path id="Tracé_4775" data-name="Tracé 4775" class="cls-5" d="M171.2,50.4c.1,0,.2,0,.3.2,0,0-.1-.2-.3-.2"/>
    <path id="Tracé_4776" data-name="Tracé 4776" class="cls-5" d="M171.9,67.1c-.1,0-.3.2-.4.3.1,0,.3-.2.4-.3"/>
    <path id="Tracé_4777" data-name="Tracé 4777" class="cls-5" d="M168.4,68.5h-.5.5"/>
    <path id="Tracé_4778" data-name="Tracé 4778" class="cls-5" d="M174.2,65.1c-.1.2-.3.3-.4.5,0-.2.2-.3.4-.5"/>
    <path id="Tracé_4779" data-name="Tracé 4779" class="cls-5" d="M170.5,50h.3-.3"/>
    <path id="Tracé_4780" data-name="Tracé 4780" class="cls-5" d="M170.2,68c-.2,0-.3,0-.5.2.2,0,.3-.2.5-.2"/>
    <path id="Tracé_4781" data-name="Tracé 4781" class="cls-5" d="M166.5,68.6h-.5.5"/>
    <path id="Tracé_4782" data-name="Tracé 4782" class="cls-5" d="M172.6,66.6h.1c-.1,0-.3,0-.4.2,0,0,.2,0,.3-.2"/>
    <path id="Tracé_4783" data-name="Tracé 4783" class="cls-5" d="M171.1,67.6c-.2,0-.3,0-.5.2.2,0,.3,0,.5-.2"/>
    <path id="Tracé_4784" data-name="Tracé 4784" class="cls-5" d="M167.4,68.6h-.5.5"/>
    <path id="Tracé_4785" data-name="Tracé 4785" class="cls-5" d="M172.6,51.3c.1,0,.2.2.3.2-.1,0-.2,0-.3-.2"/>
    <path id="Tracé_4786" data-name="Tracé 4786" class="cls-5" d="M173.2,51.8c.1,0,.2.2.3.3-.1,0-.1-.2-.3-.3"/>
    <path id="Tracé_4787" data-name="Tracé 4787" class="cls-6" d="M205.5,17c-1.8,1.1-3.6,2.2-5.3,3.3v1.3c0,.2,0,.4.1.6,0,.1,0,.2.1.4,0,.2.1.4.1.6s.1.2.1.4c.1.2.1.4.2.6,0,.1.1.2.1.4.1.2.2.4.3.6,0,.1.1.2.1.3.1.3.3.6.5.9h.1c.2.4.3.6.5.9.1.1.2.2.2.3.1.2.3.3.4.5s.3.3.5.5h.1c.2.3.5.5.7.7h0c.2.2.5.3.7.5.1.1.2.1.3.2s.3.2.4.2.3.1.4.2c.1,0,.2.1.3.1.2.1.3.1.5.2,0,0,.1,0,.2.1.6.2,1.3.3,2,.4h2.3c.2,0,.5-.1.7-.2h.1c.6-.2,1.2-.4,1.7-.6,0,0,.1,0,.1-.1.2-.1.4-.2.6-.4.1-.1.2-.1.3-.2.2-.1.3-.2.5-.3.1-.1.2-.1.2-.2.3-.3.6-.5.9-.8.1,0,.1-.1.2-.2.3-.3.6-.6.8-.9h.1c.2-.4.5-.8.7-1.2h0c.2-.4.4-.8.5-1.1,0,0,0-.1.1-.1.1-.4.2-.8.3-1.2v-.2c.1-.4.1-.8.1-1.2v-1.6c0-.4-.1-.8-.2-1.2h-.1c-3.1-5.1-8.8-5.3-13.5-2.5"/>
    <path id="Tracé_4788" data-name="Tracé 4788" class="cls-6" d="M150.1,178.4c4.4,5.7,3.3,13.9-2.4,18.2-5.7,4.4-13.9,3.3-18.2-2.4s-3.3-13.9,2.4-18.2h0c5.7-4.4,13.9-3.3,18.2,2.4h0"/>
    <path id="Tracé_4789" data-name="Tracé 4789" class="cls-6" d="M135.9,213.9c2.7,3.5,2,8.6-1.5,11.3s-8.6,2-11.3-1.5-2-8.6,1.5-11.3h0c3.5-2.7,8.6-2,11.3,1.5"/>
    <path id="Tracé_4790" data-name="Tracé 4790" class="cls-6" d="M225.6,145.2c2.7,3.5,2,8.6-1.5,11.3s-8.6,2-11.3-1.5-2-8.6,1.5-11.3h0c3.5-2.7,8.6-2,11.3,1.5"/>
    <path id="Tracé_4791" data-name="Tracé 4791" class="cls-6" d="M193.9,144.9c4.4,5.7,3.3,13.9-2.4,18.2-5.7,4.4-13.9,3.3-18.2-2.4-4.4-5.7-3.3-13.8,2.4-18.2,5.7-4.3,13.8-3.3,18.2,2.4h0"/>
    <path id="Tracé_4792" data-name="Tracé 4792" class="cls-5" d="M200.1,21.5c0,.2,0,.4.1.6,0-.2,0-.4-.1-.6"/>
    <path id="Tracé_4793" data-name="Tracé 4793" class="cls-5" d="M200.2,22.5c0,.2.1.4.1.6,0-.2,0-.4-.1-.6"/>
    <path id="Tracé_4794" data-name="Tracé 4794" class="cls-5" d="M200.4,23.5c.1.2.1.4.2.6,0-.2,0-.4-.2-.6"/>
    <path id="Tracé_4795" data-name="Tracé 4795" class="cls-5" d="M204.9,29.4c.1.1.2.1.3.2,0-.1-.2-.1-.3-.2"/>
    <path id="Tracé_4796" data-name="Tracé 4796" class="cls-5" d="M200.2,20.3v1-1"/>
    <path id="Tracé_4797" data-name="Tracé 4797" class="cls-5" d="M203.4,28.3h.1-.1"/>
    <path id="Tracé_4798" data-name="Tracé 4798" class="cls-5" d="M201.1,25.3c.1.3.3.6.5.9-.2-.3-.3-.6-.5-.9"/>
    <path id="Tracé_4800" data-name="Tracé 4800" class="cls-5" d="M202.4,27.3c.1.2.3.3.4.5,0-.2-.2-.3-.4-.5"/>
    <path id="Tracé_4801" data-name="Tracé 4801" class="cls-5" d="M200.7,24.4c.1.2.2.4.3.6-.1-.2-.2-.4-.3-.6"/>
    <path id="Tracé_4802" data-name="Tracé 4802" class="cls-5" d="M212.1,30.4h.1-.1"/>
    <path id="Tracé_4803" data-name="Tracé 4803" class="cls-5" d="M217.6,26.7h.1c0-.1-.1,0-.1,0"/>
    <path id="Tracé_4804" data-name="Tracé 4804" class="cls-5" d="M218.4,25.5h0"/>
    <path id="Tracé_4805" data-name="Tracé 4805" class="cls-5" d="M209.1,30.7c-.7,0-1.3-.2-2-.4.7.2,1.3.3,2,.4"/>
    <path id="Tracé_4806" data-name="Tracé 4806" class="cls-5" d="M202.2,27c-.2-.2-.4-.5-.5-.8.1.3.2.5.5.8h0"/>
    <path id="Tracé_4807" data-name="Tracé 4807" class="cls-5" d="M218.9,24.3s0-.1.1-.1c-.1,0-.1.1-.1.1"/>
    <path id="Tracé_4808" data-name="Tracé 4808" class="cls-5" d="M215.8,28.7c-.1.1-.2.1-.2.2,0,0,0-.1.2-.2s.1,0,0,0"/>
    <path id="Tracé_4809" data-name="Tracé 4809" class="cls-5" d="M219.4,20.3v-.2.2"/>
    <path id="Tracé_4810" data-name="Tracé 4810" class="cls-5" d="M219.4,21.7v-.2.2"/>
    <path id="Tracé_4811" data-name="Tracé 4811" class="cls-5" d="M216.7,27.8c.1,0,.1-.1.2-.2,0,.1-.2.2-.2.2"/>
    <path id="Tracé_4812" data-name="Tracé 4812" class="cls-5" d="M209.3,30.7h.5-.5"/>
    <path id="Tracé_4813" data-name="Tracé 4813" class="cls-5" d="M206.4,30.1c.2.1.3.1.5.2-.2-.1-.3-.1-.5-.2"/>
    <path id="Tracé_4814" data-name="Tracé 4814" class="cls-5" d="M219.3,22.8v.2-.2"/>
    <path id="Tracé_4815" data-name="Tracé 4815" class="cls-5" d="M210.2,30.7h.4-.4"/>
    <path id="Tracé_4816" data-name="Tracé 4816" class="cls-5" d="M205.7,29.8c.1.1.3.1.4.2-.2-.1-.3-.1-.4-.2"/>
    <path id="Tracé_4817" data-name="Tracé 4817" class="cls-5" d="M211.1,30.6h.3-.3"/>
    <path id="Tracé_4818" data-name="Tracé 4818" class="cls-5" d="M214.7,29.4c.1,0,.2-.1.3-.2-.1,0-.2.1-.3.2"/>
    <path id="Tracé_4819" data-name="Tracé 4819" class="cls-3" d="M219.4,20.1v1.6c0,.4-.1.8-.1,1.2v.2c-.1.4-.2.8-.3,1.2,0,0,0,.1-.1.1-.1.4-.3.8-.5,1.1h0c-.2.4-.4.7-.7,1.1h-.1c-.2.4-.5.7-.8,1-.1,0-.1.1-.2.2-.3.3-.6.6-.9.8h-.1c-.1.1-.1.2-.2.2-.2.1-.3.2-.5.4-.1.1-.2.1-.3.2s-.1.1-.2.1c-.1.1-.3.1-.4.2,0,0-.1,0-.1.1-.6.3-1.1.5-1.7.6h-.1c-.2.1-.5.1-.7.2h-2.3c-.7,0-1.3-.2-2-.4,0,0-.1,0-.2-.1-.2,0-.3-.1-.5-.2-.1,0-.2-.1-.3-.1-.1-.1-.3-.1-.4-.2s-.3-.1-.4-.2c-.1,0-.2-.1-.3-.2-.2-.1-.5-.3-.7-.5h0c-.2-.2-.5-.4-.7-.6h-.1c-.1-.2-.3-.3-.4-.5h-.1c-.2-.3-.3-.4-.4-.6-.1-.1-.2-.2-.2-.3h-.1c-.2-.3-.3-.6-.5-.8h-.1c-.2-.4-.3-.7-.5-1-.1-.1-.1-.2-.1-.3-.1-.2-.2-.4-.3-.6,0-.1-.1-.2-.1-.3-.1-.2-.1-.4-.2-.6,0-.1-.1-.2-.1-.4s-.1-.4-.1-.6,0-.2-.1-.4c0-.2,0-.4-.1-.6v-.3c0-.3.3-.3.3-.7-1.7,1.1-3.7,2.7-5.3,3.9.2.2.4-.2.6.1,5.2,6.8,3.9,16.5-2.9,21.6-6.1,4.7-14.8,4.2-20.2-1.3-1.3,1.5-2.5,3.1-3.6,4.7.3,0,.5,0,.8.2h.3c.2,0,.3,0,.5.2h.3c.1,0,.3,0,.4.2.1,0,.2,0,.3.2.1,0,.3.2.4.2s.2,0,.3.2.2.2.4.3.2.2.3.2.2.2.4.3.2.2.3.3.2.2.3.3.2.2.3.3.2.2.3.3h0c.1.2.2.3.3.5.1,0,.1.2.2.3,2.2,3.5,1.9,8-.7,11.2h-.1c-.1.3-.3.4-.4.6-.1,0-.2.2-.2.3-.1,0-.2.2-.4.3-.1,0-.2.2-.2.2h0v.2c-.2,0-.3,0-.4.2s-.3.2-.4.3-.3.2-.4.3-.3.2-.4.2-.3,0-.5.2-.3,0-.4.2-.3,0-.5.2-.3,0-.4,0h-5.4c-.2,0-.3,0-.5-.2-.1,0-.3,0-.4-.2-.2,0-.3-.2-.5-.2s-.2,0-.4-.2-.3-.2-.5-.3c-.1,0-.2,0-.4-.2s-.3-.2-.5-.3c-.1,0-.2-.2-.3-.2-.2,0-.3-.3-.5-.4-.1,0-.2,0-.2-.2-.2-.2-.4-.5-.6-.8-7.2,13.2-12.4,27.4-15.5,42-1.8,8.2-2.9,16.5-3.4,24.8-.2,3.8-.2,6-.2,6l21.6,28.2,3-2.3,43-32.9,39.3-30.1c12.2-9.3,14.5-26.8,5.2-39l-32.8-42.9c-.3.9-.3,1.4-.2,1.7"/>
    <path id="Tracé_4820" data-name="Tracé 4820" class="cls-5" d="M214,29.8s.1,0,.1-.1h-.1"/>
    <path id="Tracé_4821" data-name="Tracé 4821" class="cls-6" d="M203.5,101.2c2,2.6,1.5,6.4-1.1,8.4s-6.4,1.5-8.4-1.1-1.5-6.4,1.1-8.4h0c2.6-2,6.3-1.5,8.4,1.1"/>
    <path id="Tracé_4822" data-name="Tracé 4822" class="cls-3" d="M3.2,171.8c-3.9,3.8-4.3,9.9-1.1,14.2l32.3,42.2c9.3,12.2,26.8,14.5,39,5.2l85.3-65.3-21.6-28.2c.1,0-78.2-23-133.9,31.9"/>
    <path id="Tracé_4823" data-name="Tracé 4823" class="cls-6" d="M35.1,166.9c-6.8,5.2-16.5,3.9-21.7-2.9-.2-.3-.4-.6-.6-.8,8-6.5,16.9-11.9,26.3-16.2,3.9,6.8,2.1,15.3-4,19.9"/>
    <path id="Tracé_4824" data-name="Tracé 4824" class="cls-6" d="M62.7,140.3c0,.2.2.4.3.6,0,.1,0,.2.2.4,0,.2.2.4.2.5v.4c0,.2,0,.3.2.5v5.4c0,.2,0,.3-.2.4s0,.3-.2.5,0,.3-.2.4-.2.3-.2.4-.2.2-.2.4-.2.3-.3.4-.2.2-.3.4-.2.3-.3.4-.2.2-.3.3-.2.2-.4.4-.2.2-.4.3-.3.2-.4.3-.3.2-.4.3-.3.2-.4.3c0,.1-.2.1-.3.2-.2.1-.4.2-.6.3h0c-3.8,1.6-8.2.7-11-2.2,0-.1-.2-.2-.2-.3s-.3-.3-.4-.4c0-.1-.2-.2-.2-.4s-.2-.2-.2-.3-.2-.3-.2-.4,0-.2-.2-.3,0-.3-.2-.4c0-.1,0-.2-.2-.3,0-.1,0-.3-.2-.4v-3.5c5.7-2.2,11.5-4.1,17.4-5.6.2.3.4.5.5.8v.2"/>
    <path id="Tracé_4826" data-name="Tracé 4826" class="cls-6" d="M94.1,184.9c2,2.6,1.5,6.4-1.1,8.4s-6.4,1.5-8.4-1.1-1.5-6.4,1.1-8.4h0c2.6-2,6.4-1.5,8.4,1.1"/>
    <path class="cls-1" d="M205.1,216.7l-77.4-101.2c0-.2-.2-.3-.3-.4-.3-.3-.5-.6-.8-.8,5.1-7.1,5.2-16.8-.3-24.1l-5.3-6.9c-.3-.4-.9-.5-1.3-.2s-.5.9-.2,1.3l5.3,6.9c5.1,6.7,5,15.7.2,22.2-1.7-.6-3.7-.3-5.2.9-1.5,1.2-2.1,3-1.9,4.8-7.7,3.6-17,1.5-22.3-5.5l-5.3-6.9c-.3-.4-.9-.5-1.3-.2s-.5.9-.2,1.3l5.3,6.9c5.8,7.6,16,10,24.3,6.2.2.4.4.7.7,1l77.4,101.2c1.8,2.4,5.2,2.8,7.6,1,2.3-1.9,2.8-5.2,1-7.5h0Z"/>
  </g>
</svg>