<?xml version="1.0" encoding="UTF-8"?>
<svg id="Calque_2" data-name="Calque 2" xmlns="http://www.w3.org/2000/svg" version="1.1" viewBox="0 0 269.8 379.3">
  <defs>
    <style>
      .cls-1 {
        fill: #000;
      }

      .cls-1, .cls-2, .cls-3, .cls-4, .cls-5 {
        stroke-width: 0px;
      }

      .cls-2 {
        fill: #047751;
      }

      .cls-3 {
        fill: #ffca05;
      }

      .cls-4 {
        fill: #5cd676;
      }

      .cls-5 {
        fill: #16a477;
      }
    </style>
  </defs>
  <g id="Calque_1-2" data-name="Calque 1-2">
    <g>
      <path id="Tracé_4739" data-name="Tracé 4739" class="cls-1" d="M133.4,105.3h0c-.4-.2-.5-.7-.3-1,2.2-3.2,5-6.1,8.1-8.6,7.1-5.7,15.8-9.2,24.8-9.8,11.1-.9,17.1-4.2,20.1-6.9,1.8-1.5,3.2-3.4,3.9-5.6.1-.3.4-.6.8-.5.3,0,.6.4.5.8-.8,2.4-2.2,4.6-4.2,6.2-3.2,2.9-9.4,6.4-20.9,7.3-8.8.7-17.2,4-24.1,9.5-3,2.4-5.6,5.2-7.8,8.3-.2.4-.5.5-.9.3"/>
      <path id="Tracé_4740" data-name="Tracé 4740" class="cls-1" d="M129.4,103.4c-.3,0-.4-.5-.3-.8,1-3.7,1.5-7.5,1.4-11.3-.1-8.8-2.8-17.4-7.9-24.7-6.6-9.5-7.8-16.6-7.6-20.9,0-2.6.8-5.1,2.2-7.2.2-.3.7-.3.9,0,.3.2.3.6,0,.9-1.2,2-1.9,4.3-1.9,6.6-.2,4,1,10.8,7.3,19.9,5.2,7.5,8,16.3,8.1,25.4.1,3.9-.4,7.9-1.5,11.7,0,.5-.4.7-.8.5q-.2,0,0,0c.4.2,0,0,0,0"/>
      <path id="Tracé_4741" data-name="Tracé 4741" class="cls-4" d="M150.1,175c-.3-.4-.5-.8-.8-1.1h0s-1.6-2-4.2-5.1c-.5-.6-1.1-1.2-1.6-1.8-4-4.9-27.7-20.9-27.7-20.9-5.6,9.6-10,19.9-12.9,30.6h0c-10.5,30.1,4.5,64.4,35.1,78.9l5,2.4c4.3,2.2,9.7.5,11.9-3.8h0c0-.1,3.5-7.6,3.5-7.6,2.9-6.4,4.8-13.1,5.7-20.1,5.9,3.3,12.4,5.3,19.1,6h0c2.6.3,4.9-1.6,5.1-4.2h0c2.5-24.8-13.8-47.6-38.2-53.3"/>
      <path id="Tracé_4742" data-name="Tracé 4742" class="cls-4" d="M96.1,172.9c6.2-9.2,11.1-19.2,14.7-29.8,0,0-27.6-7.5-33.9-7.3-.8,0-1.6-.1-2.4-.1-4,.1-6.6.2-6.6.2h0c-.5,0-.9.1-1.4.1-20.2-14.7-48.2-12-65.3,6.2-1.8,1.9-1.7,4.8.2,6.6,4.9,4.6,10.7,8.2,17,10.5-4.7,5.2-8.6,11.1-11.5,17.4l-3.4,7.6c-1.9,4.5.3,9.7,4.8,11.5h.1l5,2.2c31.1,13.7,66.9,2.5,82.7-25.1h0Z"/>
      <path id="Tracé_4743" data-name="Tracé 4743" class="cls-5" d="M118.8,77.2c-10.3,4.4-22.2-.3-26.6-10.6-2.3-5.3-2.2-11.2.2-16.4.2-.5.5-1,.8-1.5-2.3-1.7-4.8-3.5-7.4-5.2C59.5,26.5,49.3,9.4,45.4,2c-1-1.8-3.2-2.5-5-1.5-.8.4-1.4,1.1-1.7,1.9-12.6,26.6-43.7,107.6-1.4,126.9,51.5,23.5,58.1,49.2,58.1,49.2l29.4-70.8c0,.1,3.2-13.1-6-30.5"/>
      <path id="Tracé_4744" data-name="Tracé 4744" class="cls-3" d="M102.3,77.1c5.2,2.4,11.2,2.4,16.4.2-4.7-8.8-12.6-18.7-25.7-28.5-.3.5-.5,1-.8,1.5-4.5,10.1,0,22.1,10.1,26.8"/>
      <path id="Tracé_4745" data-name="Tracé 4745" class="cls-5" d="M269.4,108.5c.9-1.8.2-4.1-1.6-5-.8-.4-1.7-.5-2.5-.3-8.1,2-27.8,5.4-57.8-3.2-3.4-1-6.6-1.8-9.8-2.4-.1.2-.2.4-.3.7-4.6,10.2-16.7,14.7-26.8,10-4.8-2.2-8.6-6.2-10.5-11.2-19,4.4-26.8,15.4-26.8,15.4l-34.2,68.5s23.8-11.8,75.3,11.7c42.2,19.3,83.1-57.3,95-84.2"/>
      <path id="Tracé_4746" data-name="Tracé 4746" class="cls-3" d="M197.4,98.2c.1-.2.2-.4.3-.7-15.7-3.3-28.1-2.7-37.6-.5,4,10.4,15.7,15.6,26.2,11.6,4.9-1.8,8.9-5.5,11.1-10.4"/>
      <path id="Tracé_4747" data-name="Tracé 4747" class="cls-2" d="M59.4,146.6s-24.9,14.5-44.4,2.1c-2.1-1.1-2.9-3.7-1.8-5.9.3-.6.7-1.1,1.2-1.4,4-2.7,10.9-12.1,45,5.2"/>
      <path id="Tracé_4748" data-name="Tracé 4748" class="cls-3" d="M66.3,58.8c-3.8,8.4-13.7,12-22.1,8.2-8.4-3.8-12-13.7-8.2-22.1,3.8-8.4,13.7-12,22.1-8.2h0c8.4,3.9,12.1,13.8,8.2,22.1"/>
      <path id="Tracé_4749" data-name="Tracé 4749" class="cls-2" d="M56.6,190.8c-15.8-3.3-34.2-13-34.2-13h0c-3.9-2-8.6-.5-10.6,3.4s-.5,8.6,3.4,10.6c0,0,.1,0,.1.1.4.2.8.4,1.2.5h0c.2.1.3.1.5.2,12.5,4.5,29,3.1,39.5,1.4.9-.1,1.5-1,1.3-1.8,0-.7-.5-1.3-1.2-1.4"/>
      <path id="Tracé_4750" data-name="Tracé 4750" class="cls-2" d="M146.8,187.4s5.4,28.4,27.4,34.9c2.2.9,4.7-.3,5.6-2.5.2-.6.3-1.2.3-1.9-.6-4.7,2.1-16.1-33.3-30.5"/>
      <path id="Tracé_4751" data-name="Tracé 4751" class="cls-3" d="M208.6,124.6c-3.8,8.4-.1,18.3,8.2,22.1,8.4,3.8,18.2.1,22.1-8.2,3.8-8.4.1-18.2-8.2-22.1h0c-8.4-3.8-18.3,0-22.1,8.2"/>
      <path id="Tracé_4752" data-name="Tracé 4752" class="cls-2" d="M115.2,218.4c12.8,9.8,32.2,17.3,32.2,17.3h0c4,1.6,5.9,6.2,4.3,10.3-1.6,4-6.2,5.9-10.3,4.3-.4-.1-.8-.3-1.2-.6h0c-.1-.1-.3-.2-.4-.3-11.6-6.5-21.3-19.9-26.9-29-.5-.8-.2-1.7.5-2.2.5-.2,1.3-.2,1.8.2"/>
      <path id="Tracé_4753" data-name="Tracé 4753" class="cls-1" d="M134,99.5h0c2.5,1.2,3.6,4.1,2.5,6.7h0l-37.7,82.5c-1.2,2.5-4.1,3.6-6.7,2.5-2.5-1.1-3.6-4.1-2.5-6.6l37.7-82.5c1.2-2.6,4.2-3.7,6.7-2.6h0"/>
    </g>
  </g>
</svg>