<?xml version="1.0" encoding="UTF-8"?>
<svg id="Calque_2" data-name="Calque 2" xmlns="http://www.w3.org/2000/svg" version="1.1" viewBox="0 0 630.7 676.1">
  <defs>
    <style>
      .cls-1 {
        fill: #fdc90a;
      }

      .cls-1, .cls-2, .cls-3 {
        stroke-width: 0px;
      }

      .cls-2 {
        fill: #555859;
      }

      .cls-3 {
        fill: #0e956a;
      }
    </style>
  </defs>
  <circle class="cls-2" cx="330.5" cy="271.6" r="9.5"/>
  <circle class="cls-2" cx="330.5" cy="219.6" r="9.5"/>
  <circle class="cls-2" cx="330.5" cy="167.6" r="9.5"/>
  <circle class="cls-2" cx="330.5" cy="115.6" r="9.5"/>
  <circle class="cls-2" cx="330.5" cy="63.6" r="9.5"/>
  <circle class="cls-2" cx="388.5" cy="219.6" r="9.5"/>
  <circle class="cls-2" cx="388.5" cy="167.6" r="9.5"/>
  <circle class="cls-2" cx="388.5" cy="115.6" r="9.5"/>
  <circle class="cls-2" cx="388.5" cy="63.6" r="9.5"/>
  <circle class="cls-2" cx="271.5" cy="271.6" r="9.5"/>
  <circle class="cls-2" cx="271.5" cy="219.6" r="9.5"/>
  <circle class="cls-2" cx="271.5" cy="167.6" r="9.5"/>
  <circle class="cls-2" cx="271.5" cy="115.6" r="9.5"/>
  <circle class="cls-2" cx="271.5" cy="63.6" r="9.5"/>
  <circle class="cls-2" cx="212.5" cy="271.6" r="9.5"/>
  <circle class="cls-2" cx="212.5" cy="219.6" r="9.5"/>
  <circle class="cls-2" cx="212.5" cy="167.6" r="9.5"/>
  <circle class="cls-2" cx="212.5" cy="115.6" r="9.5"/>
  <circle class="cls-2" cx="212.5" cy="63.6" r="9.5"/>
  <circle class="cls-2" cx="153.5" cy="271.6" r="9.5"/>
  <circle class="cls-2" cx="153.5" cy="219.6" r="9.5"/>
  <circle class="cls-2" cx="153.5" cy="167.6" r="9.5"/>
  <circle class="cls-2" cx="153.5" cy="115.6" r="9.5"/>
  <circle class="cls-2" cx="153.5" cy="63.6" r="9.5"/>
  <circle class="cls-2" cx="94.5" cy="271.6" r="9.5"/>
  <circle class="cls-2" cx="94.5" cy="219.6" r="9.5"/>
  <circle class="cls-2" cx="94.5" cy="167.6" r="9.5"/>
  <circle class="cls-2" cx="94.5" cy="115.6" r="9.5"/>
  <circle class="cls-2" cx="94.5" cy="63.6" r="9.5"/>
  <circle class="cls-2" cx="35.5" cy="271.6" r="9.5"/>
  <circle class="cls-2" cx="35.5" cy="219.6" r="9.5"/>
  <circle class="cls-2" cx="35.5" cy="167.6" r="9.5"/>
  <circle class="cls-2" cx="35.5" cy="115.6" r="9.5"/>
  <circle class="cls-2" cx="35.5" cy="63.6" r="9.5"/>
  <g id="Calque_1-2" data-name="Calque 1-2">
    <g>
      <path class="cls-1" d="M308.9,364l-12.9-45.5c-72.9,20.7-242.9,91-263,335.4l45.9,22.2c-7.6-189.5,154-290.5,230-312.1h0Z"/>
      <path class="cls-3" d="M608.2,104.9v-.8c.2,0,.4,0,.6.2h0c.2,0,.4.2.5.3v.2c4.5-12.6,8.5-25.5,11.7-38.6h-.5c0-.4-.2-.8-.3-1.2h.7c0,.2.2.4.2.6,3.8-15.3,6.7-30.9,8.7-46.7h-.6c0-.4.3-.8.4-1.1h.4c.2-1.6.4-3.2.6-4.8C614,7.6,596.9,3.2,579.3,0c-12.2,136.7-105.2,259.2-244.3,302h0l15.4,50.2c124.8-38.4,217.4-132.6,258.7-246.9l-.9-.4h0ZM609.8,22.5c-.4-.1-.8-.3-1.1-.6v-.7c.4.1.8.3,1.1.5h0v.8h0ZM609.8,71.6h0v.7l-1.1-.4v-.8c.2,0,.4,0,.6.2s.3.2.5.3h0ZM608.6,95.8v-.8c.2,0,.4,0,.6.2.2,0,.4.2.5.3h0v.7l-1.1-.4h0ZM610.8,98.6h0c0,.4-.3.7-.5,1.1h-.6c0-.4.3-.8.5-1.1h.7,0ZM611.7,54.9c0,.4-.3.8-.6,1.2l-.2-.2c0,.2,0,.4.2.7h.5c0,.4,0,.8-.2,1.2h-.7v-1.2h.2c0-.3,0-.6-.2-1,0-.4,0-.8.2-1.2.3,0,.9.4.9.5h-.1ZM610.8,27.1v-.8h0l1.2-.3v.7c-.5.3-.8.4-1.2.4h0ZM612.5,37.3v.4c-.2,0-.4,0-.6-.2-.2,0-.4-.2-.5-.3h0v-.7l1.1.4v.4h0ZM612.4,15.9c-.4-.1-.8-.3-1.1-.5v-.7h0c.4.1.8.3,1.1.4h0v.8h0ZM614.1,68.1h-.6c0-.4.3-.8.5-1.1h.7c-.2.4-.3.8-.5,1.1h-.1ZM618.5,44.5c-.3,0-.6-.2-.9-.4,0,0-.2,0-.3-.2h0v-.2c-.2,0-.4,0-.7.2v.5l-1.2-.2v-.7h1.2v.2c.3,0,.6,0,1-.2h0l1.2.2c0,.3-.4.9-.5.9h.2ZM618.4,33.2v-.8l1.2-.3v.7c-.4.2-.8.3-1.2.4h0ZM619.3,37.7h.8c0,.4.2.8.3,1.2h-.7c-.2-.4-.3-.8-.4-1.2h0ZM628.1,21.2h.8c0,.4.2.8.3,1.1-.3,0-.7.1-.7,0-.3-.4-.4-.7-.4-1.1h0ZM627.9,24.8c-.2.3-.4.9-.5.9-.4-.1-.8-.3-1.2-.6l.2-.2c-.2,0-.4.1-.7.2v.5l-1.2-.2v-.7h0c.4-.1.8-.1,1.2-.1v.2c.3,0,.6-.1,1-.2h0l1.2.2h0ZM625.6,12.7c0-.1.5,0,.7,0,0,.4-.3.8-.5,1.1h0c-.2.1-.4,0-.6,0,.2-.4.4-.8.5-1.1h-.1ZM623.8,17.6l.2-1.2c.3.2.9.4.8.5,0,.4-.3.8-.6,1.2l-.2-.2c0,.2,0,.4.2.7h.5c0,.4,0,.8-.2,1.2h-.7v-1.2h.2v-1h-.2ZM623,32.3h.7c.2.4.3.7.3,1.1h-.8c0-.4,0-.7-.2-1.1h0ZM622.1,54.9s.6.4.9.6c-.4.6-.8,1.2-1.3,1.7h-.5v.9h.3c0,.4,0,.8-.2,1.2h-.7v-.6h0c-.2-.6-.5-1.1-.7-1.5h0c1.1-1.1,1.6-1.8,2.2-2.4h0ZM621.5,15.6v.7l-1.1-.4v-.8c.4,0,.8.3,1.1.5h0ZM620.2,11.7h0c.2.4.3.7.3,1.1h-.8c0-.4-.2-.8-.3-1.1h.8ZM619.5,18.5c0-.1.3,0,.5,0h.2c0,.4-.3.7-.5,1.1h-.7c.2-.4.3-.7.5-1.1h0ZM617.6,21.6l1.4.6h0c-.2.4-.3,1.1-.6,1.2-.5.2-1.1.2-1.7.2,0-.4.3-.8.9-2h0ZM616.1,26.3h0c.2.4.3.7.3,1.1h-.8c0-.4-.2-.8-.3-1.1h.8ZM615.1,31.2c.2-.1.4-.2.5-.2s.4-.1.6-.1v.8h0l-1.2.3v-.8h.1ZM613.7,12.6c.4.1.8.3,1.1.5h0v.7l-1.1-.4v-.8h0ZM613.2,23.9c.4.1.8.3,1.1.5v.7h0c-.4-.1-.8-.3-1.1-.5v-.7h0ZM613.2,47.9h1.2v.2c.3,0,.6,0,1-.2h0l1.2.2c-.2.3-.4.9-.5.8-.4,0-.8-.3-1.2-.6l.2-.2c-.2,0-.4,0-.7.2v.5l-1.2-.2v-.6h0ZM612.8,86.5c.4,0,.8.3,1.1.5v.7l-1.1-.4v-.8h0ZM611.9,7.9c.3.2.9.4.8.5,0,.4-.3.8-.6,1.2,0,0,0,.1-.2.2,0-.2-.2-.4-.3-.7.2-.4.2-.8.3-1.2h0ZM610.5,10.2v.2c.5-.1,1-.3,1.5-.6h0l.2-.2v1.7l-1.3-.6c-.2-.1-.3-.1-.5-.2v.6l-1.8-.6c-.2-.7-.3-1.1-.4-1.6.7.5,1.4.9,2.2,1.3h0ZM607.9,14.6v-.2c.2.1.4.1.6.2h0c.2.1.4.2.5.3h0v.7c-.4-.1-.8-.3-1.1-.5v-.5h0ZM607.7,44.1v-.2h0c.2,0,.4,0,.6.2.2,0,.4.2.5.3h0v.7c-.4,0-.8-.3-1.1-.5v-.5h0ZM606.4,23.9v-.4c.2.1.4.1.6.2.2.1.4.1.5.3h0v.7l-1.1-.4v-.4h0ZM605.6,31.4c.2.4.3.7.3,1.1h-.8c0-.4-.2-.8-.3-1.1.3,0,.7-.1.8,0h0ZM604,8.2h0c.4.1.8.3,1.1.5v.7l-1.1-.4v-.8ZM603.9,28.7v-.4l1.2-.3v.7h0c-.2.1-.4.2-.5.2s-.4.1-.6.1v-.3h-.1ZM602.1,18c-.4.6-.7,1.4-1.2,1.8-.9.4-1.9.8-2.9,1l-.4-2.1,4.5-.7h0ZM597.2,38.2l1.7-.3h0c-.2.7-.6,1.3-1,1.9-.2.3-.9.2-1.4.3.3-.7.5-1.4.7-1.9h0ZM597.2,26.1v-.8c.4.1.8.3,1.1.5h0v.7l-1.1-.4h0ZM598.6,44.4v-.8c.2,0,.4,0,.6.2.2,0,.4.2.5.3h0v.7l-1.1-.4h0ZM599.4,51.5h-.7c-.2-.4-.3-.7-.3-1.1h.8l.2,1.1h0ZM599.4,28.8c0-.4.3-.8.4-1.1h.8c0,.2,0,.4-.2.6,0,.2-.2.4-.3.5,0,.2-.5.1-.7,0h0ZM600.3,24.3h0c-.2,0-.4,0-.6-.1,0-.4.3-.8.5-1.1h0c0-.1.5,0,.7,0-.2.5-.3.9-.5,1.2h-.1ZM601.1,14.9h0c-.2.1-.4.2-.5.2s-.4.1-.6.1v-.8l1.2-.3v.8h-.1ZM596.2,7.2v-.4c.2-.4,1.2-.4,1.9-.7v.9c.2,0,.3-.2.5-.4h2.3c-.6,0-1.2,0-2.9,1.1v1.6l-1.8-.3v-1.8h0ZM595.5,14.2l1.2-.3v.7c-.4.2-.7.3-1.1.4-.2-.2,0-.5,0-.8h-.1ZM595.6,59.2h0c-.4,0-.8-.3-1.1-.5v-.7c.4,0,.8.3,1.1.5h0v.7h0ZM594.2,63.7v-.8l1.2-.3v.7c-.4.2-.8.3-1.2.4h0ZM595.2,68.3l-1.1-.4v-.8h0c.2,0,.4,0,.6.2.2,0,.4.2.5.3v.7h0ZM594,45.9l1.2-.3v.4h0v.3c-.4.2-.7.3-1.1.3v-.7h-.1ZM593.9,24c.3,0,.7-.1.7,0,.2.4.3.7.3,1.1h-.8c0-.3-.2-.7-.2-1.1h0ZM594.1,17.3l1.2.2c-.2.3-.4.9-.5.9s-.2,0-.3-.1h0c-.3-.1-.6-.3-.9-.5l.2-.2c-.2,0-.4.1-.7.2v.5l-1.2-.2v-.7h0c.4-.1.8-.1,1.2-.1v.2c.3,0,.6,0,1-.2h0ZM591.6,23.9c-.4-.1-.8-.3-1.1-.5v-.7c.4.1.8.3,1.1.5h0v.7h0ZM591.3,12.6c0-.4-.2-.8-.3-1.1.3,0,.7-.1.7.1h0c.2.4.3.7.3,1.1h-.7ZM591.8,4.7c.3.2.5.5.7.7-.5.5-1,1-1.6,1.4h0s-.5-.4-.9-.8c.5-.5,1.1-.9,1.8-1.3ZM587.9,30.6h0v.7c-.4.2-.7.3-1.1.4v-.8l1.1-.3h0ZM586.8,38.5c-.2-.4-.3-.7-.3-1.1h.8c0,.4.2.8.3,1.2h-.8ZM587.3,90.7h-.8c0-.4-.2-.8-.3-1.2h.7c.2.3.3.7.4,1.1h0ZM586.2,3.4l1.2-.3v.7h0c-.4.2-.7.3-1.1.3v-.7h-.1ZM585.3,12.6l1.2-.3h0v.7c-.4.2-.7.3-1.1.4v-.8h-.1ZM584.6,52c.4,0,.8.3,1.1.5h0v.7h0c-.4,0-.8-.3-1.1-.5v-.7h0ZM583.7,47.4v-.8l1.2-.3v.7c-.4.2-.8.3-1.2.4h0ZM584.4,19.7c.3.2.4.9.5,1.3l-1.4.5c-.5-1.2-.6-1.7-.8-2.1.6,0,1.2.1,1.7.3ZM582.6,23.7c-.7-.3-1.3-.7-1.9-1.2-.3-.3-.2-.9-.3-1.4.7.2,1.3.6,1.9,1h0c.3.2.2.9.3,1.6ZM581.5,45c0,.4-.3.8-.4,1.1h-.8c0-.4.3-.8.5-1.1,0-.2.5,0,.7,0h0ZM580.1,4h0c.4,0,.8.3,1.1.5h0v.7c-.4,0-.8-.3-1.1-.5-.2,0,0-.4,0-.7h0ZM578.5,14.2c.4.1.8.3,1.1.5h0v.7h0c-.4,0-.8-.2-1.1-.4v-.8h0ZM578,23.2c.3,0,.7-.1.7,0,.2.4.3.7.3,1.1h-.8c0-.3,0-.7-.2-1.1h0ZM574.8,67.4h0l-1.9-.7c0-.7-.2-1.2-.3-1.7.7.2,1.3.6,1.9,1,.3.2.2.9.3,1.4h0ZM574,60.5c0,.4-.3.8-.5,1.1h-.7c0-.4.3-.8.4-1.1h.8ZM572,56c0-.4,0-.8.2-1.2.3.2.9.4.8.5,0,.4-.3.8-.6,1.2l-.2-.2c0,.2,0,.4.2.7h.5c0,.4,0,.8-.2,1.2h-.7v-1.2h.2v-1h-.2ZM556,136.8c0-.1.5,0,.7,0,0,.4-.3.8-.5,1.1h0s0,.1-.2.1c0,0-.3-.1-.4-.1.2-.3.3-.7.5-1.1h0ZM543.6,135.1h.4c0,.4.2.8.3,1.1-.3,0-.7.1-.7-.1h0c0-.2-.2-.4-.2-.6s0-.4-.2-.6l.4.2h0ZM519.2,185l-1.1-.4v-.8h0c.4.1.8.3,1.1.5.2,0,0,.4,0,.7h0ZM525.2,200.6c0,.2-.2.4-.3.5h0c0,.1-.2.1-.2.1,0,0-.3-.1-.4-.1,0-.4.3-.8.5-1.1h0c0-.1.2-.1.3,0s.3.1.4.1c0,0-.2.3-.2.5h0ZM533.4,229.9c-.2-.4-.3-.7-.4-1.1h.8c0,.4.2.8.3,1.1-.2,0-.6.1-.7,0h0ZM533.5,162.9c0,.1-.5-.4-.9-.8.6-.5,1.2-.9,1.8-1.3h0c.3.2.5.5.7.7-.5.5-1,1-1.6,1.4h0ZM540.5,143.6v.4c-.4-.1-.8-.3-1.1-.5v-.7h0c.4.1.8.3,1.1.5h0v.3h0ZM541.6,177c-.2-.4-.3-.7-.3-1.1h.8c0,.4.2.8.3,1.1-.3,0-.8.1-.8,0h0ZM544,140.2c0,.4-.3.8-.6,1.2l-.2-.2c0,.2,0,.4.2.7h.5c0,.4,0,.8-.2,1.2h-.7v-1.2h.2c0-.3,0-.6-.2-1l.2-1.2c.4.1,1,.3.9.5h-.1ZM544.5,163.5c-.2-.4-.3-.7-.4-1.1h.8c0,.4.2.8.3,1.1-.2,0-.6.1-.7,0h0ZM553.2,116.9v.5l-1.2-.2v-.7h1.2v.2c.3,0,.6,0,1-.2l1.2.2c-.2.3-.4.9-.5.8h0c-.4,0-.8-.3-1.2-.6l.2-.2c-.2,0-.5.2-.7.3h0ZM554.7,148.9c.5-.6,1-1.2,1.5-1.7h0c.2-.1.7.2,1.1.3-.3.6-.8,1.2-1.2,1.8,0,0-.7-.3-1.4-.4h0ZM557.8,160.3c-.4.2-.7.3-1.1.4v-.8h0l1.2-.3v.7h-.1ZM557.8,132.4h-.8c0-.4.3-.8.5-1.1h0c0-.1.5,0,.7,0l-.4,1.1h0ZM558.3,127.5v.4c-.4,0-.8-.3-1.1-.5v-.7h0c.4,0,.8.3,1.1.5h0v.3h0ZM560.9,138.2h-.8c0-.4.3-.8.5-1.1h0c0-.1.5,0,.7,0-.2.3-.3.7-.4,1.1ZM561.3,103h-.7c0-.4.3-.8.5-1.1h.7c0,.4-.3.8-.5,1.1ZM563.6,136l-1.1-.4v-.8h0c.4.1.8.3,1.1.5v.7h0ZM567.7,136.2h0c-.2.1-.4,0-.6,0,0-.4.3-.8.5-1.1h0c0-.1.5,0,.7,0-.2.4-.3.8-.5,1.1h-.1ZM568.4,105c0,.4-.3.8-.6,1.2l-.2-.2c0,.2,0,.4.2.7h.5c0,.4,0,.8-.2,1.2h-.7v-1.2h.2c0-.3,0-.6-.2-1l.2-1.2c.2,0,.4.2.5.3.3,0,.4,0,.4.2h-.1ZM569.6,145.4h-.8c0-.2,0-.4.2-.6,0-.2.2-.4.3-.5h0c0-.1.5,0,.7,0,0,.4-.3.7-.4,1.1h0ZM568.6,77.3h.8c0,.4.2.8.3,1.2h-.7c-.2-.3-.3-.7-.4-1.1h0ZM569.9,74l-1.1-.4v-.8c.2,0,.4,0,.6.2h0c.2,0,.4.2.5.3.2,0,0,.4,0,.7h0ZM570.3,91h.7c.2.4.3.7.3,1.1h-.8c0-.4,0-.8-.2-1.2h0ZM571.8,130.8l-1.1-.4v-.8h0c.4.1.8.3,1.1.5v.7ZM572.2,82c-.2-.4-.3-.7-.3-1.1h.8c0,.4.2.8.3,1.2h-.8ZM573.5,72.4v.5l-1.2-.2v-.7h1.2v.2c.3,0,.6,0,1-.2l1.2.2c-.2.3-.4.9-.5.8h0c-.4,0-.8-.3-1.2-.6l.2-.2c-.2.2-.5.3-.7.3h0ZM574.6,119.6c.4,0,.8.3,1.1.5h0v.7h0c-.4,0-.8-.3-1.1-.4v-.8h0ZM575.7,136.6c.2.4.3.7.3,1.1h-.8c0-.4-.2-.8-.3-1.1.3,0,.7-.1.8,0h0ZM576.1,159.3l-1.1-.4v-.8h0c.4.1.8.3,1.1.5v.7h0ZM577.4,155.8v.2l-1.1-.4v-.8h0c.4.1.8.3,1.1.5v.5h0ZM578.7,104.3c0,.4-.3.8-.6,1.2l-.2-.2c0,.2,0,.4.2.7h.5c0,.4,0,.8-.2,1.2h-.7v-1.2h.2c0-.3,0-.6-.2-1l.2-1.2c.3.2.9.4.9.5h-.1ZM579.6,29.1c.2.4.3.7.3,1.1h-.8c0-.4-.2-.8-.3-1.1.4-.1.8-.2.8,0h0ZM580.2,122.7v.5l-1.2-.2v-.7h1.2v.2c.3,0,.6,0,1-.2h0l1.2.2c-.2.3-.4.9-.5.8-.4,0-.8-.3-1.2-.6l.2-.2c-.2.2-.5.2-.7.3h0ZM581.9,132.3c-.4-.1-.8-.3-1.1-.5h0v-.7l1.1.4v.8h0ZM583,126.8h-.8c0-.2,0-.4.2-.6,0-.2.2-.4.3-.5h.7c-.2.3-.3.7-.4,1.1h0ZM584.1,85.9c-.5-.6-1-1.2-1.3-1.9.7,0,1.3-.4,1.4-.2h0c.4.6.8,1.2,1,1.9-.3,0-.9.3-1.1.2h0ZM585.3,112.7v-.6h.8c0,.4.2.8.3,1.2h-.7c-.2,0-.3-.3-.3-.5h0ZM585.9,128c0-.4-.2-.8-.3-1.2h.7c.2.4.3.7.3,1.1h-.7ZM587.1,100.3l-1.4-.3c-.4-1-.7-1.7-1-2.4.8.2,1.5.5,2.2,1h0s.2.2.3.4c.3.4.5,1,.7,1.5l-.8-.2h0ZM588.3,93.7c-.4.2-.7.3-1.1.3v-.8h0l1.2-.3v.8h-.1ZM588.9,73.7h-.8c0-.4.3-.8.5-1.1h.7c0,.4-.2.7-.4,1.1h0ZM589.6,42.5c0,.4-.3.8-.6,1.2l-.2-.2c0,.2,0,.4.2.7h.5c0,.4,0,.8-.2,1.2h-.7v-1.2h.2c0-.3,0-.6-.2-1,0-.4,0-.8.2-1.2.3,0,.9.4.9.5h-.1ZM589.9,36.3h.8c0,.4.2.8.3,1.2h-.7c-.2-.4-.3-.8-.4-1.2h0ZM591.5,75.5v.6c-.4,0-.8-.3-1.1-.5v-.7c.4,0,.8.3,1.1.5h0ZM592,40.8v.2l-1.1-.4v-.8h0c.4,0,.8.3,1.1.5v.5h0ZM591.9,34.1h-.7c0-.4.3-.8.5-1.1h.7c0,.4-.3.8-.5,1.1h0ZM592.6,51.2c.4,0,.8.3,1.1.5h0v.7l-1.1-.4v-.8h0ZM594,54.7h.7c0,.4-.3.8-.5,1.1h-.6c0-.3.3-.7.5-1h-.1ZM594.4,101.2h-.8c0-.4.3-.8.5-1.1h.7c0,.3-.2.7-.4,1.1h0ZM594.9,83c-.2-.4-.3-.7-.3-1.1h.8c0,.4.2.8.3,1.2h-.8ZM595.8,86.5c0-.4-.2-.8-.3-1.2h.7c.2.4.3.7.3,1.1h-.7ZM598.2,78.1v.5l-1.2-.2v-.7h1.2v.2c.3,0,.6,0,1-.2h0l1.2.2c-.2.3-.4.9-.5.8-.4,0-.8-.3-1.2-.6l.2-.2c-.2.2-.4.3-.7.3h0ZM600.1,106.1c-.2-.4-.3-.7-.3-1.1h.8c0,.4.2.8.3,1.2h-.8ZM600.8,69.7h.7c.2.4.3.7.4,1.1h-.8c0-.4-.2-.8-.3-1.2h0ZM601.7,83.4c-.2-.4-.3-.7-.3-1.1h.8c0,.4.2.8.3,1.2h-.8ZM602.4,50.5h-.7c0-.4.3-.8.4-1.1h.8c0,.4-.3.8-.5,1.1ZM603.4,36.4c0,.4-.3.8-.6,1.2l-.2-.2c0,.2,0,.4.2.7h.5c0,.4,0,.8-.2,1.2h-.7v-1.2h.2c0-.3,0-.6-.2-1,0-.4,0-.8.2-1.2.4,0,1,.3.9.5h-.1ZM603.8,54c.4,0,.8.3,1.1.5h0v.7h0c-.4,0-.8-.3-1.1-.5v-.7h0ZM605.6,110.4v.4c-.4,0-.8-.3-1.1-.5h0v-.7l1.1.4v.4h0ZM605.5,80.2h-.7c0-.4.3-.8.4-1.1h.8c0,.4-.3.7-.5,1.1h0ZM605.2,72.2h.8c0,.4.2.8.3,1.2h-.7c-.2-.3-.4-.7-.4-1.1h0ZM606.3,102.9c0-.4-.2-.8-.3-1.2h.6c.2.4.3.7.3,1.1h-.7.1ZM607.7,91.2c-.4.2-.7.3-1.1.3v-.8l1.2-.3v.8h-.1ZM606.9,59.8l-1.4-.4c.5-.6,1-1.2,1.5-1.7h0c.2,0,.7.2,1.1.3-.3.6-.7,1.2-1.2,1.8h0Z"/>
    </g>
  </g>
</svg>