<svg xmlns="http://www.w3.org/2000/svg" viewBox="0 0 969.1 139.8"><defs><style>.cls-1{fill:#e88528;}.cls-2{fill:#dc6c8c;}.cls-3{fill:#30a8d9;}.cls-4{fill:#e7aa26;}.cls-5{fill:#1aac80;}.cls-6{fill:#7b87c2;}.cls-7{fill:#a9a28e;}</style></defs><g id="Calque_2" data-name="Calque 2"><g id="Calque_1-2" data-name="Calque 1"><path class="cls-1" d="M93,6.75a46.55,46.55,0,0,1,20.4,18.3c4.8,8,7.2,17.2,7.2,27.9s-2.4,20-7.2,27.9A47.15,47.15,0,0,1,93,99.15c-8.8,4.2-19.2,6.4-31,6.4H50.8c-4.1,0-7.4,3.6-7.4,8v18.2c0,4.4-3.3,8-7.4,8H7.4c-4.1,0-7.4-3.6-7.4-8V8.35C0,4,3.3.35,7.4.35H61.9C73.9.35,84.2,2.55,93,6.75ZM72.5,65c2.9-2.8,4.4-6.8,4.4-12s-1.5-9.2-4.4-12-7.4-4.2-13.2-4.2H50.9c-4.1,0-7.4,3.6-7.4,8v16.7c0,4.4,3.3,8,7.4,8h8.4C65.1,69.25,69.5,67.85,72.5,65Z"/><path class="cls-2" d="M188.9,104.6h0c-4.2,0-7.7,3.7-7.7,8.3v18.4c0,4.6-3.4,8.3-7.7,8.3h-28c-4.2,0-7.7-3.7-7.7-8.3V8.6c0-4.6,3.4-8.3,7.7-8.3h54.2c11.9,0,22.2,2.2,31,6.4A46.55,46.55,0,0,1,251.1,25c4.8,8,7.2,17.2,7.2,27.9,0,10-2.1,18.7-6.2,26.1a42.62,42.62,0,0,1-11.6,13.4,8.76,8.76,0,0,0-1.9,11.5l14.3,22.8c3.5,5.5-.2,13-6.3,13H218.9a7.64,7.64,0,0,1-6.4-3.7l-17.3-27.8A7.61,7.61,0,0,0,188.9,104.6Zm21.3-63.7c-2.9-2.8-7.4-4.2-13.2-4.2h-8.1c-4.2,0-7.7,3.7-7.7,8.3V60.9c0,4.6,3.4,8.3,7.7,8.3H197q8.85,0,13.2-4.2c2.9-2.8,4.4-6.8,4.4-12S213.1,43.7,210.2,40.9Z"/><path class="cls-3" d="M306.4,130.9a64.1,64.1,0,0,1-24.8-25,73.11,73.11,0,0,1-9-36c0-13.3,3-25.4,9-36a65.44,65.44,0,0,1,24.8-25c10.5-6,22.4-8.9,35.8-8.9S367.4,3,378,8.9a64.1,64.1,0,0,1,24.8,25,73.11,73.11,0,0,1,9,36c0,13.3-3,25.4-9,36a65.44,65.44,0,0,1-24.8,25c-10.5,6-22.4,8.9-35.8,8.9S317,136.9,306.4,130.9Zm49.7-31.6a30,30,0,0,0,10-11.6c2.5-5,3.7-10.9,3.7-17.7a39.43,39.43,0,0,0-3.7-17.7,28.53,28.53,0,0,0-10-11.6,26,26,0,0,0-28,0,30,30,0,0,0-10,11.6c-2.5,5-3.7,10.9-3.7,17.7a39.43,39.43,0,0,0,3.7,17.7,28.53,28.53,0,0,0,10,11.6,25.08,25.08,0,0,0,14,4.2A24.31,24.31,0,0,0,356.1,99.3Z"/><path class="cls-4" d="M609,130.9a64.1,64.1,0,0,1-24.8-25,73.11,73.11,0,0,1-9-36c0-13.3,3-25.4,9-36A65.44,65.44,0,0,1,609,8.9c10.5-6,22.4-8.9,35.8-8.9S670,3,680.6,8.9a64.1,64.1,0,0,1,24.8,25,73.11,73.11,0,0,1,9,36c0,13.3-3,25.4-9,36a65.44,65.44,0,0,1-24.8,25c-10.5,6-22.4,8.9-35.8,8.9S619.5,136.9,609,130.9Zm49.7-31.6a30,30,0,0,0,10-11.6c2.5-5,3.7-10.9,3.7-17.7a39.43,39.43,0,0,0-3.7-17.7,28.53,28.53,0,0,0-10-11.6,26,26,0,0,0-28,0,30,30,0,0,0-10,11.6c-2.5,5-3.7,10.9-3.7,17.7a39.43,39.43,0,0,0,3.7,17.7,28.53,28.53,0,0,0,10,11.6,25.08,25.08,0,0,0,14,4.2A24.54,24.54,0,0,0,658.7,99.3Z"/><path class="cls-5" d="M557.2,6.4V133.6a5.84,5.84,0,0,1-5.6,6.1H524.2a5.26,5.26,0,0,1-4.3-2.2L482.7,89.2c-3.4-4.3-10-1.8-10,3.9v40.3a5.84,5.84,0,0,1-5.6,6.1h-31a5.84,5.84,0,0,1-5.6-6.1V6.2A5.84,5.84,0,0,1,436.1.1h27.4a5.26,5.26,0,0,1,4.3,2.2L505,50.6c3.4,4.3,10,1.8,10-3.9V6.4A5.84,5.84,0,0,1,520.6.3h31A5.84,5.84,0,0,1,557.2,6.4Z"/><path class="cls-6" d="M752.6,36.8H733.7c-5.2,0-9.4-4.6-9.4-10.2V10.4c0-5.6,4.2-10.2,9.4-10.2h99.9c5.2,0,9.4,4.6,9.4,10.2V26.6c0,5.6-4.2,10.2-9.4,10.2H814.7c-5.2,0-9.4,4.6-9.4,10.2v82.6c0,5.6-4.2,10.2-9.4,10.2H771.4c-5.2,0-9.4-4.6-9.4-10.2V47C762,41.3,757.8,36.8,752.6,36.8Z"/><path class="cls-7" d="M969.1,112.4v19.1c0,4.6-3.4,8.1-7.5,8.1H869.8c-4.2,0-7.5-3.7-7.5-8.1V8.4c0-4.6,3.4-8.1,7.5-8.1h89.4c4.2,0,7.5,3.7,7.5,8.1V27.5c0,4.6-3.4,8.1-7.5,8.1H912.4c-4.2,0-7.5,3.7-7.5,8.1h0c0,4.6,3.4,8.1,7.5,8.1h39.3c4.2,0,7.5,3.7,7.5,8.1V77.5c0,4.6-3.4,8.1-7.5,8.1H912.4c-4.2,0-7.5,3.7-7.5,8.1v2.1c0,4.6,3.4,8.1,7.5,8.1h49.2A8.4,8.4,0,0,1,969.1,112.4Z"/></g></g></svg>