<?xml version="1.0" encoding="UTF-8"?>
<svg id="Calque_2" data-name="Calque 2" xmlns="http://www.w3.org/2000/svg" viewBox="0 0 577.61 577.61">
  <defs>
    <style>
      .cls-1 {
        fill: #e8ab00;
      }

      .cls-2 {
        fill: #16a477;
      }

      .cls-3 {
        fill: #d1dbe0;
      }

      .cls-4 {
        fill: #e6f4fc;
      }

      .cls-5 {
        fill: #ffd112;
      }

      .cls-6 {
        fill: #ffb510;
      }

      .cls-7 {
        fill: #fdc90a;
      }

      .cls-8 {
        fill: none;
      }

      .cls-9 {
        fill: #2e2c80;
      }

      .cls-10 {
        fill: #31254a;
      }

      .cls-11 {
        fill: #5cd676;
      }

      .cls-12 {
        fill: #0fa277;
      }
    </style>
  </defs>
  <g id="Calque_1-2" data-name="Calque 1">
    <path class="cls-4" d="m577.61,288.8c0,79.45-32.08,151.4-83.99,203.61-19.83,19.96-42.56,37.03-67.52,50.53-40.83,22.11-87.6,34.66-137.3,34.66-131.38,0-242.27-87.72-277.28-207.79-4.34-14.86-7.51-30.22-9.41-45.97-1.4-11.48-2.11-23.18-2.11-35.04C0,129.3,129.31,0,288.8,0c17.82,0,35.26,1.61,52.17,4.71,12.83,2.34,25.36,5.53,37.55,9.5,115.58,37.74,199.08,146.41,199.08,274.59Z"/>
    <path class="cls-3" d="m493.62,492.42c-19.83,19.96-42.56,37.03-67.52,50.53,50.22-89.51,50.8-203.18-8.31-295.48h0s0-.03,0-.04l36.36-23.29c53,82.75,64.34,180.44,39.44,268.27Z"/>
    <path id="Tracé_3131" data-name="Tracé 3131" class="cls-4" d="m461.36,292.53c0-.1-.52-.16-.8-.24.03.33.07.66.1.99h0c.2.27.36.51.49.72,0,.15-.02.3-.02.45-.03.25.02.49.15.7.06.08.14.14.24.18.62.25,1.26.46,1.91.63-.38-.59-.79-1.16-1.24-1.7-.15-.14-.31-.26-.49-.36l-.23-.13h0c-.1-.06-.21-.11-.31-.18.1.06.2.11.31.18-.1-.12-.19-.23-.27-.33.06-.21.11-.43.15-.65.01-.09.01-.17,0-.26m13.27,68.43c.1,0,.16-.51.24-.8l-.99.1h0c-.31.17-.56.29-.77.38-.01-.06-.03-.13-.04-.19-.32.1-.62.22-.92.36,0,0,0,.01,0,.03.03.18.07.37.13.54l.98-.12c-.03-.13-.06-.26-.09-.39.19-.11.36-.2.51-.27l-.11.17c.34.12.7.18,1.06.2m-12.78-83.34l.15.65.97.06c-.05-.2-.04-.54-.15-.58-.32-.08-.64-.12-.97-.12m7.12,6.98c1.03.72.03,1.2-1.01.8-.46-.1-.93-.06-1.37.12-.09,1.16-.06,2.33-.06,3.49.47-.4.87-1.01,1.41-1.16.16-.05.31-.08.46-.11.93-.16,1.47.16.56,1.91-.23-.02-.45.03-.65.15-.08.06-.14.15-.18.24-.25.62-.46,1.26-.63,1.9.59-.38,1.16-.79,1.7-1.24.26-.32.48-.66.67-1.03.55.34,1.19,1.07,1.63.96.94-.23,1.09-3.06.3-3.8l-2.11-4.26c.39-.03.78-.05,1.17-.09.71-.07,1.41-.15,2.12-.23.24-.36.46-.66.66-.93-.05.45-.09.86-.13,1.27.48-.32,1.11-.54,1.39-.99.34-.7.61-1.44.79-2.2l-1.95,1.06c-.35.47-.75.91-1.2,1.3-.51-.88-.67-2.3-2.45-1.37-.28.15-1.05-.61-1.59-.95,1.05,1.58-2.03,3.4.47,5.14m-9.43-18.66c.54.23,1.32-.14,2-.24.17-.22.32-.4.46-.56.02.31.04.6.06.89.36-.13.9-.16,1.04-.42.22-.53.36-1.08.44-1.64l-1.6.58c-.23.27-.48.52-.74.76-.17-.16-.29-.37-.34-.6-.17-1.75-3.03-.43-2.82-2.53-.63.69-1.33,1.31-2.11,1.84-.03-.11-.05-.22-.08-.33-.32.09-.62.22-.92.36,0,0,0,.02,0,.03.03.18.07.36.13.54l.98-.11c-.03-.13-.06-.26-.09-.39.12-.03.25-.06.4-.11,1.01.73,2.08,1.38,3.19,1.94m7.28,4.16c.91-1.01,3.78-2.63,5.35.38.31-.26.84-.5.87-.8.07-.56-.05-1.12-.34-1.6-1.72-2.37-4.05.17-5.99-.68-.69.42-1.4.85-2.81,1.61.09-.02.18-.04.28-.07,1.26-.71-.22,4.33,2.63,1.16m-.34-4.79c.08.7.16,1.4.24,2.1l1.41-2.24-1.65.14m-2.68,3.77l.11-.06-.12.03c-.03-.14-.06-.28-.1-.42-.32.09-.62.22-.92.36,0,0,0,.02,0,.03.03.18.07.36.13.54l.98-.11-.08-.36m8.89,169.07s.01,0,.03,0c.18-.03.37-.07.54-.13-.04-.33-.08-.65-.11-.98l-.39.09c-.11-.19-.2-.36-.27-.51l.17.11c.12-.34.18-.7.2-1.06,0-.1-.51-.16-.8-.24.03.33.07.66.1.99h0c.17.31.28.55.38.77l-.19.04c.1.32.22.62.36.92m-11.77-177.22c-.32-.08-.64-.12-.97-.12l.15.65.97.06c-.05-.2-.04-.54-.15-.58m7.59,18.54l1.41-2.24-1.65.14c.08.7.16,1.4.24,2.1m9.18,40.1c-.06.47-.03.95.09,1.41l1.54-1.08c-.13-.18-.42-.6-.71-1.03-.32.23-.82.4-.92.69m-.62-21.44c.14.29.32.57.53.82.08.08.39-.07.59-.11l-.47-.85-.65.15m-12.33,48.79c.1,0,.16-.52.24-.8l-.99.1h0c-.64.46-1.37.77-2.14.91-.15.05-.28.08-.4.11l-.1-.42c-.32.1-.62.22-.92.36,0,0,0,.02,0,.03.03.18.07.36.13.54l.98-.11c-.02-.08-.04-.16-.05-.24.71-.28,1.44-.51,2.19-.67.34.12.7.18,1.06.2m14.77-15.78c.02-.32.04-.64.06-.97-.2.05-.54.04-.58.15-.08.32-.12.64-.12.97l.65-.15m-4.27-57.78l-.41-.6c-.09.06-.17.11-.27.16-.28.16-.58.31-.65.53-.06.47-.03.95.09,1.41l1.54-1.08-.29-.42m-2.07,3.67c-.11.16-.24.32-.37.47-.93-.4-1.76-1.84-2.88-.26.95.37,1.79,1.9,2.94.29.34.12.7.18,1.06.19.1,0,.16-.51.24-.8l-.99.1h0m-8.81,95.91l.47.85.65-.15c-.14-.29-.32-.57-.53-.82-.08-.08-.39.07-.59.11m11.3,10.84s.01,0,.03,0c.18-.03.37-.07.54-.13-.04-.33-.08-.65-.12-.98l-.39.09c-.11-.19-.2-.36-.27-.51l.17.11c.12-.34.18-.7.2-1.06,0-.08-.29-.13-.55-.18-.09-.02-.17-.04-.24-.06.03.33.07.66.1.99h0c.17.31.29.56.38.77l-.19.04c.1.32.22.62.36.92m-12.91-40.76c.16.14.34.25.54.33.7.17,1.4.29,2.11.43-.55-.57-1.07-1.18-1.67-1.69-.48-.41-1.03-.75-1.61-1-.39-.07-.79-.05-1.17.04.07.29.04.7.22.85.1.09.21.17.3.23-.16-.11-.43-.28-.85-.55l-1.82.41c.61-.14,1.22-.28,3.97.94m2.79,23.68c-.56-.19-1.13-.31-1.72-.36.17.36.24.89.52,1.06.58.25,1.19.44,1.81.55-.26-.56-.33-1.12-.61-1.25m-10.19-38.23c-.01.17-.02.33-.03.5l.31-.07.34-.08c.02-.32.04-.64.06-.97-.2.05-.54.04-.58.15-.05.15-.08.31-.09.48m4.4-5.31c-.17-.36-.24-.92-.52-1.05-.56-.19-1.13-.31-1.72-.36l.57,1.27,1.67.14m-3.06.7c-.31.23-.86.44-.9.71-.03.66.02,1.32.13,1.97h1.68c-.3-.9-.61-1.79-.91-2.67m19.5-19.29c-.06.47-.03.95.09,1.41l1.54-1.08-.71-1.03c-.32.23-.82.4-.92.69m-15.36,48.51s-.03-.06-.06-.08c-.32-.08-.64-.12-.97-.12.05.2.04.54.15.58.07.03.15.05.23.06.24.04.49.04.74.06-.04-.15-.04-.38-.09-.5m1.58,15.5l.47.85.65-.15c-.14-.29-.32-.57-.53-.82-.08-.08-.39.07-.59.11m-3.22,103.76s-.03-.06-.06-.08c-.32-.08-.64-.12-.97-.12.05.2.04.54.15.58.07.03.15.05.23.06.24.04.49.04.74.06h0c-.03-.15-.04-.38-.09-.5m-2.43-177.3c.1,0,.16-.52.24-.8l-.99.1h0c-.28.06-.54.11-.79.15-.18-.16-.4-.28-.64-.32-.82-.07-1.65-.04-2.47.07-.26.03-.53.37-.7.63,0,.01,0,.03,0,.04.12.31.26.61.43.9,1.07-.13,2.29-.26,3.5-.44.14-.02.35-.5.34-.51-.09-.07-.18-.14-.27-.22l.5-.15-.22.34c.34.12.7.18,1.06.2m1.31,48.16c.05.15.08.28.11.4l-.42.1c.1.32.22.62.36.92,0,0,.02,0,.03,0,.18-.03.36-.07.54-.13-.04-.33-.08-.65-.11-.98h0l-.28.06c-.07-.16-.13-.3-.18-.43.22-.36.45-.71.67-1.07l-1.16-.22.46,1.33m-7.58-64.91c-.05-.2-.04-.54-.15-.58-.23-.07-.48-.11-.72-.11-.08,0-.17,0-.25-.02.02.1.05.2.07.31s.05.22.08.34l.97.05m-.13,7.04c-.46-.31-1.08-.19-1.39.26-.02.04-.05.07-.07.11-.31.41-.6.84-.87,1.28l-3,.22,1.24,2.29c.7-.26,1.48-.32,1.75-.72.29-.43.1-1.18.12-1.79l2.94.29c-.23-.67-.29-1.72-.73-1.93m-1.21-4.49l.08.34.97.06c-.05-.2-.04-.54-.15-.58-.15-.05-.31-.08-.48-.09-.16-.01-.33-.02-.5-.03.02.1.05.2.07.31m3.08.89c-.36.17-.92.24-1.05.52-.19.56-.31,1.13-.36,1.72l1.27-.57c.04-.49.09-1.08.14-1.66m-4.94-4.69c.32-.07.84-.26.86-.44.06-.59.09-1.18.11-1.78s.04-1.19.06-1.78c-.3.1-.6.22-.89.35-.07.04-.13.1-.17.18-.45.95-.75,1.97-1.05,2.82.72.46.93.68,1.08.66m24.86,16.37s-.03.04-.04.07c-.13.22-.23.41-.33.57-.69-.41-1.44-.69-2.22-.85-.74.12-1.44.38-2.08.77l1.81,1.63c-.8,1.33.22,2.16,1.12,2.04,1.38-.18,2.1-1.16.71-2.46.23-.37.47-.75.7-1.12.05-.08.1-.14.15-.22-.05.32.15.61.92.86.52.11,1.05.12,1.57.02.09-1.17.07-2.34.07-3.52l-1.63.89c-.3.54-.54.97-.74,1.32m-19.41-3.92c.75-1.43-.95-1.56-1.64-2.22-.27,1.36-.82,2.65-1.62,3.79-.27.08-.54.19-.8.32,0,0,0,.02,0,.03.03.18.07.36.13.54l.98-.12c-.03-.13-.06-.26-.09-.39.12-.03.25-.06.4-.11,1.96.98,2.16-.94,2.64-1.84m-7.24.56c-.13-.09-.57.26-1.09.5.45.44.95.84,1.47,1.2.12.07.38-.12.63-.29.08-.05.16-.11.24-.15-.2-.22-.4-.45-.6-.67-.2-.22-.41-.42-.65-.6m26.98,21.67c-.13-.09-.57.25-1.09.5.45.44.95.84,1.47,1.2.16.09.57-.28.86-.43-.38-.46-.8-.88-1.25-1.27m-2.73,13.02c-.09.13.26.57.5,1.09.44-.45.85-.95,1.2-1.47.09-.16-.28-.57-.43-.86-.46.38-.88.8-1.27,1.25m4.22-27.46c-.15-.05-.31-.08-.48-.09-.17-.01-.33-.02-.5-.03.01.05.02.11.03.17.02.18.04.38.11.41.07.03.15.05.23.06.24.04.49.04.74.06-.04-.15-.04-.38-.09-.5-.01-.04-.03-.07-.06-.08m-.46,9.58c-.04.24-.04.49-.06.74l.31-.07.34-.08c.02-.32.04-.64.06-.97-.2.05-.54.04-.58.15-.03.07-.05.15-.06.23m5.25,30.17c.1,0,.16-.51.24-.8l-.99.1h0c-.31.17-.56.29-.77.38-.01-.06-.03-.13-.04-.19-.32.09-.62.22-.92.36,0,0,0,.01,0,.03.03.18.07.37.13.54l.98-.12c-.03-.13-.06-.26-.09-.39.19-.11.36-.2.51-.27l-.11.17c.34.12.7.18,1.06.19m-9.07-27.65c.36-.46.67-.95.92-1.47-.21-.18-.45-.33-.7-.44-.41.46-.79.95-1.14,1.45.29.18.59.34.91.46m-.01-5.72l-.85.47c.06.24.1.45.15.65.29-.14.57-.32.82-.53.08-.08-.07-.39-.11-.59m-8.95,5.95c-.08,0-.17,0-.25-.02l.07.31.08.34.97.06c-.05-.2-.04-.54-.15-.58-.24-.07-.48-.1-.72-.1m7.24,19.37s.01,0,.03,0c.19-.02.37-.07.55-.13-.04-.33-.08-.66-.11-.98l-.59.13c-.29-.35-.51-.64-.7-.89l1.12-.08c-.13-.36-.16-.9-.42-1.04-.53-.22-1.08-.36-1.64-.44l.58,1.59c.32.36.63.73.91,1.13.07.24.17.48.29.71m-5.47-12.59c-.47-.06-.95-.03-1.41.09l1.08,1.54,1.03-.71c-.23-.32-.4-.82-.69-.92m-2.03,2.8c.02-.32.04-.64.06-.97-.2.05-.54.04-.58.15-.08.32-.12.64-.12.97l.65-.15m-.73-5.51c-.08,0-.17-.01-.25-.02.02.1.05.2.07.31s.05.22.08.34l.97.05c-.05-.2-.04-.54-.15-.58-.24-.07-.48-.1-.72-.1m10.19,37.55c-.21-.18-.45-.33-.7-.44-.41.46-.79.95-1.14,1.45.29.18.59.34.91.46.36-.46.67-.95.92-1.47m.83-20.4c.11.02.23.03.34,0,.67-.11,1.33-.27,1.98-.47-.54-.9-.9-1.77-1.07-1.74h-.02s-.08-.13-.08-.13l.08.05c.12-.34.18-.7.2-1.06,0-.1-.51-.16-.8-.24.03.33.07.66.1.99.04.18.08.34.11.5-.59.23-1.16.48-1.72.77.29.46.52,1.24.88,1.31m2.87-9.83h0c-.04-.15-.04-.38-.09-.5,0-.03-.03-.06-.06-.08-.24-.07-.48-.1-.72-.1-.08,0-.17-.01-.25-.02.02.1.03.24.05.35s.04.21.1.23c.07.03.15.05.23.06.24.04.49.04.74.06h0Zm.67,11.35c-.14-.29-.32-.57-.53-.82-.08-.08-.39.07-.59.11l.47.85.65-.15m-6.13,10.98c-.2.05-.54.04-.58.15-.08.32-.12.64-.12.97l.65-.15c.02-.32.04-.64.06-.97m2.85-38.04c.16.29.32.57.47.85l.65-.15c-.14-.29-.32-.57-.53-.82-.08-.08-.39.07-.59.11m.5-2.03l.65-.15c.02-.32.04-.64.06-.97-.2.05-.54.04-.58.15-.08.32-.12.64-.12.97m-1.01,10.35c-.47-.06-.95-.03-1.41.09l1.08,1.54,1.03-.71c-.23-.32-.4-.83-.69-.92m-2.8,19.28l.47.85.65-.15c-.14-.29-.32-.57-.53-.82-.08-.08-.39.07-.59.11m.58,6.53c-.03-.13-.06-.26-.09-.39.19-.11.36-.2.51-.27l-.11.17c.34.12.7.18,1.06.19.1,0,.16-.51.24-.8l-.99.1h0c-.31.17-.55.29-.77.38-.01-.06-.03-.13-.04-.19-.32.1-.62.22-.92.36,0,0,0,.01,0,.03.03.18.07.37.12.54l.98-.11m-2.47-4.33c.14-.08.27-.17.39-.29.08-.08-.07-.39-.11-.59l-.85.47c.06.24.1.45.15.65.14-.08.29-.16.43-.24m-.06,14.54c.29-.14.57-.32.82-.53.08-.08-.07-.39-.11-.59l-.85.47.08.34.07.31m1.07,9c.08-.08-.07-.39-.11-.59l-.85.47.15.65c.29-.14.57-.32.82-.53m-.59-16.8c.08.08.39-.07.59-.11l-.47-.85-.65.15c.14.29.32.57.53.82m-4.67-11.38c.03.33.07.66.1.99l.46.28.05.03c.12-.34.18-.7.2-1.06,0-.1-.52-.16-.8-.24m1.41,1.81l-.82-.51c-.32.83-1.52,1.57-.77,2.51.09.31.24.61.42.87l-.26.06c.1.32.22.62.36.92,0,0,.02,0,.03,0,.18-.03.36-.07.54-.13-.04-.33-.08-.66-.11-.98l-.39.09c-.03-.12-.06-.25-.11-.4l1.41-2.24-.26-.16-.04-.03m12.81-14.64c-.09.13.26.57.5,1.09.44-.45.84-.95,1.2-1.47.09-.16-.28-.57-.43-.86-.46.38-.88.8-1.27,1.25m-.39-5.66c.2-.05.54-.04.58-.15.08-.32.12-.64.12-.97l-.65.15c-.02.32-.04.64-.06.97m-12.13-3.95c-.02.32-.04.64-.06.97.2-.05.54-.04.58-.15.08-.32.12-.64.12-.97l-.65.15m11.51,16.36c.51.53.86.94,1.11,1.25-.03.25.02.5.15.72.06.08.15.14.24.18.62.24,1.26.45,1.9.63-.38-.59-.79-1.16-1.24-1.7-.32-.26-.66-.48-1.03-.67v.17c-.23-.24-.43-.44-.6-.63l.94-.07c-.13-.36-.16-.9-.42-1.04-.53-.22-1.08-.36-1.64-.44.17.47.34.94.58,1.59m-9.25,6.52c-.5.81-1.31,1.37-2.24,1.56.61-.14,1.22-.28,1.82-.41.17-.22.32-.4.46-.56.02.31.04.61.06.89.36-.13.9-.16,1.04-.42.22-.53.36-1.08.44-1.64l-1.59.58m-.76,7.47c-.08-.08-.39.07-.59.11l.47.85.34-.08.31-.07c-.08-.14-.16-.29-.24-.43-.08-.14-.17-.27-.29-.39m-1.89-37.45c-.06.47-.03.95.09,1.41l1.54-1.08-.49-.71-.22-.31c-.16.11-.37.21-.54.32-.16.08-.3.21-.37.37m-1.36,25.89l-.99.1h0c-.31.17-.56.29-.77.38-.01-.06-.03-.13-.04-.19-.32.1-.62.22-.92.36,0,0,0,.01,0,.03.03.18.07.37.13.54l.98-.12c-.03-.13-.06-.26-.09-.39.19-.11.36-.2.51-.27l-.11.17c.34.12.7.18,1.06.19.1,0,.16-.51.24-.8m1.8-15.93l-.34.08c-.02.32-.04.64-.06.97.2-.05.54-.04.58-.15.07-.24.1-.48.11-.72,0-.08,0-.17.02-.25l-.31.07m-.49,13.19c.32.08.64.12.97.12h0c-.05-.2-.04-.54-.15-.58-.32-.08-.64-.12-.97-.12.05.2.04.54.15.58m1.73-20.08c-.17.06-.34.13-.5.22,0,0,0,.02,0,.03.03.18.07.36.13.54l.98-.12-.09-.39c.12-.03.25-.06.4-.11,2.24-.16,2.94-1.27,2.11-3.36-1.81.97-2,1.07-3.03,3.19m.38-6.42c-.15.05-.28.08-.4.11l-.1-.42c-.32.1-.62.22-.92.36,0,0,0,.02,0,.03.03.18.07.36.13.54l.98-.12c-.01-.06-.03-.13-.04-.19.21-.06.4-.12.57-.17l2.03,1.27c-.05-.55-.1-1.1-.14-1.65l-2.1.24m3.05,15.16c-.34-.93-.67-1.81-1-2.69-.32.23-.93.48-.91.67.08.69.28,1.35.61,1.96.1.17.75.04,1.3.05m-2.48,3.86c-.32.84-.58,1.71-.77,2.59l1.6-1.08c.11-.74.23-1.5.34-2.26-.23.14-.51.25-.75.38-.09-.41-.16-.73-.21-.98l.43.27c.12-.34.18-.7.19-1.06,0-.1-.51-.16-.8-.24.03.33.07.66.1.99,0,.48,0,.89,0,1.25-.05.04-.09.09-.12.14m-5.89,22.93c.29-.14.57-.32.82-.53.08-.08-.07-.39-.11-.59l-.85.47.15.65m5.18-16.74c.64-.17,1.26-.41,1.85-.71.23-.14.18-.73.26-1.11l-2.81.3.7,1.52m-18.43-59.83l.46,1.33c.05.15.08.28.11.4l-.42.1c.09.32.22.62.36.92,0,0,.02,0,.03,0,.18-.03.36-.07.54-.13-.04-.33-.08-.66-.11-.98l-.28.06c-.07-.16-.13-.3-.18-.43l.67-1.06-1.16-.22m45.06,98.43c-.32-.08-.64-.12-.97-.12.05.2.04.54.15.58.07.03.15.05.23.06.24.04.49.04.74.06h0c-.04-.15-.04-.38-.09-.5-.01-.04-.03-.07-.06-.08m.37-27.89c-.32-.08-.64-.12-.97-.12.05.2.04.54.15.58.07.03.15.05.23.06.24.04.49.04.74.06-.05-.2-.04-.54-.15-.58m-1.28,6.71h0c.17.31.28.55.38.77l-.19.04c.1.32.22.62.36.92,0,0,.01,0,.03,0,.18-.03.37-.07.54-.13-.04-.33-.08-.66-.11-.98l-.39.09c-.11-.19-.2-.36-.27-.51l.17.11c.12-.34.18-.7.2-1.06,0-.1-.51-.16-.8-.24.03.33.07.66.1.99m-.95-4.01c.07.03.15.05.23.06.24.04.49.04.74.06-.03-.15-.04-.38-.09-.5,0-.03-.03-.06-.06-.08-.32-.08-.64-.12-.97-.12.05.2.04.54.15.58m3.86-26.77c-.3.65-.59,1.31-.89,1.96.66.03,1.32.05,1.98.11.03,0,.06.01.08.03.11.05.25.22.53.68l-.42.1c.1.32.22.62.36.92,0,0,.02,0,.03,0,.18-.03.36-.07.54-.13-.04-.33-.08-.65-.12-.98l-.39.09c-.03-.12-.06-.25-.11-.4.96-1.73-.79-1.82-1.53-2.53-.22-.17-.4-.32-.56-.46l.89-.06c-.13-.36-.16-.9-.42-1.04-.53-.22-1.08-.36-1.64-.44l.58,1.6c.37.22.74.4,1.08.56m-1.91,69.2c-.32-.08-.64-.12-.97-.12.05.2.04.54.15.58.07.03.15.05.23.06.24.04.49.04.74.06-.04-.15-.04-.38-.09-.5,0-.03-.03-.06-.06-.08m-.59-49.03h0c.14.15.3.29.47.4-.17.42-.18.89-.02,1.32.37.87,1.61,1.19,2.65,2.26l-.27.06c.09.32.22.62.36.92,0,0,.02,0,.03,0,.18-.03.36-.07.54-.13-.04-.33-.08-.65-.12-.98l-.39.09c-.03-.12-.06-.25-.11-.4.37-1.11.05-1.65-.5-2.01-.49-.33-1.18-.55-1.81-.9-.13-.09-.25-.2-.34-.32.12-.34.18-.7.19-1.06,0-.1-.51-.16-.8-.24.03.33.07.66.1.99m-2.28,119.37c-.07.23-.1.48-.1.72,0,.08,0,.17-.02.25l.31-.07.34-.08c.02-.32.04-.64.06-.97-.1.02-.24.03-.35.05s-.21.04-.23.1m3.81-103.96c-.29-.09-.79-.31-.82-.25-.37.61-.67,1.26-1.2,2.34.32.29.62.61.9.95.06.18.14.36.23.53,0,0,.01,0,.03,0,.18-.03.37-.07.54-.13-.04-.33-.08-.66-.11-.98l-.28.06c-.11-.28-.19-.52-.25-.74.17-.05.29-.1.34-.18.26-.52.48-1.06.65-1.61m-3.38,66.46l-.65.15c.14.29.32.57.53.82.08.08.39-.07.59-.11l-.47-.85m1.41-90.46c.08-.32.12-.64.12-.97-.2.05-.54.04-.58.15-.03.07-.05.15-.06.23-.04.24-.04.49-.06.74h0c.15-.04.38-.04.5-.09.03,0,.06-.03.08-.06m.38-20.74c0-.1-.51-.16-.8-.24.03.33.07.66.1.99h0c.15.18.28.34.38.49.04-.06.08-.11.11-.18.12-.34.18-.7.2-1.06m-1.21,2.68c-.03-.13-.06-.26-.09-.39.12-.03.25-.06.4-.11l1.16.22c-.15-.45-.3-.89-.46-1.33l-.11.18h0c-.28.38-.62.7-1.01.96l-.08-.33c-.32.1-.62.22-.92.36,0,0,0,.02,0,.03.03.18.07.36.13.54l.98-.12m-.2-7.59c.08-.32.12-.64.12-.97-.2.05-.54.04-.58.15-.08.32-.12.64-.12.97h0c.2-.05.54-.04.58-.15m-2.44,34.13l.44.75.41.69,1.39-.03c-.29-.51-.65-.98-1.07-1.4-.07-.05-.15-.08-.23-.08-.32,0-.63.03-.94.07m1.43-6.35l.97.06c-.05-.2-.04-.54-.15-.58-.15-.05-.31-.08-.48-.09-.16-.01-.33-.02-.5-.03.02.1.05.2.07.31l.08.34m.15,29.08c-.08,0-.17-.01-.25-.02l.07.31.08.34.97.05c-.05-.2-.04-.54-.15-.58-.24-.07-.48-.1-.72-.1m2.15-27.41l.65-.15c.02-.32.04-.64.06-.97-.2.05-.54.04-.58.15-.08.32-.12.64-.12.97m-.82,38.54l-.85.47c.05.24.1.45.15.65.29-.14.57-.32.82-.53.08-.08-.07-.39-.11-.59m.09,24.68c.24.04.49.04.74.06h0c-.03-.15-.04-.38-.09-.5,0-.03-.03-.06-.06-.08-.32-.08-.64-.12-.97-.12.05.2.04.54.15.58.07.03.15.05.23.06m1.82,13.24c-.14-.29-.32-.57-.53-.82-.08-.08-.39.07-.59.11l.47.85.65-.15m1.98-50.31c-.14-.29-.32-.57-.53-.82-.08-.08-.39.07-.59.11l.47.85.65-.15m5.07-28.28c-.05-.24-.1-.45-.15-.65-.29.14-.57.32-.82.53-.08.08.07.39.11.59l.85-.47m-.66,9.74l.97.06c-.05-.2-.04-.54-.15-.58-.32-.08-.64-.12-.97-.12l.15.65m3.73,7.99c.24-.54.44-1.1.58-1.68-.33-.01-.86-.17-.97-.02-.32.55-.6,1.12-.81,1.72.57,0,1.13.12,1.2-.02m-22.27,24.31h0c.15-.04.38-.04.5-.09.04-.01.07-.03.08-.06.08-.32.12-.64.12-.97-.2.05-.54.04-.58.15-.08.32-.12.64-.12.97m16.8,2.21l.15.65c.29-.14.57-.32.82-.53.08-.08-.07-.39-.11-.59l-.85.47m5.16-11.04c.14.29.32.57.53.82.08.08.39-.07.59-.11l-.47-.85-.65.15m2.61-5.39c.2-.05.54-.04.58-.15.08-.32.12-.64.12-.97-.2.05-.54.04-.58.15-.08.32-.12.64-.12.97h0Zm1.99,12.97c-.05-.2-.04-.54-.15-.58-.32-.08-.64-.12-.97-.12l.15.65.97.06m-9.87-47.61l-.65.15c-.02.32-.04.64-.06.97.2-.05.54-.04.58-.15.08-.32.12-.64.12-.97m5.77,38c.05-.01.11-.02.17-.03.18-.02.38-.04.41-.12.03-.07.05-.15.06-.23.04-.24.04-.49.06-.74l-.31.07-.34.08c-.02.32-.04.64-.06.97m-5.46-8.35l.65-.15c-.14-.29-.32-.57-.53-.82-.08-.08-.39.07-.59.11.16.29.32.57.47.85m-2.13-20.56h0c-.31.17-.55.29-.77.38-.01-.06-.03-.13-.04-.19-.32.1-.62.22-.92.36,0,0,0,.01,0,.03.03.18.07.37.13.54l.98-.11-.09-.39c.19-.11.36-.2.51-.27l-.11.17c.34.12.7.18,1.06.2.1,0,.16-.51.24-.8l-.99.1m.79,28.53c-.03-.15-.04-.38-.09-.5,0-.03-.03-.06-.06-.08-.24-.07-.48-.1-.72-.1-.08,0-.17-.01-.25-.02.02.1.05.2.07.31s.05.22.08.34l.97.05Zm-.38-35.39c-.2.05-.54.04-.58.15-.08.32-.12.64-.12.97l.65-.15c.02-.32.04-.64.06-.97m-.24,38.39c.05-.15.08-.31.09-.48.01-.16.02-.33.03-.5-.1.02-.24.03-.35.05s-.21.04-.23.1c-.03.07-.05.15-.06.23-.04.24-.04.49-.06.74.15-.04.38-.04.5-.09.03,0,.06-.03.08-.06m-1.48,6.12c-.08-.08-.39.07-.59.11l.47.85.65-.15c-.14-.29-.32-.57-.53-.82m2.18-34.07c.14.29.32.57.53.82.08.08.39-.07.59-.11l-.47-.85-.65.15m-.88,38.28l-.08-.34c-.02-.11-.05-.21-.07-.31-.14.08-.29.16-.43.24-.14.08-.27.17-.39.29-.08.08.07.39.11.59l.85-.47m-9.63,29.31l-.85.47.15.65c.29-.14.57-.32.82-.53.08-.08-.07-.39-.11-.59m8.49-37.58c-.18,1.08-.25,1.47-.31,1.85.47-.1.91-.28,1.31-.53.23-.21.16-.74.23-1.13l-1.23-.19m4.04-4.53h0c.17.31.29.55.38.77l-.19.05c.09.32.22.62.36.92,0,0,.01,0,.03,0,.18-.03.37-.07.54-.13-.04-.33-.08-.66-.11-.98l-.39.09c-.11-.19-.2-.36-.27-.51l.17.11c.12-.34.18-.7.19-1.06,0-.04-.08-.07-.18-.1-.07-.02-.15-.04-.24-.06l-.13-.03c-.09-.02-.17-.04-.24-.06h0l.1.99Zm-22.07-67.27l1.33-.46-1.12-.7c-.07.39-.14.77-.22,1.16m10.26,7.24c.08-.08-.07-.39-.11-.59l-.85.47.15.65c.29-.14.57-.32.82-.53m-.59,10c.16.09.57-.28.86-.43-.38-.46-.8-.88-1.25-1.27-.13-.09-.57.26-1.09.5.45.44.95.84,1.47,1.2m3.01,51.15c-.03-.15-.04-.38-.09-.5,0-.03-.03-.06-.06-.08-.32-.08-.64-.12-.97-.12.05.2.04.54.15.58.07.03.15.05.23.06.22.07.48.06.72.08l.02-.02Zm-4.01,51.87c-.16-.01-.33-.02-.5-.03.01.06.02.11.03.17.02.18.04.38.11.41.07.03.15.05.23.06.24.04.49.04.74.06h0c-.03-.15-.04-.38-.09-.5,0-.03-.03-.06-.06-.08-.15-.05-.31-.08-.48-.09m-1.38-121.91c.14-.08.29-.16.44-.24.45-.16.86-.44,1.17-.81.21-.45.31-.95.28-1.45,0-.18.02-.35.04-.52l-1.25.28-1.33.3.64,2.42m3.19,5.39c.17.31.29.55.38.77l-.19.04c.09.32.22.62.36.92,0,0,.01,0,.03,0,.18-.03.37-.07.54-.12-.04-.33-.08-.66-.11-.98l-.39.09c-.11-.19-.2-.36-.27-.51l.17.11c.12-.34.18-.7.2-1.06,0-.1-.52-.16-.8-.24.03.33.07.66.1.99h0m2.25,26.96c-.06-.24-.1-.45-.15-.65-.29.14-.57.32-.82.53-.08.08.07.39.11.59l.85-.47m-.27-5.41l-.65.15c-.02.32-.04.64-.06.97.2-.05.54-.04.58-.15.08-.32.12-.64.12-.97m-1.63,9.68l.97.06c-.05-.2-.04-.54-.15-.58-.32-.08-.64-.12-.97-.12l.15.65m-9.11-30.96c-.08.06-.14.15-.18.24-.25.62-.46,1.26-.63,1.9.59-.38,1.16-.79,1.7-1.24.26-.32.48-.66.67-1.03h0c.51.84,1.02,1.69,1.53,2.53-.26.4-.56.78-.89,1.12-.5-.01-1.08-.11-1.37.12-.08.06-.14.15-.18.24-.25.62-.46,1.26-.63,1.9.59-.38,1.16-.79,1.7-1.24.26-.32.48-.66.67-1.03l1.82-.42,1.65-.14c-.08-.7-.16-1.4-.24-2.1.08-.39.15-.77.22-1.16l-1.33.46-2.24-1.41c-.26.4-.56.77-.89,1.11-.5-.01-1.08-.11-1.37.12m-2.62-5.88c-.15.05-.28.08-.4.11-.03-.14-.06-.28-.1-.42-.32.1-.62.22-.92.36,0,0,0,.02,0,.03.03.18.07.36.13.54l.98-.12-.06-.28c.16-.07.3-.13.43-.18l1.06.67c.08-.39.15-.77.22-1.16l-1.33.46m7.05,121.6l.65-.15c.02-.32.04-.64.06-.97-.2.05-.54.04-.58.15-.08.32-.12.64-.12.97m-.75-28.6c.36-.17.92-.24,1.05-.52.19-.56.31-1.13.36-1.72l-1.27.57c-.04.5-.09,1.08-.14,1.67m-.25-9.53c.2-.05.54-.04.58-.15.08-.32.12-.64.12-.97l-.65.15c-.02.32-.04.64-.06.97m-.4,15.11l.07.31c.14-.09.29-.16.43-.24.14-.08.27-.17.39-.29.08-.08-.07-.39-.11-.59l-.85.47.08.34m-.01,4.16l.07.31.08.34.97.06c-.05-.2-.04-.54-.15-.58-.23-.07-.48-.11-.72-.11-.08,0-.17,0-.25-.02m-.23-100.82c-.81-.61-1.83-2.25-3.17-.52l2.65,3.23c.34-.89,1.81-1.74.52-2.71m2.12,35.14c.1,0,.16-.51.24-.8l-.99.1h0c-.31.17-.55.29-.77.38-.01-.06-.03-.13-.04-.19-.32.1-.62.22-.92.36,0,0,0,.01,0,.03.03.18.07.37.13.54l.98-.12c-.03-.13-.06-.26-.09-.39.19-.11.36-.2.51-.27l-.11.17c.34.12.7.18,1.06.19m-.27,27.91l-.46-1.33c.02-.09.04-.18.07-.27.09-.26.13-.53.13-.8,0-.1-.51-.16-.8-.24.03.33.07.66.1.99h0c.15.18.28.34.39.49l-.59.94,1.16.22m.82,40.08c-.2.05-.54.04-.58.15-.03.07-.05.15-.06.23-.04.24-.04.49-.06.74h0c.2-.05.54-.04.58-.15.08-.32.12-.64.12-.97m-.24-110.55c.08-.08-.07-.39-.11-.59l-.85.47c.06.24.1.45.15.65.29-.14.57-.32.82-.53m4.57,58.92l.18-.12.84-.58c-.11-.16-.21-.37-.32-.55-.08-.16-.21-.3-.37-.37-.47-.06-.95-.03-1.41.09.23.32.46.64,1.08,1.54m-1.36-14.41c-.18,1.08-.25,1.47-.31,1.85.47-.1.91-.28,1.31-.53.23-.21.16-.74.23-1.13l-1.23-.19m-.33,22.73s-.03-.06-.06-.08c-.32-.08-.64-.12-.97-.12.05.2.04.54.15.58.32.08.64.12.97.12h0c-.04-.15-.04-.38-.09-.5m2.71,37.3l-.65.15c-.02.32-.04.64-.06.97.2-.05.54-.04.58-.15.08-.32.12-.64.12-.97m-2.92-76.04c-.05-.2-.09-.41-.15-.65l-.97-.06c.05.2.04.54.15.58.32.08.64.12.97.12m-1.16,24.18c-.02-.09-.04-.19-.06-.28.27-.11.51-.19.73-.25.05.17.1.29.18.34.52.26,1.06.48,1.61.65.09-.29.31-.79.25-.82-.61-.37-1.26-.67-2.34-1.2-.29.32-.61.62-.95.9l-.08.03c-.16.05-.31.12-.46.2,0,0,0,.01,0,.03.03.19.07.37.13.55l.98-.11m0-35.57c.16.01.33.02.5.03-.02-.1-.05-.2-.07-.31s-.05-.22-.08-.34l-.97-.06c.04.15.04.38.09.5,0,.03.03.06.06.08.15.05.31.08.48.09m-.77,2.92l.97.06c-.04-.15-.04-.38-.09-.5,0-.03-.03-.06-.06-.08-.32-.08-.64-.12-.97-.12l.15.65m2.37,52.44c-.04-.15-.05-.36-.08-.53h.41s1.16.22,1.16.22l-.46-1.33-.11.18h0c-.28.34-.63.6-1.03.77-.02-.06-.05-.11-.08-.12-.67-.17-1.34-.31-2.02-.4.19.33.37.67.65,1.17l1.57.04m-2.51-41.58l.65-.15c-.14-.29-.32-.57-.53-.82-.08-.08-.39.07-.59.11l.47.85m3.73,38.88c0-.1-.51-.16-.8-.24.03.33.07.66.1.99h0c.15.18.28.34.38.49.04-.06.08-.11.11-.17.12-.34.18-.7.19-1.06m-1.4,73.72c.29-.14.57-.32.82-.53.08-.08-.07-.39-.11-.59l-.85.47c.03.12.05.23.08.34s.05.21.07.31m.83-53.86c-.08-.08-.39.07-.59.11l.47.85.65-.15c-.14-.29-.32-.57-.53-.82m1.4-8h0c-.04-.15-.04-.38-.09-.5,0-.03-.03-.06-.06-.08-.32-.08-.64-.12-.97-.12.05.2.04.54.15.58.07.03.15.05.23.06.24.04.49.04.74.06m-2.5,39.6l.97.06c-.05-.2-.04-.54-.15-.58-.23-.07-.48-.11-.72-.11-.08,0-.17,0-.25-.02h0c.02.1.05.2.07.31s.05.22.08.34m-.52-14.94c.14.29.32.57.53.82.08.08.39-.07.59-.11-.16-.29-.32-.57-.47-.85l-.65.15m.41-19.27l-.85.47.15.65c.29-.14.57-.32.82-.53.08-.08-.07-.39-.11-.59m-1.51,14.45l.97.06c-.05-.2-.04-.54-.15-.58-.24-.07-.48-.1-.72-.11-.08,0-.17,0-.25-.02l.07.31c.02.11.05.22.08.34m2.1-7.45c0-.1-.51-.16-.8-.24.03.33.07.66.1.99h0c.17.31.28.56.38.77l-.19.04c.09.32.22.63.36.92,0,0,.01,0,.03,0,.18-.03.37-.07.54-.13-.04-.33-.08-.65-.11-.98l-.39.09c-.11-.19-.2-.36-.27-.51l.17.11c.12-.34.18-.7.19-1.06m.46-10.73c-.32-.08-.64-.12-.97-.12l.15.65.97.06c-.05-.2-.04-.54-.15-.58m18.44,25.19c.19-.03.37-.07.54-.13-.04-.33-.08-.66-.11-.98l-.28.06c-.11-.27-.19-.52-.25-.74.17-.05.29-.1.34-.18.26-.52.48-1.06.65-1.61-.29-.09-.79-.31-.82-.25-.37.61-.67,1.26-1.2,2.34.32.29.62.61.9.95,0,.03.02.05.03.08.05.16.12.31.2.46,0,0,.01,0,.03,0m-33.99,71.97c.02-.32.04-.64.06-.97-.2.05-.54.04-.58.15-.03.07-.05.15-.06.23-.04.24-.04.49-.06.74h0l.31-.07.34-.08m-.57-3.71c-.05-.2-.04-.54-.15-.58-.32-.08-.64-.12-.97-.12.05.2.04.54.15.58.07.03.15.05.23.06.21.05.47.05.71.07h.03Zm.11,7.88c-.04.24-.04.49-.06.74h0c.2-.05.54-.04.58-.15.08-.32.12-.64.12-.97-.2.05-.54.04-.58.15-.03.07-.05.15-.06.23m.95-48.39l-.65.15c.14.29.32.57.53.82.08.08.39-.07.59-.11l-.47-.85m1.43,9.27c-.14-.29-.32-.57-.53-.82-.04-.04-.14-.02-.25.01s-.24.08-.34.11l.47.85.65-.15m-5.63,10.89s.06-.03.08-.06c.08-.32.12-.64.12-.97-.2.05-.54.04-.58.15-.03.07-.05.15-.06.23-.04.24-.04.49-.06.74.15-.04.38-.04.5-.09m.2,50.74l-.65.15c.14.29.32.57.53.82.08.08.39-.07.59-.11l-.47-.85m.02,11.51c.14.29.32.57.53.82.08.08.39-.07.59-.11l-.47-.85-.65.15m.27-87.31c-.04-.15-.04-.38-.09-.5,0-.03-.03-.06-.06-.08-.24-.07-.48-.1-.72-.1-.08,0-.17,0-.25-.02h0c.02.1.05.2.07.31s.05.22.08.34l.97.06m2.57-1.6c-.03-.13-.06-.26-.09-.39.19-.11.36-.2.51-.27l-.11.17c.34.12.7.18,1.06.2.1,0,.16-.52.24-.8l-.99.1h0c-.31.17-.56.29-.77.38-.01-.06-.03-.13-.04-.19-.32.09-.62.22-.92.36,0,0,0,.01,0,.03.03.18.07.37.13.54l.98-.11m9.34-42.96c-.24-.07-.48-.1-.72-.1-.08,0-.17-.01-.25-.02.02.1.05.2.07.31s.05.22.08.34l.97.05c-.05-.2-.04-.54-.15-.58m1.29-7.05l-3.49,1.52.81,1.6c.75-.4,1.46-.88,2.11-1.43.37-.39.4-1.11.58-1.68m1.58,57.52c-.38-.46-.8-.88-1.25-1.27-.13-.09-.57.26-1.09.5.45.44.95.84,1.47,1.2.16.09.57-.28.86-.43m-4.73-37.59c-.32-.08-.64-.12-.97-.12l.15.65.97.06c-.03-.15-.04-.38-.09-.5,0-.03-.03-.06-.06-.08m1.43,81.06c-.04.24-.04.49-.06.74h0c.15-.03.38-.04.5-.09.03,0,.06-.03.08-.06.08-.32.12-.64.12-.97-.2.05-.54.04-.58.15-.03.07-.05.15-.06.23m-5.12,3.81l.65-.15c.02-.32.04-.64.06-.97-.2.05-.54.04-.58.15-.08.32-.12.64-.12.97m1.56-73.22c-.05-.2-.04-.54-.15-.58-.32-.08-.64-.12-.97-.12.05.2.04.54.15.58.07.03.15.05.23.06.24.04.49.04.74.06h0Zm-2.62,81.2c-.32.54-.6,1.12-.81,1.72.57,0,1.13.12,1.2-.02.24-.54.44-1.1.58-1.68-.33-.01-.86-.17-.97-.02m3.24,10.02l.15.65c.29-.14.57-.32.82-.53.08-.08-.07-.39-.11-.59l-.85.47m0-21.03c-.15-.05-.31-.08-.48-.09-.16-.01-.33-.02-.5-.03.02.1.05.2.07.31s.05.22.08.34l.97.06c-.05-.2-.04-.54-.15-.58m-20.24-143.88c.12-.03.25-.06.4-.11.46.29.85.67,1.14,1.13l-.33.08c.1.32.22.62.36.92,0,0,.02,0,.03,0,.18-.03.36-.07.54-.13-.04-.33-.08-.65-.12-.98l-.39.09c-.03-.12-.06-.25-.11-.4l-.41-1.82-.15.24h0c-.27.34-.6.65-.97.89-.03-.11-.05-.22-.08-.33-.32.09-.62.22-.92.36,0,0,0,.02,0,.03.03.18.07.36.13.54l.98-.12-.09-.39m-4.2-7.69l1.16.22-.46-1.33c-.23-.66-.46-1.33-.68-1.99-.52.19-1.31.24-1.49.6-.43.9-.7,1.87-.8,2.86-.05.46.41.97.64,1.46l1.63-1.81m-1.23-5.51c.14.23.73.18,1.11.26-.1-.94-.2-1.87-.3-2.81l-1.52.7c.17.64.41,1.26.71,1.84m6.73,10.91c0-.1-.52-.16-.8-.24.03.33.07.66.1.99h0c.12.18.24.36.34.55.06-.08.11-.16.16-.23.12-.34.18-.7.2-1.06m-2.23-1.04c.03-.6,0-1.19-.06-1.79l.76.16c.14-.51.29-1.01.43-1.52-.65-.06-1.3-.03-1.94.09-.05.03-.1.07-.13.11-.48.89-.77,1.87-.86,2.87,0,.07,0,.13,0,.2-1.18,1.19-1.63,1.3-2.07,1.4-.15.05-.28.08-.4.11l-.1-.42c-.32.09-.62.22-.92.36,0,0,0,.02,0,.03.03.18.07.36.13.54l.98-.12c-.02-.08-.04-.16-.05-.24.71-.28,1.44-.51,2.19-.67.12-.13.24-.25.34-.37.07.24.15.48.21.71.49-.35,1.22-.62,1.4-1.09.05-.12.07-.24.08-.37m-2.96,7.55c.05.2.04.54.15.58.32.08.64.12.97.12-.05-.2-.09-.41-.15-.65l-.97-.06m-.79,188.25c-.16-.01-.33-.02-.5-.03.02.1.05.2.07.31s.05.22.08.34l.97.06c-.05-.2-.04-.54-.15-.58-.15-.05-.31-.08-.48-.09m-3.4-203.52c-.08,0-.17,0-.25-.02h0c.02.1.03.24.05.35s.04.21.1.23c.32.08.64.12.97.12h0c-.05-.2-.04-.54-.15-.58-.24-.07-.48-.1-.72-.11m6.96,2.18l.65-.15c.02-.32.04-.64.06-.97-.2.05-.54.04-.58.15-.08.32-.12.64-.12.97m.74-6.93l-.33.08c.1.32.22.62.36.92,0,0,.02,0,.03,0,.18-.03.36-.07.54-.13-.04-.33-.08-.65-.12-.98l-.39.09c-.03-.12-.06-.25-.11-.4l-.41-1.82c.12-.34.18-.7.19-1.06,0-.1-.52-.16-.8-.24.03.33.07.66.1.99h0c.14.2.25.38.34.56-.18.29-.37.58-.55.88.46.29.85.67,1.14,1.13m-3.13-.89c.54.23,1.32-.14,2-.24-1.01-.73-2.08-1.38-3.19-1.94-.54-.23-1.32.14-2,.24-.15.05-.28.08-.4.11-.03-.14-.06-.28-.1-.42-.32.09-.62.22-.92.36,0,0,0,.02,0,.03.03.18.07.36.13.54l.98-.12c-.02-.07-.03-.15-.05-.23l.5-.18c.96.7,1.98,1.31,3.04,1.84m6.97,220.83c-.04.24-.04.49-.06.74h0c.15-.03.38-.04.5-.09.03,0,.06-.03.08-.06.08-.32.12-.64.12-.97-.2.05-.54.04-.58.15-.03.07-.05.15-.06.23m2.74-159.67c-.15-.05-.31-.08-.48-.09-.17-.01-.33-.02-.5-.03,0,.04.02.09.02.14,0,.07.02.14.03.21.02.11.04.21.1.23.07.03.15.05.23.06.24.04.49.04.74.06h0c-.05-.2-.04-.54-.15-.58m-1.63,103.58l-.65.15c.14.29.32.57.53.82.08.08.39-.07.59-.11l-.47-.85m1.05,5.46c-.11-.19-.2-.36-.27-.51l.17.11c.12-.34.18-.7.19-1.06,0-.1-.51-.16-.8-.24.03.33.07.66.1.99h0c.17.31.29.56.38.77l-.19.04c.1.32.22.62.36.92,0,0,.01,0,.03,0,.18-.03.37-.07.54-.13-.04-.33-.08-.65-.11-.98l-.39.09m18.99-36.81c.17.31.29.56.38.77l-.19.04c.09.32.22.62.36.92,0,0,.01,0,.03,0,.18-.03.37-.07.54-.13l-.11-.98-.39.09c-.11-.19-.2-.36-.27-.51l.17.11c.12-.34.18-.7.19-1.06,0-.1-.52-.16-.8-.24.03.33.07.66.1.99h0m-16.04,14.22c-.31.17-.56.29-.77.38-.01-.06-.03-.13-.04-.19-.32.09-.62.22-.92.36,0,0,0,.01,0,.03.03.18.07.37.13.54l.98-.12c-.03-.13-.06-.26-.09-.39.19-.11.36-.2.51-.27l-.11.17c.34.12.7.18,1.06.19.1,0,.16-.51.24-.8l-.99.1h0m-7.05-111.53c.17.31.29.56.38.77l-.19.04c.1.32.22.62.36.92,0,0,.01,0,.03,0,.18-.03.37-.07.54-.13-.04-.33-.08-.65-.11-.98l-.39.09c-.11-.19-.2-.36-.27-.51l.17.11c.12-.34.18-.7.2-1.06,0-.1-.51-.16-.8-.24.03.33.07.66.1.99h0m.53-4.41c.29.1.6.16.91.16.1,0,.16-.51.24-.8l-.99.1h0c-.27.19-.51.36-.72.49-.44-.03-.9-.08-1.15.13-.08.06-.14.14-.18.24-.25.62-.46,1.26-.63,1.91.59-.38,1.16-.79,1.7-1.24.2-.22.36-.46.49-.72.12-.1.23-.19.33-.27m7.88,64.72c-.11-.19-.2-.36-.27-.51l.17.11c.12-.34.18-.7.2-1.06,0-.1-.51-.16-.8-.24.03.33.07.66.1.99h0c.17.31.29.56.38.77l-.19.04c.09.32.22.62.36.92,0,0,.01,0,.03,0,.18-.03.37-.07.54-.13l-.11-.98-.39.09m-7.29,90.91c-.41.46-.79.95-1.14,1.45.29.18.59.34.91.46.36-.46.67-.95.92-1.47-.21-.18-.45-.33-.7-.44m26.18-94.2h0c-.05-.2-.04-.54-.15-.58-.15-.05-.31-.08-.48-.09-.16-.01-.33-.02-.5-.03.01.05.02.11.03.17.02.18.04.38.12.41.07.03.15.05.23.06.24.04.49.04.74.06m16.31-33.9c.19-.11.36-.2.51-.27l-.11.17c.34.12.7.18,1.06.2.1,0,.16-.52.24-.8l-.99.1h0c-.31.17-.56.29-.77.38-.01-.06-.03-.13-.04-.19-.32.09-.62.22-.92.36,0,0,0,.01,0,.03.03.18.07.37.13.54l.98-.11c-.03-.13-.06-.26-.09-.39m-2.15-13.43l.15.65.97.06c-.05-.2-.04-.54-.15-.58-.32-.08-.64-.12-.97-.12m-.08,24.95c.14.29.32.57.53.82.08.08.39-.07.59-.11l-.47-.85-.65.15m2.02,24.71c-.04.24-.04.49-.06.74h0c.15-.04.38-.04.5-.09.03,0,.06-.03.08-.06.08-.32.12-.64.12-.97-.2.05-.54.04-.58.15-.03.07-.05.15-.06.23m-.41,20.27l.15.65c.29-.14.57-.32.82-.53.08-.08-.07-.39-.11-.59l-.85.47m-1.52-40.15c-.31.17-.56.29-.77.38-.01-.06-.03-.13-.04-.19-.32.1-.62.22-.92.36,0,0,0,.01,0,.03.03.18.07.37.13.54l.98-.11-.09-.39c.19-.11.36-.2.51-.27l-.11.17c.34.12.7.18,1.06.19.1,0,.16-.51.24-.8l-.99.1h0m-2.23,32.1c.2-.05.54-.04.58-.15.08-.32.12-.64.12-.97l-.65.15c-.02.32-.04.64-.06.97m1.57-7.88c-.17-.01-.33-.02-.5-.03l.07.31c.02.11.05.22.08.34l.97.06c-.05-.2-.04-.54-.15-.58-.15-.05-.31-.08-.48-.09m2.28-34.22l.47.85.65-.15c-.14-.29-.32-.57-.53-.82-.08-.08-.39.07-.59.11m-2.6,14.07c-.31.17-.56.29-.77.38-.01-.06-.03-.13-.04-.19-.32.1-.62.22-.92.36,0,0,0,.01,0,.03.03.18.07.37.13.54l.98-.11c-.03-.13-.06-.26-.09-.39.19-.11.36-.2.51-.27l-.11.17c.34.12.7.18,1.06.2.1,0,.16-.51.24-.8l-.99.1h0m5.06,51.53c.05.2.04.54.15.58.32.08.64.12.97.12l-.15-.65-.97-.06m4.32-14.73l-.08-.34-.97-.05c.05.2.04.54.15.58.15.05.31.08.48.09.16.01.33.02.5.03-.02-.1-.05-.2-.07-.31m-.05-4.46c-.05-.2-.04-.54-.15-.58-.32-.08-.64-.12-.97-.12l.15.65.97.06m-1.03-19.88c-.08-.08-.39.07-.59.11l.47.85.65-.15c-.14-.29-.32-.57-.53-.82m1.12,37.12c.14.29.32.57.53.82.08.08.39-.07.59-.11l-.47-.85-.65.15m1.73-43.1s-.03-.06-.06-.08c-.32-.08-.64-.12-.97-.12.05.2.04.54.15.58.32.08.64.12.97.12h0c-.03-.15-.04-.38-.09-.5m-12.24,1.34l-.4.09c-.11-.19-.2-.36-.27-.51l.17.11c.12-.34.18-.7.2-1.06,0-.1-.51-.16-.8-.24.03.33.07.66.1.99h0c.17.31.29.55.38.77l-.19.04c.1.32.22.62.36.92,0,0,.01,0,.03,0,.18-.03.37-.07.54-.13-.04-.33-.08-.65-.11-.98m7.86,38.53l.15.65.97.06c-.05-.2-.04-.54-.15-.58-.32-.08-.64-.12-.97-.12m-1.12-.7c-.08-.14-.16-.29-.24-.43-.08-.14-.17-.27-.29-.39-.08-.08-.39.07-.59.11l.47.85.34-.08.31-.07m-.04-6.56c-.16-.01-.33-.02-.5-.03.02.1.05.2.07.31s.05.22.08.34l.97.06c-.05-.2-.04-.54-.15-.58-.15-.05-.31-.08-.48-.09m-22.79,35.79c-.08,0-.17,0-.25-.02.02.1.05.2.07.31s.05.22.08.34l.97.06c-.05-.2-.04-.54-.15-.58-.24-.07-.48-.1-.72-.1m24.15-33.36c-.03.07-.05.15-.06.23-.04.24-.04.49-.06.74h0c.15-.04.38-.04.5-.09.03,0,.06-.03.08-.06.03-.07.05-.15.06-.23.04-.24.04-.49.06-.74-.1.02-.24.03-.35.05s-.21.04-.23.1m-56.71-119.4s.06-.03.08-.06c.08-.32.12-.64.12-.97-.2.05-.54.04-.58.15-.08.32-.12.64-.12.97.15-.04.38-.04.5-.09m36.34,117.34c-.08-.08-.39.07-.59.11l.47.85.65-.15c-.14-.29-.32-.57-.53-.82m2.27,8.6l.98-.06c-.31-.33-.58-.75-.9-1.04-.1-.09-.22-.17-.35-.23-.64-.19-1.31-.28-1.97-.27l1.31,1.67.94-.06m.39,18.64c-.31.17-.56.29-.77.38-.01-.06-.03-.13-.04-.19-.32.1-.62.22-.92.36,0,0,0,.01,0,.03.03.18.07.37.13.54l.98-.11c-.03-.13-.06-.26-.09-.39.19-.11.36-.2.51-.27l-.11.17c.34.12.7.18,1.06.19.1,0,.16-.51.24-.8l-.99.1h0Zm-1.82,12.83l.47.85.65-.15c-.14-.29-.32-.57-.53-.82-.08-.08-.39.07-.59.11m-4.02-13.47c.05.2.04.54.15.58.07.03.15.05.23.06.24.04.49.04.74.06h0c-.05-.2-.04-.54-.15-.58-.32-.08-.64-.12-.97-.12m7.41-8.4l-.34.08-.31.07c.08.14.16.29.24.43.08.14.17.27.29.39.08.08.39-.07.59-.11l-.47-.85m-6.15,29.22c-.07.23-.1.48-.1.72,0,.08-.01.17-.02.25l.31-.07.34-.08c.02-.32.04-.64.06-.97-.1.02-.24.03-.35.05s-.21.04-.23.1m12.63-65.21c.14.29.32.57.53.82.08.08.39-.07.59-.11l-.47-.85-.65.15m-12.33-59.84h0c-.28.38-.62.7-1.01.96l-.08-.33c-.32.1-.62.22-.92.36,0,0,0,.02,0,.03.03.18.07.36.13.54l.98-.11c-.03-.13-.06-.26-.09-.39.12-.03.25-.06.4-.11l1.16.22-.46-1.33-.11.18m.31-1.24c0-.1-.51-.16-.8-.24.03.33.07.66.1.99h0c.15.18.28.34.38.49.04-.06.08-.11.11-.18.12-.34.18-.7.2-1.06m9.23,86.4c0,.08,0,.17-.02.25l.31-.07.34-.08c.02-.32.04-.64.06-.97-.2.05-.54.04-.58.15-.07.24-.1.48-.11.72m-2.56,26.99l-.97-.06c.05.2.04.54.15.58.23.07.48.1.72.11.08,0,.17,0,.25.02l-.07-.31c-.03-.11-.05-.22-.08-.34m3.59-64.31c-.32.55-.6,1.12-.81,1.72.57,0,1.13.12,1.2-.02.24-.54.44-1.1.58-1.68-.33-.01-.86-.17-.97-.02m1.21,20.75l-.31.07c.08.14.16.29.24.43.08.14.17.27.29.39.08.08.39-.07.59-.11l-.47-.85-.34.08m-2.95,39.02l.47.85.65-.15c-.14-.29-.32-.57-.53-.82-.08-.08-.39.07-.59.11m-1.29-35.18l.47.85.65-.15c-.14-.29-.32-.57-.53-.82-.08-.08-.39.07-.59.11m.09,59.42c.05.2.09.4.15.65l.97.06c-.05-.2-.04-.54-.15-.58-.32-.08-.64-.12-.97-.12m.43-65.76c.19-.11.36-.2.51-.27l-.11.17c.34.12.7.18,1.06.19.1,0,.16-.51.24-.8l-.99.1h0c-.31.17-.56.29-.77.38-.01-.06-.03-.13-.04-.19-.32.09-.62.22-.92.36,0,0,0,.01,0,.03.03.18.07.37.13.54l.98-.11-.09-.39m-.72,68.7l.15.65.97.06c-.05-.2-.04-.54-.15-.58-.32-.08-.64-.12-.97-.12m-16.89-221.75l-.15-.65c-.29.14-.57.32-.82.53-.08.08.07.39.11.59l.85-.47m2.9,122.34l-.47-.85-.65.15c.14.29.32.57.53.82.08.08.39-.07.59-.11m-.04-2.88c.08-.32.12-.64.12-.97-.2.05-.54.04-.58.15-.03.07-.05.15-.06.23-.04.24-.04.49-.06.74.15-.03.38-.04.5-.09.03,0,.06-.03.08-.06m-.67-17.09l-.85.47.15.65c.29-.14.57-.32.82-.53.08-.08-.07-.39-.11-.59m-3.15,15.72c.08-.08-.07-.39-.11-.59l-.85.47.15.65c.29-.14.57-.32.82-.53m3.17-21.95c-.13.15-.25.28-.36.41.05.21.09.42.13.63,1.12-1.23,1.59-1.34,2.05-1.45l-1.82.41m.9,15.13c-.08-.14-.17-.27-.29-.39-.08-.08-.39.07-.59.11l.47.85.34-.08.31-.07c-.08-.14-.16-.29-.24-.43m-2.7.14c-.05-.2-.04-.54-.15-.58-.32-.08-.64-.12-.97-.12.05.2.04.54.15.58.07.03.15.05.23.06.24.04.49.04.74.06h0Zm-.41,19.27l-.85.47.15.65c.29-.14.57-.32.82-.53.08-.08-.07-.39-.11-.59m-.27-43.55c.19-.11.36-.2.51-.27l-.11.17c.34.12.7.18,1.06.2.1,0,.16-.51.24-.8l-.99.1h0c-.31.17-.56.29-.77.38-.01-.06-.03-.13-.04-.19-.32.1-.62.22-.92.36,0,0,0,.01,0,.03.03.18.07.37.13.54l.98-.12c-.03-.13-.06-.26-.09-.39m.17,35.9l-.34.08-.31.07c.09.14.16.29.24.43.08.14.17.27.29.39.08.08.39-.07.59-.11-.16-.29-.32-.57-.47-.85m1.94-26.49c-.05-.24-.11-.49-.16-.73-.47.31-1.26.55-1.34.94-.01.06-.02.13-.02.19.06.59.2,1.17.42,1.72l1.23-.16.28-.04-.28-1.29c-.07-.21-.11-.42-.16-.63h.02Zm7.23-46.07c.8-1.33-.22-2.16-1.12-2.04-1.38.18-2.1,1.16-.71,2.46-.26.35-.48.72-.68,1.11-.12.38-.2.77-.25,1.17.46-.1.91-.27,1.33-.5.3-.31.54-.68.71-1.07l1.16.22-.46-1.33m-4.75-27.2h0c-.04-.15-.04-.38-.09-.5,0-.03-.03-.06-.06-.08-.32-.08-.64-.12-.97-.12.05.2.04.54.15.58.07.03.15.05.23.06.24.04.49.04.74.06m1.2-3.15c-.29.14-.57.32-.82.53-.08.08.07.39.11.59l.85-.47-.15-.65m2.24,22.5c-.05-.2-.04-.54-.15-.58-.23-.07-.48-.11-.72-.11-.08,0-.17,0-.25-.02.02.1.05.2.07.31s.05.22.08.34l.97.05m-3.27-14.37c.03.18.07.37.13.54l.98-.11-.09-.39c.19-.11.36-.2.51-.27l-.11.17c.34.12.7.18,1.06.2.1,0,.16-.52.24-.8l-.99.1h0c-.31.17-.56.29-.77.38l-.04-.19c-.32.1-.62.22-.92.36,0,0,0,.01,0,.03m2.38,57.68c.02-.21.02-.44.05-.63l-.37-.06-.85-.14c-.18,1.08-.25,1.47-.31,1.85.47-.1.91-.28,1.31-.53.12-.14.18-.32.18-.5m1.81-22.43l-.47-.85-.65.15c.14.29.32.57.53.82.08.08.39-.07.59-.11m-3.63,38.85c.02.11.05.21.07.31.14-.09.29-.16.43-.24.14-.08.27-.17.39-.29.08-.08-.07-.39-.11-.59l-.85.47c.03.12.05.23.08.34m3.46-43.56h0c-.39.07-.72.13-1.01.16-.61-.17-1.24-.25-1.86-.36l.65,1.17,1.58.04c-.04-.18-.06-.43-.1-.61.25-.09.46-.17.63-.23l-.2.32c.34.12.7.18,1.06.19.1,0,.16-.51.24-.8l-.99.1m-2.87-12.82l.47.85.65-.15c-.14-.29-.32-.57-.53-.82-.08-.08-.39.07-.59.11m-22.43,5.35c.44-.45.84-.95,1.2-1.47.09-.16-.28-.57-.43-.86-.46.38-.88.8-1.27,1.25-.09.13.26.57.5,1.09m2.27-13.84c-.15-.05-.31-.08-.48-.09-.17-.01-.33-.02-.5-.03l.07.31c.02.11.05.22.08.34l.97.06c-.05-.2-.04-.54-.15-.58m.9,13.82c.08-.32.12-.64.12-.97l-.65.15c-.02.32-.04.64-.06.97.2-.05.54-.04.58-.15m-1.04-10.29c.05.2.04.54.15.58.32.08.64.12.97.12-.05-.2-.09-.4-.15-.65l-.97-.06m-2.71-5.61c-.15.05-.28.08-.4.11-.03-.14-.06-.28-.1-.42-.32.1-.62.22-.92.36,0,0,0,.02,0,.03.03.18.07.36.13.54l.98-.11-.05-.24c.71-.28,1.44-.51,2.19-.67.17-.22.32-.4.46-.56.02.31.04.6.06.89.36-.13.9-.16,1.04-.42.22-.53.36-1.08.44-1.64l-1.6.58c-.5.81-1.31,1.37-2.24,1.56m4.38,9.06c-.02-.24-1.09-.38-1.67-.57-.07,1.44-.14,2.89-.22,4.34l1.79.09c.04-.81.1-1.62.12-2.42.39-.46.68-.78.92-1.03.24.08.49.12.75.11.1,0,.16-.51.24-.8l-.99.1h0c-.35.32-.66.57-.93.76,0-.2,0-.41-.03-.61m-3.65-14.8c-1.14.05-2.26.25-3.39.4l1.01,1.41c.23.31.4.55.53.76h-.04c.09.32.22.63.36.93,0,0,.01,0,.03,0,.18-.02.37-.07.54-.12-.04-.33-.08-.65-.11-.98l-.6.13c-.24-.29-.45-.54-.62-.75l2.87-.77c-.2-.36-.41-1.03-.59-1.03m8.1-8.32l-.09-.39c.19-.11.36-.2.51-.27l-.11.17c.34.12.7.18,1.06.2.1,0,.16-.52.24-.8l-.99.1h0c-.31.17-.56.29-.77.38-.01-.06-.03-.13-.04-.19-.32.1-.62.22-.92.36,0,0,0,.01,0,.03.03.18.07.37.13.54l.98-.11m7.24-1.66c.24-.54.44-1.1.58-1.68-.33-.01-.86-.17-.97-.02-.32.55-.6,1.12-.81,1.72.57,0,1.13.12,1.2-.02m-9.58,12.79c.14.29.32.57.53.82.08.08.39-.07.59-.11l-.47-.85-.65.15m.98,4.23c.32.08.64.12.97.12l-.15-.65-.97-.06c.05.2.04.54.15.58m8.19,65.59c-.14-.29-.32-.57-.53-.82-.08-.08-.39.07-.59.11l.47.85.65-.15m-22.03-63.01c-1.19-.11-2.38-.15-3.57-.19l.97,2.29c.9-.27,1.78-.61,2.63-1,.15-.08.03-1.09-.02-1.09m19.82,109.32c-.56-.19-1.13-.31-1.72-.36l.57,1.27,1.67.14c-.17-.36-.24-.92-.52-1.05m8.85-132.48c-.22-.61-.44-1.22-.82-1.35-.71-.24-1.67.28-2.53.48l.95,1.85,2.68-.28c-.04-.08-.08-.17-.11-.27.17-.03.32-.06.47-.08.1.63.28,1.25.52,1.84.11.23.75.19,1.14.28.1-.68.07-1.37-.08-2.04-.02-.03-.04-.06-.07-.08-.25-.23-1.02-.23-1.6-.36-.19,0-.37.01-.55.02m-6.82,64.1c-.03-.13-.06-.26-.09-.39.19-.11.36-.2.51-.27l-.11.17c.34.12.7.18,1.06.2.1,0,.16-.52.24-.8l-.99.1h0c-.31.17-.56.29-.77.38-.01-.06-.03-.13-.04-.19-.32.1-.62.22-.92.36,0,0,0,.01,0,.03.03.18.07.37.13.54l.98-.12m-3.96,79.1c.08.14.17.27.29.39.08.08.39-.07.59-.11l-.47-.85-.34.08-.31.07c.08.14.16.29.24.43m-9.29-105.73s.06-.03.08-.06c.08-.32.12-.64.12-.97-.2.05-.54.04-.58.15-.03.07-.05.15-.06.23-.04.24-.04.49-.06.74h0c.15-.04.38-.04.5-.09m9.58,90.8l-.65.15c-.02.32-.04.64-.06.97.2-.05.54-.04.58-.15.08-.32.12-.64.12-.97m-6.62-54.38l.97.06c-.05-.2-.04-.54-.15-.58-.32-.08-.64-.12-.97-.12l.15.65m5.74,21.11l.84-.58c-.06-.09-.11-.17-.16-.27-.16-.28-.31-.58-.53-.65-.47-.06-.95-.03-1.41.09l1.08,1.54.18-.12m3.44,19.27c-.2.05-.54.04-.58.15-.08.32-.12.64-.12.97l.65-.15c.02-.32.04-.64.06-.97m-19.8-118.69l.7-1.12-1.16-.22.46,1.33m1.41-2.24c1.49-1.62,1.22-2.83-.83-3.65l-1.41,2.24,2.24,1.41m-1.95-4.35l1.12.7-.41-1.82.7-1.12c-.7-.65-2.25-.71-1.7-2.24.81-2.28.48-2.33-1.16-.72-1.2,1.19-1.1-.15-1.39-.82-.2-.24-.51-.36-.82-.31-.33.22-.81.74-.73.94.38.9.83,1.75,1.37,2.57,1.35,2.14-1.12,1.98-1.74,2.93,1.26,1.28,3.32,1.3,4.61.04.05-.05.11-.11.16-.17m-6.81,17.37c.13-.46.27-.91.38-1.37.08-.39.19-.77.32-1.14.31.11.63.16.96.17.1,0,.16-.51.24-.8l-.99.1-.31.5-1.12-.7c-.23.91-.41,1.83-.55,2.75-.01.12.69.32,1.07.49m-.52-3.24c.83-2.49-1.82-2.11-2.65-3.23l.71-1.12,2.11.96c.03-.66.05-1.32.11-1.98,0-.03.01-.06.03-.09.07-.14.29-.23.85-.07.35.25.72.48,1.1.68.58.21,1.17.39,1.75.57-.03-.57.14-1.27-.13-1.67-.59-.84-1.28-1.59-2.06-2.25-.24-.21-.79-.08-1.2-.1.06.4.09.81.18,1.21.14.67.3,1.33-.21,1.2l-2.24-1.41c-.14-.61-.28-1.22-.41-1.82l.7-1.12c1.71.69,2.05-.24,2.02-1.67-.01-.56.06-1.12.09-1.69l1.82-.41-1.12-.7c-.06-.56.1-1.38-.2-1.62-1.19-.93-1.39-2.65-.45-3.84.18-.23.4-.43.64-.59,2.89-1.61,1.64-2.53-.2-3.4-1.33-.49-2.7-.85-4.1-1.08.09-.19.21-.38.35-.54.91-.82,1.09-4.38,3.18-.53.95,1.75,1.94-.39,2.64-1.3,1.26.02-.06,2.78,2.27,2.05.55-.17,1.73,1.67,2.62,2.59-.07.39-.14.77-.22,1.16l1.33-.46,1.12.7c-.09.85-1.93,2.23-.5,2.3,1.94.1,2.79.43,2.97,2.27-.05,1.34.8,2.55,2.08,2.95.56.07,1.12.05,1.68-.05-.08-.71-.15-1.42-.23-2.13,1.15-1.61,1.99-.08,2.94.29-.23-.67-.51-1.32-.67-2-.09-.54-.15-1.1-.16-1.65l2.01-.71c-.21-.52-.29-1.18-.66-1.52-.68-.54-1.41-1.01-2.17-1.42.83-2.49-1.82-2.11-2.65-3.23.23-.37.47-.75,1.46-.64.73.46,1.07.82,1.47.89.47.02.94-.04,1.4-.16-.24-.78-.3-2.05-.76-2.23-.68-.26-1.66.27-2.52.47.18.46.35.9-.35.56-.74-.7-2.49-.8-1.53-2.53l-1-2.16c-.5.55-1.2,1.02-1.47,1.66-.37.89-.29,1.97-.64,2.87-.18.46-.91.71-1.38,1.05.11-.58.2-1.17.32-1.74.27-1.31-.08-1.44-1.15-.71-.62.32-1.28.55-1.97.7.37-.95,1.9-1.79.29-2.94,2.19-.43,4.28-1.25,6.19-2.42.83.31,1.68.56,2.54.76l-1.08-1.6-2.26-.34c.11.19.21.42.32.63-.2-.04-.42-.07-.65-.1-.76-.31-2.09-1.02-2.21-.85-1.53,2.1-2.87.83-4.26-.09-.55-.36-1.11-.7-1.66-1.05-.24-.67-.29-1.62-.77-1.98-2.17-1.6-5.24-2.43-3.64-6.39.46-1.14-1.93-1.89-3.71-1.11-.54.15-1.1.21-1.66.2.8-1.28,1.62-2.55,2.36-3.86-.3-.29-.64-.54-.99-.76-.37-.26-1.1-.64-1.07-.71.28-.58.61-1.14.98-1.67.68.33,1.38.66,2.07.99.46.22.9.43,1.34.62.45.17.91.31,1.37.42-.19.37-.37.75-.52,1.14-.26.8-2.76-.23-1.5,1.6.79,1.15,1.73.5,2.49-.58.39-.55,1.3-.72,2.03-1.03.54.98.85,1.86,1.25,2.68.39.66.82,1.3,1.29,1.91.62-.42,1.21-.88,1.76-1.38.39-.49.73-1.01,1.01-1.56l1.12.7c1.64-1.74,2.12-3.53.21-5.41-.74-.72-1.54-1.39-2.24-2.14-.53-.57-1.48-1.53-1.33-1.82,2.07-3.78-2.15-.44-2.06-1.86.35-.89,1.75-1.67.53-2.7-.37-.32-1.38-.02-2.05.18-.76.27-1.5.6-2.21,1-.57.29-1.12.62-1.68.94.31-.75.61-1.52.95-2.26.2-.38.43-.75.68-1.1.67-.23,1.73-.29,1.93-.73.67-1.46-.94-1.56-1.64-2.21.94-1.51-.61-1.66-1.24-2.37q-3.86-4.26-6.88.38c-.95-.61-.87-1.21-.55-1.75.23-.37.51-.66.72-.93,1.2-1.32,1.35-3.29.36-4.78-2.85-4.47-6.14-8.65-9.82-12.46-3.23-3.43-6.09-7.28-9.67-10.29-4.15-3.5-7.12-8.13-11.75-11.22-2.34-1.56-5.14-3.52-6.53-5.73-2.38-3.79-6.64-4.9-9.32-8.34-1.1-1.32-2.43-2.44-3.92-3.3l-23.18,38.93c.86.37,1.64.91,2.29,1.59,4.23,5.18,10.03,8.64,14.54,13.57,3.59,3.93,7.53,7.55,11.04,11.61,2.15,2.5,4.23,5.38,7.62,6.57-.09,3.68,2.85,4.87,5.31,6.46-.04,2.96,1.92,4.48,4.19,5.76-.96,1.73.8,1.82,1.53,2.53-.08.39-.15.77-.22,1.16l1.33-.46,1.12.71.41,1.82c-.01.56.05,1.12.19,1.66.78,1.88,3.19,2.2,3.99,4.1-.96,1.73.79,1.82,1.53,2.53-.51,2.13,1.53,3,2.29,4.5.5-.16,1-.34,1.48-.56l1.53,2.53c-1.12,2.44,1.6,3.7,1.78,5.73,3.74-1.11,2.99,1.28,2.73,3.42-.06.53.35,1.13.54,1.69.46-.4.93-.79,1.38-1.21s.86-.88,1.3-1.32c.07.18.16.35.24.52.29.49.48,1.02.58,1.58-.04.81-.16,1.61-.36,2.39-.32,2.46,1.81,1.42,2.83,1.95.14.61.28,1.22.41,1.82.2.65.22,1.52.65,1.9.98.76,2.03,1.44,3.12,2.03l2.53-1.53,3.36,2.11m8.31-2.58l-.31-.19c-.07.39-.14.77-.22,1.16l1.33-.46-.26-.16-.55-.34m-.91-1.5c.03.33.07.66.1.99l.49.31h0c.12-.34.18-.69.2-1.05,0-.1-.52-.16-.8-.24m5.33,3.08c.78-.05,1.55-.21,2.28-.49l-4.48-2.82-1.41,2.24c1.05.75,2.32,1.13,3.61,1.07m-18.61.43l-1.41,2.24,3.21-.63-1.8-1.61m16.41-3.73c.33-.23.72-.73.97-.66,1.19.32,2.6,1.21,2.96-.79.3-1.65-2.11.42-2.36-1.56-.19-1.52-1.01-.08-1.45.33-1.21,1.14-1.89-.22-2.78-.56-.83,2.49,1.82,2.11,2.65,3.23m-12.99,8.23l.15.65.97.06c-.05-.2-.04-.54-.15-.58-.15-.05-.31-.08-.48-.09-.17-.01-.33-.02-.5-.03m2.55,13.32c-.14.07-.3.14-.46.2-.16-.28-.29-.52-.4-.75l.09.05.36.23.15.09.27.17-.09-1.46c-.03-.49-.06-.97-.09-1.46-.16.04-.36.06-.56.08-.32.04-.62.09-.67.23-.03.08-.05.17-.05.26-.07.46-.09.92-.08,1.39.25.53.45.98.6,1.37-.25.09-.47.26-.62.49-.18.36.19,1.23.58,1.56.08.08.18.14.28.18.73.34,1.48.63,2.25.89l-1.56-3.51m-4.17-12l-.85.47.15.65c.29-.14.57-.32.82-.53.08-.08-.07-.39-.11-.59m29.73-6.29c.02-.09.04-.18.07-.27.09-.26.13-.53.13-.8,0-.1-.52-.16-.8-.24.03.33.07.66.1.99h0c.17.31.29.55.38.77l-.19.04c.1.32.22.62.36.92,0,0,.01,0,.03,0,.18-.03.37-.07.54-.13-.04-.33-.08-.65-.11-.98l-.39.09c-.11-.19-.2-.36-.27-.51l.13.08.04.03m-24.2,26.39c.03.12.05.23.08.34s.05.21.07.31c.14-.09.29-.16.43-.24.14-.08.27-.17.39-.29.08-.08-.07-.39-.11-.59l-.85.47m.19-3.14c-.31.17-.56.29-.77.38-.01-.06-.03-.13-.04-.19-.32.1-.62.22-.92.36,0,0,0,.01,0,.03.03.18.07.37.13.54l.98-.12c-.03-.13-.06-.26-.09-.39.19-.11.36-.2.51-.27l-.11.17c.34.12.7.18,1.06.2.1,0,.16-.51.24-.8l-.99.1h0m13.91-22.16c-.52.12-.83.64-.71,1.16s.64.83,1.16.71c.51-.12.82-.63.71-1.14.53-.13,1.08-.19,1.63-.17l.13-.21.1-.16.13-.21.34-.55-3.36-2.11-.7,1.12c.05.13.11.26.17.39.2.36.33.75.39,1.16m-13.57-2.19c0,.08,0,.17-.02.25l.31-.07.34-.08c.02-.32.04-.64.06-.97-.2.05-.54.04-.58.15-.07.23-.11.48-.11.72m-7.91,11.91l.15.65c.29-.14.57-.32.82-.53.08-.08-.07-.39-.11-.59l-.85.47m8.38-55.88h0c-.03-.15-.04-.38-.09-.5,0-.03-.03-.06-.06-.08-.32-.08-.64-.12-.97-.12.05.2.04.54.15.58.31.08.63.12.95.12h.02Zm1.25,6.85c1.07-1.15,2.26-2.19,3.54-3.1.48.22.97.42,1.47.58.09-.29.31-.79.25-.82s-.09-.05-.14-.08c-.57-.34-1.2-.63-2.2-1.12-.31.21-.59.38-.87.54-.08-.07-.17-.14-.26-.22-1.44-1.15-2.8-.88-4.28-.42l2.48,4.65m-1,49.94c.24-.3,1.12-.31,1.58-.14.9.34,2.01.18,1.18-.68-.99-1.02-1.35-3.58-3.8-2.58.58-.92,1.17-1.83,1.72-2.77.08-.14,0-.56-.1-.59-.31-.1-.86-.22-.97-.08-.64.87-1.19,1.82-1.77,2.73-1.73-.96-1.82.8-2.53,1.53l-1.16-.22c.15.45.3.89.46,1.33-.25,1.28-2.49,2.07-1.3,3.7.09.27.2.53.34.78l-.35.08c.1.32.22.62.36.92,0,0,.02,0,.03,0,.18-.03.36-.07.54-.13-.04-.33-.08-.65-.12-.98l-.39.09c-.03-.12-.06-.25-.11-.4q2.02-1.07,2.11-3.36l1.82-.41c1.35-.8-.15,4.44,2.45,1.16m19.57-28.71c-.05-.2-.04-.54-.15-.58-.32-.08-.64-.12-.97-.12.05.2.09.41.15.65l.97.06m-.31-11.91c-.07.39-.14.77-.22,1.16l1.33-.46c.34.12.7.18,1.06.2.1,0,.16-.52.24-.8l-.99.1h0c-.18.15-.34.28-.49.39h-.03s-.16-.12-.16-.12l-.21-.13-.55-.34c.12-.34.18-.7.19-1.06,0-.1-.51-.16-.8-.24.03.33.07.66.1.99l.5.31m.23,4.73c-.01.08-.02.15-.02.23.19.95.49,1.87.89,2.75l2.39-.84c-.08-.04-.16-.07-.23-.1.15-.06.28-.11.4-.16l-.17.27c.34.12.7.18,1.06.19.1,0,.16-.51.24-.8l-.99.1c-.48,0-.96-.02-1.44-.07-2.05-1.33,1.57-1.75,1.63-2.74,0-.35-.08-.7-.22-1.02-1.51.2-3.19.37-3.55,2.19m-3.99-8.67c-.08.39-.15.77-.22,1.16l1.33-.46,1.16.22-.46-1.33c.26-.35.48-.72.68-1.11.12-.38.2-.77.24-1.17-.46.1-.91.27-1.33.5-.3.31-.54.68-.71,1.07l-1.16-.22.46,1.33m-26.62,34.83c-.1.46-.21.91-.31,1.37s-.19.91-.24,1.38c-.01.12.69.32,1.07.49.13-.46.27-.91.38-1.37.09-.38.15-.78.22-1.17l-1.12-.71h0Zm34.57-18.32c.26-.09.47-.17.46-.21-.1-.69-.32-1.35-.65-1.95-.1-.17-.75-.03-1.29-.03.11.42.23.83.34,1.24s.22.81.33,1.21c.23-.08.54-.18.81-.26m2.79-4.12c.02-.21.02-.44.05-.63l-.37-.06-.85-.14c-.18,1.08-.25,1.47-.31,1.85.47-.1.91-.28,1.31-.53.12-.14.18-.32.18-.5m-.15,12.53c-.15-.45-.3-.89-.46-1.33l-.7,1.12,1.16.22m-1.29-4.98c-1.22.11-2.44.18-3.65.38-.49.16-.96.4-1.38.71.43.4,1.04,1.23,1.27,1.14,1.98-.8,3.16.64,4.58,1.43.99-.96,1.69-.7,2.91.29.12.11.24.21.36.3.3.26.64.55,1.01.87-.48.28-.88.68-1.15,1.17-.13.28.46,1.27.85,1.35.19.04.39.07.57.09,1.15.18,2.34.22,3.5.32-.08-.34-.04-.86-.25-1.02-1-.78-2.08-1.44-3.23-1.97-.06-.02-.12-.01-.17,0-.11-.14-.21-.28-.33-.43.06-1.23,2.68.03,1.98-2.34-.7-2.34-1.89-.62-2.83-.83-.98-.22-1.95-.51-2.92-.77l.71-1.12c.06-.3.15-.6.24-.89l.28,1.22c.36-.13,1-.22,1.03-.41.17-.67.15-1.37-.05-2.02-.01-.03-.04-.06-.07-.08-.24-.21-.99-.21-1.56-.34-.02.87-.09,1.74-.21,2.6l-1.49.33Zm-36.52,13.58c.03.33.07.66.1.99l.46.28.05.03c.12-.34.18-.7.19-1.06,0-.1-.51-.16-.8-.24m26.12-4.5c.12-.34.18-.7.19-1.06,0-.04-.08-.07-.18-.1-.07-.02-.15-.04-.24-.06l-.13-.03c-.09-.02-.17-.04-.24-.06h0c.03.33.07.66.1.99h0c.15.18.28.34.39.49l-.59.94,1.16.22-.46-1.33m-1.86.9l.46,1.33c.23-.37.47-.75.7-1.12l-1.16-.22m-5.51-4.5l-.46-1.33-.7,1.12,1.16.22m1.6,10.89c-.93-.55-1.81-1.2-2.77-1.7-.32-.17-.8-.02-1.21-.02.14.38.31.75.52,1.1.8,1.09,3.1.89,2.04,3.21-.19.06-.38.14-.56.24,0,0,0,.02,0,.03.03.18.07.36.13.54l.98-.11-.09-.39c.12-.03.25-.06.4-.11,1.32-.76-.1,4.44,2.47,1.14.23-.29,1.08-.21,1.61-.11.21.04.41.09.62.14,1.1.33,2.1.93,2.91,1.74-.78.42-1.56.84-2.32,1.28-.02.01.28.92.55.99,1.17.31,2.35.54,3.55.7.04,0,.08,0,.12,0,.26-.05.51-.13.75-.24l-1.57-3.3-.3.16c-.08-.16-.17-.33-.26-.5-.53-.92-.89-1.93-1.07-2.97.19-1.14.54-2.25,1.03-3.29.02-.05-.33-.21-.5-.32-2.86,3.92-3.27,4.03-7.02,1.82m9.03-3.54l-.99.1-.31.5c.34.12.7.18,1.06.2.1,0,.16-.51.24-.8m-3.23-29.21c.1,0,.16-.51.24-.8l-.99.1h0c-.64.46-1.37.77-2.14.91l1.82-.42c.34.12.7.18,1.06.2m-3.96-12.96c.01-.8-.15-2.25.06-2.3,1.7-.46,2.2-.53.53-2.15-2.03-1.97-2.78,1.96-4.36.52-.08,2.59,1.23,3.85,3.77,3.94m-5.75,2.87c-1.07-.34-2.14,1.08-.72,2.43-.07.39-.14.77-.22,1.16l1.33-.46c.69-.14,1.36-.39,1.97-.74.73-.6.88-2.15,2.38-1.21.05.55.09,1.1.14,1.65l2.1-.24c1.47,2.62,1.53,2.65,2.74.55.51-.82.84-1.74.99-2.7-1.78-1.09-1.29-3.02-1.9-4.5-.36.17-.72.36-1.09.5-.65.24-1.32.46-1.98.68-1.57,1.6-2.61,3.88-5.75,2.87m2.62,23.42l-.99.1-.31.5c.34.12.7.18,1.06.2.1,0,.16-.52.24-.8m10.08,2.98c.47.31,1.11.18,1.42-.29.04-.06.08-.13.1-.2.18-.29.36-.65.57-1.01.04-.05.07-.1.11-.14.34.12.7.18,1.06.2.1,0,.16-.52.24-.8l-.99.1h0c-.12.16-.24.32-.34.49l-2.91-.29c.23.67.29,1.73.73,1.93"/>
    <path class="cls-7" d="m143.15,271.01s0,.01-.01.02c-56.77,16.1-102.5,52.34-131.61,98.79-4.34-14.86-7.51-30.22-9.41-45.97,32.95-40.11,77.99-70.92,131.6-86.13l9.43,33.28h0Z"/>
    <path class="cls-2" d="m378.53,14.21c-12.42,112.58-89.98,212.72-204.96,248.09l-11.29-36.69s0-.02.01-.02c101.71-31.29,169.76-120.9,178.68-220.88,12.83,2.34,25.36,5.53,37.55,9.5Z"/>
    <path id="Tracé_4472" data-name="Tracé 4472" class="cls-4" d="m354.86,23.55c-.25-.14-.52-.26-.8-.33,0,.18-.02.37-.03.59l.82.28c0-.18.09-.48.01-.53m-4.76-10.47c-.05-.09-.34-.03-.53-.04.07.28.13.57.2.84l.59.03c-.05-.29-.14-.56-.26-.83m5.01,29.25c.05.09.34.03.53.04l-.2-.84-.59-.03c.05.29.14.56.26.83m.78-5.46c-.12-.08-.25-.14-.39-.19-.14-.05-.28-.09-.42-.15,0,.09,0,.18-.01.28s0,.2-.01.31l.82.28c0-.18.09-.48.01-.53m-.6-4.48l-1.22.19c-.15.41-.33.9-.52,1.39.35-.05.84.01,1.03-.19.3-.43.54-.89.71-1.39m2.35-14.56l-3.34.47.31,1.55c.74-.16,1.46-.41,2.14-.73.41-.24.6-.85.89-1.29m-7.68,4.35h0c0-.08.02-.19.03-.28.01-.06.01-.11.01-.17,0-.03-.01-.06-.03-.08-.25-.14-.52-.26-.8-.33,0,.18-.09.48-.01.53.25.15.52.26.8.34m2.57,16.2c0-.1-.01-.23,0-.32l-.84.2c-.01.22-.02.41-.03.59.29-.05.56-.14.83-.26.04-.03.05-.11.05-.22m-.13-15.25c-.05-.29-.14-.56-.26-.83-.05-.09-.34-.03-.53-.04.07.28.13.57.2.84l.59.03m9.16-.93c-.12-.08-.25-.14-.38-.19-.14-.05-.28-.09-.42-.15,0,.09,0,.18-.01.28s0,.2-.01.31l.81.28c0-.18.09-.47.01-.53m-1.11,6.27c-.05-.29-.14-.56-.26-.83-.05-.09-.34-.03-.53-.04.07.28.14.57.2.84l.59.03m-.71-2.82c.08-.05.03-.34.04-.53l-.84.2c0,.11-.01.21-.01.31s0,.19-.01.28c.14-.04.29-.07.43-.11.14-.03.28-.08.4-.15m-6.11-10.78l-.84.2c0,.22-.02.41-.03.59.29-.05.56-.14.83-.26.09-.05.03-.34.04-.53m3.27.69c.09-.05.03-.34.04-.53l-.84.2c0,.11,0,.21-.01.31s0,.19-.01.28c.14-.04.29-.07.43-.11.14-.03.27-.08.4-.15m-7.46-5.89c.41-.31.8-.65,1.14-1.03-.14-.2-.3-.38-.49-.54-.46.3-.9.62-1.32.97.3.27.63.63.67.6m5.24.71c1.25-.78,1.67-.77,2.1-.75l-1.66-.08c-.15.1-.28.18-.41.26l.04-.67c-.48.15-1.21.17-1.37.48-.05.09-.08.19-.09.29-.05.48-.06.95-.03,1.43l1.34.19c.02-.39.05-.78.07-1.17m-13.16-2.72c0,.18-.09.48-.01.53.25.14.52.26.8.34h0c0-.09.03-.2.04-.3,0-.05.01-.1,0-.15,0-.03-.01-.06-.03-.08-.25-.14-.52-.26-.8-.34m-.39,8.28c0-.14.05-.33.05-.44h0s-.01-.06-.03-.08c-.25-.14-.52-.25-.8-.33,0,.18-.09.48-.01.53.25.16.51.28.79.38v-.05Zm.59,22.43l.59.03c.09-.27.18-.54.28-.82-.18,0-.48-.09-.53-.01-.14.25-.26.52-.33.8m-1.69-16.68c.07.28.13.57.2.84l.59.03c-.05-.29-.14-.56-.26-.83-.05-.09-.34-.03-.53-.04m3.12-.87c-.43-.3-.89-.54-1.39-.71.05.35-.01.82.19,1.03.43.36.91.66,1.42.9-.09-.54-.02-1.03-.23-1.21m8.91-2.79c.07.03.15.05.22.07.09.02.26-.4.4-.62l-.87-.15h0c-.31.07-.54.11-.75.14,0-.06,0-.11,0-.18-.29,0-.58.04-.87.09,0,0-.01.01,0,.02-.02.16-.03.33-.02.49l.87.13c0-.12.01-.24.02-.36.19-.05.36-.08.5-.11l-.13.11c.21.11.42.26.64.35m.82,30c0-.08.02-.19.04-.29,0-.05.01-.11.01-.16,0-.03-.01-.06-.03-.08-.25-.15-.52-.26-.8-.34,0,.18-.09.48-.01.53.25.14.52.26.8.33m-1.1,5.76c0,.09,0,.18-.01.28s0,.2-.02.31l.82.28c0-.18.09-.48.01-.53-.12-.08-.25-.14-.39-.19-.14-.05-.28-.09-.42-.15m11.45,20.76c-.12-.08-.25-.14-.39-.19-.14-.05-.28-.09-.41-.15,0,.09,0,.18-.01.28s0,.2-.01.31l.82.28c0-.18.09-.47.01-.53m0-17.43c-.12-.08-.25-.14-.39-.19-.14-.05-.28-.09-.41-.15,0,.09,0,.18-.01.28s0,.2-.01.31l.82.28c0-.18.09-.48.01-.53m.07-35.97c.02-.15.04-.3.05-.46,0-.03-.01-.06-.03-.08-.25-.14-.52-.26-.8-.33-.01.18-.09.48-.01.53.25.17.52.31.81.41v-.06Zm-10.52,29.37l-.84.2c-.01.22-.02.41-.03.59.29-.05.56-.14.83-.26.08-.05.03-.34.04-.53m8.95-13.68c0,.05,0,.1-.02.15-.02.16-.05.34,0,.38.25.15.52.26.8.34h0c0-.14.06-.34.04-.46,0-.03-.01-.06-.03-.08-.12-.08-.25-.14-.39-.19-.14-.05-.28-.09-.42-.15m-4.35,4.83c.18,0,.48.09.53.01.14-.25.25-.52.33-.8l-.59-.03c-.09.27-.18.54-.28.82m9.59-27.46c-.25-.14-.52-.26-.8-.33,0,.18-.02.37-.03.59l.82.28c.01-.18.09-.48.01-.53m-17.43,17.95c-.07-.28-.13-.57-.2-.84l-.59-.03c.05.29.14.56.26.83.05.09.34.03.53.04m-.08,1.66c0,.18-.02.37-.03.59l.82.28s0-.1.02-.15c.02-.16.06-.34,0-.38-.25-.14-.52-.26-.8-.33m-.39,25.7c0,.18-.09.48-.01.53.25.14.52.26.8.34h0c0-.14.05-.33.05-.44h0s-.01-.07-.03-.09c-.25-.15-.52-.26-.8-.34m-2.3,13.41c-.01.22-.02.4-.03.59.29-.05.56-.14.83-.26.08-.05.03-.34.04-.53l-.84.2m1.73-37.13c.02-.09-.4-.26-.62-.39-.05.29-.1.58-.15.87h0c.07.31.11.54.14.75h-.18c.01.14.02.28.03.43,0,.15.03.29.06.43,0,0,.01.01.02,0,.16.02.33.03.49.02.04-.29.09-.58.13-.87l-.36-.02c-.05-.19-.08-.36-.11-.5l.11.13c.18-.26.32-.55.42-.86m-1.92,41.08c-.5-.31-1.05-.55-1.62-.7.21.49.41.98.72,1.74l.99.21.67.14c-.19-.35-.31-.78-.52-1.1-.07-.11-.15-.2-.24-.28m1.21-19.07c-.14.25-.26.52-.33.8l.59.03c.09-.27.19-.54.28-.82-.18,0-.48-.09-.53-.01m8.36-36.11c-.14.25-.25.52-.33.8.14,0,.34.06.46.05.03,0,.06-.01.08-.03.14-.25.26-.52.33-.8-.18,0-.48-.09-.53-.01m-3.29,45.47c.07.28.13.57.2.84l.59.03c-.05-.29-.14-.56-.26-.83-.05-.09-.34-.03-.53-.04m-14.27,38.32c-.05-.29-.14-.56-.26-.83-.05-.09-.34-.03-.53-.04.07.28.13.57.2.84l.59.03m17.35-80.49c-.09.27-.18.54-.28.82.18,0,.48.09.53.01.08-.12.14-.25.19-.39.05-.14.09-.28.15-.42h-.28s-.31-.03-.31-.03m-10.33,72.52c.07.28.13.57.2.84l.59.03c-.05-.29-.14-.56-.26-.83-.05-.09-.34-.03-.53-.04m11.65-41.75c-.05-.09-.34-.03-.53-.04.07.28.13.57.2.84l.59.03c-.05-.29-.14-.56-.26-.83m-5.4-10.2s.06-.01.08-.03c.14-.25.26-.52.33-.8-.18,0-.47-.09-.53-.01-.14.25-.26.52-.34.8h0c.14,0,.34.05.46.05m-.32-3.06c-.25-.14-.52-.26-.8-.34,0,.18-.02.37-.03.59l.82.28c0-.18.09-.47.01-.53m1.21,22.16l-.59-.03c.05.29.14.56.26.83.05.09.34.03.53.04-.07-.28-.13-.57-.2-.84m-2.73-35.8c-.14.25-.26.52-.33.8h0c.09,0,.2.03.3.04h.02c.1.01.18.01.21-.03.14-.25.25-.52.33-.8-.18,0-.48-.09-.53-.01m1.81,49.04c-.15.25-.26.52-.34.8l.59.03c.09-.27.18-.54.28-.82-.18,0-.47-.09-.53-.01m-11.27,3.13c.02-.09-.4-.26-.62-.4l-.15.87h0c.07.31.11.54.14.75h-.18c0,.28.04.58.09.86,0,0,.01.01.02,0,.16.02.33.03.49.02.04-.29.09-.58.13-.87l-.36-.02c-.05-.19-.08-.36-.11-.5l.11.13c.18-.26.32-.55.42-.86m1.58,20.16c.25.14.52.26.8.33,0-.18.02-.37.03-.59l-.82-.28c0,.18-.09.48-.01.53m-.63-74.38c-.05-.29-.14-.56-.26-.83-.05-.09-.34-.03-.53-.04.07.28.14.57.2.84l.59.03m1.95,69.8c-.08.12-.14.25-.19.39-.05.14-.09.28-.15.42h.28s.31.03.31.03c.09-.27.18-.54.28-.82-.18,0-.48-.09-.53-.01m-1.05-2.51h0c-.31.07-.54.11-.75.14,0-.06,0-.11,0-.18-.29,0-.58.04-.87.09,0,0,0,.01,0,.02-.02.16-.03.33-.02.49l.87.13c0-.12.01-.24.02-.36.19-.05.36-.08.5-.11l-.13.11c.26.18.55.32.86.42.09.02.26-.4.39-.62l-.87-.15m-4.53,26.29c0,.18-.02.37-.03.59l.82.28c0-.18.09-.48.01-.53-.25-.15-.52-.26-.8-.34m19.24-55.51c.05.29.14.56.26.83.05.09.34.03.53.04-.07-.28-.13-.57-.2-.84l-.59-.03m-18.29,53.07c0,.18-.02.37-.03.59l.82.28s.01-.1.02-.15c.02-.16.06-.34,0-.38-.25-.14-.52-.26-.8-.33m6.26-79.35l-.84.2c-.01.22-.02.41-.03.59.29-.05.56-.14.83-.26.08-.05.03-.34.04-.53m.99,31.58c.07.28.13.57.2.84l.59.03c-.05-.29-.14-.56-.26-.83-.05-.09-.34-.03-.53-.04m.75-38.13l-.59-.03c.05.29.14.56.26.83.05.09.34.03.53.04-.07-.28-.13-.57-.2-.84m.48-4.96l-.84.2c0,.22-.02.41-.03.59.29-.05.56-.14.83-.26.09-.05.03-.34.04-.53m-2.68,38.93c-.09-.11-.55.08-1.05.17.28.49.61.94.97,1.37.11.11.55-.1.84-.17-.21-.48-.47-.94-.77-1.38m1.07-22.41h0c0-.08.02-.19.04-.28,0-.06.01-.11,0-.17,0-.03-.01-.06-.03-.08-.25-.14-.52-.26-.8-.33,0,.18-.09.47-.01.53.25.15.52.26.8.34m-.91-24.47c-.39-.16-.8-.25-1.22-.26.11.33.23.66.56,1.57l1.04-.36c-.11-.33-.14-.8-.38-.95m1.51-5.37l-.84.2c-.01.22-.02.41-.03.59.29-.05.56-.14.83-.26.09-.05.03-.34.04-.53m-.19,73.84c-.07-.28-.14-.57-.2-.84h-.31s-.28-.03-.28-.03c.04.14.07.29.1.43.03.14.08.27.15.4.05.09.34.03.53.04m.8-80.1c.09-.05.03-.34.04-.53l-.84.2c-.01.22-.02.41-.03.59.29-.05.56-.14.83-.26m8.69,54.05c-.31.07-.54.11-.75.14,0-.06,0-.11,0-.18-.29,0-.58.04-.87.09,0,0,0,.01,0,.02-.02.16-.03.33-.02.49l.87.13c0-.12.01-.24.02-.36.19-.05.36-.08.5-.11l-.13.11c.26.18.55.32.86.42.09.02.26-.4.39-.62l-.87-.15h0m6.76-46.2c-.14-.05-.28-.09-.42-.15,0,.05,0,.1-.02.15-.02.16-.05.34,0,.38.25.15.52.26.8.34h0c0-.09.03-.2.04-.3,0-.05.01-.1,0-.15,0-.03-.01-.06-.03-.08-.12-.08-.25-.14-.39-.19m10.63,12.96c.07.28.13.57.2.84l.59.03c-.05-.29-.14-.56-.26-.83-.05-.09-.34-.03-.53-.04m1.25-9.94l-.36-.02c-.05-.19-.08-.36-.11-.5l.12.13c.18-.26.32-.55.42-.86.02-.09-.4-.26-.62-.4l-.15.87h0c.07.31.11.54.14.75h-.18c0,.28.04.58.09.86,0,0,.01.01.02,0,.16.02.33.03.49.02.04-.29.09-.58.13-.87m1.45,4.31c-.31.07-.54.11-.75.14,0-.06,0-.11,0-.18-.29,0-.58.04-.87.09,0,0,0,.01,0,.02-.02.16-.03.33-.02.49l.87.13c0-.12.01-.24.02-.36.19-.05.36-.08.5-.11l-.13.11c.26.18.55.32.86.42.09.02.26-.4.39-.62l-.87-.15h0m.99-2.49c.05.29.14.56.26.83.05.09.34.03.53.04-.07-.28-.13-.57-.2-.84l-.59-.03m-7.46,16.28c-.31.07-.54.11-.75.14,0-.06,0-.11,0-.18-.29,0-.58.04-.87.09,0,0-.01.01,0,.02-.02.16-.03.33-.02.49l.87.13c0-.11.01-.24.02-.36.19-.05.36-.08.5-.11l-.08.07s-.04.03-.05.05c.07.04.14.08.21.12.2.14.42.24.65.3.09.02.26-.4.4-.62l-.87-.15m1.66-4.12l-.59-.03c.05.29.14.56.26.83.05.09.34.03.53.04-.07-.28-.13-.57-.2-.84m.27,19.92h-.15c.07.28.14.57.2.84l.59.03c-.05-.29-.14-.56-.26-.83-.04-.06-.21-.05-.38-.04m-.39-5.66c.2.33.39.67.54,1.03v.07c0,.15.03.29.06.43,0,0,.01.01.02,0,.16.02.33.03.49.02.04-.29.09-.58.13-.87h-.26c-.03-.24-.04-.47-.04-.7.12.01.23-.01.33-.07.34-.38.66-.79.94-1.22-.22-.14-.6-.46-.64-.41-.46.43-.87.92-1.58,1.71m-3.36-6.91c-.31.07-.54.11-.75.14,0-.06,0-.11,0-.18-.29,0-.58.04-.87.09,0,0-.01.01,0,.02-.02.16-.03.33-.02.49l.87.13c0-.12.01-.24.02-.36.19-.05.36-.08.5-.11l-.13.11c.26.18.55.32.86.42.09.02.26-.4.4-.62l-.87-.15h0m7.51-25.71c-.15.25-.26.52-.34.8.14,0,.34.06.46.05.03,0,.06-.01.08-.03.14-.25.25-.52.33-.8-.18,0-.48-.09-.53-.01m-15.83-3.25c0,.18-.02.37-.03.59l.81.28c0-.18.09-.47.01-.53-.25-.15-.52-.26-.8-.34m19.37,7.03l-.59-.03c-.09.27-.18.54-.28.82.05,0,.1,0,.15.02.16.02.34.06.38,0,.14-.25.26-.52.33-.8m-18.97,67.7c.25.15.52.26.8.34,0-.09,0-.18.01-.28s.01-.2.02-.31l-.82-.28c0,.18-.09.48-.01.53m1.5-14.33c-.01.22-.02.41-.03.59.29-.05.56-.14.83-.26.09-.05.03-.34.04-.53l-.84.2m.07,8.04c-.11-.02-.31,0-.46,0,.07.28.14.57.2.84l.59.03c-.05-.29-.14-.56-.26-.83-.02-.02-.05-.04-.08-.04m.25-32.27c-.41.39-.78.81-1.1,1.27.49.14.93.37,1.03.27.34-.4.64-.84.89-1.3-.28-.09-.69-.34-.82-.24m1.29,34.15c-.14-.05-.28-.09-.42-.15h0c0,.09,0,.18-.01.28s0,.2-.02.31l.82.28c0-.18.09-.47.01-.53-.12-.08-.25-.14-.39-.19m-1.84-22.62c-.07-.28-.13-.57-.2-.84l-.59-.03c.05.29.14.56.26.83.05.08.34.03.53.04m-1.06,4.93c.18,0,.48.09.53.01.15-.25.26-.52.34-.8l-.59-.03c-.09.27-.18.54-.28.82m4.34,13.48c-.09,0-.21-.03-.31-.04s-.19-.01-.22.03c-.14.25-.26.52-.33.8.09,0,.21.03.31.04.05,0,.09,0,.14,0,.03,0,.06-.01.08-.03.14-.25.25-.52.33-.8m-4.3-31.73c0-.08.02-.19.04-.28,0-.06.01-.11,0-.17,0-.03-.01-.06-.03-.08-.25-.14-.52-.26-.8-.34,0,.18-.09.48-.01.53.25.14.52.26.8.34h0Zm-1.04-13.79c.02-.09-.4-.26-.62-.4-.05.29-.1.58-.15.87h0c.07.31.11.54.14.75h-.18c0,.28.04.58.09.86,0,0,.01.01.02,0,.16.02.33.03.49.02.04-.29.09-.58.13-.87l-.36-.02c-.05-.19-.08-.36-.11-.5l.11.13c.18-.26.32-.55.42-.86m6.81,36.67c0,.18-.02.37-.03.59l.81.28s.01-.1.02-.15c.02-.16.05-.34,0-.38-.25-.14-.52-.25-.8-.33m1.09-44.95h0c0-.09.03-.21.04-.31s.01-.19-.03-.22c-.25-.14-.52-.26-.8-.33,0,.18-.09.47-.01.53.25.15.52.26.8.34m-1.74-12.53c-.05.29-.1.58-.15.87h0c.09.19.15.36.21.51.05-.04.1-.08.14-.12.18-.26.32-.55.42-.86.02-.09-.4-.26-.62-.4m-8.89,70.98c.05.29.14.56.26.83.05.09.34.03.53.04-.07-.28-.13-.57-.2-.84l-.59-.03m10.3-27.76c-.14.25-.26.52-.33.8.14,0,.33.06.46.05.03,0,.06-.01.08-.03.14-.25.26-.52.34-.8-.18,0-.48-.09-.53-.01m-1.79-21.8c.12.08.25.14.39.19.14.05.28.09.41.15,0-.09,0-.18.01-.28s0-.2.01-.31l-.81-.28c0,.18-.09.47-.01.53m.44-20.05c-.32.22-.68.36-1.07.41,0-.06-.01-.1-.04-.12-.53-.31-1.07-.58-1.63-.82.08.33.16.66.28,1.16l1.34.41c0-.14.04-.32.06-.48.11.04.22.07.35.11l.94.46c-.02-.42-.05-.83-.07-1.25l-.14.13h0m-.23,33c.02-.09-.4-.26-.62-.4-.05.29-.1.58-.15.87h0c.07.31.11.54.14.75h-.18c0,.28.04.58.09.86,0,0,.01.01.02,0,.16.02.33.03.49.02.04-.29.09-.58.13-.87l-.36-.02c-.04-.19-.08-.36-.11-.5l.12.13c.18-.26.32-.55.42-.86m-.63-20.9c-.01.22-.02.4-.03.59.29-.05.56-.14.83-.26.09-.05.03-.34.04-.53l-.84.2m.41-8.52c0,.18-.09.48-.01.53.25.14.52.26.8.33.02-.15.04-.3.05-.46,0-.03-.01-.06-.03-.08-.25-.14-.52-.26-.8-.33m-49.57,88.91c.05.09.34.03.53.04-.07-.28-.13-.57-.2-.84h-.31s-.28-.03-.28-.03c.04.14.07.29.11.43.03.14.08.27.15.4m8.75,1.25c.09,0,.2.03.3.04.05,0,.1.01.15,0,.03,0,.06-.01.08-.03.15-.25.26-.52.34-.8-.18,0-.48-.09-.53-.01-.15.25-.26.52-.34.8Zm-22.61,45.41c-.14.25-.26.52-.34.8h0c.08,0,.18.02.27.03.06,0,.12.01.18.01.03,0,.06-.01.08-.03.08-.12.14-.25.19-.39.05-.14.09-.28.14-.42-.09,0-.21-.03-.31-.04s-.19-.01-.22.03m14.2-43.78c.02-.09-.4-.26-.62-.39l-.15.87h0c.07.31.11.54.14.75h-.18c0,.28.04.58.09.86,0,0,.01.01.02,0,.16.02.33.03.49.02.04-.29.09-.58.13-.87l-.36-.02c-.05-.19-.08-.36-.11-.5l.11.13c.18-.26.32-.55.42-.86m-18.91,31.92c0,.18-.02.37-.03.59l.82.28c0-.18.09-.47.01-.53-.25-.14-.52-.26-.8-.33m16.87-5.83c.05.29.14.56.26.83.05.09.35.03.53.04-.07-.28-.13-.57-.2-.84l-.59-.03m9.97-42.71c.09.02.26-.4.4-.62l-.87-.15c-.31.07-.54.11-.75.14,0-.06,0-.11,0-.18-.29,0-.58.04-.87.09,0,0-.01.01,0,.02-.02.16-.03.33-.02.49l.87.13c0-.11.01-.24.02-.36.19-.05.36-.08.5-.11l-.13.11c.26.18.55.32.86.42m.99,21.71c-.41.39-.77.81-1.1,1.27.49.14.93.37,1.03.27.34-.4.64-.84.89-1.3-.28-.09-.69-.34-.82-.24m.39,9.33c-.01.22-.02.41-.03.59.29-.05.56-.14.83-.26.09-.05.03-.34.04-.53l-.84.2m-17.33,50.38c.05.29.14.56.26.83.05.09.34.03.53.04-.07-.28-.13-.57-.2-.84l-.59-.03m4.65-62.84c0,.18-.09.47-.01.53.25.15.52.26.8.34h0c0-.08.02-.19.04-.28,0-.06.01-.11,0-.17,0-.03-.01-.06-.03-.08-.25-.14-.52-.26-.8-.33m-3.66,13.13c-.46.3-.89.62-1.31.97.3.27.63.63.67.6.41-.31.8-.65,1.14-1.03-.14-.2-.3-.39-.49-.54m7.13,1.14c.05.29.14.56.26.83.05.09.34.03.53.04-.07-.28-.13-.57-.2-.84l-.59-.03m55.29-104.42c.14-.25.26-.52.34-.8-.05,0-.1,0-.15-.02-.16-.02-.34-.06-.38,0-.14.25-.26.52-.33.8.09,0,.2.03.3.04.05,0,.1,0,.15,0,.03,0,.06-.01.08-.03m-.14,9.13l-.84.2c-.01.22-.02.41-.03.59.29-.05.56-.14.83-.26.09-.05.03-.34.04-.53m.41-14.9c-.05-.09-.34-.03-.53-.04.07.28.13.57.2.84l.59.03c-.05-.29-.14-.56-.26-.83m-.9,7.67l-1-.46c-.41.88-.56,1.19-.71,1.51.42.03.84-.02,1.25-.14.25-.13.31-.59.46-.91m-2.1,2.97c-.05-.09-.34-.03-.53-.04.07.28.13.57.2.84l.59.03c-.05-.29-.14-.56-.26-.83m.12,3.91c0-.11,0-.21.01-.31s0-.19.01-.28c-.14.04-.28.07-.43.11-.14.03-.27.08-.4.15-.09.05-.03.34-.04.53l.84-.2m3.86-11.74c-.25-.14-.52-.26-.8-.33,0,.18-.02.37-.03.59l.82.28c0-.18.09-.48.01-.53m-36.13,31.18s0,.01.02,0c.16.02.33.03.49.02.04-.29.09-.58.13-.87l-.36-.02c-.05-.19-.08-.36-.11-.5l.11.13c.18-.26.32-.55.42-.86.02-.09-.4-.26-.62-.4-.05.29-.1.58-.15.87h0c.07.31.11.54.14.75h-.18c0,.28.04.58.09.86m1.06,2.53c.15-.25.26-.52.34-.8l-.59-.03c-.09.27-.18.54-.28.82.18,0,.47.09.53.01m.93,4.21c-.05-.35.01-.84-.19-1.03-.43-.3-.9-.54-1.39-.71.05.35.11.7.19,1.22l1.39.52m-2.78,17.31c-.05-.09-.34-.03-.53-.04.07.28.13.57.2.84l.59.03c-.05-.29-.14-.56-.26-.83m-.22,28.19c0,.18-.02.37-.03.59l.82.28c0-.18.09-.48.01-.53-.25-.14-.52-.25-.8-.33m.87-35.64c.05.29.14.56.26.83.05.09.34.03.53.04-.07-.28-.13-.57-.2-.84l-.59-.03m2.39-5.73c.09.02.26-.4.39-.62l-.87-.15c-.31.07-.54.11-.75.14,0-.06,0-.11,0-.18-.29,0-.58.04-.87.09,0,0,0,.01,0,.02-.02.16-.03.33-.02.49l.87.13c0-.11.01-.24.02-.36.19-.05.36-.08.5-.11l-.13.11c.26.18.55.32.86.42m-4.19-.04c-.14-.05-.28-.09-.42-.15,0,.09,0,.18-.01.28s-.01.2-.02.31l.82.28c0-.18.09-.48.01-.53-.12-.08-.25-.14-.39-.19m.06,4.03h.15c-.07-.28-.13-.57-.2-.84l-.59-.03c.05.29.14.56.26.83.04.06.21.05.38.04m-1.52,41.42c-.14.25-.25.52-.33.8h0c.14,0,.33.05.45.05h0s.06-.01.08-.03c.14-.25.25-.52.33-.8-.18,0-.48-.09-.53-.01m.71-22.02s-.09-.11-.22-.18-.29-.15-.4-.21h0l-.15.87h0c.07.31.11.54.14.75h-.18c0,.28.04.58.09.86,0,0,.01.01.02,0,.16.02.33.03.5.02.04-.29.09-.58.13-.87l-.36-.02c-.05-.19-.08-.36-.11-.5l.11.13c.18-.26.32-.55.42-.86m.63,28.72c-.08.12-.14.25-.19.39-.05.14-.09.28-.15.42l.59.03c.09-.27.19-.54.28-.82-.18,0-.48-.09-.53-.01m4.69-17.19c0-.14.05-.34.05-.46,0-.03-.01-.06-.03-.08-.25-.14-.52-.25-.8-.33,0,.18-.09.48-.01.53.25.14.52.25.79.33h0Zm-9.63,10.32c0,.18-.02.37-.03.59l.82.28c0-.18.09-.47.01-.53-.25-.14-.52-.26-.8-.33m-1.44,1.6c-.14.25-.25.52-.33.8l.59.03c.09-.26.18-.54.28-.82-.18,0-.48-.09-.53-.01m-2.42-7.6c0,.18-.09.48-.01.53.25.14.52.26.8.34,0-.08.02-.19.04-.28,0-.06.01-.11,0-.17,0-.03-.01-.06-.03-.08-.25-.14-.52-.26-.8-.33m2.82-18.11c-.14.25-.26.52-.34.8h0c.18,0,.47.09.53.01.15-.25.26-.52.34-.8-.18,0-.47-.09-.53-.01m-2.68,21.45c-.14.25-.26.52-.33.8l.59.03.28-.82c-.18,0-.47-.09-.53-.01"/>
    <g>
      <path id="Tracé_4739" data-name="Tracé 4739" d="m232.15,412.02s-.04-.02-.05-.03c-.22-.14-.29-.43-.15-.66,1.61-2.33,3.57-4.4,5.8-6.15,5.09-4.11,11.31-6.57,17.83-7.07,7.99-.62,12.25-3.05,14.42-4.98,1.3-1.05,2.27-2.45,2.81-4.04.07-.25.32-.41.58-.34.25.06.4.31.35.55-.56,1.76-1.61,3.31-3.04,4.48-2.28,2.05-6.74,4.63-15.05,5.27-6.32.48-12.34,2.86-17.28,6.84-2.16,1.7-4.05,3.7-5.63,5.95-.13.2-.39.28-.61.18"/>
      <path id="Tracé_4740" data-name="Tracé 4740" d="m229.26,410.65c-.22-.1-.32-.35-.25-.58.75-2.64,1.1-5.38,1.04-8.12-.05-6.34-2.02-12.51-5.65-17.7-4.76-6.84-5.58-11.92-5.44-14.98,0-1.84.54-3.64,1.54-5.19.17-.2.47-.23.67-.06.19.16.23.44.08.65-.89,1.42-1.35,3.06-1.34,4.73-.11,2.9.7,7.74,5.28,14.31,3.75,5.36,5.77,11.74,5.82,18.28.06,2.84-.31,5.66-1.09,8.39-.08.25-.35.38-.6.3t0,0s-.04-.01-.05-.02"/>
      <path id="Tracé_4741" data-name="Tracé 4741" class="cls-11" d="m244.16,462.05c-.2-.27-.38-.54-.59-.81h-.03s-1.15-1.45-2.99-3.63c-.39-.43-.78-.85-1.18-1.27-2.87-3.55-19.89-14.99-19.89-14.99-4.05,6.89-7.16,14.28-9.26,21.99h0c-7.55,21.61,3.21,46.28,25.21,56.68l3.58,1.68c3.12,1.59,6.93.36,8.53-2.76,0-.02.02-.04.03-.06l2.49-5.4c2.1-4.57,3.47-9.44,4.08-14.44,4.22,2.36,8.87,3.83,13.68,4.32h0c1.84.19,3.49-1.14,3.68-2.98h0c1.85-17.84-9.87-34.27-27.33-38.34"/>
      <path id="Tracé_4742" data-name="Tracé 4742" class="cls-11" d="m205.37,460.53c4.45-6.63,8-13.82,10.55-21.39,0,0-19.79-5.38-24.35-5.23-.58-.03-1.16-.05-1.74-.06-2.84.04-4.7.11-4.7.11v-.03c-.35.02-.68.06-1.01.09-14.51-10.54-34.6-8.63-46.88,4.44-1.27,1.35-1.2,3.47.15,4.73,3.52,3.31,7.68,5.87,12.22,7.51-3.38,3.73-6.16,7.95-8.24,12.53l-2.45,5.42c-1.34,3.23.19,6.94,3.42,8.29.02,0,.04.02.06.02l3.62,1.6c22.27,9.82,47.96,1.8,59.35-18.05h0Z"/>
      <path id="Tracé_4743" data-name="Tracé 4743" class="cls-2" d="m221.64,391.86c-7.37,3.18-15.92-.21-19.11-7.58-1.63-3.77-1.59-8.06.12-11.8.17-.38.36-.74.56-1.09-1.66-1.24-3.44-2.48-5.34-3.72-18.81-12.2-26.16-24.5-28.92-29.85-.68-1.3-2.29-1.8-3.59-1.11-.55.29-.98.76-1.22,1.34-9.02,19.13-31.38,77.32-1.04,91.17,36.96,16.88,41.74,35.35,41.74,35.35l21.09-50.8s2.32-9.44-4.3-21.91"/>
      <path id="Tracé_4744" data-name="Tracé 4744" class="cls-1" d="m209.83,391.74c3.74,1.71,8.03,1.76,11.8.12-3.36-6.33-9.01-13.43-18.43-20.48-.2.35-.38.72-.56,1.09-3.34,7.3-.12,15.92,7.18,19.26"/>
      <path id="Tracé_4745" data-name="Tracé 4745" class="cls-2" d="m329.79,414.31c.66-1.31.14-2.91-1.17-3.57-.56-.28-1.19-.36-1.8-.22-5.85,1.41-19.96,3.91-41.49-2.31-2.43-.7-4.76-1.29-7-1.75-.07.16-.14.32-.21.48-3.34,7.3-11.96,10.52-19.26,7.18-3.46-1.58-6.16-4.45-7.53-8-13.65,3.19-19.23,11.06-19.23,11.06l-24.59,49.2s17.09-8.48,54.05,8.41c30.33,13.86,59.67-41.14,68.23-60.48"/>
      <path id="Tracé_4746" data-name="Tracé 4746" class="cls-1" d="m278.11,406.95c.08-.16.15-.32.21-.48-11.25-2.36-20.14-1.94-27-.34,2.88,7.49,11.29,11.23,18.79,8.35,3.55-1.37,6.42-4.07,8-7.53"/>
      <path id="Tracé_4747" data-name="Tracé 4747" class="cls-12" d="m178.99,441.66s-17.91,10.42-31.87,1.53c-1.52-.81-2.09-2.69-1.28-4.2.22-.41.52-.76.89-1.04,2.86-1.95,7.79-8.71,32.26,3.71"/>
      <path id="Tracé_4748" data-name="Tracé 4748" class="cls-1" d="m183.98,378.63c-2.74,6.01-9.84,8.66-15.85,5.91-6.01-2.74-8.66-9.84-5.91-15.85,2.74-6.01,9.84-8.66,15.85-5.91,0,0,0,0,0,0,6.01,2.75,8.66,9.84,5.91,15.85"/>
      <path id="Tracé_4749" data-name="Tracé 4749" class="cls-12" d="m177,473.41c-11.35-2.35-24.54-9.32-24.54-9.32v.02c-2.78-1.43-6.18-.34-7.61,2.43-1.43,2.77-.34,6.17,2.43,7.6.03.02.06.03.09.05.28.15.56.28.86.38h0c.11.04.23.08.35.11,8.97,3.24,20.82,2.2,28.37.97.63-.1,1.05-.69.95-1.32-.08-.47-.44-.84-.9-.94"/>
      <path id="Tracé_4750" data-name="Tracé 4750" class="cls-12" d="m241.75,470.93s3.85,20.36,19.71,25.09c1.6.61,3.4-.19,4.02-1.79.16-.43.23-.89.2-1.34-.4-3.44,1.48-11.59-23.92-21.95"/>
      <path id="Tracé_4751" data-name="Tracé 4751" class="cls-1" d="m286.13,425.89c-2.75,6.01-.1,13.11,5.91,15.85,6.01,2.75,13.11.1,15.85-5.91,2.75-6.01.1-13.11-5.91-15.85,0,0,0,0,0,0-6.01-2.74-13.11-.1-15.85,5.91"/>
      <path id="Tracé_4752" data-name="Tracé 4752" class="cls-12" d="m219.06,493.22c9.21,7.04,23.11,12.45,23.11,12.45v.02c2.87,1.19,4.25,4.49,3.06,7.37-1.19,2.88-4.49,4.26-7.37,3.07-.29-.11-.58-.24-.85-.4h0c-.11-.06-.22-.12-.32-.19-8.32-4.66-15.29-14.29-19.31-20.81-.33-.54-.16-1.25.38-1.58.4-.25.92-.22,1.3.06"/>
      <path id="Tracé_4753" data-name="Tracé 4753" d="m232.6,407.86h0c1.81.83,2.61,2.96,1.78,4.77,0,0,0,0,0,0l-27.05,59.21c-.83,1.81-2.96,2.61-4.77,1.78-1.81-.83-2.61-2.96-1.78-4.77l27.05-59.21c.83-1.81,2.96-2.61,4.77-1.78,0,0,0,0,0,0"/>
      <path id="Tracé_4754" data-name="Tracé 4754" class="cls-12" d="m186.57,428.17s-19.79-6.15-22.67-22.44c-.43-1.66.57-3.36,2.23-3.79.45-.12.91-.13,1.36-.04,3.37.8,11.68-.14,19.07,26.28"/>
      <path id="Tracé_4755" data-name="Tracé 4755" class="cls-12" d="m252.01,458.06s17.6,10.93,31.81,2.44c1.54-.76,2.17-2.63,1.4-4.17-.2-.41-.5-.77-.86-1.06-2.81-2.03-7.54-8.92-32.36,2.79"/>
      <path id="Tracé_4756" data-name="Tracé 4756" class="cls-5" d="m395.03,238.54h0c-14.86,11.37-36.12,8.55-47.5-6.31-11.37-14.86-8.55-36.12,6.31-47.5h0l16.88-12.92c5.54-4.24,13.46-3.19,17.7,2.35l12.92,16.88c11.37,14.86,8.55,36.12-6.31,47.5,0,0,0,0,0,0"/>
      <path id="Tracé_4757" data-name="Tracé 4757" class="cls-5" d="m460.82,191.18h0c15.43-11.71,18.45-33.71,6.74-49.14-11.71-15.43-33.71-18.45-49.14-6.74-.08.06-.16.12-.24.18l-17.48,13.38c-5.73,4.39-6.82,12.59-2.43,18.32l13.38,17.48c11.78,15.38,33.79,18.31,49.17,6.53"/>
      <path id="Tracé_4758" data-name="Tracé 4758" class="cls-6" d="m418.29,85.66c4.86-3.72,5.78-10.68,2.06-15.54,0,0,0,0,0,0-.15-.19-.31-.37-.46-.55-5.99,4.36-11.4,9.45-16.11,15.16,3.93,3.88,10.12,4.27,14.51.92"/>
      <path id="Tracé_4759" data-name="Tracé 4759" class="cls-6" d="m394.68,99.8c.11.11.23.22.34.32.07.06.15.11.22.17.11.08.22.17.33.25.08.06.17.1.25.15.11.07.22.14.33.2.09.05.18.09.27.13.11.06.23.11.34.16.09.04.19.07.28.11.11.04.23.09.34.13.1.03.2.05.3.08.11.03.23.07.35.09.1.02.2.04.3.05s.23.04.35.06.21.02.31.03.24.02.35.02.21,0,.31,0,.24,0,.35-.01.21-.02.31-.04.23-.03.35-.05.21-.04.31-.07.23-.05.34-.08.21-.06.31-.1.23-.07.34-.11.2-.09.3-.13.22-.1.33-.15.19-.11.29-.16.21-.12.32-.19.19-.13.28-.19.2-.14.3-.22.18-.15.27-.23.18-.16.27-.24c.06-.06.12-.13.18-.19.11-.11.22-.23.32-.35l.04-.06c1.83-2.31,2.03-5.52.5-8.04-.05-.07-.1-.14-.15-.21-.08-.11-.15-.24-.24-.35-.07-.08-.14-.16-.2-.24s-.12-.15-.19-.22-.15-.15-.23-.23-.13-.14-.2-.2-.17-.14-.25-.21-.13-.11-.21-.17-.18-.12-.26-.18-.14-.1-.22-.15-.19-.11-.28-.16c-.07-.04-.15-.09-.22-.13-.1-.05-.2-.1-.3-.14-.07-.03-.14-.07-.22-.1-.11-.05-.23-.09-.35-.13-.06-.02-.12-.05-.19-.07-.18-.06-.36-.11-.55-.16-2.62,3.5-4.99,7.19-7.11,11.02.15.19.3.37.47.54.05.06.11.11.17.16"/>
      <path id="Tracé_4760" data-name="Tracé 4760" class="cls-6" d="m398.02,101.6c-.11-.03-.23-.06-.35-.09.11.03.23.07.35.09"/>
      <path id="Tracé_4761" data-name="Tracé 4761" class="cls-6" d="m398.68,101.71c-.11-.01-.24-.04-.35-.06.11.02.24.04.35.06"/>
      <path id="Tracé_4762" data-name="Tracé 4762" class="cls-6" d="m394.04,99.1c.15.19.3.37.47.54-.16-.17-.32-.35-.47-.54"/>
      <path id="Tracé_4763" data-name="Tracé 4763" class="cls-6" d="m404.89,99.19c1.87-2.3,2.07-5.53.5-8.04,1.53,2.52,1.33,5.73-.5,8.04"/>
      <path id="Tracé_4764" data-name="Tracé 4764" class="cls-6" d="m404.34,99.79c-.09.08-.18.16-.27.24.09-.08.18-.16.27-.24"/>
      <path id="Tracé_4765" data-name="Tracé 4765" class="cls-6" d="m396.75,101.19c-.11-.05-.23-.11-.34-.16.11.06.23.11.34.16"/>
      <path id="Tracé_4766" data-name="Tracé 4766" class="cls-6" d="m395.02,100.12c-.11-.1-.23-.21-.34-.32.11.11.22.22.34.32"/>
      <path id="Tracé_4767" data-name="Tracé 4767" class="cls-6" d="m396.14,100.89c-.11-.06-.22-.13-.33-.2.11.07.22.14.33.2"/>
      <path id="Tracé_4768" data-name="Tracé 4768" class="cls-6" d="m397.38,101.43c-.11-.04-.23-.08-.34-.13.11.04.23.09.34.13"/>
      <path id="Tracé_4769" data-name="Tracé 4769" class="cls-6" d="m395.56,100.54c-.11-.08-.22-.17-.33-.25.11.08.22.17.33.25"/>
      <path id="Tracé_4770" data-name="Tracé 4770" class="cls-6" d="m401.7,88.24c.06.02.12.05.19.07-.06-.02-.12-.05-.19-.07"/>
      <path id="Tracé_4771" data-name="Tracé 4771" class="cls-6" d="m405.01,90.61h-.01c.09.1.16.21.24.34-.08-.11-.15-.23-.23-.34"/>
      <path id="Tracé_4772" data-name="Tracé 4772" class="cls-6" d="m403.26,88.99c.07.05.14.1.22.15-.07-.05-.14-.1-.22-.15"/>
      <path id="Tracé_4773" data-name="Tracé 4773" class="cls-6" d="m401.34,101.52c-.11.03-.23.05-.34.08.11-.03.23-.05.34-.08"/>
      <path id="Tracé_4774" data-name="Tracé 4774" class="cls-6" d="m404.61,90.13c.06.07.12.15.19.22-.06-.07-.12-.15-.19-.22"/>
      <path id="Tracé_4775" data-name="Tracé 4775" class="cls-6" d="m402.76,88.7c.08.04.15.09.22.13-.07-.04-.15-.09-.22-.13"/>
      <path id="Tracé_4776" data-name="Tracé 4776" class="cls-6" d="m403.22,100.68c-.1.07-.21.13-.32.19.11-.06.21-.11.32-.19"/>
      <path id="Tracé_4777" data-name="Tracé 4777" class="cls-6" d="m400.68,101.66c-.11.02-.23.03-.35.05.11-.01.24-.03.35-.05"/>
      <path id="Tracé_4778" data-name="Tracé 4778" class="cls-6" d="m404.84,99.25c-.1.12-.21.24-.32.35.11-.11.22-.23.32-.35"/>
      <path id="Tracé_4779" data-name="Tracé 4779" class="cls-6" d="m402.24,88.45c.07.03.14.07.22.1-.07-.03-.14-.07-.22-.1"/>
      <path id="Tracé_4780" data-name="Tracé 4780" class="cls-6" d="m401.99,101.3c-.11.04-.23.08-.34.11.11-.04.23-.07.34-.11"/>
      <path id="Tracé_4781" data-name="Tracé 4781" class="cls-6" d="m399.34,101.76c-.11,0-.24-.01-.35-.02.11,0,.24.02.35.02"/>
      <path id="Tracé_4782" data-name="Tracé 4782" class="cls-6" d="m403.72,100.34s.05-.05.08-.07c-.1.08-.2.15-.3.22.07-.05.15-.09.22-.15"/>
      <path id="Tracé_4783" data-name="Tracé 4783" class="cls-6" d="m402.62,101.02c-.11.05-.22.1-.33.15.11-.05.22-.1.33-.15"/>
      <path id="Tracé_4784" data-name="Tracé 4784" class="cls-6" d="m400.01,101.74c-.11,0-.24,0-.36.01.11,0,.24,0,.36-.01"/>
      <path id="Tracé_4785" data-name="Tracé 4785" class="cls-6" d="m403.73,89.32c.07.05.14.11.21.17-.07-.06-.13-.11-.21-.17"/>
      <path id="Tracé_4786" data-name="Tracé 4786" class="cls-6" d="m404.19,89.7c.07.06.13.13.2.2-.07-.07-.13-.13-.2-.2"/>
      <path id="Tracé_4787" data-name="Tracé 4787" class="cls-6" d="m427.29,64.72c-1.31.77-2.57,1.56-3.8,2.37-.02.23-.02.46-.02.68,0,.07,0,.15.01.22,0,.15.02.31.03.46,0,.09.02.17.04.26.02.14.05.28.08.43.02.09.04.17.06.26.04.14.08.28.12.42.03.08.05.17.08.25.06.15.11.3.19.45.03.07.06.13.09.2.1.21.22.42.34.62.01.02.03.04.04.05.12.18.24.36.38.54.06.07.12.14.18.22.1.11.2.24.31.35s.24.24.36.34c.03.03.05.05.08.07.17.15.34.28.52.41h0c.17.11.34.23.52.33.07.04.14.08.21.11.1.06.21.11.32.16s.19.09.29.13c.08.03.16.06.24.09.11.04.24.09.36.12.05.02.11.03.16.05.46.13.93.22,1.41.25.04,0,.09,0,.13.01.13,0,.25,0,.38,0h.26c.1,0,.21-.01.31-.02s.24-.02.35-.04c.08-.01.16-.02.23-.03.18-.03.35-.06.52-.11h.07c.43-.13.84-.28,1.24-.47.03-.01.06-.03.09-.05.15-.08.3-.16.46-.25.07-.04.13-.08.19-.12.12-.08.24-.16.36-.25.06-.04.11-.08.17-.13.24-.18.46-.38.67-.6.04-.04.07-.08.11-.11.2-.21.39-.44.57-.68.02-.03.05-.07.07-.1.17-.25.33-.5.47-.77,0,0,0-.02.01-.03.13-.26.25-.54.35-.82.01-.03.03-.06.04-.09.09-.27.17-.55.23-.83.01-.05.02-.09.03-.14.05-.28.09-.56.1-.84,0-.05,0-.1,0-.15.01-.29,0-.57-.01-.86,0-.04,0-.07-.01-.11-.03-.3-.07-.6-.14-.9l-.05-.06c-2.35-3.08-6.48-3.26-9.82-1.3"/>
      <path id="Tracé_4788" data-name="Tracé 4788" class="cls-6" d="m387.62,180.52c3.13,4.09,2.35,9.93-1.73,13.06-4.09,3.13-9.93,2.35-13.06-1.73-3.13-4.09-2.35-9.93,1.73-13.06,0,0,0,0,0,0,4.08-3.13,9.93-2.35,13.06,1.73,0,0,0,0,0,0"/>
      <path id="Tracé_4789" data-name="Tracé 4789" class="cls-6" d="m377.4,205.98c1.95,2.54,1.46,6.18-1.08,8.12-2.54,1.95-6.18,1.46-8.12-1.08s-1.46-6.18,1.08-8.12c0,0,0,0,0,0,2.54-1.95,6.18-1.46,8.12,1.08"/>
      <path id="Tracé_4790" data-name="Tracé 4790" class="cls-6" d="m441.74,156.73c1.95,2.54,1.46,6.18-1.08,8.12-2.54,1.95-6.18,1.46-8.12-1.08-1.95-2.54-1.46-6.18,1.08-8.12,0,0,0,0,0,0,2.54-1.94,6.18-1.46,8.12,1.08"/>
      <path id="Tracé_4791" data-name="Tracé 4791" class="cls-6" d="m418.99,156.5c3.13,4.09,2.35,9.93-1.73,13.06-4.09,3.13-9.93,2.35-13.06-1.73-3.13-4.08-2.35-9.93,1.73-13.06,4.08-3.13,9.93-2.35,13.06,1.73,0,0,0,0,0,0"/>
      <path id="Tracé_4792" data-name="Tracé 4792" class="cls-6" d="m423.48,67.98c0,.15.02.31.03.46-.02-.15-.03-.31-.03-.46"/>
      <path id="Tracé_4793" data-name="Tracé 4793" class="cls-6" d="m423.55,68.7c.02.14.05.28.08.42-.03-.14-.06-.28-.08-.42"/>
      <path id="Tracé_4794" data-name="Tracé 4794" class="cls-6" d="m423.69,69.39c.04.14.08.28.12.42-.05-.14-.09-.28-.12-.42"/>
      <path id="Tracé_4795" data-name="Tracé 4795" class="cls-6" d="m426.91,73.64c.07.04.14.08.22.11-.07-.04-.14-.08-.22-.11"/>
      <path id="Tracé_4796" data-name="Tracé 4796" class="cls-6" d="m423.49,67.08c-.02.23-.02.46-.02.68,0-.23,0-.46.02-.68"/>
      <path id="Tracé_4797" data-name="Tracé 4797" class="cls-6" d="m425.79,72.83s.05.05.08.07c-.03-.02-.05-.05-.08-.07"/>
      <path id="Tracé_4798" data-name="Tracé 4798" class="cls-6" d="m424.17,70.7c.1.21.22.42.34.62-.12-.2-.24-.41-.34-.62"/>
      <path id="Tracé_4800" data-name="Tracé 4800" class="cls-6" d="m425.12,72.13c.1.12.2.24.31.35-.11-.11-.21-.23-.31-.35"/>
      <path id="Tracé_4801" data-name="Tracé 4801" class="cls-6" d="m423.9,70.05c.06.15.11.3.19.45-.07-.15-.13-.3-.19-.45"/>
      <path id="Tracé_4802" data-name="Tracé 4802" class="cls-6" d="m432.09,74.38h.07s-.07,0-.07,0"/>
      <path id="Tracé_4803" data-name="Tracé 4803" class="cls-6" d="m436.01,71.73s.05-.07.07-.1c-.03.04-.05.07-.07.1"/>
      <path id="Tracé_4804" data-name="Tracé 4804" class="cls-6" d="m436.55,70.85s0-.02.01-.03c0,0,0,.02-.01.03"/>
      <path id="Tracé_4805" data-name="Tracé 4805" class="cls-6" d="m429.91,74.56c-.48-.03-.95-.12-1.41-.25.46.13.93.22,1.41.25"/>
      <path id="Tracé_4806" data-name="Tracé 4806" class="cls-6" d="m424.93,71.92c-.14-.18-.26-.35-.38-.54.11.17.22.33.34.49.01.02.03.03.04.05"/>
      <path id="Tracé_4807" data-name="Tracé 4807" class="cls-6" d="m436.92,70.01s.03-.06.04-.09c-.01.03-.03.06-.04.09"/>
      <path id="Tracé_4808" data-name="Tracé 4808" class="cls-6" d="m434.67,73.12c-.06.04-.11.08-.17.13.04-.03.08-.05.12-.08.02-.01.03-.03.05-.04"/>
      <path id="Tracé_4809" data-name="Tracé 4809" class="cls-6" d="m437.31,67.09s0-.07-.01-.11c0,.04,0,.07.01.11"/>
      <path id="Tracé_4810" data-name="Tracé 4810" class="cls-6" d="m437.32,68.1c0-.05,0-.1,0-.15,0,.05,0,.1,0,.15"/>
      <path id="Tracé_4811" data-name="Tracé 4811" class="cls-6" d="m435.34,72.52s.07-.08.11-.11c-.04.04-.07.08-.11.11"/>
      <path id="Tracé_4812" data-name="Tracé 4812" class="cls-6" d="m430.03,74.57c.13,0,.25,0,.38,0-.13,0-.25,0-.38,0"/>
      <path id="Tracé_4813" data-name="Tracé 4813" class="cls-6" d="m427.98,74.14c.11.04.24.09.36.12-.12-.04-.24-.08-.36-.12"/>
      <path id="Tracé_4814" data-name="Tracé 4814" class="cls-6" d="m437.21,68.94s-.02.09-.03.14c0-.05.02-.1.03-.14"/>
      <path id="Tracé_4815" data-name="Tracé 4815" class="cls-6" d="m430.67,74.58c.1,0,.21-.01.31-.02-.1,0-.21.01-.31.02"/>
      <path id="Tracé_4816" data-name="Tracé 4816" class="cls-6" d="m427.44,73.92c.1.05.19.09.29.13-.1-.04-.2-.08-.29-.13"/>
      <path id="Tracé_4817" data-name="Tracé 4817" class="cls-6" d="m431.33,74.52c.08,0,.15-.02.23-.03-.08.01-.15.02-.23.03"/>
      <path id="Tracé_4818" data-name="Tracé 4818" class="cls-6" d="m433.95,73.61c.06-.04.13-.08.19-.12-.06.04-.13.08-.19.12"/>
      <path id="Tracé_4819" data-name="Tracé 4819" class="cls-9" d="m437.3,66.98s0,.07.01.11c.02.29.03.57.01.86,0,.05,0,.1,0,.15-.02.28-.05.56-.1.84,0,.05-.02.1-.03.14-.06.28-.13.56-.23.83-.01.03-.03.06-.04.09-.1.28-.22.55-.35.82v.03c-.15.27-.31.52-.49.77-.02.03-.05.07-.07.1-.18.24-.37.46-.57.68-.04.04-.07.08-.11.11-.21.21-.43.41-.67.6-.02.01-.03.03-.05.04-.04.03-.08.05-.12.08-.12.09-.24.17-.36.25-.06.04-.13.08-.19.12s-.1.06-.15.09c-.1.06-.2.1-.3.15-.03.02-.06.03-.09.05-.4.19-.81.34-1.24.46l-.07.02c-.17.04-.35.08-.52.11-.08.01-.16.02-.23.03-.11.02-.23.03-.35.04s-.21.01-.31.02h-.26c-.13,0-.25,0-.38,0-.04,0-.09,0-.13-.01-.48-.03-.95-.12-1.41-.25-.05-.01-.11-.03-.16-.05-.12-.04-.24-.08-.36-.12-.08-.03-.16-.06-.24-.09-.1-.04-.2-.08-.29-.13s-.21-.1-.32-.16c-.07-.04-.14-.07-.21-.11-.18-.1-.35-.21-.52-.33h0c-.18-.13-.35-.26-.52-.41-.03-.02-.05-.05-.08-.07-.1-.09-.2-.17-.29-.27-.02-.03-.05-.05-.07-.08-.11-.11-.21-.23-.31-.35-.06-.07-.13-.14-.18-.22-.01-.02-.03-.03-.04-.05-.12-.16-.23-.32-.34-.49-.01-.02-.03-.04-.04-.05-.13-.2-.24-.41-.34-.62-.03-.07-.06-.13-.09-.2-.07-.15-.13-.3-.19-.45-.03-.08-.06-.17-.08-.25-.05-.14-.09-.28-.12-.42-.02-.09-.04-.17-.06-.26-.03-.14-.06-.28-.08-.42-.01-.09-.03-.17-.04-.26-.02-.15-.03-.31-.04-.46,0-.07,0-.15-.01-.22,0-.23,0-.46.02-.68-1.24.81-2.44,1.64-3.61,2.5.16.18.32.36.46.55,3.72,4.86,2.8,11.81-2.05,15.53-4.39,3.36-10.59,2.97-14.52-.91-.91,1.1-1.78,2.22-2.62,3.34.18.05.37.1.55.16.06.02.12.05.19.07.11.04.23.08.35.13.07.03.14.07.22.1.1.05.2.09.3.14.07.04.15.09.22.13.09.05.19.11.28.16.07.05.14.1.22.15s.18.12.26.19.14.11.21.17.17.14.25.21.13.13.2.2.15.15.23.23.12.15.19.22.13.15.19.23h0s.01.03.01.03c.08.11.15.23.23.33.05.07.1.14.15.21,1.56,2.51,1.36,5.74-.5,8.04l-.05.06c-.1.12-.21.24-.32.35-.06.06-.11.13-.18.19-.09.08-.18.16-.27.24-.06.05-.11.11-.18.16-.03.02-.06.04-.09.06s-.05.05-.08.07c-.07.05-.14.1-.22.15-.09.07-.19.13-.28.19s-.21.13-.32.19-.19.11-.29.16-.22.1-.33.15-.2.09-.3.13-.23.08-.34.11-.21.07-.31.1-.23.05-.34.08-.21.05-.31.07-.23.03-.35.05-.21.03-.31.04-.24,0-.36.01-.21,0-.31,0-.24-.01-.35-.02-.21-.01-.31-.03-.24-.04-.35-.06-.2-.03-.3-.05c-.11-.03-.23-.06-.35-.09-.1-.03-.2-.05-.3-.08-.11-.04-.23-.08-.34-.13-.09-.04-.19-.07-.28-.11-.11-.05-.23-.11-.34-.16-.09-.04-.18-.08-.27-.13-.11-.06-.22-.13-.33-.2-.08-.05-.17-.1-.25-.15-.11-.08-.22-.17-.33-.25-.07-.06-.15-.11-.22-.17-.11-.1-.23-.21-.34-.32-.06-.05-.11-.1-.17-.16-.16-.17-.32-.35-.47-.54-5.15,9.46-8.9,19.62-11.14,30.16-1.28,5.86-2.11,11.8-2.48,17.79-.15,2.73-.12,4.3-.12,4.3l15.5,20.25,2.15-1.65,30.84-23.61,28.19-21.58c8.74-6.69,10.4-19.2,3.71-27.95l-23.53-30.74c.07.3.11.6.14.9"/>
      <path id="Tracé_4820" data-name="Tracé 4820" class="cls-6" d="m433.4,73.91s.06-.03.09-.05c-.03.02-.06.03-.09.05"/>
      <path id="Tracé_4821" data-name="Tracé 4821" class="cls-6" d="m425.85,125.15c1.45,1.89,1.09,4.59-.8,6.03-1.89,1.45-4.59,1.09-6.03-.8-1.45-1.89-1.09-4.59.8-6.03,0,0,0,0,0,0,1.89-1.44,4.58-1.09,6.03.8"/>
      <path id="Tracé_4822" data-name="Tracé 4822" class="cls-9" d="m282.25,175.78c-2.79,2.71-3.11,7.08-.76,10.17l23.19,30.29c6.69,8.74,19.2,10.4,27.95,3.71l61.18-46.83-15.5-20.25s-56.13-16.44-96.05,22.9"/>
      <path id="Tracé_4823" data-name="Tracé 4823" class="cls-6" d="m305.11,172.3c-4.86,3.72-11.82,2.8-15.54-2.06-.15-.19-.27-.39-.41-.59,5.77-4.64,12.1-8.54,18.84-11.59,2.72,4.81,1.48,10.89-2.9,14.25"/>
      <path id="Tracé_4824" data-name="Tracé 4824" class="cls-6" d="m324.92,153.2c.08.14.15.27.22.41.04.08.07.17.11.25.05.13.11.25.16.38.03.09.06.19.08.28.04.12.08.25.11.37.02.1.04.2.06.29.03.12.05.24.07.37.01.1.02.2.03.3.01.12.03.24.03.37v.67c0,.1-.02.2-.03.31s-.02.24-.04.36-.04.21-.06.31-.04.23-.07.34-.06.2-.09.3-.06.23-.1.34-.08.19-.11.29-.09.22-.14.33-.1.19-.14.29-.11.21-.17.31-.11.18-.17.27-.13.2-.2.3-.13.17-.2.26-.15.19-.23.28-.15.16-.23.24-.17.17-.26.26-.17.15-.26.22-.19.16-.29.23-.19.13-.29.2-.2.13-.3.2c-.08.04-.15.08-.23.13-.14.08-.28.15-.43.22l-.07.03c-2.71,1.17-5.86.52-7.9-1.61-.06-.06-.11-.13-.17-.2-.09-.11-.19-.21-.27-.33-.06-.09-.12-.17-.18-.26s-.11-.16-.16-.24-.11-.18-.16-.28-.1-.16-.14-.24-.09-.19-.14-.29c-.04-.08-.08-.16-.11-.24-.04-.1-.07-.2-.11-.3-.03-.08-.06-.16-.09-.25-.03-.1-.06-.21-.08-.31-.02-.08-.05-.16-.07-.25-.03-.11-.04-.22-.06-.33-.01-.08-.03-.16-.04-.24-.02-.12-.03-.25-.04-.37,0-.07-.02-.13-.02-.2-.01-.19-.01-.38,0-.57,4.07-1.62,8.24-2.95,12.49-3.99.14.19.27.39.4.59.04.07.07.14.11.21"/>
      <path id="Tracé_4825" data-name="Tracé 4825" class="cls-6" d="m282.55,175.53c1.08-1.06,2.17-2.07,3.28-3.05.23.04.44.09.66.16.07.02.14.05.21.07.15.05.29.1.44.15.08.03.16.07.24.1.13.06.26.12.39.19.08.04.16.08.24.13.13.07.25.15.37.23.07.05.15.09.22.14.13.09.26.19.38.3.06.05.11.09.17.14.18.16.35.32.51.49.01.02.03.04.04.05.15.16.29.33.42.51.06.08.11.15.16.23.09.13.18.26.26.39s.17.29.24.44c.02.03.04.06.05.1.1.2.18.4.26.61h0c.07.19.13.39.18.58.02.08.04.16.06.24.03.11.05.23.07.34s.04.21.05.32c.01.09.02.17.03.26.01.13.02.25.03.37v.17c0,.48-.04.96-.13,1.43,0,.04-.01.08-.02.12-.03.12-.06.24-.09.36-.02.08-.04.17-.07.25s-.06.2-.1.3-.08.22-.13.33c-.03.07-.06.14-.09.22-.08.16-.16.32-.24.48-.01.02-.02.04-.03.06-.22.38-.47.74-.76,1.08-.02.03-.05.05-.07.08-.11.13-.23.25-.36.37-.05.05-.11.1-.17.15-.11.1-.22.19-.33.28-.05.04-.11.09-.17.13-.24.18-.49.34-.75.49-.05.03-.09.05-.14.08-.26.14-.52.26-.8.37-.04.01-.08.03-.11.04-.28.1-.57.19-.87.25h-.03c-.29.06-.59.1-.88.13h-.1c-.29.03-.58.03-.86.01h-.15c-.28-.03-.56-.07-.84-.12l-.15-.03c-.28-.06-.55-.14-.82-.24l-.1-.04c-.28-.11-.56-.23-.83-.37l-.05-.06c-2.35-3.08-1.46-7.11,1.3-9.82"/>
      <path id="Tracé_4826" data-name="Tracé 4826" class="cls-6" d="m347.4,185.2c1.45,1.89,1.09,4.59-.8,6.03-1.89,1.45-4.59,1.09-6.03-.8-1.45-1.89-1.09-4.59.8-6.03,0,0,0,0,0,0,1.89-1.44,4.58-1.09,6.03.8"/>
      <path id="Tracé_4827" data-name="Tracé 4827" class="cls-10" d="m426.29,213.34h0c-1.7,1.3-4.13.97-5.43-.72l-55.56-72.57c-1.37-1.64-1.16-4.08.48-5.46,1.64-1.37,4.08-1.16,5.46.48.07.09.14.18.2.27l55.55,72.57c1.3,1.7.97,4.12-.72,5.42"/>
      <path id="Tracé_4828" data-name="Tracé 4828" class="cls-10" d="m367.74,137.58c-6.36,4.86-15.45,3.65-20.32-2.7l-3.8-4.96c-.22-.29-.17-.7.12-.92.29-.22.7-.17.92.12l3.8,4.96c4.43,5.78,12.7,6.88,18.49,2.46,5.78-4.43,6.88-12.7,2.46-18.49l-3.8-4.96c-.22-.29-.17-.7.12-.92.29-.22.7-.17.92.12h0l3.8,4.96c4.85,6.36,3.65,15.45-2.7,20.32"/>
    </g>
    <circle class="cls-8" cx="288.81" cy="288.81" r="288.81"/>
  </g>
</svg>