<?xml version="1.0" encoding="UTF-8"?>
<svg id="Calque_2" data-name="Calque 2" xmlns="http://www.w3.org/2000/svg" viewBox="0 0 558.29 534.56">
  <defs>
    <style>
      .cls-1 {
        fill: #16a477;
      }

      .cls-1, .cls-2, .cls-3, .cls-4, .cls-5, .cls-6, .cls-7, .cls-8, .cls-9, .cls-10 {
        stroke-width: 0px;
      }

      .cls-2 {
        fill: #e8ab00;
      }

      .cls-3 {
        fill: #e6f4fc;
      }

      .cls-5 {
        fill: #5cd676;
      }

      .cls-6 {
        fill: #ffd112;
      }

      .cls-7 {
        fill: #2e2c80;
      }

      .cls-8 {
        fill: #0fa277;
      }

      .cls-9 {
        fill: #ffb510;
      }

      .cls-10 {
        fill: #31254a;
      }
    </style>
  </defs>
  <g id="Calque_1-2" data-name="Calque 1">
    <g>
      <path class="cls-3" d="m6.67,534.56h544.94c4.36-19.6,6.68-39.98,6.68-60.89h0c0-123.89-80.71-228.93-192.42-265.4-11.78-3.84-23.89-6.92-36.29-9.18-16.34-3-33.2-4.55-50.42-4.55C124.98,194.53,0,319.5,0,473.67c0,11.46.69,22.77,2.04,33.87,1.1,9.15,2.66,18.17,4.63,27.02Z"/>
      <g>
        <path id="Tracé_4739" data-name="Tracé 4739" class="cls-4" d="m154.87,264.92s-.04-.02-.05-.03c-.22-.14-.29-.43-.15-.66,1.61-2.33,3.57-4.4,5.8-6.15,5.09-4.11,11.31-6.57,17.83-7.07,7.99-.62,12.25-3.05,14.42-4.98,1.3-1.05,2.27-2.45,2.81-4.04.07-.25.32-.41.58-.34.25.06.4.31.35.55-.56,1.76-1.61,3.31-3.04,4.48-2.28,2.05-6.74,4.63-15.05,5.27-6.32.48-12.34,2.86-17.28,6.84-2.16,1.7-4.05,3.7-5.63,5.95-.13.2-.39.28-.61.18"/>
        <path id="Tracé_4740" data-name="Tracé 4740" class="cls-4" d="m151.98,263.55c-.22-.1-.32-.35-.25-.58.75-2.64,1.1-5.38,1.04-8.12-.05-6.34-2.02-12.51-5.65-17.7-4.76-6.84-5.58-11.92-5.44-14.98,0-1.84.54-3.64,1.54-5.19.17-.2.47-.23.67-.06.19.16.23.44.08.65-.89,1.42-1.35,3.06-1.34,4.73-.11,2.9.7,7.74,5.28,14.31,3.75,5.36,5.77,11.74,5.82,18.28.06,2.84-.31,5.66-1.09,8.39-.08.25-.35.38-.6.3q-.17-.05,0,0c.25.08-.04-.01-.05-.02"/>
        <path id="Tracé_4741" data-name="Tracé 4741" class="cls-5" d="m166.88,314.95c-.2-.27-.38-.54-.59-.81h-.03s-1.15-1.45-2.99-3.63c-.39-.43-.78-.85-1.18-1.27-2.87-3.55-19.89-14.99-19.89-14.99-4.05,6.89-7.16,14.28-9.26,21.99h0c-7.55,21.61,3.21,46.28,25.21,56.68l3.58,1.68c3.12,1.59,6.93.36,8.53-2.76,0-.02.02-.04.03-.06l2.49-5.4c2.1-4.57,3.47-9.44,4.08-14.44,4.22,2.36,8.87,3.83,13.68,4.32h0c1.84.19,3.49-1.14,3.68-2.98h0c1.85-17.84-9.87-34.27-27.33-38.34"/>
        <path id="Tracé_4742" data-name="Tracé 4742" class="cls-5" d="m128.09,313.43c4.45-6.63,8-13.82,10.55-21.39,0,0-19.79-5.38-24.35-5.23-.58-.03-1.16-.05-1.74-.06-2.84.04-4.7.11-4.7.11v-.03c-.35.02-.68.06-1.01.09-14.51-10.54-34.6-8.63-46.88,4.44-1.27,1.35-1.2,3.47.15,4.73,3.52,3.31,7.68,5.87,12.22,7.51-3.38,3.73-6.16,7.95-8.24,12.53l-2.45,5.42c-1.34,3.23.19,6.94,3.42,8.29.02,0,.04.02.06.02l3.62,1.6c22.27,9.82,47.96,1.8,59.35-18.05h0v.02Z"/>
        <path id="Tracé_4743" data-name="Tracé 4743" class="cls-1" d="m144.36,244.76c-7.37,3.18-15.92-.21-19.11-7.58-1.63-3.77-1.59-8.06.12-11.8.17-.38.36-.74.56-1.09-1.66-1.24-3.44-2.48-5.34-3.72-18.81-12.2-26.16-24.5-28.92-29.85-.68-1.3-2.29-1.8-3.59-1.11-.55.29-.98.76-1.22,1.34-9.02,19.13-31.38,77.32-1.04,91.17,36.96,16.88,41.74,35.35,41.74,35.35l21.09-50.8s2.32-9.44-4.3-21.91"/>
        <path id="Tracé_4744" data-name="Tracé 4744" class="cls-2" d="m132.55,244.64c3.74,1.71,8.03,1.76,11.8.12-3.36-6.33-9.01-13.43-18.43-20.48-.2.35-.38.72-.56,1.09-3.34,7.3-.12,15.92,7.18,19.26"/>
        <path id="Tracé_4745" data-name="Tracé 4745" class="cls-1" d="m252.51,267.21c.66-1.31.14-2.91-1.17-3.57-.56-.28-1.19-.36-1.8-.22-5.85,1.41-19.96,3.91-41.49-2.31-2.43-.7-4.76-1.29-7-1.75-.07.16-.14.32-.21.48-3.34,7.3-11.96,10.52-19.26,7.18-3.46-1.58-6.16-4.45-7.53-8-13.65,3.19-19.23,11.06-19.23,11.06l-24.59,49.2s17.09-8.48,54.05,8.41c30.33,13.86,59.67-41.14,68.23-60.48"/>
        <path id="Tracé_4746" data-name="Tracé 4746" class="cls-2" d="m200.83,259.85c.08-.16.15-.32.21-.48-11.25-2.36-20.14-1.94-27-.34,2.88,7.49,11.29,11.23,18.79,8.35,3.55-1.37,6.42-4.07,8-7.53"/>
        <path id="Tracé_4747" data-name="Tracé 4747" class="cls-8" d="m101.71,294.56s-17.91,10.42-31.87,1.53c-1.52-.81-2.09-2.69-1.28-4.2.22-.41.52-.76.89-1.04,2.86-1.95,7.79-8.71,32.26,3.71"/>
        <path id="Tracé_4748" data-name="Tracé 4748" class="cls-2" d="m106.7,231.53c-2.74,6.01-9.84,8.66-15.85,5.91-6.01-2.74-8.66-9.84-5.91-15.85,2.74-6.01,9.84-8.66,15.85-5.91h0c6.01,2.75,8.66,9.84,5.91,15.85"/>
        <path id="Tracé_4749" data-name="Tracé 4749" class="cls-8" d="m99.72,326.31c-11.35-2.35-24.54-9.32-24.54-9.32v.02c-2.78-1.43-6.18-.34-7.61,2.43-1.43,2.77-.34,6.17,2.43,7.6.03.02.06.03.09.05.28.15.56.28.86.38h0c.11.04.23.08.35.11,8.97,3.24,20.82,2.2,28.37.97.63-.1,1.05-.69.95-1.32-.08-.47-.44-.84-.9-.94"/>
        <path id="Tracé_4750" data-name="Tracé 4750" class="cls-8" d="m164.47,323.83s3.85,20.36,19.71,25.09c1.6.61,3.4-.19,4.02-1.79.16-.43.23-.89.2-1.34-.4-3.44,1.48-11.59-23.92-21.95"/>
        <path id="Tracé_4751" data-name="Tracé 4751" class="cls-2" d="m208.85,278.79c-2.75,6.01-.1,13.11,5.91,15.85,6.01,2.75,13.11.1,15.85-5.91,2.75-6.01.1-13.11-5.91-15.85h0c-6.01-2.74-13.11-.1-15.85,5.91"/>
        <path id="Tracé_4752" data-name="Tracé 4752" class="cls-8" d="m141.78,346.12c9.21,7.04,23.11,12.45,23.11,12.45v.02c2.87,1.19,4.25,4.49,3.06,7.37-1.19,2.88-4.49,4.26-7.37,3.07-.29-.11-.58-.24-.85-.4h0c-.11-.06-.22-.12-.32-.19-8.32-4.66-15.29-14.29-19.31-20.81-.33-.54-.16-1.25.38-1.58.4-.25.92-.22,1.3.06"/>
        <path id="Tracé_4753" data-name="Tracé 4753" class="cls-4" d="m155.32,260.76h0c1.81.83,2.61,2.96,1.78,4.77h0l-27.05,59.21c-.83,1.81-2.96,2.61-4.77,1.78-1.81-.83-2.61-2.96-1.78-4.77l27.05-59.21c.83-1.81,2.96-2.61,4.77-1.78h0"/>
        <path id="Tracé_4754" data-name="Tracé 4754" class="cls-8" d="m109.29,281.07s-19.79-6.15-22.67-22.44c-.43-1.66.57-3.36,2.23-3.79.45-.12.91-.13,1.36-.04,3.37.8,11.68-.14,19.07,26.28"/>
        <path id="Tracé_4755" data-name="Tracé 4755" class="cls-8" d="m174.73,310.96s17.6,10.93,31.81,2.44c1.54-.76,2.17-2.63,1.4-4.17-.2-.41-.5-.77-.86-1.06-2.81-2.03-7.54-8.92-32.36,2.79"/>
      </g>
      <g>
        <path class="cls-6" d="m414.96,222.07c-.45.41-.87.83-1.32,1.22.58,1.08,1.15,2.16,1.71,3.24.18-.69.33-1.4.4-2.12-.08-.62-.26-1.21-.55-1.76-.08-.19-.17-.38-.24-.58Z"/>
        <path class="cls-6" d="m456.41,211.94c-.13-.26-.27-.53-.4-.79-.07.22.04.48.4.79Z"/>
        <path class="cls-6" d="m411.31,219.05c.13.24.27.48.4.72-.06-.29-.19-.54-.4-.72Z"/>
        <path class="cls-6" d="m487.51,405.4l-.38.07-.47-.95c.22-.03.57-.18.65-.09.12.13.2.27.28.41.28-1.98.55-3.96.79-5.94l-.65-.07c-.03-.13-.05-.25-.07-.38-.02-.12-.04-.23-.06-.34.19.02.37.04.54.06h-.01c.12.02.22.06.33.09,1.4-11.56,2.18-23.21,2.36-34.89-.28-.37-.58-.73-.91-1.05.39-.71.68-1.24.94-1.7.06-9.17-.27-18.35-.97-27.53-.34-.05-.68-.12-.99-.25l.13-.18c-.17.07-.36.16-.57.27v.02c.03.14.05.29.08.43l-1.08.07c-.06-.19-.09-.4-.11-.6,0-.02,0-.03,0-.03.33-.14.67-.26,1.02-.35,0,.07.03.14.03.21.23-.09.51-.21.86-.38l.57-.03c-1.65-20.75-5.27-41.46-10.93-61.84l-.66.05c-.06-.2-.09-.4-.11-.6,0-.01,0-.03,0-.03.18-.07.37-.13.55-.19-1.8-6.43-3.81-12.82-6.02-19.17-.04.02-.07.04-.11.05v-.02s-.23-1.01-.23-1.01c-1.6-4.55-3.31-9.07-5.11-13.57l-1.85.11-.94-2.07c.59-.11,1.23-.35,1.81-.45-.26-.63-.52-1.26-.79-1.89-.11-.02-.23-.03-.35-.05-.2-.03-.41-.07-.62-.13-.42-.11-1.02-1.22-.86-1.52.2-.33.47-.59.76-.83-.22-.52-.45-1.03-.67-1.55-.07-.06-.14-.12-.21-.19-1.28-1.14-2.03-1.46-3.15-.48.15.49.29.97.43,1.47h0s-1.26-.29-1.26-.29l.81-1.17c-1.51-.94-2.73-2.57-4.93-1.79-.26.09-.88-.85-1.33-1.31.47-.32,1-.56,1.54-.71,1.33-.16,2.67-.17,4.01-.23v-.02s1.65-.28,1.65-.28c.02-.12.03-.23.05-.35-1.4-3.07-2.84-6.12-4.34-9.15l-1.78.53c-.39-.98-.67-2-.83-3.05,0-.09.02-.16.03-.25h-.01c.12-.5.34-.88.61-1.17-1.28-2.51-2.6-5.02-3.96-7.51l-.88.26c.1-.42.19-.83.3-1.26h-.01s-.05-.19-.05-.19c-.49-.9-.99-1.79-1.49-2.68-.91,1.29-1.15.88-2.4-1.6l-2.31.16c-.03-.6-.04-1.21-.07-1.81-1.59-1.1-1.83.58-2.66,1.2-.68.35-1.43.59-2.19.71l-1.48.44c.11-.42.2-.83.3-1.26-1.48-1.55-.24-3.05.91-2.62h-.01c3,1.11,4.32-.68,5.84-2.26-.15-.25-.29-.5-.44-.75-2.06-.48-3.06-1.89-2.87-4.33.15.15.29.23.43.3-.08-.13-.16-.26-.24-.39-.03.03-.06.06-.09.09l-1.19-.82c-.33.59-.73,1.14-1.18,1.65-.63.52-1.29.99-1.99,1.42-.48-.69-.92-1.41-1.31-2.15-.32-.74-.58-1.53-.95-2.38l-4.8,3.08c.67.31,1.05.8.8,1.34-1.95,4.25,1.36,5.31,3.65,7.17.51.42.51,1.46.74,2.2.58.41,1.18.81,1.76,1.23,1.47,1.08,2.87,2.53,4.65.31.14-.18,1.56.66,2.37,1.04.25.04.49.09.71.14-.11-.24-.21-.49-.32-.7l2.45.49,1.1,1.8c-.93-.26-1.85-.58-2.74-.96-2.15,1.18-4.47,1.97-6.89,2.33,1.7,1.34-.01,2.18-.47,3.2.76-.13,1.49-.35,2.19-.66,1.21-.74,1.58-.58,1.22.83-.16.62-.29,1.26-.44,1.89.53-.35,1.34-.58,1.56-1.08.43-.97.4-2.15.85-3.1.33-.69,1.12-1.16,1.69-1.74l.98,2.41c.81-.12,1.58-.42,2.28-.86l1.09-.06c-.1.31-.19.87-.3.86h-.01c-.39-.05-.78-.14-1.15-.28l-1.9.35h0c-1.14,1.84.77,2.04,1.54,2.85.75.41.58-.08.41-.59.95-.17,2.05-.7,2.78-.39.49.22.49,1.61.72,2.48-.51.11-1.03.15-1.54.1-.43-.1-.79-.51-1.56-1.05-1.08-.17-1.36.23-1.63.63.85,1.27,3.77.99,2.73,3.67.81.49,1.58,1.04,2.3,1.66.39.39.44,1.12.64,1.69l-2.23.67c-.02.6.02,1.22.09,1.81.14.75.41,1.48.63,2.22-1.02-.45-1.86-2.17-3.2-.47.05.78.09,1.56.14,2.34-.62.08-1.23.07-1.84-.03-1.38-.5-2.25-1.87-2.12-3.33-.1-2.02-1.02-2.42-3.13-2.63-1.56-.15.52-1.56.66-2.49l-1.19-.82-1.48.44c.11-.42.2-.83.3-1.26-.93-1.05-2.12-3.12-2.73-2.96-2.58.68-1-2.27-2.38-2.36-.81.96-2,3.25-2.95,1.29-2.09-4.31-2.47-.43-3.5.42-.16.17-.3.37-.41.57,1.52.32,3,.79,4.43,1.39,1.97,1.04,3.29,2.11.05,3.73-.27.16-.52.37-.73.61-1.09,1.25-.96,3.14.3,4.22.32.28.1,1.17.14,1.78l1.19.82c.74-.99,3.4-.7,2.04-3.1-.55-.92-1-1.88-1.37-2.88-.08-.22.47-.77.85-.99.34-.04.67.11.88.38.28.75.11,2.21,1.48.97,1.87-1.68,2.23-1.6,1.23.85-.65,1.58.88,1.78,1.65,2.46l.34-.49,1.09-.06c-.1.3-.19.87-.3.86-.35-.04-.7-.11-1.03-.24,0,0,0,0,0,0l-.82,1.19.36,2.01c2.2,1,2.43,2.34.72,4.03l-2.38-1.66,1.65-2.38-1.19-.82v-.02c-.05.06-.11.13-.17.18-1.47,1.31-3.72,1.19-5.04-.28,0,0,0,0,0-.01l-2.01.36c-.06.62-.17,1.23-.18,1.84-.04,1.56-.46,2.56-2.29,1.72l-.82,1.19c.11.66.23,1.34.36,2.01l2.38,1.65c.55.17.41-.56.29-1.3-.08-.44-.09-.89-.14-1.33.45.04,1.05-.07,1.31.17.82.76,1.53,1.62,2.14,2.56.27.45.05,1.21.06,1.83-.62-.23-1.26-.45-1.88-.71-.41-.24-.8-.51-1.17-.8-.6-.2-.85-.12-.93.03-.02.03-.04.06-.04.1-.1.72-.15,1.44-.22,2.16l-2.26-1.16-.83,1.19c.85,1.27,3.77.99,2.73,3.66l1.19.82.36-.53,1.09-.06c-.1.31-.19.87-.3.86-.36-.03-.71-.1-1.04-.23-.16.4-.3.81-.41,1.23-.14.5-.32.98-.48,1.48h0,0c-.41-.21-1.16-.46-1.14-.59.2-1,.44-1.99.74-2.98l-.05-.02-3.56-2.48-2.84,1.54c-1.16-.7-2.27-1.5-3.31-2.38-.45-.44-.43-1.39-.61-2.11-.11-.66-.23-1.34-.36-2.01-.42-.25-1.04-.24-1.61-.3,1.52,2.98,2.97,5.97,4.37,8.98l1.5-2.15,1.89,1.85-3.3.49c.72,1.56,1.43,3.12,2.13,4.68l-.02-.09.95-.47h.01c.03.22.18.57.09.65-.24.19-.51.34-.79.47.58,1.31,1.15,2.63,1.7,3.94.15-.21.28-.43.34-.66-.15-.49-.29-.98-.44-1.48l1.26.3c.81-.76,1-2.68,2.84-1.54.68-.97,1.33-1.98,2.07-2.89.13-.15.72.01,1.06.14.11.04.17.5.08.65-.65,1-1.34,1.96-2.02,2.94,2.73-.97,2.99,1.85,4.02,3.01.86.98-.36,1.1-1.32.68-.49-.21-1.46-.24-1.73.07v-.02c-3.02,3.45-1.11-2.2-2.63-1.39l-2.01.36c-.06.76-.28,1.41-.62,1.97.41,1,.82,1.99,1.22,2.99.06,0,.11-.01.17-.02.22-.01.44-.02.62-.06,0,.54.02,1.06.02,1.6v.56c.85,2.16,1.68,4.33,2.47,6.51h.12s-.03.11-.05.18c1.56,4.3,3.01,8.63,4.35,12.98.17-.51.38-1,.63-1.47.22-.38,1.08-.4,1.66-.58.21.73.42,1.48.64,2.21l.44,1.48-1.26-.3h0s-1.31,1.33-1.31,1.33c.47,1.56.92,3.13,1.36,4.7.33-.2.75-.52,1.33-1.05,0-.08,0-.14.01-.22.15-1.09.52-2.14,1.09-3.09.03-.04.09-.08.15-.11.71-.1,1.42-.1,2.12,0-.18.55-.37,1.09-.55,1.64l-.82-.21c.04.66.04,1.31-.03,1.96h-.01c-.02.13-.05.26-.11.39-.22.5-1.03.76-1.59,1.12-.05-.25-.13-.52-.19-.79-.12.13-.25.25-.39.39-.32.05-.64.13-.95.2,1.31,4.72,2.5,9.45,3.57,14.21.13-.01.28-.02.4-.04-.04.36-.08.71-.11,1.06h-.06c.26,1.17.51,2.34.75,3.5.14.01.28.03.42.04.24-.13.51-.31.81-.5l1.09-.06c-.1.31-.19.87-.3.86-.34-.02-.67-.1-.99-.22-.11.08-.24.18-.37.28-.13.22-.28.43-.45.62.2.99.4,1.99.59,2.98.13.04.23.08.23.13-.02.2-.05.4-.1.59.06.32.12.63.18.95l.17-.03c.02.36.04.71.07,1.08-.01,0-.03,0-.05,0,.26,1.45.51,2.89.75,4.34l1.67-.29c.45.32.73.52.9.64-.1-.07-.21-.16-.32-.27-.19-.17-.14-.62-.2-.94.42-.08.86-.08,1.28.02.62.3,1.21.7,1.71,1.17.63.59,1.17,1.28,1.74,1.93-.77-.19-1.53-.36-2.28-.58-.21-.1-.41-.23-.57-.39h.02c-2.46-1.24-3.33-1.36-3.95-1.29,1.64,9.89,2.75,19.82,3.34,29.76.05.09.1.18.14.27l-.12.02c.55,9.42.64,18.84.26,28.23.31.1.87.19.86.3-.04.39-.12.78-.27,1.15l-.18-.13c.07.17.16.36.27.57h.02s.43-.08.43-.08l.07,1.08c-.19.06-.4.09-.6.11-.02,0-.03,0-.03,0-.14-.34-.26-.67-.35-1.02l.21-.03c-.09-.23-.21-.51-.38-.86-.02-.36-.04-.71-.06-1.07-1.44,36.11-9.67,71.72-24.23,104.83l-23.07,59.71h46.25c18.75-36.69,31.88-85.3,31.88-85.3,4.07-14.36,7.16-28.98,9.27-43.75h0Zm.02-65.51c.22-.03.57-.18.65-.09.22.28.4.6.54.92l-.72.13-.47-.95h0Zm-29.33-123.21c.33.67.54,1.41.61,2.16,0,.04-.22.12-.51.21h0c-.3.07-.64.17-.9.24-.1-.44-.2-.89-.3-1.34s-.21-.91-.31-1.37c.59.03,1.31-.09,1.41.1Zm-24.4-30.87s.06.06.06.09c.05.13.05.39.07.55h-.02c-.35-.02-.7-.08-1.03-.18-.12-.05-.09-.42-.13-.64.36.02.71.08,1.05.18Zm1.15,8.19h-.01s-2.47-5.2-2.47-5.2c1.64-.43,3.14-.65,4.66.68.09.09.19.17.27.25.31-.16.63-.33.98-.55,1.07.59,1.74.94,2.35,1.34.05.04.08.06.15.09.06.04-.2.57-.31.88-.54-.2-1.06-.44-1.58-.71-1.45.93-2.8,2.01-4.03,3.21Zm-8.83,47.6l-.13-.71s0,0-.01,0h.01s0,0,0,0c.18.02.35.04.53.06.19.02.36.06.52.12.12.05.09.42.13.64l-1.06-.11Zm5.74-6.97l-.38.07-.34.06c.03-.09.03-.18.03-.27h0c.01-.26.07-.53.16-.78.05-.12.42-.09.64-.13-.04.36-.08.71-.11,1.06Zm-5.91,260.3c-.03-.13-.05-.25-.07-.38-.02-.12-.04-.23-.06-.34.19.02.37.04.54.06h-.01c.19.03.36.07.52.13.12.05.09.42.13.64l-1.06-.11Zm9.23,13.19s-.06.06-.09.06c-.13.05-.39.05-.55.07.03-.27.05-.55.1-.81.01-.09.04-.17.08-.25.05-.12.42-.09.64-.13-.02.36-.08.71-.18,1.05Zm-.02-35.27c-.34-.15-.66-.34-.97-.55.41-.53.85-1.04,1.32-1.52,0,0,0,0,0,0h.01s0,0,0,0c.26.13.52.31.74.51-.3.56-.66,1.08-1.08,1.56Zm1.38-18.36c-.09-.02-.17-.04-.25-.08-.12-.05-.09-.42-.13-.64.36.02.71.08,1.05.18.03.02.06.09.06.09.05.13.05.39.07.55-.27-.03-.55-.05-.81-.1Zm1.98-7.24c-.22-.28-.4-.6-.54-.92l.72-.13h0s.47.96.47.96c-.22.03-.57.18-.65.09Zm.97,6.09s-.03,0-.03,0c-.14-.34-.25-.67-.35-1.02l.21-.03c-.09-.23-.21-.51-.38-.86-.02-.36-.04-.72-.06-1.09.31.1.87.19.86.3-.03.39-.11.78-.26,1.15l-.18-.13c.07.17.16.36.27.57h.01s.43-.08.43-.08c.02.36.04.71.07,1.08-.19.06-.4.09-.6.11Zm3.67-25.02c.03.14.05.29.08.43l-1.08.08c-.06-.19-.09-.4-.11-.6,0-.02,0-.03,0-.03.34-.14.67-.26,1.02-.35,0,.07.03.14.03.21.23-.09.51-.21.86-.38h0s1.09-.06,1.09-.06c-.1.31-.19.87-.3.86-.39-.03-.78-.11-1.15-.26l.13-.18c-.17.07-.36.16-.57.27Zm1.95,41.6h0s.47.96.47.96c-.22.03-.57.18-.65.09-.22-.28-.4-.6-.54-.92l.72-.13Zm-.03,13.51c-.21-.28-.39-.59-.53-.91h0s0-.01,0-.01c0,0,0,0,0,.01l.71-.13.47.95c-.22.03-.57.18-.65.09Zm2.48-69.04s-.09.06-.09.06c-.13.05-.39.04-.55.07.03-.27.05-.55.1-.81.02-.09.04-.17.08-.25.05-.12.42-.09.64-.13-.02.36-.08.71-.18,1.05Zm39.21-96.24h0c.36.03.71.09,1.05.19.12.05.09.42.13.64l-1.06-.11-.13-.71s0,0,0,0h0Zm-.92,7.58c.11.04.19.07.19.12-.03.39-.11.78-.26,1.15l-.18-.13c.07.17.16.36.27.57l.43-.08c.02.35.04.71.07,1.08-.19.06-.4.09-.6.11-.02,0-.03,0-.03,0-.14-.34-.26-.67-.35-1.02l.21-.04c-.09-.25-.21-.51-.38-.86h.02s-.06-1.09-.06-1.09c.08.03.16.05.26.08l.14.04c.1.03.18.05.26.08Zm.75,20.53c-.22.03-.57.18-.65.09-.21-.28-.39-.59-.53-.91h0s0-.01,0-.01c0,0,0,0,0,.01l.71-.13.47.95Zm-1.79-28.97h0c-.15-.32-.31-.64-.47-.96.22-.03.57-.18.65-.09.22.28.4.6.54.92l-.72.13Zm-.24,23.56c-.28.22-.6.4-.92.54l-.13-.72h.01s.95-.47.95-.47c.03.22.18.57.09.65Zm.93-41.36c-.22.03-.57.18-.65.09-.21-.28-.4-.59-.53-.91h0s0-.01,0-.01c0,0,0,0,0,.01l.71-.13.47.95Zm-3.89-4.28c.33-.14.67-.25,1.02-.35,0,.07.03.14.03.21.24-.09.51-.21.86-.38v.02s1.09-.06,1.09-.06c-.1.31-.19.87-.3.86-.39-.04-.78-.12-1.15-.27l.13-.18c-.17.07-.36.16-.57.27l.08.43-1.08.07c-.06-.19-.09-.4-.11-.6,0-.02,0-.03,0-.03Zm.42,34.03c-.13.05-.39.04-.55.07.03-.27.05-.55.1-.81.02-.09.04-.17.08-.25.02-.06.14-.08.26-.1s.27-.02.39-.04c-.02.19-.04.37-.06.55-.02.19-.06.36-.12.52h0s-.06.05-.09.05Zm-6.65,34.17c-.09-.02-.17-.04-.25-.08-.12-.05-.09-.42-.13-.64.36.02.71.08,1.05.18.03.02.06.06.06.09.05.13.05.39.07.55-.27-.03-.55-.05-.81-.1Zm1.31,14.55h0s0,.01,0,.01c0,0,0,0,0-.01l-.71.13-.47-.95c.22-.03.57-.18.65-.09.21.28.39.59.53.91Zm-7.31,29.17l-1.03.02-1.35-1.89c.72.02,1.45.16,2.14.4.14.07.27.17.37.27.34.33.61.81.93,1.18l-1.07.02h.01Zm-8.65-83.59l.24,1.42-.31.03-1.35.11c-.21-.61-.34-1.25-.37-1.9,0-.07.02-.14.03-.21.11-.42.98-.64,1.51-.96.04.26.1.54.14.81h-.01s-.02,0-.02,0c.04.23.08.46.14.7-.03-.23-.07-.46-.11-.69.13-.14.26-.27.41-.43l2.01-.36c-.51.1-1.03.19-2.31,1.48h0Zm-2.6,9.35c.03.14.05.29.08.43l-1.08.08c-.06-.19-.09-.4-.11-.6,0-.02,0-.03,0-.03.34-.14.67-.25,1.02-.35,0,.07.03.14.03.21.23-.09.51-.21.86-.38l1.09-.06c-.1.31-.19.87-.3.86h0c-.39-.03-.78-.11-1.15-.26l.13-.18c-.17.07-.36.16-.57.27Zm.17,6.11c-.27-.03-.55-.05-.81-.1-.09-.01-.17-.04-.25-.08-.12-.05-.09-.42-.13-.64.36.02.71.08,1.05.18.12.05.09.42.13.64Zm-1.84,7.24c-.28.22-.6.4-.92.54l-.13-.72.95-.47c.03.22.18.57.09.65h.01Zm-2.9,47.34c-.22.03-.57.18-.65.09-.22-.28-.4-.6-.54-.92l.72-.13h0s.47.96.47.96Zm-.19,8.33c.12-.03.23-.04.27,0,.22.28.4.6.54.92l-.72.13-.47-.95c.11-.03.26-.08.38-.1Zm.73-78.13c-.34-.15-.66-.34-.97-.55.41-.53.85-1.04,1.32-1.53.27.13.52.31.74.52h-.01c-.3.56-.66,1.07-1.08,1.56Zm-1.2,35.99c.05-.12.42-.09.64-.13h.01c-.04.36-.08.71-.11,1.06l-.72.13c.02-.36.08-.71.18-1.05Zm-.06-45.12c.02-.36.08-.71.18-1.05.05-.12.42-.09.64-.13h.01c-.04.36-.08.71-.11,1.06l-.72.13Zm1.55-6l.13-.18c-.17.07-.36.16-.57.27.03.14.05.29.08.43h-.01s-1.08.08-1.08.08c-.05-.19-.08-.4-.1-.6,0-.02,0-.03,0-.03.33-.14.67-.25,1.02-.35,0,.07.03.14.03.21.25-.09.51-.21.86-.38l1.09-.06c-.1.31-.19.87-.3.86-.39-.03-.78-.11-1.15-.26Zm-3.3-17.85h0,0l-.69-1.7,3.09-.19c-.11.41-.08,1.06-.34,1.2-.66.3-1.35.53-2.06.68h0Zm-3.81-7.01c.51-.11,1.04-.12,1.55-.03h.01c.31.12.47.68.71,1.04l-1.16.72-1.1-1.74Zm.75,15.57c-.04.39-.12.78-.27,1.15l-.05-.04-.49-.33c-.02-.36-.04-.72-.06-1.09h.01c.3.1.87.19.86.3Zm-1.55-12.64l-.72.13c.02-.36.08-.71.18-1.05.05-.12.42-.09.64-.13-.04.36-.08.71-.11,1.06h.01Zm-.66-5.38c-.03-.13-.05-.25-.07-.38-.02-.12-.04-.23-.06-.34.09.02.18.03.27.03.26.01.52.06.78.15.12.05.09.42.13.64l-1.06-.1Zm-.47-8.58c.04-.36.08-.71.11-1.06l.72-.13c-.02.36-.08.71-.18,1.05h-.01c-.05.12-.42.09-.64.13Zm1.36-3.37l-1.95-.19c.16-1.58.31-3.16.46-4.73.62.24,1.79.44,1.8.71l-.02-.03c.02.22.01.45,0,.67.3-.19.66-.45,1.06-.78l1.09-.06c-.1.31-.19.87-.3.86-.28,0-.56-.06-.81-.16-.28.26-.61.6-1.06,1.08-.06.87-.17,1.76-.25,2.64Zm-10.54-13.14l-1.08.08c-.06-.2-.09-.4-.11-.6,0-.01,0-.03,0-.03.29-.13.59-.24.89-.31.93-1.21,1.6-2.59,1.96-4.06.72.76,2.57.98,1.68,2.51h0c-.57.96-.89,3.05-2.98,1.88-.17.05-.31.07-.44.1.03.14.05.29.08.43Zm1.52-8.56c.08-.64.24-1.26.48-1.86.16-.3.77-.35,1.17-.51h0c-.08.64-.17,1.28-.24,1.82l-1.42.56Zm.1,11.97c.2-.28.51-.63.8-.65.9-.08,1.81-.07,2.7.05.26.06.49.2.68.38.28-.03.56-.07.87-.12l1.09-.06c-.1.3-.19.87-.3.86h-.01c-.39-.05-.78-.14-1.15-.28l.26-.36-.55.14c.09.09.19.17.28.25.01.01-.24.53-.4.54-1.33.14-2.67.22-3.85.3-.17-.33-.31-.66-.42-1.01,0-.01,0-.03,0-.04Zm5.96-10.89c.2,0,.39.75.59,1.16l-3.18.7c.18.24.39.52.64.85l.66-.11c.02.36.04.71.07,1.08-.19.05-.4.09-.6.1-.02,0-.03,0-.03,0-.14-.34-.26-.68-.35-1.03h.04c-.13-.23-.3-.51-.54-.86l-1.03-1.59c1.24-.11,2.48-.27,3.73-.26v-.02Zm-.24,21.19c.15.32.53.79.43.96-.42.55-.88,1.08-1.39,1.55h0c-.24-.57-.6-1.07-.49-1.21.45-.47.93-.91,1.45-1.3Zm.22,4.36c.02-.09.04-.17.08-.25.05-.12.42-.09.64-.13-.02.36-.08.71-.18,1.05-.02.03-.09.06-.09.06-.13.05-.39.04-.55.07.03-.27.05-.55.1-.81Zm-1.44-18.99l.04.26-1.08.07c-.06-.2-.09-.4-.11-.6,0-.01,0-.03,0-.03.33-.14.67-.25,1.02-.35.04.16.06.31.09.46.13-.03.28-.05.44-.1h-.01c1.03-.15,1.94-.72,2.53-1.58l1.78-.55c-.12.61-.3,1.2-.56,1.77-.17.28-.76.28-1.16.41,0-.32-.01-.64-.02-.98-.16.17-.33.36-.53.59-.83.14-1.64.35-2.43.62Zm4.27,6.83c-.36-.02-.71-.08-1.05-.18-.12-.05-.09-.42-.13-.64h0s1.06.1,1.06.1c.05.28.09.5.13.72Zm-1.35-4.81c.19.02.36.06.52.12h-.01c.12.06.09.43.13.65l-1.06-.11c-.03-.13-.05-.25-.07-.38l-.06-.34c.19.02.36.04.54.06Zm3.55,1.61l.24.15c.19.12.36.26.52.42.46.61.88,1.26,1.27,1.92-.7-.22-1.39-.48-2.06-.79-.11-.05-.19-.12-.25-.21-.13-.24-.17-.5-.13-.77,0-.16.04-.33.04-.49-.13-.24-.29-.51-.5-.81-.02-.36-.04-.72-.06-1.09.3.1.87.19.86.3h-.01c0,.1,0,.19-.01.28-.05.24-.12.48-.2.7.08.11.18.24.28.37Zm8.22-22.08h-.02s0,0,0-.01l-.03-.02-.14-.09c.07.17.16.36.27.57l.43-.08c.02.36.04.71.07,1.08-.19.06-.4.09-.6.11-.02,0-.03,0-.03,0-.14-.34-.25-.67-.35-1.02l.21-.03c-.09-.24-.21-.51-.38-.86-.02-.36-.04-.72-.06-1.09.3.1.87.19.86.3-.01.3-.07.59-.18.87-.03.09-.06.18-.08.27h.02Zm.43,12.46v-.02c-2.62-2.01.75-3.83-.23-5.6h0s0,0,0,0c0-.01-.01-.03-.02-.04,0,0,.01,0,.02.01-.05-.76-.1-1.52-.15-2.28l1.81-.07-1.64,2.36c.57.41,1.35,1.24,1.66,1.09,1.99-.93,2.1.63,2.61,1.62.51-.4.97-.86,1.38-1.36l2.19-1.06c-.24.82-.57,1.62-.98,2.36-.33.48-1.03.69-1.57,1.01.06-.45.13-.89.21-1.38-.23.28-.49.6-.77.98-.78.05-1.55.1-2.33.14-.43.02-.86.03-1.28.04l2.09,4.76c.83.85.52,3.93-.52,4.14-.49.1-1.15-.73-1.73-1.13-.23.39-.48.76-.78,1.09-.61.46-1.26.88-1.92,1.27.22-.69.48-1.38.79-2.04.05-.1.12-.19.21-.25.22-.12.47-.16.72-.13,1.08-1.87.51-2.24-.52-2.12-.17.03-.33.05-.51.1-.6.14-1.07.78-1.6,1.2.06-1.27.09-2.55.24-3.81.49-.17,1.01-.19,1.5-.06,1.12.49,2.23.02,1.14-.82Zm4.58-7.54c.15-.16.3-.33.43-.49h0s1.09-.07,1.09-.07c-.1.31-.19.87-.3.86-.39-.03-.78-.11-1.15-.26-1.34,1.7-2.18-.01-3.2-.47,1.3-1.67,2.14-.05,3.13.43Zm-2.28-3.17c.26-.65.6-1.25.97-1.84.13-.16.7.04,1.06.07-.18.63-.43,1.23-.72,1.81-.08.15-.69-.01-1.31-.04Zm10.04,31.95c.99-.09,2.06.87,1.12,2.29l-.02.02.44,1.48-1.26-.3c-.21.42-.49.81-.83,1.13-.47.23-.97.39-1.48.48.07-.43.18-.86.33-1.27.24-.42.5-.81.8-1.18-1.45-1.49-.62-2.53.9-2.65Zm-1.13-7.17c.09.03.18.03.27.03.26.01.53.07.78.16.12.05.09.41.13.63h0s0,.01,0,.01c0,0,0,0,0-.01l-1.06-.1c-.03-.13-.05-.25-.07-.38-.02-.12-.04-.23-.06-.34Zm3.67,14.55l-.72.13h0s-.47-.96-.47-.96c.22-.03.57-.18.65-.09.22.28.4.6.54.92Zm-.16-12.45c.36.02.71.08,1.05.18.03.02.06.06.06.09.05.13.04.39.07.55l-1.06-.11h0s-.13-.71-.13-.71Zm1.81,10.04s0,0,0-.01c-.36-.02-.71-.08-1.05-.18-.12-.05-.09-.42-.13-.64l1.06.11c.05.26.09.49.13.71,0,0,0,0,0,0h0Zm1.12,17.8c-.1.42-.05,1.01-.31,1.22-.45.25-.94.43-1.46.51.08-.41.18-.83.43-2.01l1.33.27Zm-.64,8.31c.06.04-.2.57-.31.88-.59-.21-1.17-.48-1.73-.79-.08-.06-.13-.19-.18-.38-.24.05-.51.13-.81.24.02.1.03.21.05.31v.04s-1.09.07-1.09.07c-.06-.2-.09-.4-.11-.61,0-.02,0-.03,0-.03.17-.08.34-.15.51-.2l.09-.03c.39-.29.75-.6,1.08-.94,1.15.63,1.85,1,2.5,1.43Zm-2.14,16.8c-.36-.02-.71-.08-1.05-.18-.12-.05-.09-.42-.13-.64.36.02.71.08,1.05.18.03.02.06.09.06.09.05.13.04.39.07.55Zm-3.91,82.82h-.01s0,0,0,0c-.02-.11-.03-.22-.06-.34-.03-.12-.04-.24-.07-.38l.95-.47c.03.22.18.57.09.65-.28.21-.59.39-.91.53,0,0,0,0,0,0Zm-1.09-81.88c-.02-.36-.04-.72-.06-1.09.31.1.87.19.86.3-.01.3-.07.59-.18.87-.04.1-.06.19-.09.29l.44,1.48h0,0l-1.26-.3.69-1c-.11-.17-.25-.35-.4-.56Zm.95,48.98c.19.02.36.06.52.12.12.05.09.42.13.64h-.01c-.27-.04-.55-.05-.81-.1-.09-.02-.17-.04-.25-.08-.09-.04-.1-.26-.11-.45,0-.07-.02-.13-.02-.19.19.02.37.04.54.06Zm-.37,15.48h-.02c.19.02.36.06.52.12.03.02.06.06.06.09.05.13.05.39.07.55-.27-.03-.55-.05-.81-.1-.09-.02-.17-.04-.25-.08s-.09-.26-.1-.45c0-.07-.02-.12-.02-.19.19.02.37.04.54.06Zm1.34-6.94h0c-.03-.13-.05-.25-.07-.38-.02-.12-.04-.23-.06-.34.09.03.18.03.27.03.26.01.53.07.78.16.12.05.09.42.13.64l-1.06-.11Zm.26-4.26c-.28.22-.6.4-.92.54l-.13-.72.95-.47h.01c.03.22.18.57.09.65Zm-1.02-17.41h0c-.03-.13-.05-.25-.07-.38l-.06-.34c.09.03.18.03.27.03.26.02.52.07.78.16.12.05.09.42.13.64l-1.06-.11Zm.38-41.54c-.17.05-.31.07-.44.1.03.14.05.29.08.43l-1.08.07c-.06-.2-.09-.4-.11-.6v-.03c.34-.14.67-.25,1.03-.35l.07.36c.43-.26.81-.59,1.14-.98-.1-.17-.23-.35-.39-.55-.02-.36-.04-.72-.06-1.09.31.1.87.19.86.3h-.01c-.04.39-.12.78-.27,1.15-.03.07-.08.12-.12.17v.02s.13-.19.13-.19l.44,1.48-1.26-.3Zm1.13-22.96h0c-.39-.03-.78-.11-1.15-.26l.13-.18c-.17.07-.36.16-.57.27.03.14.05.29.08.43l-1.08.08c-.06-.19-.09-.4-.11-.6v-.03c.34-.14.67-.25,1.03-.35,0,.07.03.14.03.21.25-.09.51-.21.86-.38l1.09-.06c-.1.31-.19.87-.3.86h0Zm-1.4-4.47l.72-.13.47.95h0c-.22.04-.57.19-.65.1-.22-.28-.4-.6-.54-.92Zm-.76-17.55l-.47-.95h0c.22-.04.57-.19.65-.1.22.28.4.6.54.92l-.72.13Zm.9,13.35c.32-.02.68-.07,1.11-.12v-.02s1.09-.06,1.09-.06c-.1.31-.19.87-.3.86-.39-.03-.78-.11-1.15-.26l.23-.34c-.19.06-.42.13-.7.22.03.2.04.47.08.67l-1.72-.12-.65-1.31c.67.15,1.36.27,2.01.49Zm-2.61,58.26l.72-.13c-.02.36-.08.71-.18,1.05-.05.12-.42.09-.64.13h-.01c.04-.36.08-.71.11-1.06Zm-.19-3.08s-.05.05-.09.06c-.13.05-.39.04-.55.07.02-.36.08-.71.18-1.05.05-.12.42-.09.64-.13-.02.36-.08.71-.18,1.05Zm-2.16-8.25l.95-.47c.03.22.18.57.09.65-.14.13-.28.22-.44.3s-.32.15-.48.24c-.02-.11-.04-.22-.06-.34h.01c-.03-.12-.04-.24-.07-.38Zm.61-22.14l.13-.18c-.17.07-.36.16-.57.27.03.14.05.29.08.43l-1.08.08c-.06-.19-.09-.4-.11-.6,0-.02,0-.03,0-.03.34-.14.67-.26,1.02-.35,0,.07.03.14.03.21.23-.09.51-.21.86-.38l1.09-.06c-.1.31-.19.87-.3.86h0,0c-.39-.03-.78-.11-1.15-.26Zm-5.57,5.56h0c.03.15.05.3.08.44l-1.08.08c-.06-.19-.09-.4-.11-.6,0-.02,0-.03,0-.03.33-.14.67-.25,1.02-.35,0,.07.03.14.03.21.23-.09.51-.21.86-.38l1.09-.06c-.1.31-.19.87-.3.86-.39-.04-.78-.12-1.15-.27l.13-.18c-.17.07-.36.16-.57.27Zm-2.57-13.96c.63-.29,1.26-.53,1.92-.75-.02-.18-.06-.35-.09-.55-.02-.36-.04-.72-.06-1.09.31.1.87.19.86.3-.04.39-.12.78-.27,1.15l-.08-.06.08.15h.02c.19-.02.54.95,1.08,1.96-.72.19-1.45.33-2.19.41-.12.03-.25.01-.37-.02v-.02c-.39-.09-.6-.96-.89-1.48Zm-4.11-34.67l-1.08.08c-.06-.2-.09-.4-.11-.6,0-.01,0-.03,0-.03.33-.14.67-.25,1.02-.35l.09.46c.13-.03.28-.05.44-.1h.01s2.31-.16,2.31-.16c.02.6.04,1.21.07,1.81l-2.15-1.49c-.19.05-.4.1-.63.16,0,.07.03.14.03.21Zm-1.03,2.32l.22.35.5.8-1.74,1.1c-.11-.51-.12-1.04-.03-1.55h.01c.08-.17.24-.31.42-.39.19-.11.43-.21.61-.32Zm1.21,15.36c.31.1.87.19.86.3-.03.39-.11.78-.26,1.15l-.46-.32c.04.28.1.63.18,1.08.27-.13.58-.24.84-.38-.16.82-.33,1.65-.49,2.45l-1.8,1.1c.25-.95.58-1.89.97-2.79h.01c.04-.05.08-.11.14-.15.02-.39.04-.84.06-1.37-.02-.36-.04-.72-.06-1.09Zm.77-3.79c-.01-.21.67-.45,1.03-.69.31.97.63,1.95.95,2.98,0,0,0,0,0,0h0s0,0,0,0c-.6-.04-1.31.07-1.41-.12-.33-.68-.51-1.42-.57-2.17Zm-.33-7.19c-.17.05-.31.07-.44.1l.08.43-1.08.08c-.06-.2-.09-.4-.11-.6v-.03c.18-.09.37-.16.56-.21h0c1.23-2.26,1.45-2.36,3.47-3.33.8,2.33-.02,3.5-2.48,3.56Zm2.65-10.99c.72-.39,1.5-.64,2.31-.74.84.21,1.65.56,2.38,1.04.12-.17.24-.37.39-.61.01-.03.05-.07.05-.07h.01c.24-.37.52-.83.88-1.4l1.83-.89c-.06,1.29-.1,2.57-.26,3.84-.57.08-1.15.04-1.71-.1-.83-.31-1.03-.64-.96-.99-.06.08-.12.15-.18.23-.27.39-.55.8-.82,1.19,1.45,1.49.62,2.53-.9,2.65-.99.09-2.06-.87-1.12-2.29l-1.9-1.87Zm7.97,26.26h0s0,0,0,0c.45-.47.93-.91,1.45-1.3.15.32.53.79.43.96-.42.55-.88,1.08-1.39,1.55-.23-.57-.58-1.06-.49-1.21,0,0,0,0,0,0Zm.5-6.34c-.05.12-.42.09-.64.13h-.01c.04-.36.08-.71.11-1.06l.72-.13c-.02.36-.08.71-.18,1.05Zm-1.51-15.89c.05.13.04.39.07.55-.27-.03-.55-.05-.81-.1-.09-.02-.17-.04-.25-.08s-.09-.26-.1-.45c0-.07-.02-.13-.02-.19.19.02.36.04.54.06.19.02.36.06.52.12h-.02s.05.05.06.09Zm-2.98,6.29h-.01s.01,0,.01,0c.02-.36.08-.71.18-1.05.05-.12.42-.09.64-.13-.04.36-.08.71-.11,1.06l-.71.13s0,0,0,0Zm.53,3.03l-.72.13c-.15-.31-.31-.63-.47-.95h0c.22-.04.57-.19.65-.1.22.28.4.6.54.92Zm-2.52-2c-.28.22-.6.4-.92.54-.04-.22-.08-.45-.13-.72l.95-.47h.01c.03.22.18.57.09.65Zm-.03,3.53c.27.13.52.31.74.52-.3.56-.66,1.08-1.08,1.56h-.01c-.34-.15-.66-.34-.97-.55.41-.53.85-1.04,1.32-1.53Zm.4,6.71h.01c.31.11.47.68.71,1.04l-1.16.72-1.1-1.74c.51-.11,1.04-.12,1.55-.03Zm-1.44,12.16h0s0,0,0,0c.45-.47.93-.91,1.45-1.3.15.32.53.79.43.96-.41.55-.88,1.08-1.39,1.55-.23-.57-.58-1.06-.49-1.21h0Zm3.26-4.72c.09.01.18.03.27.03.26.01.52.06.78.15.03.02.06.06.06.09.05.13.04.39.07.55h0c-.27-.03-.55-.05-.81-.1-.09-.01-.17-.04-.25-.08-.06-.03-.08-.14-.1-.26-.02-.12-.02-.27-.04-.39Zm.63,13.38l-.47-.95c.22-.03.57-.18.65-.09.21.28.39.59.53.91h0s0,.01,0,.01c0,0,0,0,0-.01l-.71.13Zm.09-20.88c-.55-.42-1.08-.88-1.55-1.39.57-.24,1.06-.58,1.21-.49,0,0,0,0,0,0h.01s0,0-.01,0c.47.45.91.93,1.3,1.45-.32.15-.79.53-.96.43Zm.91-6.32c.03-.27.05-.55.1-.81h.01c.01-.09.04-.17.08-.25.05-.12.42-.09.64-.13-.04.36-.08.71-.11,1.06l-.38.07-.34.06Zm1.9,17.17c.28.17.28.76.41,1.16l-1.03.03c.18.22.38.45.62.72v-.19c.4.23.76.48,1.1.78.46.61.88,1.26,1.27,1.92-.69-.23-1.38-.49-2.04-.79-.1-.05-.19-.12-.25-.21-.13-.25-.17-.52-.13-.79-.26-.35-.62-.82-1.15-1.42h-.01c-.23-.73-.39-1.26-.55-1.78.61.12,1.2.3,1.77.56Zm2.3,18.69l.92.2.4.08c-.04.21-.05.46-.09.69h.01c0,.19-.08.38-.22.53-.45.25-.94.43-1.46.51.08-.41.18-.84.43-2.01Zm1.2-9.8l-.72.13c.02-.36.08-.71.18-1.05.05-.12.42-.09.64-.13-.04.36-.08.71-.11,1.06h.01Zm-1.38-11.2c-.11-.51-.12-1.04-.03-1.55h0c.12-.32.68-.48,1.04-.72.3.48.59.96.72,1.16l-1.74,1.1Zm.92-24.1c-.21-.28-.39-.59-.53-.91h0s0,0,0,0c0,0,0,0,0,0l.71-.13.47.95c-.22.03-.57.18-.65.09Zm.01,6.53l-1.74,1.1c-.11-.51-.12-1.04-.03-1.55h0c.12-.32.68-.48,1.04-.72l.72,1.16Zm-2.48-22.1c-.14.05-.3.11-.48.17l.05.31-1.08.08c-.06-.2-.09-.4-.11-.6,0-.01,0-.03,0-.03.34-.14.67-.25,1.02-.35.04.16.06.31.09.46.13-.03.28-.05.44-.1h.01s1.48-.42,1.48-.42c-.1.42-.19.83-.3,1.26l-1.12-.79Zm-9.13-10.05c-.39-.04-.78-.12-1.15-.27l.13-.18c-.17.07-.36.16-.57.27l.08.43v.02s-1.08.07-1.08.07c-.06-.19-.09-.4-.11-.6,0-.02,0-.03,0-.03.34-.14.67-.25,1.02-.35,0,.07.03.14.03.21.23-.09.51-.21.86-.38l1.09-.06c-.1.3-.19.87-.3.86Zm-1.93-7.33l-1.08.07c-.06-.2-.09-.4-.11-.6,0-.01,0-.03,0-.03.33-.14.67-.26,1.02-.35.04.16.06.31.09.46l.13-.03-.12.06h0s.07.41.07.41Zm-.93,23.79l.13.72c-.36-.02-.71-.08-1.05-.18h0c-.12-.06-.09-.43-.13-.65l1.06.11Zm-1.24-3.22c-.21-.28-.39-.59-.53-.91h0s0,0,0,0c0,0,0,0,0,0l.71-.13.47.95c-.22.03-.57.18-.65.09Zm-3.24,23.17h0c.26.02.52.07.78.16.12.05.09.42.13.64l-1.06-.11-.07-.38-.06-.34c.09.03.18.03.27.03Zm2.55,15.41c.12.05.09.42.13.64-.36-.02-.71-.08-1.05-.18-.12-.05-.09-.42-.13-.64.36.02.71.08,1.05.18Zm-.2-12.8c.04-.36.08-.71.11-1.06l.38-.07h0l.34-.06c-.03.09-.03.18-.03.27-.02.26-.07.52-.16.78-.05.12-.42.09-.64.13Zm.49-3.18c.04-.36.08-.71.11-1.06h-.01s.72-.13.72-.13c-.02.36-.08.71-.18,1.05-.05.12-.42.09-.64.13Zm4.12,18.84c.28.17.28.76.41,1.16l-1.23.03c.19.28.42.61.72,1.01l.65-.11c.02.35.04.71.07,1.08-.2.06-.4.1-.61.11-.02,0-.03,0-.03,0h.02c-.12-.26-.22-.52-.28-.79-.29-.45-.61-.87-.94-1.28l-.55-1.77c.61.12,1.2.3,1.77.56Zm-.44,7.48c.22-.03.57-.18.65-.09.22.28.4.6.54.92l-.72.13-.47-.95h0Zm2.12,26c.21.28.39.59.53.91h0s0,0,0,0c0,0,0,0,0,0l-.71.13-.47-.95c.22-.03.57-.18.65-.09Zm.4-23.1c-.06-.19-.09-.4-.11-.6,0-.02,0-.03,0-.03.33-.14.67-.25,1.02-.35,0,.07.03.14.03.21.23-.09.51-.21.86-.38l1.09-.06c-.1.3-.19.87-.3.86-.39-.04-.78-.12-1.15-.27l.13-.18c-.17.07-.36.16-.57.27.03.14.05.29.08.43h0s-1.08.09-1.08.09Zm3.62,25.5l-.13-.72.95-.47h.01c.03.22.18.57.09.65-.28.22-.6.4-.92.54Zm6.47.99h.01c-.23.63-.29,1.41-.72,1.82-.74.57-1.54,1.06-2.38,1.46l-.8-1.79,3.89-1.48Zm-2.55,7.49c.26.01.52.06.78.15.12.05.09.42.13.64l-1.06-.1c-.03-.13-.05-.25-.07-.38-.02-.12-.04-.23-.06-.34.09.01.18.03.27.03Zm1.06,23.58c.26.01.53.07.78.16.12.05.09.42.13.64l-1.06-.11-.07-.38-.06-.34c.09.03.18.03.27.03Zm.48-4.48c-.16.08-.32.15-.48.24l-.06-.34h.01s-.07-.38-.07-.38l.95-.47c.03.22.18.57.09.65-.14.12-.28.22-.44.3Zm.46-6.17h0c.08-.64.17-1.27.24-1.82l1.42-.56c-.08.64-.24,1.26-.48,1.86-.16.3-.77.35-1.17.52Zm.61,13.64c.02-.09.04-.17.08-.25.05-.12.42-.09.64-.13-.02.36-.08.71-.18,1.05-.05.12-.42.09-.64.13.03-.27.05-.55.1-.81Zm.94,32.15h0c.22.27.4.59.54.91l-.72.13-.47-.95c.22-.03.57-.18.65-.09Zm2.61-36.13c-.21-.28-.39-.59-.53-.91h0s0-.01,0-.01c0,0,0,0,0,.01l.71-.13c.15.31.31.63.47.95-.22.03-.57.18-.65.09Zm-.06-21.48l.95-.47h.01c.03.22.18.57.09.65-.28.22-.6.4-.92.54l-.13-.72Zm.62,8.89l.21-.03c-.1-.23-.21-.51-.38-.86-.02-.36-.04-.72-.06-1.09.31.1.87.19.86.3h.01c-.03.39-.11.78-.26,1.15l-.18-.13c.07.17.16.36.27.57l.43-.08c.02.36.04.71.07,1.08-.19.06-.4.09-.6.11-.02,0-.03,0-.03,0-.14-.32-.26-.67-.35-1.02Zm1.83-12.73l-1.06-.11-.13-.72c.36.02.71.08,1.05.18h0c.12.06.09.43.13.65Zm-.95,6.37c.22-.03.57-.18.65-.09h0c.22.27.4.59.54.91l-.72.13-.47-.95Zm.75-19.46c.02.19.02.42.06.58h.01s-.01,0-.01,0h0s-1.7-.12-1.7-.12c-.28-.56-.46-.94-.65-1.31.74.13,1.46.32,2.19.54.03.01.06.07.08.14.45-.17.84-.43,1.16-.79l.13-.19.44,1.48-1.26-.3-.45-.02Zm.68-2.62c.31.1.87.19.86.3h-.02c-.03.4-.11.79-.26,1.16-.04.06-.08.12-.13.18-.1-.17-.24-.35-.39-.55-.02-.36-.04-.72-.06-1.09Zm1.03,6.73c-.12-.05-.09-.42-.13-.64.36.02.71.08,1.05.18.03.02.06.06.06.09.05.13.05.39.07.55l-.02.02c-.26-.03-.55-.04-.78-.12-.09-.01-.17-.04-.25-.08Zm.12,6.58c-.27-.03-.55-.05-.81-.1-.09-.02-.17-.04-.25-.08-.12-.05-.09-.42-.13-.64.36.02.71.08,1.05.18.03.02.06.06.06.09.05.13.04.39.07.55Zm.72-25.01l-.2.12h0c-.63-1-.87-1.37-1.1-1.73.51-.11,1.04-.12,1.55-.03.17.08.31.24.39.42.11.2.21.44.32.62l-.95.59Zm1.73,15.59c.12.05.09.42.13.64l-1.06-.1-.07-.38-.06-.34c.09.02.18.03.27.03.26.01.52.06.78.15Zm-.71,13.28c-.04-.22-.09-.45-.13-.72l.95-.47h.01c.03.22.18.57.09.65-.28.22-.6.4-.92.54Zm.22-36.74l-.41-.77-.44-.84h0c.34-.03.68-.05,1.03-.03.09,0,.17.04.25.1.44.48.81,1.01,1.1,1.58l-1.52-.04Zm1.97,17.79c.63-1.15,1-1.85,1.43-2.5.04-.06.57.2.88.31h.03c-.21.58-.48,1.16-.79,1.72-.06.08-.19.13-.38.18.05.24.13.51.24.82l.31-.05c.02.35.04.71.07,1.08-.19.06-.4.09-.6.11-.02,0-.03,0-.03,0-.09-.19-.17-.39-.22-.59-.29-.39-.6-.75-.94-1.08Zm.49,16.3c-.27-.03-.55-.05-.81-.1-.09-.02-.17-.04-.25-.08-.12-.05-.09-.42-.13-.64.36.02.71.08,1.05.18.03.01.05.05.06.09.05.13.04.39.07.55Zm.77-24.62c-.04.39-.12.78-.27,1.15l-.18-.13c.07.17.16.36.27.57l.43-.08c.02.35.04.71.07,1.08-.19.06-.4.09-.6.11-.02,0-.03,0-.03,0-.14-.33-.25-.67-.35-1.02l.21-.03c-.1-.25-.21-.51-.38-.86h.02c-.02-.36-.04-.72-.06-1.09.31.1.87.19.86.3Zm-.14-6.67c.36.02.71.08,1.05.18.12.05.09.42.13.64-.27-.03-.55-.05-.81-.1-.09-.02-.17-.04-.25-.08-.12-.05-.09-.42-.13-.64Zm1.87,18.47c.21.28.39.59.53.91h0s0,0,0,0c0,0,0,0,0,0l-.71.13-.47-.95c.22-.03.57-.18.65-.09Zm-.69,13.64h0c.22.27.4.59.54.91l-.72.13-.47-.95c.22-.03.57-.18.65-.09Zm.15,4.49c.14-.13.28-.22.44-.3.16-.08.33-.16.48-.24.02.11.04.22.06.34l.07.38h-.01s-.95.47-.95.47c-.03-.22-.18-.57-.09-.65Zm-.2-6.91c.08-.41.18-.83.43-2.01l1.33.27c-.1.42-.05,1.01-.31,1.22-.45.25-.94.43-1.46.51Zm1.74-7.53c-.03-.13-.05-.25-.07-.38-.02-.12-.04-.23-.06-.34.09.01.18.03.27.03.26.01.52.06.78.15.03.02.06.06.06.09.05.13.05.39.07.55l-1.06-.1Zm.71-20.68s-.03,0-.03,0c-.14-.34-.26-.67-.35-1.02l.3-.05c-1.08-1.22-2.42-1.64-2.78-2.6-.15-.48-.12-.99.09-1.44-.18-.13-.35-.29-.49-.46h-.02c-.02-.36-.04-.73-.06-1.09.31.1.87.19.86.3-.03.39-.11.78-.26,1.15.09.14.22.26.36.37.67.41,1.41.69,1.93,1.08.58.42.91,1.03.44,2.22.05.17.07.31.1.44l.43-.08c.03.36.05.71.08,1.08-.2.06-.4.09-.6.11Zm-2.39-12c-.04.36-.08.71-.11,1.06l-.71.13s0,0,0,0h-.01s.01,0,.01,0c.02-.36.08-.71.18-1.05.05-.12.42-.09.64-.13Zm-1.44-3.67c.02-.09.04-.17.08-.25.05-.12.42-.09.64-.13-.02.36-.08.71-.18,1.05-.02.03-.06.06-.09.06-.13.05-.39.04-.55.07.03-.27.05-.55.1-.81Zm-.33,16.75s.06.06.06.09c.05.13.05.39.07.55-.27-.03-.55-.05-.81-.1-.09-.02-.17-.04-.25-.08-.12-.05-.09-.42-.13-.64.36.02.71.08,1.05.18Zm-.56-14.37c.12.05.09.42.13.64l-1.06-.11h-.01s-.07-.37-.07-.37c-.02-.12-.04-.23-.06-.34.19.02.37.04.55.06.19.02.36.06.52.12Zm-1.78-11.51l.71-.13s0,0,0,0h.01s-.01,0-.01,0c-.02.36-.08.71-.18,1.05-.05.12-.42.09-.64.13.04-.36.08-.71.11-1.06Zm-.3,5.62c.28-.22.6-.4.92-.54.04.22.08.45.13.72h-.01s-.95.47-.95.47c-.03-.22-.18-.57-.09-.65Zm-.2,4.86l-1.06-.11h0s-.13-.71-.13-.71c.36.02.71.08,1.05.18.12.05.09.42.13.64Zm-.33-31.09c.03.22.18.57.09.65h.01c-.28.22-.6.4-.92.54l-.13-.72.95-.47Zm-.09,11.12c-.32.15-.79.53-.96.43h-.01c-.55-.42-1.08-.88-1.55-1.39.58-.24,1.08-.6,1.22-.49.47.45.91.93,1.3,1.45Zm-1.52-8.47c.03.13.05.25.07.38s.04.23.06.34c-.19-.02-.37-.04-.55-.06h.01c-.19-.03-.36-.07-.52-.13-.03-.02-.06-.06-.06-.09-.05-.13-.04-.39-.07-.55l1.06.11Zm-1.1-6.01c-.1.42-.19.83-.3,1.26.05.77.1,1.54.16,2.31l-1.81.07-2.01.37c-.23.39-.48.76-.78,1.09-.61.46-1.26.88-1.92,1.27.22-.69.48-1.38.79-2.04.05-.1.12-.19.21-.25.33-.24.96-.1,1.5-.06.38-.35.73-.75,1.03-1.18-.51-.94-1.03-1.9-1.54-2.84-.23.39-.48.76-.78,1.09-.61.46-1.26.88-1.92,1.27.22-.69.48-1.38.79-2.04.05-.1.12-.19.21-.25v-.03c.34-.24.97-.1,1.52-.06.38-.35.72-.74,1.03-1.17l2.38,1.65,1.48-.44Zm-3.82-1.23l-2.73-3.66c1.55-1.82,2.58.02,3.44.73h0c1.36,1.13-.29,1.98-.71,2.94Zm1.23-7.4c-.1.3-.19.87-.3.86-.39-.04-.78-.12-1.15-.27l.13-.18c-.17.07-.36.16-.57.27l.08.43-1.08.07c-.06-.19-.09-.4-.11-.6,0,0,0,0,0,.02v-.02s0,0,0,0c0,0,0-.01,0-.01.33-.14.67-.25,1.02-.35l.03.21c.23-.09.51-.21.86-.38l1.09-.06Zm-2.38-7.7c.28-.21.59-.39.91-.53h0s.01,0,.01,0c0,0,0,0-.01,0l.13.71-.95.47c-.03-.22-.18-.57-.09-.65Zm-.68,2.2s.06.06.06.09c.05.13.04.39.07.55-.27-.03-.55-.05-.81-.1-.09-.02-.17-.04-.25-.08-.12-.05-.09-.42-.13-.64.36.02.71.08,1.05.18Zm-.9,9.27l-1.48.44h-.01c.11-.42.2-.83.3-1.26l1.19.82Zm-2.6-14.11c.09-.24.42-.39.74-.55.11-.05.2-.1.3-.16l.42.68h.01s.3.47.3.47l-1.74,1.1c-.11-.51-.12-1.03-.03-1.55Zm-7.58-7.01c-.05-.77-.1-1.53-.15-2.3h0l1.81-.07-1.65,2.37c2.08,1.02,4.75-1.63,6.51,1.05.29.54.4,1.16.29,1.77-.05.33-.64.56-.99.83-1.56-3.37-4.78-1.74-5.83-.69h-.01c-3.28,3.32-1.4-2.11-2.82-1.4-.11.03-.21.04-.31.06,1.58-.76,2.38-1.19,3.15-1.62Zm-1.81-12.93c.12.05.09.42.13.64h0s-1.06-.1-1.06-.1c-.05-.27-.09-.5-.13-.72.36.02.71.08,1.05.18Zm-.02,3.25c.12-.18.26-.35.4-.52l1.09-.06c-.1.3-.19.87-.3.86-.39-.04-.78-.12-1.15-.27-.05.04-.08.09-.13.15-.25.38-.46.77-.67,1.07-.03.08-.07.15-.12.21-.36.5-1.07.61-1.57.24h-.01c-.47-.25-.48-1.41-.7-2.16l3.17.46Zm-4.16,2.32h0c.12.06.09.43.13.65l-1.06-.11-.13-.72c.36.02.71.08,1.05.18Zm-6.72,3.08c.34-.14.67-.26,1.02-.35.03.12.04.24.07.36.88-.54,1.68-1.18,2.4-1.9-.34,2.28,2.86.99,2.95,2.91.04.25.16.49.34.67.3-.25.58-.51.85-.79l1.78-.55c-.12.61-.3,1.2-.56,1.77-.17.28-.76.28-1.16.41,0-.32-.01-.64-.02-.98-.16.17-.33.36-.53.59-.75.07-1.62.44-2.2.16h0c-1.18-.66-2.32-1.42-3.39-2.27-.17.05-.31.07-.44.1.03.14.05.29.08.43l-1.08.07c-.06-.2-.09-.4-.11-.6,0-.01,0-.03,0-.03Zm4.14,5.74c-.02-.36-.04-.72-.06-1.09.08.03.16.05.26.08l.14.04c.1.03.18.05.26.08.11.04.19.07.19.12-.03.39-.11.78-.26,1.15h0s.44,1.48.44,1.48l-1.26-.3c-.27.39-.55.8-.82,1.19l-.44-1.48h0s1.26.29,1.26.29l.69-1c-.11-.17-.25-.35-.4-.56Zm-7.78-5.42l.44,1.48h0s-1.26-.29-1.26-.29l.82-1.19Zm-.72,1.26l-.82,1.19c.92.46,1.6,1.88,2.94.72.5-.43,1.47-1.96,1.6-.29.17,2.18,2.91.04,2.5,1.82-.5,2.17-1.99,1.12-3.28.71-.27-.09-.71.43-1.09.67l4.74,3.3s0,0,0,0l.82-1.19,3.55,2.47.34-.5,1.09-.06h0c-.1.31-.19.87-.3.86-.39-.04-.77-.12-1.13-.27l-.38.56-.15.22-.12.17-.15.22c-.6-.05-1.2-.01-1.79.1.09.56-.27,1.1-.83,1.21-.57.1-1.13-.26-1.23-.83-.1-.57.26-1.13.83-1.23h-.01c-.04-.46-.17-.9-.37-1.3-.06-.14-.11-.28-.16-.42-.81.27-1.66.4-2.51.42-1.41,0-2.78-.48-3.89-1.35l1.65-2.37h0c-.85-1.27-3.77-.99-2.73-3.67.02,0,.04.02.06.03h0s-.44-1.49-.44-1.49l1.26.3Zm12.42,14.45l-1.06-.11-.13-.71h0s0-.01,0-.01h0c.36.03.71.09,1.05.19.12.05.09.42.13.64Zm-12.48-7.47l.28.19-1.48.44c.11-.42.2-.83.3-1.26l.33.22h-.01s.58.41.58.41Zm-1.5-2.09s0,0,0,.01c.3.1.86.19.85.3-.04.39-.12.77-.27,1.14l-.52-.36c-.02-.36-.04-.72-.06-1.07,0,0,0,0-.01,0h.01Zm.97,5.31c1.02.6,1.95,1.35,2.94,2v.03c4,2.61,4.45,2.51,7.77-1.63.18.13.55.32.53.38-.59,1.11-1.03,2.31-1.29,3.54.14,1.15.49,2.27,1.02,3.3.09.19.18.38.26.56l.34-.16,1.55,3.69c-.27.11-.55.18-.83.22-.04,0-.09,0-.13,0-1.3-.24-2.58-.55-3.84-.95-.29-.09-.57-1.1-.55-1.11.85-.44,1.73-.86,2.6-1.28-.84-.93-1.91-1.63-3.09-2.05-.23-.07-.44-.13-.67-.18-.57-.14-1.5-.27-1.77.04-2.98,3.48-1.16-2.14-2.64-1.37-.17.05-.31.07-.44.1l.08.43-1.08.07c-.06-.2-.09-.4-.11-.6,0-.01,0-.03,0-.03.2-.1.41-.18.62-.23,1.28-2.48-1.25-2.38-2.07-3.61-.21-.39-.38-.81-.51-1.23.45.02.98-.12,1.32.08Zm-1.44,2.74c.26.01.53.07.78.16.12.05.09.41.13.63h0s0,.01,0,.01c0,0,0,0,0-.01l-1.06-.1c-.03-.13-.05-.25-.07-.38-.02-.12-.04-.23-.06-.34.09.03.18.03.27.03Zm-.22,3.24c.19.02.36.06.52.12.12.05.09.42.13.64l-1.06-.11-.07-.38h-.01c-.02-.11-.04-.22-.06-.33.19.02.37.04.54.06Zm-2.5-19.45l1.26.3-.79,1.12c.05.14.11.3.17.48l.31-.05c.02.35.04.71.07,1.08-.2.06-.4.09-.6.11-.01,0-.03,0-.03,0-.14-.33-.26-.67-.35-1.02l.46-.09c-.03-.13-.05-.28-.1-.44l-.44-1.48h.02Zm.18,15.5h0c-.17.03-.38-.23-1.15-.77.37-.91.75-2.01,1.29-3.03.05-.09.12-.15.19-.19.32-.13.66-.24.99-.34-.05.64-.1,1.29-.16,1.94s-.12,1.3-.21,1.94c-.03.2-.61.38-.96.44Zm.33,10.87c.32-.47.66-.92,1.02-1.35.02-.04.06-.07.08-.12.36-.48,1.05-.58,1.53-.21h-.01c.47.26.48,1.41.7,2.16l-3.2-.47c-.05.67.12,1.49-.22,1.95-.32.42-1.17.45-1.95.7l-1.24-2.57,3.29-.09Zm-4.15,3.76c.58-.24,1.08-.6,1.22-.49h0c.25.2.47.43.68.68.21.25.41.51.62.76-.09.04-.18.1-.27.15-.28.17-.58.37-.7.29-.55-.42-1.08-.88-1.55-1.39Zm1.25,3.96c1.3.1,2.6.21,3.89.39h.01c.05.01.13,1.12-.03,1.2-.95.38-1.93.71-2.93.96l-.94-2.55Zm2.06,8.91s-.09.06-.09.06c-.13.05-.39.04-.55.07.02-.36.08-.71.18-1.05.05-.12.42-.09.64-.13-.02.36-.08.71-.18,1.05Zm2.34,1.99h0c-.3-.66-.53-1.35-.68-2.06l1.7-.69c.06,1.03.12,2.05.19,3.09-.41-.11-1.06-.08-1.2-.34Zm5.19,4.8l-.71.13s0,0,0,0h-.01s.01,0,.01,0c.02-.36.08-.71.18-1.05.05-.12.42-.09.64-.13-.04.36-.08.71-.11,1.06Zm.47-6.31h-.03c-.14-.34-.25-.67-.35-1.03l.34-.07c-.29-.51-.69-.94-1.17-1.27-.75.08-1.61.44-2.19.16h-.01c-1.13-.64-2.22-1.36-3.23-2.18l-.56.17c.02.09.02.18.04.25l-1.08.08c-.06-.2-.09-.4-.11-.6,0-.01,0-.03,0-.03.34-.14.67-.26,1.02-.35.04.16.06.31.09.46.13-.03.28-.05.44-.1.75-.07,1.62-.44,2.2-.16,1.18.67,2.32,1.43,3.38,2.28.21-.32.43-.62.64-.93-.09-.2-.2-.4-.34-.63-.02-.36-.04-.72-.06-1.09.3.1.87.19.86.3-.03.39-.11.78-.26,1.15l.36,2.01c.05.17.07.31.1.44l.43-.08c.03.36.05.71.08,1.08-.2.06-.4.09-.6.11Zm-.56,26.58c-.09-.72-.11-1.44-.04-2.16.06-.29.67-.49,1.02-.73h0c.28.99.58,1.98.86,2.98l-1.84-.09Zm1.8-8.09s-.03,0-.03,0c-.14-.34-.25-.67-.35-1.02l.36-.07c-.29-.52-.7-.95-1.19-1.29-.17.05-.31.07-.44.1h.01s.08.43.08.43l-1.08.08c-.06-.2-.09-.4-.11-.6,0-.01,0-.03,0-.03.33-.14.67-.26,1.02-.35.03.12.04.24.07.36.42-.24.79-.57,1.11-.92l.17-.25c-.06.07-.12.16-.19.24-.1-.21-.22-.42-.34-.62-.02-.36-.04-.72-.06-1.09.3.1.87.19.86.3h0c-.04.4-.12.79-.27,1.16h0s.36,2.01.36,2.01c.05.17.07.31.1.44l.43-.08c.03.36.05.71.08,1.08-.2.06-.4.09-.6.11Zm.74,4.35l-.56-1.42c.64.08,1.26.24,1.86.48.3.16.35.77.51,1.17h0s-1.82-.24-1.82-.24Zm1.84,17.51c-.28.21-.59.39-.91.53h0s-.01,0-.01,0c0,0,0,0,.01,0l-.13-.71.95-.47c.03.22.18.57.09.65Zm.33-12.65l.13-.18c-.17.07-.36.16-.57.27.03.14.05.29.08.43l-1.08.08c-.06-.19-.09-.4-.11-.6,0-.02,0-.03,0-.03.34-.14.67-.25,1.02-.35,0,.07.03.14.03.21.23-.09.51-.21.86-.38l1.09-.06h0c-.1.31-.19.87-.3.86-.39-.03-.78-.11-1.15-.26Zm1.47,8.05c.05.17.07.31.1.44l.43-.08c.02.35.04.71.07,1.08-.2.06-.4.09-.6.11-.01,0-.03,0-.03,0-.14-.34-.25-.67-.35-1.02l.29-.05c-.18-.29-.33-.63-.41-.97-.77-1.07.58-1.81.97-2.7l.87.6.04.03.27.18c1.02-.16,1.93-.73,2.51-1.59h-.01s1.77-.55,1.77-.55c-.12.61-.3,1.2-.56,1.77-.17.28-.76.28-1.16.41,0-.31-.01-.64-.02-.98-.16.17-.33.36-.53.59-.66.11-1.33.23-1.99.35h0s-1.66,2.38-1.66,2.38Zm2.48,75.25c.64.08,1.26.24,1.86.48h0c.3.16.35.77.51,1.17l-1.82-.24-.56-1.42Zm.15,12.47c-.22.03-.57.18-.65.09-.13-.14-.22-.28-.3-.44h0c-.08-.15-.16-.31-.24-.47l.34-.06.38-.07.47.95Zm-.71-15.45c.04-.36.08-.71.11-1.06l.71-.13s0,0,0,0h.01s-.01,0-.01,0c-.02.36-.08.71-.18,1.05-.05.12-.42.09-.64.13Zm2.47-64.26h0c-.22-.27-.4-.59-.54-.91l.72-.13.47.95c-.22.03-.57.18-.65.09Zm-.93,8.5h-.01s0,0,.01,0l-.06-.34-.07-.38.95-.47c.03.22.18.57.09.65-.28.21-.59.4-.91.53h0Zm.79-15.89c-.16.08-.33.16-.48.24-.04-.22-.08-.45-.13-.72l.95-.47c.03.22.18.57.09.65-.14.13-.28.22-.44.3h.01Zm-1.13,4.5l-.38.07-.47-.95c.22-.03.57-.18.65-.09h0c.13.13.22.27.3.43s.16.33.24.48l-.34.06Zm.96,20.63c.03.22.18.57.09.65h.01c-.28.22-.6.4-.92.54l-.13-.72.95-.47Zm-.37,7.3c.24.09.39.42.55.74.05.11.1.2.16.3l-.95.59h0s-.2.13-.2.13l-1.1-1.74c.51-.11,1.04-.12,1.55-.03Zm-4.52-22.27c.12.05.09.42.13.64l-1.06-.11h0s-.13-.71-.13-.71c.36.02.71.08,1.05.18Zm-.42,3.12c0,.09.02.18.04.26l-1.08.07c-.06-.2-.09-.4-.11-.6,0-.01,0-.03,0-.03.34-.14.67-.25,1.02-.35l.09.46c.13-.03.28-.05.44-.1.85-.11,1.66-.42,2.39-.89l1.09-.06c-.1.3-.19.87-.3.86h0c-.39-.03-.78-.11-1.15-.26-.83.14-1.64.35-2.43.62Zm3.51,21.28c.3.16.35.77.6,1.4-.67-.15-1.33-.39-1.95-.69-.3-.2-.35-.78-.51-1.18.64.08,1.26.24,1.86.48Zm-1.18,7.73l-.47-.95h0c.22-.04.57-.19.65-.1.22.28.4.6.54.92l-.72.13Zm-.24,40c-.02-.12-.04-.23-.06-.34.09.03.18.03.27.03.26.01.52.06.78.15.03.02.06.06.06.09.05.13.04.39.07.55h0s-1.06-.1-1.06-.1c-.03-.13-.05-.25-.07-.38Zm.66,50.03c-.12-.05-.09-.42-.13-.64.36.02.71.08,1.05.18.12.05.09.42.13.64h0s-.03,0-.03,0c-.26-.03-.55-.05-.77-.11-.09-.02-.17-.04-.25-.08Zm1.31,9.47c-.05.12-.42.09-.64.13.03-.27.05-.55.1-.81.02-.09.04-.17.08-.25.05-.12.42-.09.64-.13-.02.36-.08.71-.18,1.05Zm.17-5.21h.01s-.38.07-.38.07l-.34.06c.03-.27.05-.55.1-.81.02-.09.04-.17.08-.25.05-.12.42-.09.64-.13-.04.36-.08.71-.11,1.06Zm.69-55.96c.33-.14.67-.26,1.02-.35,0,.07.03.14.03.21.23-.09.51-.21.86-.38l1.09-.06c-.1.3-.19.87-.3.86-.39-.04-.78-.12-1.15-.27l.13-.18c-.17.07-.36.16-.57.27.03.14.05.29.08.43v.02s-1.08.07-1.08.07c-.06-.19-.09-.4-.11-.6,0-.02,0-.03,0-.03Zm1.33,71.2c-.08.15-.69-.01-1.31-.04.26-.65.6-1.26.97-1.84.13-.16.7.04,1.06.07-.18.63-.43,1.23-.72,1.81Zm.86-40.73c-.02-.36-.04-.72-.06-1.09.31.1.87.19.86.3-.04.39-.12.78-.27,1.15l-.18-.13c.07.17.16.36.27.57l.43-.08c.02.36.04.71.07,1.08-.19.06-.4.09-.6.11,0,0,0,0-.01,0h-.02s.01,0,.02,0c-.14-.34-.25-.67-.35-1.02l.21-.03c-.1-.25-.21-.51-.38-.86Zm1.07,30.05l-.71.13s0,0,0,0h-.01s.01,0,.01,0c.02-.36.08-.71.18-1.05.05-.12.42-.09.64-.13-.04.36-.08.71-.11,1.06Zm1.81,20.1c-.28.22-.6.4-.92.54l-.13-.72h.01s.95-.47.95-.47c.03.22.18.57.09.65Zm-.91-22.63c-.03-.13-.05-.25-.07-.38-.02-.12-.04-.23-.06-.34.19.02.37.04.54.06.19.02.36.06.52.12h-.01c.12.06.09.43.13.65l-1.06-.11Zm1.82-82.26c-.28.22-.6.4-.92.54l-.13-.72.95-.47h.01c.03.22.18.57.09.65Zm0-7.95c-.12-.14-.22-.28-.3-.44-.08-.16-.15-.32-.24-.48l.34-.06.38-.07h0c.15.32.31.64.47.96-.22.03-.57.18-.65.09Zm1.18,12.83c-.09-.02-.17-.04-.25-.08-.12-.05-.09-.42-.13-.64.36.02.71.08,1.05.18.12.05.09.42.13.64-.27-.03-.55-.05-.81-.1Zm1.7,76.82s-.06.06-.09.06c-.13.05-.39.05-.55.07.03-.27.05-.55.1-.81.02-.09.04-.17.08-.25.05-.12.42-.09.64-.13-.02.36-.08.71-.18,1.05Zm-.1-84.3s-.03,0-.03,0h.02c-.14-.33-.25-.67-.35-1.02l.21-.03c-.09-.23-.21-.51-.38-.86-.02-.36-.04-.72-.06-1.09.08.03.16.05.26.08.28.07.6.14.59.22-.04.39-.12.78-.27,1.15l-.18-.13c.07.17.16.36.27.57l.43-.08c.03.36.05.71.08,1.08-.19.06-.4.09-.6.11Zm.69-7c-.22.03-.57.18-.65.09-.22-.28-.4-.6-.54-.92l.72-.13.47.95h0Zm.1-3.15s-.06.06-.09.06c-.13.05-.39.05-.55.07.03-.27.05-.55.1-.81.02-.09.04-.17.08-.25.05-.12.42-.09.64-.13-.02.36-.08.71-.18,1.05Zm-.24-9.29c.22-.03.57-.18.65-.09.12.14.22.28.3.44h0c.08.15.16.31.24.47l-.34.06-.38.07-.47-.95Zm.51,14.21c.36.02.71.08,1.05.18h0s.06.07.06.1c.05.13.05.39.07.55l-1.06-.11-.13-.72Zm.44,83.95c-.03-.13-.05-.25-.07-.38-.02-.12-.04-.23-.06-.34.09.03.18.03.27.03h0c.26.02.52.07.78.16.12.05.09.42.13.64l-1.06-.11Zm.94-23.86h.01c-.02-.36-.04-.72-.06-1.09.3.1.87.19.86.3-.03.39-.11.78-.26,1.15l-.18-.13c.07.17.16.36.27.57l.43-.08.07,1.08c-.19.06-.4.09-.6.11-.02,0-.03,0-.03,0-.14-.33-.26-.67-.35-1.02l.21-.03c-.09-.23-.21-.51-.38-.86Zm1.17,37.32l-.38.07-.34.06c.01-.09.03-.18.03-.27.01-.26.06-.53.15-.78h.01c.02-.06.14-.08.26-.1.12-.02.27-.02.39-.04-.04.36-.08.71-.11,1.06Zm-.47-23.03c-.09-.02-.17-.04-.25-.08-.12-.05-.09-.42-.13-.64.36.02.71.08,1.05.18.12.05.09.42.13.64-.27-.03-.55-.05-.81-.1Zm2.23-32.88c-.32.15-.79.53-.96.43-.55-.42-1.08-.88-1.55-1.39.58-.24,1.08-.6,1.22-.49.47.45.91.93,1.3,1.45h-.01Zm.73-11.37l-.71.13s0,0,0,0h-.01s.01,0,.01,0c.02-.36.08-.71.18-1.05.05-.12.42-.09.64-.13-.04.36-.08.71-.11,1.06Zm.84,59.42l-.47-.95h0c.22-.04.57-.19.65-.1.22.28.4.6.54.92l-.72.13Zm2.95-14.07c-.39-.03-.78-.11-1.15-.26l.13-.18c-.17.07-.36.16-.57.27.03.14.05.29.08.43l-1.08.07c-.06-.19-.09-.4-.11-.6,0-.02,0-.03,0-.03.33-.14.67-.25,1.02-.35,0,.07.03.14.03.21.23-.09.51-.21.86-.38h0s1.09-.05,1.09-.05c-.1.31-.19.87-.3.86Zm1.02-10.56l.38-.07h0s.47.96.47.96c-.22.03-.57.18-.65.09-.13-.14-.22-.28-.3-.44-.08-.16-.16-.33-.24-.48l.34-.06Zm.73,12.01c-.04.36-.08.71-.11,1.06l-.38.07-.34.06c.03-.09.03-.18.03-.27.01-.26.06-.53.15-.78h.01c.02-.06.14-.08.26-.1.12-.02.27-.02.39-.04Zm-1.01,5.75l1.06.11h0c.03.13.04.25.07.38l.06.34c-.09-.03-.18-.03-.27-.03-.26-.02-.53-.07-.78-.16-.12-.05-.09-.42-.13-.64Zm.43,25.61l-.13-.71s0,0,0,0h0s0,0,0,0c.36.02.71.08,1.05.18.12.05.09.42.13.64l-1.06-.11Zm.47-3.22c-.05-.27-.09-.49-.13-.71h0s0-.01,0-.01c0,0,0,0,0,.01.36.02.71.08,1.05.18.12.05.09.42.13.64l-1.06-.11Zm1.27-98.99l.71-.13s0,0,0,0h.01s-.01,0-.01,0c-.02.36-.08.71-.18,1.05-.05.12-.42.09-.64.13.04-.36.08-.71.11-1.06Zm.43,31.07c-.22-.28-.4-.6-.54-.92l.72-.13h0s.47.96.47.96c-.22.03-.57.18-.65.09Zm1.18,41.74l-.47-.95h0c.22-.04.57-.19.65-.1.22.28.4.6.54.92l-.72.13Zm.38-38.53l-.47-.95h0c.22-.04.57-.19.65-.1.22.28.4.6.54.92l-.72.13Zm1.75,13.2l-.38.07-.34.06c.03-.09.03-.18.03-.27.02-.26.07-.52.16-.78.05-.12.42-.09.64-.13-.04.36-.08.71-.11,1.06Zm.26-20.89c-.39-.03-.78-.11-1.15-.26l.13-.18c-.17.07-.36.16-.57.27h0s.08.44.08.44l-1.08.07c-.06-.19-.09-.4-.11-.6,0-.02,0-.03,0-.03.33-.14.67-.26,1.02-.35,0,.07.03.14.03.21.23-.09.51-.21.86-.38l1.09-.06c-.1.31-.19.87-.3.86Zm.25-31.81c-.09-.02-.17-.04-.25-.08-.12-.05-.09-.42-.13-.64.36.02.71.08,1.05.18.03.02.06.06.06.09.05.13.04.39.07.55-.27-.03-.55-.05-.81-.1Zm.86,13.66c.26-.65.6-1.25.97-1.84h0c.13-.16.7.04,1.06.07-.18.63-.43,1.23-.72,1.81-.08.15-.69-.01-1.31-.04Zm1.44,21.89c-.12-.14-.22-.28-.3-.44-.08-.16-.16-.33-.24-.48l.34-.06h0s.38-.06.38-.06l.47.95c-.22.03-.57.18-.65.09Zm1.4-9.63c-.21-.28-.4-.59-.53-.91h0s0-.01,0-.01c0,0,0,0,0,.01l.71-.13.47.95c-.22.03-.57.18-.65.09Zm1.35,5.92c-.05.12-.42.09-.64.13h-.01c.04-.36.08-.71.11-1.06l.72-.13c-.02.36-.08.71-.18,1.05Zm.03-20.73s-.03,0-.03,0c-.14-.34-.25-.67-.35-1.02l.21-.03c-.09-.24-.21-.51-.38-.86-.02-.36-.04-.72-.06-1.09.31.1.87.19.86.3-.04.39-.12.78-.27,1.15l-.18-.13c.07.17.16.36.27.57l.44-.08h.01c.02.36.04.71.07,1.08-.19.06-.4.09-.6.11Zm1.02,12.99c-.03-.13-.05-.25-.07-.38l-.06-.34c.19.02.36.04.55.06h-.01c.19.03.36.07.52.13.12.05.09.42.13.64l-1.06-.11Zm.71-22.15l.13-.18c-.17.07-.36.16-.57.27.03.14.05.29.08.43l-1.08.07c-.06-.19-.09-.4-.11-.6v-.03c.34-.14.67-.25,1.03-.35,0,.07.03.14.03.21.23-.09.51-.21.86-.38v.02s1.09-.06,1.09-.06c-.1.31-.19.87-.3.86-.39-.04-.78-.12-1.15-.27Zm2.33,39.18c-.28.22-.6.4-.92.54l-.13-.72h.01s.95-.47.95-.47c.03.22.18.57.09.65Zm-1.03-43.59l.13-.18c-.17.07-.36.16-.57.27l.08.43-1.08.07c-.06-.19-.09-.4-.11-.6v-.03c.34-.14.67-.25,1.03-.35,0,.07.03.14.03.21.23-.09.51-.21.86-.38h0s1.09-.05,1.09-.05c-.1.31-.19.87-.3.86-.39-.03-.78-.11-1.15-.26Zm1.45,21.27c.01-.09.04-.17.08-.25.05-.12.42-.09.64-.13-.02.36-.08.71-.18,1.05-.02.03-.06.06-.09.06-.13.05-.39.04-.55.07.03-.27.05-.55.1-.81Z"/>
        <path class="cls-6" d="m462.18,224.14c-.22-.49-.44-.98-.67-1.47l-.71,1.02c.46.15.92.3,1.38.45Z"/>
      </g>
      <g>
        <path id="Tracé_4756" data-name="Tracé 4756" class="cls-6" d="m365.35,175.11h0c-14.86,11.37-36.12,8.55-47.5-6.31-11.37-14.86-8.55-36.12,6.31-47.5h0l16.88-12.92c5.54-4.24,13.46-3.19,17.7,2.35l12.92,16.88c11.37,14.86,8.55,36.12-6.31,47.5h0"/>
        <path id="Tracé_4757" data-name="Tracé 4757" class="cls-6" d="m431.14,127.75h0c15.43-11.71,18.45-33.71,6.74-49.14-11.71-15.43-33.71-18.45-49.14-6.74-.08.06-.16.12-.24.18l-17.48,13.38c-5.73,4.39-6.82,12.59-2.43,18.32l13.38,17.48c11.78,15.38,33.79,18.31,49.17,6.53"/>
        <path id="Tracé_4758" data-name="Tracé 4758" class="cls-9" d="m388.61,22.23c4.86-3.72,5.78-10.68,2.06-15.54h0c-.15-.19-.31-.37-.46-.55-5.99,4.36-11.4,9.45-16.11,15.16,3.93,3.88,10.12,4.27,14.51.92"/>
        <path id="Tracé_4759" data-name="Tracé 4759" class="cls-9" d="m365,36.37c.11.11.23.22.34.32.07.06.15.11.22.17.11.08.22.17.33.25.08.06.17.1.25.15.11.07.22.14.33.2.09.05.18.09.27.13.11.06.23.11.34.16.09.04.19.07.28.11.11.04.23.09.34.13.1.03.2.05.3.08.11.03.23.07.35.09.1.02.2.04.3.05s.23.04.35.06.21.02.31.03.24.02.35.02h.31c.1,0,.24,0,.35-.01s.21-.02.31-.04.23-.03.35-.05.21-.04.31-.07.23-.05.34-.08.21-.06.31-.1.23-.07.34-.11.2-.09.3-.13.22-.1.33-.15.19-.11.29-.16.21-.12.32-.19.19-.13.28-.19.2-.14.3-.22.18-.15.27-.23.18-.16.27-.24c.06-.06.12-.13.18-.19.11-.11.22-.23.32-.35l.04-.06c1.83-2.31,2.03-5.52.5-8.04-.05-.07-.1-.14-.15-.21-.08-.11-.15-.24-.24-.35-.07-.08-.14-.16-.2-.24s-.12-.15-.19-.22-.15-.15-.23-.23-.13-.14-.2-.2-.17-.14-.25-.21-.13-.11-.21-.17-.18-.12-.26-.18-.14-.1-.22-.15-.19-.11-.28-.16c-.07-.04-.15-.09-.22-.13-.1-.05-.2-.1-.3-.14-.07-.03-.14-.07-.22-.1-.11-.05-.23-.09-.35-.13-.06-.02-.12-.05-.19-.07-.18-.06-.36-.11-.55-.16-2.62,3.5-4.99,7.19-7.11,11.02.15.19.3.37.47.54.05.06.11.11.17.16"/>
        <path id="Tracé_4760" data-name="Tracé 4760" class="cls-9" d="m368.34,38.17c-.11-.03-.23-.06-.35-.09.11.03.23.07.35.09"/>
        <path id="Tracé_4761" data-name="Tracé 4761" class="cls-9" d="m369,38.28c-.11-.01-.24-.04-.35-.06.11.02.24.04.35.06"/>
        <path id="Tracé_4762" data-name="Tracé 4762" class="cls-9" d="m364.36,35.67c.15.19.3.37.47.54-.16-.17-.32-.35-.47-.54"/>
        <path id="Tracé_4763" data-name="Tracé 4763" class="cls-9" d="m375.21,35.76c1.87-2.3,2.07-5.53.5-8.04,1.53,2.52,1.33,5.73-.5,8.04"/>
        <path id="Tracé_4764" data-name="Tracé 4764" class="cls-9" d="m374.66,36.36c-.09.08-.18.16-.27.24.09-.08.18-.16.27-.24"/>
        <path id="Tracé_4765" data-name="Tracé 4765" class="cls-9" d="m367.07,37.76c-.11-.05-.23-.11-.34-.16.11.06.23.11.34.16"/>
        <path id="Tracé_4766" data-name="Tracé 4766" class="cls-9" d="m365.34,36.69c-.11-.1-.23-.21-.34-.32.11.11.22.22.34.32"/>
        <path id="Tracé_4767" data-name="Tracé 4767" class="cls-9" d="m366.46,37.46c-.11-.06-.22-.13-.33-.2.11.07.22.14.33.2"/>
        <path id="Tracé_4768" data-name="Tracé 4768" class="cls-9" d="m367.7,38c-.11-.04-.23-.08-.34-.13.11.04.23.09.34.13"/>
        <path id="Tracé_4769" data-name="Tracé 4769" class="cls-9" d="m365.88,37.11c-.11-.08-.22-.17-.33-.25.11.08.22.17.33.25"/>
        <path id="Tracé_4770" data-name="Tracé 4770" class="cls-9" d="m372.02,24.81c.06.02.12.05.19.07-.06-.02-.12-.05-.19-.07"/>
        <path id="Tracé_4771" data-name="Tracé 4771" class="cls-9" d="m375.33,27.18h-.01c.09.1.16.21.24.34-.08-.11-.15-.23-.23-.34"/>
        <path id="Tracé_4772" data-name="Tracé 4772" class="cls-9" d="m373.58,25.56c.07.05.14.1.22.15-.07-.05-.14-.1-.22-.15"/>
        <path id="Tracé_4773" data-name="Tracé 4773" class="cls-9" d="m371.66,38.09c-.11.03-.23.05-.34.08.11-.03.23-.05.34-.08"/>
        <path id="Tracé_4774" data-name="Tracé 4774" class="cls-9" d="m374.93,26.7c.06.07.12.15.19.22-.06-.07-.12-.15-.19-.22"/>
        <path id="Tracé_4775" data-name="Tracé 4775" class="cls-9" d="m373.08,25.27c.08.04.15.09.22.13-.07-.04-.15-.09-.22-.13"/>
        <path id="Tracé_4776" data-name="Tracé 4776" class="cls-9" d="m373.54,37.25c-.1.07-.21.13-.32.19.11-.06.21-.11.32-.19"/>
        <path id="Tracé_4777" data-name="Tracé 4777" class="cls-9" d="m371,38.23c-.11.02-.23.03-.35.05.11-.01.24-.03.35-.05"/>
        <path id="Tracé_4778" data-name="Tracé 4778" class="cls-9" d="m375.16,35.82c-.1.12-.21.24-.32.35.11-.11.22-.23.32-.35"/>
        <path id="Tracé_4779" data-name="Tracé 4779" class="cls-9" d="m372.56,25.02c.07.03.14.07.22.1-.07-.03-.14-.07-.22-.1"/>
        <path id="Tracé_4780" data-name="Tracé 4780" class="cls-9" d="m372.31,37.87c-.11.04-.23.08-.34.11.11-.04.23-.07.34-.11"/>
        <path id="Tracé_4781" data-name="Tracé 4781" class="cls-9" d="m369.66,38.33c-.11,0-.24-.01-.35-.02.11,0,.24.02.35.02"/>
        <path id="Tracé_4782" data-name="Tracé 4782" class="cls-9" d="m374.04,36.91s.05-.05.08-.07c-.1.08-.2.15-.3.22.07-.05.15-.09.22-.15"/>
        <path id="Tracé_4783" data-name="Tracé 4783" class="cls-9" d="m372.94,37.59c-.11.05-.22.1-.33.15.11-.05.22-.1.33-.15"/>
        <path id="Tracé_4784" data-name="Tracé 4784" class="cls-9" d="m370.33,38.31c-.11,0-.24,0-.36.01.11,0,.24,0,.36-.01"/>
        <path id="Tracé_4785" data-name="Tracé 4785" class="cls-9" d="m374.05,25.89c.07.05.14.11.21.17-.07-.06-.13-.11-.21-.17"/>
        <path id="Tracé_4786" data-name="Tracé 4786" class="cls-9" d="m374.51,26.27c.07.06.13.13.2.2-.07-.07-.13-.13-.2-.2"/>
        <path id="Tracé_4787" data-name="Tracé 4787" class="cls-9" d="m397.61,1.29c-1.31.77-2.57,1.56-3.8,2.37-.02.23-.02.46-.02.68,0,.07,0,.15.01.22,0,.15.02.31.03.46,0,.09.02.17.04.26.02.14.05.28.08.43.02.09.04.17.06.26.04.14.08.28.12.42.03.08.05.17.08.25.06.15.11.3.19.45.03.07.06.13.09.2.1.21.22.42.34.62.01.02.03.04.04.05.12.18.24.36.38.54.06.07.12.14.18.22.1.11.2.24.31.35s.24.24.36.34c.03.03.05.05.08.07.17.15.34.28.52.41h0c.17.11.34.23.52.33.07.04.14.08.21.11.1.06.21.11.32.16s.19.09.29.13c.08.03.16.06.24.09.11.04.24.09.36.12.05.02.11.03.16.05.46.13.93.22,1.41.25.04,0,.09,0,.13.01h.64c.1,0,.21-.01.31-.02s.24-.02.35-.04c.08-.01.16-.02.23-.03.18-.03.35-.06.52-.11h.07c.43-.13.84-.28,1.24-.47.03-.01.06-.03.09-.05.15-.08.3-.16.46-.25.07-.04.13-.08.19-.12.12-.08.24-.16.36-.25.06-.04.11-.08.17-.13.24-.18.46-.38.67-.6.04-.04.07-.08.11-.11.2-.21.39-.44.57-.68.02-.03.05-.07.07-.1.17-.25.33-.5.47-.77,0,0,0-.02.01-.03.13-.26.25-.54.35-.82.01-.03.03-.06.04-.09.09-.27.17-.55.23-.83.01-.05.02-.09.03-.14.05-.28.09-.56.1-.84v-.15c.01-.29,0-.57-.01-.86,0-.04,0-.07-.01-.11-.03-.3-.07-.6-.14-.9l-.05-.06c-2.35-3.08-6.48-3.26-9.82-1.3"/>
        <path id="Tracé_4788" data-name="Tracé 4788" class="cls-9" d="m357.94,117.09c3.13,4.09,2.35,9.93-1.73,13.06-4.09,3.13-9.93,2.35-13.06-1.73-3.13-4.09-2.35-9.93,1.73-13.06h0c4.08-3.13,9.93-2.35,13.06,1.73h0"/>
        <path id="Tracé_4789" data-name="Tracé 4789" class="cls-9" d="m347.72,142.55c1.95,2.54,1.46,6.18-1.08,8.12-2.54,1.95-6.18,1.46-8.12-1.08-1.94-2.54-1.46-6.18,1.08-8.12h0c2.54-1.95,6.18-1.46,8.12,1.08"/>
        <path id="Tracé_4790" data-name="Tracé 4790" class="cls-9" d="m412.06,93.3c1.95,2.54,1.46,6.18-1.08,8.12-2.54,1.95-6.18,1.46-8.12-1.08-1.95-2.54-1.46-6.18,1.08-8.12h0c2.54-1.94,6.18-1.46,8.12,1.08"/>
        <path id="Tracé_4791" data-name="Tracé 4791" class="cls-9" d="m389.31,93.07c3.13,4.09,2.35,9.93-1.73,13.06-4.09,3.13-9.93,2.35-13.06-1.73-3.13-4.08-2.35-9.93,1.73-13.06,4.08-3.13,9.93-2.35,13.06,1.73h0"/>
        <path id="Tracé_4792" data-name="Tracé 4792" class="cls-9" d="m393.8,4.55c0,.15.02.31.03.46-.02-.15-.03-.31-.03-.46"/>
        <path id="Tracé_4793" data-name="Tracé 4793" class="cls-9" d="m393.87,5.27c.02.14.05.28.08.42-.03-.14-.06-.28-.08-.42"/>
        <path id="Tracé_4794" data-name="Tracé 4794" class="cls-9" d="m394.01,5.96c.04.14.08.28.12.42-.05-.14-.09-.28-.12-.42"/>
        <path id="Tracé_4795" data-name="Tracé 4795" class="cls-9" d="m397.23,10.21c.07.04.14.08.22.11-.07-.04-.14-.08-.22-.11"/>
        <path id="Tracé_4796" data-name="Tracé 4796" class="cls-9" d="m393.81,3.65c-.02.23-.02.46-.02.68,0-.23,0-.46.02-.68"/>
        <path id="Tracé_4797" data-name="Tracé 4797" class="cls-9" d="m396.11,9.4s.05.05.08.07c-.03-.02-.05-.05-.08-.07"/>
        <path id="Tracé_4798" data-name="Tracé 4798" class="cls-9" d="m394.49,7.27c.1.21.22.42.34.62-.12-.2-.24-.41-.34-.62"/>
        <path id="Tracé_4800" data-name="Tracé 4800" class="cls-9" d="m395.44,8.7c.1.12.2.24.31.35-.11-.11-.21-.23-.31-.35"/>
        <path id="Tracé_4801" data-name="Tracé 4801" class="cls-9" d="m394.22,6.62c.06.15.11.3.19.45-.07-.15-.13-.3-.19-.45"/>
        <path id="Tracé_4803" data-name="Tracé 4803" class="cls-9" d="m406.33,8.3s.05-.07.07-.1c-.03.04-.05.07-.07.1"/>
        <path id="Tracé_4804" data-name="Tracé 4804" class="cls-9" d="m406.87,7.42s0-.02.01-.03c0,0,0,.02-.01.03"/>
        <path id="Tracé_4805" data-name="Tracé 4805" class="cls-9" d="m400.23,11.13c-.48-.03-.95-.12-1.41-.25.46.13.93.22,1.41.25"/>
        <path id="Tracé_4806" data-name="Tracé 4806" class="cls-9" d="m395.25,8.49c-.14-.18-.26-.35-.38-.54.11.17.22.33.34.49.01.02.03.03.04.05"/>
        <path id="Tracé_4807" data-name="Tracé 4807" class="cls-9" d="m407.24,6.58s.03-.06.04-.09c-.01.03-.03.06-.04.09"/>
        <path id="Tracé_4808" data-name="Tracé 4808" class="cls-9" d="m404.99,9.69c-.06.04-.11.08-.17.13.04-.03.08-.05.12-.08.02-.01.03-.03.05-.04"/>
        <path id="Tracé_4809" data-name="Tracé 4809" class="cls-9" d="m407.63,3.66s0-.07-.01-.11c0,.04,0,.07.01.11"/>
        <path id="Tracé_4811" data-name="Tracé 4811" class="cls-9" d="m405.66,9.09s.07-.08.11-.11c-.04.04-.07.08-.11.11"/>
        <path id="Tracé_4813" data-name="Tracé 4813" class="cls-9" d="m398.3,10.71c.11.04.24.09.36.12l-.36-.12"/>
        <path id="Tracé_4814" data-name="Tracé 4814" class="cls-9" d="m407.53,5.51s-.02.09-.03.14c0-.05.02-.1.03-.14"/>
        <path id="Tracé_4815" data-name="Tracé 4815" class="cls-9" d="m400.99,11.15c.1,0,.21-.01.31-.02-.1,0-.21.01-.31.02"/>
        <path id="Tracé_4816" data-name="Tracé 4816" class="cls-9" d="m397.76,10.49c.1.05.19.09.29.13-.1-.04-.2-.08-.29-.13"/>
        <path id="Tracé_4817" data-name="Tracé 4817" class="cls-9" d="m401.65,11.09c.08,0,.15-.02.23-.03-.08.01-.15.02-.23.03"/>
        <path id="Tracé_4818" data-name="Tracé 4818" class="cls-9" d="m404.27,10.18c.06-.04.13-.08.19-.12-.06.04-.13.08-.19.12"/>
        <path id="Tracé_4819" data-name="Tracé 4819" class="cls-7" d="m407.62,3.55s0,.07.01.11c.02.29.03.57.01.86v.15c-.02.28-.05.56-.1.84,0,.05-.02.1-.03.14-.06.28-.13.56-.23.83-.01.03-.03.06-.04.09-.1.28-.22.55-.35.82v.03c-.15.27-.31.52-.49.77-.02.03-.05.07-.07.1-.18.24-.37.46-.57.68-.04.04-.07.08-.11.11-.21.21-.43.41-.67.6-.02.01-.03.03-.05.04-.04.03-.08.05-.12.08-.12.09-.24.17-.36.25-.06.04-.13.08-.19.12s-.1.06-.15.09c-.1.06-.2.1-.3.15-.03.02-.06.03-.09.05-.4.19-.81.34-1.24.46l-.07.02c-.17.04-.35.08-.52.11-.08.01-.16.02-.23.03-.11.02-.23.03-.35.04s-.21.01-.31.02h-.64s-.09,0-.13-.01c-.48-.03-.95-.12-1.41-.25-.05-.01-.11-.03-.16-.05l-.36-.12c-.08-.03-.16-.06-.24-.09-.1-.04-.2-.08-.29-.13s-.21-.1-.32-.16c-.07-.04-.14-.07-.21-.11-.18-.1-.35-.21-.52-.33h0c-.18-.13-.35-.26-.52-.41-.03-.02-.05-.05-.08-.07-.1-.09-.2-.17-.29-.27-.02-.03-.05-.05-.07-.08-.11-.11-.21-.23-.31-.35-.06-.07-.13-.14-.18-.22-.01-.02-.03-.03-.04-.05-.12-.16-.23-.32-.34-.49-.01-.02-.03-.04-.04-.05-.13-.2-.24-.41-.34-.62-.03-.07-.06-.13-.09-.2-.07-.15-.13-.3-.19-.45-.03-.08-.06-.17-.08-.25-.05-.14-.09-.28-.12-.42-.02-.09-.04-.17-.06-.26-.03-.14-.06-.28-.08-.42-.01-.09-.03-.17-.04-.26-.02-.15-.03-.31-.04-.46,0-.07,0-.15-.01-.22,0-.23,0-.46.02-.68-1.24.81-2.44,1.64-3.61,2.5.16.18.32.36.46.55,3.72,4.86,2.8,11.81-2.05,15.53-4.39,3.36-10.59,2.97-14.52-.91-.91,1.1-1.78,2.22-2.62,3.34.18.05.37.1.55.16.06.02.12.05.19.07.11.04.23.08.35.13.07.03.14.07.22.1.1.05.2.09.3.14.07.04.15.09.22.13.09.05.19.11.28.16.07.05.14.1.22.15s.18.12.26.19.14.11.21.17.17.14.25.21.13.13.2.2.15.15.23.23.12.15.19.22.13.15.19.23h0v.03c.09.11.16.23.24.33.05.07.1.14.15.21,1.56,2.51,1.36,5.74-.5,8.04l-.05.06c-.1.12-.21.24-.32.35-.06.06-.11.13-.18.19-.09.08-.18.16-.27.24-.06.05-.11.11-.18.16-.03.02-.06.04-.09.06s-.05.05-.08.07c-.07.05-.14.1-.22.15-.09.07-.19.13-.28.19s-.21.13-.32.19-.19.11-.29.16-.22.1-.33.15-.2.09-.3.13-.23.08-.34.11-.21.07-.31.1-.23.05-.34.08-.21.05-.31.07-.23.03-.35.05-.21.03-.31.04-.24,0-.36.01-.21,0-.31,0-.24-.01-.35-.02-.21-.01-.31-.03-.24-.04-.35-.06-.2-.03-.3-.05c-.11-.03-.23-.06-.35-.09-.1-.03-.2-.05-.3-.08-.11-.04-.23-.08-.34-.13-.09-.04-.19-.07-.28-.11-.11-.05-.23-.11-.34-.16-.09-.04-.18-.08-.27-.13-.11-.06-.22-.13-.33-.2-.08-.05-.17-.1-.25-.15-.11-.08-.22-.17-.33-.25-.07-.06-.15-.11-.22-.17-.11-.1-.23-.21-.34-.32-.06-.05-.11-.1-.17-.16-.16-.17-.32-.35-.47-.54-5.15,9.46-8.9,19.62-11.14,30.16-1.28,5.86-2.11,11.8-2.48,17.79-.15,2.73-.12,4.3-.12,4.3l15.5,20.25,2.15-1.65,30.84-23.61,28.19-21.58c8.74-6.69,10.4-19.2,3.71-27.95l-23.53-30.74c.07.3.11.6.14.9"/>
        <path id="Tracé_4820" data-name="Tracé 4820" class="cls-9" d="m403.72,10.48s.06-.03.09-.05c-.03.02-.06.03-.09.05"/>
        <path id="Tracé_4821" data-name="Tracé 4821" class="cls-9" d="m396.17,61.72c1.45,1.89,1.09,4.59-.8,6.03-1.89,1.45-4.59,1.09-6.03-.8-1.45-1.89-1.09-4.59.8-6.03h0c1.89-1.44,4.58-1.09,6.03.8"/>
        <path id="Tracé_4822" data-name="Tracé 4822" class="cls-7" d="m252.57,112.35c-2.79,2.71-3.11,7.08-.76,10.17l23.19,30.29c6.69,8.74,19.2,10.4,27.95,3.71l61.18-46.83-15.5-20.25s-56.13-16.44-96.05,22.9"/>
        <path id="Tracé_4823" data-name="Tracé 4823" class="cls-9" d="m275.43,108.87c-4.86,3.72-11.82,2.8-15.54-2.06-.15-.19-.27-.39-.41-.59,5.77-4.64,12.1-8.54,18.84-11.59,2.72,4.81,1.48,10.89-2.9,14.25"/>
        <path id="Tracé_4824" data-name="Tracé 4824" class="cls-9" d="m295.24,89.77c.08.14.15.27.22.41.04.08.07.17.11.25.05.13.11.25.16.38.03.09.06.19.08.28.04.12.08.25.11.37.02.1.04.2.06.29.03.12.05.24.07.37.01.1.02.2.03.3.01.12.03.24.03.37v.67c0,.1-.02.2-.03.31s-.02.24-.04.36-.04.21-.06.31-.04.23-.07.34-.06.2-.09.3-.06.23-.1.34-.08.19-.11.29-.09.22-.14.33-.1.19-.14.29-.11.21-.17.31-.11.18-.17.27-.13.2-.2.3-.13.17-.2.26-.15.19-.23.28-.15.16-.23.24-.17.17-.26.26-.17.15-.26.22-.19.16-.29.23-.19.13-.29.2-.2.13-.3.2c-.08.04-.15.08-.23.13-.14.08-.28.15-.43.22l-.07.03c-2.71,1.17-5.86.52-7.9-1.61-.06-.06-.11-.13-.17-.2-.09-.11-.19-.21-.27-.33-.06-.09-.12-.17-.18-.26s-.11-.16-.16-.24-.11-.18-.16-.28-.1-.16-.14-.24-.09-.19-.14-.29c-.04-.08-.08-.16-.11-.24-.04-.1-.07-.2-.11-.3-.03-.08-.06-.16-.09-.25-.03-.1-.06-.21-.08-.31-.02-.08-.05-.16-.07-.25-.03-.11-.04-.22-.06-.33-.01-.08-.03-.16-.04-.24-.02-.12-.03-.25-.04-.37,0-.07-.02-.13-.02-.2-.01-.19-.01-.38,0-.57,4.07-1.62,8.24-2.95,12.49-3.99.14.19.27.39.4.59.04.07.07.14.11.21"/>
        <path id="Tracé_4825" data-name="Tracé 4825" class="cls-9" d="m252.87,112.1c1.08-1.06,2.17-2.07,3.28-3.05.23.04.44.09.66.16.07.02.14.05.21.07.15.05.29.1.44.15.08.03.16.07.24.1.13.06.26.12.39.19.08.04.16.08.24.13.13.07.25.15.37.23.07.05.15.09.22.14.13.09.26.19.38.3.06.05.11.09.17.14.18.16.35.32.51.49.01.02.03.04.04.05.15.16.29.33.42.51.06.08.11.15.16.23.09.13.18.26.26.39s.17.29.24.44c.02.03.04.06.05.1.1.2.18.4.26.61h0c.07.19.13.39.18.58.02.08.04.16.06.24.03.11.05.23.07.34s.04.21.05.32c.01.09.02.17.03.26.01.13.02.25.03.37v.17c0,.48-.04.96-.13,1.43,0,.04-.01.08-.02.12-.03.12-.06.24-.09.36-.02.08-.04.17-.07.25s-.06.2-.1.3-.08.22-.13.33c-.03.07-.06.14-.09.22-.08.16-.16.32-.24.48-.01.02-.02.04-.03.06-.22.38-.47.74-.76,1.08-.02.03-.05.05-.07.08-.11.13-.23.25-.36.37-.05.05-.11.1-.17.15-.11.1-.22.19-.33.28-.05.04-.11.09-.17.13-.24.18-.49.34-.75.49-.05.03-.09.05-.14.08-.26.14-.52.26-.8.37-.04,0-.08.03-.11.04-.28.1-.57.19-.87.25h-.03c-.29.06-.59.1-.88.13h-.1c-.29.03-.58.03-.86,0h-.15c-.28-.03-.56-.07-.84-.12l-.15-.03c-.28-.06-.55-.14-.82-.24l-.1-.04c-.28-.11-.56-.23-.83-.37l-.05-.06c-2.35-3.08-1.46-7.11,1.3-9.82"/>
        <path id="Tracé_4826" data-name="Tracé 4826" class="cls-9" d="m317.72,121.77c1.45,1.89,1.09,4.59-.8,6.03-1.89,1.45-4.59,1.09-6.03-.8-1.45-1.89-1.09-4.59.8-6.03h0c1.89-1.44,4.58-1.09,6.03.8"/>
        <path id="Tracé_4827" data-name="Tracé 4827" class="cls-10" d="m396.61,149.91h0c-1.7,1.3-4.13.97-5.43-.72l-55.56-72.57c-1.37-1.64-1.16-4.08.48-5.46,1.64-1.37,4.08-1.16,5.46.48.07.09.14.18.2.27l55.55,72.57c1.3,1.7.97,4.12-.72,5.42"/>
        <path id="Tracé_4828" data-name="Tracé 4828" class="cls-10" d="m338.06,74.15c-6.36,4.86-15.45,3.65-20.32-2.7l-3.8-4.96c-.22-.29-.17-.7.12-.92s.7-.17.92.12l3.8,4.96c4.43,5.78,12.7,6.88,18.49,2.46,5.78-4.43,6.88-12.7,2.46-18.49l-3.8-4.96c-.22-.29-.17-.7.12-.92s.7-.17.92.12h0l3.8,4.96c4.85,6.36,3.65,15.45-2.7,20.32"/>
      </g>
    </g>
  </g>
</svg>