<svg xmlns="http://www.w3.org/2000/svg" viewBox="0 0 1847 698.74"><defs><style>.cls-1{fill:#1ba16a;}.cls-2{fill:#fff;}.cls-3{fill:#e78113;}.cls-4{fill:#dc688a;}.cls-5{fill:#38a7db;}.cls-6{fill:#e8ab00;}.cls-7{fill:#16a477;}.cls-8{fill:#8389c2;}.cls-9{fill:#b4ab94;}</style></defs><g id="Calque_2" data-name="Calque 2"><g id="Calque_1-2" data-name="Calque 1"><rect class="cls-1" y="340.04" width="1847" height="358.7" rx="33.51"/><path class="cls-2" d="M254.23,420.11q22.88,10.36,35.24,29.4t12.36,45.09q0,25.73-12.36,44.93t-35.24,29.39q-22.87,10.2-53.94,10.19H159.2a6,6,0,0,0-6,6v52.45a6,6,0,0,1-6,6H105.09a6,6,0,0,1-6-6V415.77a6,6,0,0,1,6-6h95.2Q231.36,409.76,254.23,420.11ZM234.36,524.5q12.69-10.53,12.69-29.9,0-19.71-12.69-30.23t-37.08-10.52H159.2a6,6,0,0,0-6,6V529a6,6,0,0,0,6,6h38.08Q221.66,535,234.36,524.5Z"/><path class="cls-2" d="M442,467.88a89.32,89.32,0,0,1,30.25-6.52,6,6,0,0,1,6.33,6v35.48a6,6,0,0,1-6.38,6c-2.39-.15-4.16-.22-5.31-.22q-22.39,0-35.08,12.53t-12.69,37.57v78.84a6,6,0,0,1-6,6H373a6,6,0,0,1-6-6V469.88a6,6,0,0,1,6-6h37.75a6,6,0,0,1,6,6v2.56a6,6,0,0,0,9.79,4.66A61.6,61.6,0,0,1,442,467.88Z"/><path class="cls-2" d="M542.67,430.47a28.29,28.29,0,0,1,0-41.42q9-8.35,23.38-8.36t23.39,8a25.73,25.73,0,0,1,9,20q0,13-9,21.55t-23.39,8.52Q551.7,438.82,542.67,430.47Zm3.34,33.4H586.1a6,6,0,0,1,6,6V637.57a6,6,0,0,1-6,6H546a6,6,0,0,1-6-6V469.88A6,6,0,0,1,546,463.87Z"/><path class="cls-2" d="M954.7,481.07q19.88,19.88,19.88,59.63v96.87a6,6,0,0,1-6,6H928.48a6,6,0,0,1-6-6V548.71q0-21.37-8.86-31.9t-25.22-10.52q-18.37,0-29.06,11.86t-10.69,35.24v84.18a6,6,0,0,1-6,6H802.55a6,6,0,0,1-6-6V548.71q0-42.42-34.08-42.42-18,0-28.72,11.86t-10.69,35.24v84.18a6,6,0,0,1-6,6H677a6,6,0,0,1-6-6V469.88a6,6,0,0,1,6-6H714.7a6,6,0,0,1,6,6v1a6,6,0,0,0,9.56,4.85,67.85,67.85,0,0,1,15-8.51,82.61,82.61,0,0,1,31.9-6q19,0,34.41,7.51a60.85,60.85,0,0,1,20.49,16.11,6,6,0,0,0,8.92.36,74.44,74.44,0,0,1,23.2-16.3,88,88,0,0,1,36.91-7.68Q934.83,461.2,954.7,481.07Z"/><path class="cls-2" d="M1188.35,481.07q22.38,19.88,22.38,60v96.54a6,6,0,0,1-6,6H1168a6,6,0,0,1-6-6h0a6,6,0,0,0-9.92-4.56q-15.73,13.25-44.87,13.24-20.72,0-35.9-7t-23.22-19.38a50.44,50.44,0,0,1-8-28.06q0-25,18.88-39.41T1117.21,538h35a6,6,0,0,0,5.94-6.92q-1.74-12.08-9.88-19.3-10.35-9.18-31.06-9.18a90.6,90.6,0,0,0-28.23,4.51,79.68,79.68,0,0,0-18.2,8.39,6,6,0,0,1-8.51-2.36l-13.08-25.45a6,6,0,0,1,2.23-7.9A117.54,117.54,0,0,1,1082,466.88a157.6,157.6,0,0,1,42.25-5.68Q1166,461.2,1188.35,481.07ZM1143.93,605a33.57,33.57,0,0,0,14.3-17.16,5.91,5.91,0,0,0,.4-2.16V574.43a6,6,0,0,0-6-6h-29.74q-32.06,0-32.06,21.05a18.7,18.7,0,0,0,7.85,15.86q7.85,5.85,21.54,5.85A45.4,45.4,0,0,0,1143.93,605Z"/><path class="cls-2" d="M1290.9,430.47a28.29,28.29,0,0,1,0-41.42q9-8.35,23.38-8.36t23.38,8a25.7,25.7,0,0,1,9,20q0,13-9,21.55t-23.38,8.52Q1299.91,438.82,1290.9,430.47Zm3.34,33.4h40.09a6,6,0,0,1,6,6V637.57a6,6,0,0,1-6,6h-40.09a6,6,0,0,1-6-6V469.88A6,6,0,0,1,1294.24,463.87Z"/><path class="cls-2" d="M1494.16,467.88a89.32,89.32,0,0,1,30.24-6.52,6,6,0,0,1,6.33,6v35.48a6,6,0,0,1-6.37,6c-2.4-.15-4.17-.22-5.32-.22q-22.38,0-35.07,12.53t-12.7,37.57v78.84a6,6,0,0,1-6,6h-40.08a6,6,0,0,1-6-6V469.88a6,6,0,0,1,6-6h37.75a6,6,0,0,1,6,6v2.56a6,6,0,0,0,9.79,4.66A61.42,61.42,0,0,1,1494.16,467.88Z"/><path class="cls-2" d="M1760,568.42H1637.8a6,6,0,0,0-5.56,8.31A41.88,41.88,0,0,0,1647,594.81q13.69,9.69,34.07,9.69a68.86,68.86,0,0,0,24.89-4.18,58,58,0,0,0,16-9.41,6,6,0,0,1,8.25.55l19.93,21.61a6,6,0,0,1-.19,8.37q-25.11,24.81-70.16,24.81-30.4,0-53.78-11.86t-36.08-32.9q-12.69-21-12.69-47.77,0-26.38,12.52-47.6a87.75,87.75,0,0,1,34.41-33.06Q1646,461.19,1673,461.2q26.37,0,47.76,11.35a83,83,0,0,1,33.57,32.57q12.2,21.23,12.19,49.27,0,.76-.57,8.46A6,6,0,0,1,1760,568.42Zm-116.35-57.79a40.66,40.66,0,0,0-12.89,19.53,6,6,0,0,0,5.72,7.86h73.42a6,6,0,0,0,5.72-7.88,41.51,41.51,0,0,0-12.85-19.34q-12-10.19-29.39-10.19Q1655.66,500.61,1643.64,510.63Z"/><path class="cls-3" d="M177.36,13q25.15,12,38.87,34.86C225.38,63.07,230,80.6,230,101c0,20.2-4.57,38.11-13.72,53.16A91,91,0,0,1,177.36,189c-16.77,8-36.58,12.2-59.07,12.2H97c-7.81,0-14.1,6.86-14.1,15.24v34.68c0,8.38-6.28,15.24-14.1,15.24H14.26c-7.81,0-14.1-6.86-14.1-15.24V15.81C.16,7.43,6.45.57,14.26.57H118.1C141,.76,160.59,5,177.36,13ZM138.3,123.85c5.53-5.34,8.38-13,8.38-22.87s-2.85-17.52-8.38-22.86-14.1-8-25.15-8h-16C89.33,70.12,83,77,83,85.36v31.82c0,8.38,6.29,15.24,14.1,15.24h16C124.2,132,132.58,129.37,138.3,123.85Z"/><path class="cls-4" d="M360.09,199.3h0c-8,0-14.68,7-14.68,15.82v35.06c0,8.76-6.47,15.81-14.67,15.81H277.39c-8,0-14.67-7.05-14.67-15.81V16.39c0-8.77,6.48-15.82,14.67-15.82H380.66c22.68,0,42.3,4.19,59.07,12.2s29.72,19.62,38.87,34.86,13.72,32.78,13.72,53.16c0,19.06-4,35.63-11.82,49.73a81.09,81.09,0,0,1-22.1,25.54c-6.48,4.95-8.19,14.67-3.62,21.91L482,241.41c6.67,10.48-.38,24.77-12,24.77H417.25c-5,0-9.34-2.67-12.2-7.05l-33-53A14.5,14.5,0,0,0,360.09,199.3ZM400.67,77.93c-5.53-5.34-14.1-8-25.15-8H360.09c-8,0-14.68,7-14.68,15.81V116c0,8.76,6.48,15.81,14.68,15.81h15.43q16.86,0,25.15-8c5.53-5.34,8.38-13,8.38-22.87C409.05,90.89,406.2,83.26,400.67,77.93Z"/><path class="cls-5" d="M584,249.41a122.13,122.13,0,0,1-47.26-47.63c-11.24-20.2-17.15-43.25-17.15-68.59s5.72-48.4,17.15-68.6C548,44.4,564,28.58,584,17,604,5.53,626.65,0,652.18,0s48,5.72,68.21,17a122,122,0,0,1,47.25,47.63c11.25,20.2,17.15,43.25,17.15,68.6s-5.71,48.39-17.15,68.59c-11.24,20.2-27.24,36-47.25,47.63-20,11.44-42.68,17-68.21,17S604.16,260.85,584,249.41Zm94.69-60.21c7.82-5.14,14.29-12.76,19.06-22.1,4.76-9.53,7-20.77,7-33.72s-2.29-24-7-33.73c-4.77-9.53-11.05-17-19.06-22.1a49.46,49.46,0,0,0-53.35,0c-7.81,5.14-14.29,12.76-19,22.1-4.76,9.53-7,20.77-7,33.73s2.29,24,7,33.72c4.76,9.53,11,17,19,22.1a47.75,47.75,0,0,0,26.68,8A46.27,46.27,0,0,0,678.66,189.2Z"/><path class="cls-6" d="M1160.53,249.41a122.11,122.11,0,0,1-47.25-47.63c-11.24-20.2-17.15-43.25-17.15-68.59s5.72-48.4,17.15-68.6c11.24-20.19,27.25-36,47.25-47.63,20-11.43,42.68-17,68.21-17s48,5.72,68.22,17a122.11,122.11,0,0,1,47.25,47.63c11.24,20.2,17.15,43.25,17.15,68.6s-5.72,48.39-17.15,68.59C1333,222,1317,237.79,1297,249.41c-20,11.44-42.68,17-68.22,17S1180.54,260.85,1160.53,249.41Zm94.7-60.21c7.81-5.14,14.29-12.76,19-22.1,4.77-9.53,7-20.77,7-33.72s-2.28-24-7-33.73c-4.76-9.53-11-17-19-22.1a49.46,49.46,0,0,0-53.35,0c-7.81,5.14-14.29,12.76-19.06,22.1-4.76,9.53-7,20.77-7,33.73s2.29,24,7,33.72c4.77,9.53,11.06,17,19.06,22.1a47.74,47.74,0,0,0,26.67,8A46.73,46.73,0,0,0,1255.23,189.2Z"/><path class="cls-7" d="M1061.83,12.19V254.56c0,6.48-4.76,11.62-10.67,11.62H999a10,10,0,0,1-8.2-4.19l-70.88-92c-6.48-8.19-19-3.43-19,7.43v76.79c0,6.47-4.76,11.62-10.67,11.62H831.09c-5.9,0-10.67-5.15-10.67-11.62V11.81c0-6.47,4.77-11.62,10.67-11.62H883.3a10,10,0,0,1,8.19,4.19l70.88,92c6.48,8.19,19.06,3.43,19.06-7.43V12.19c0-6.47,4.76-11.62,10.67-11.62h59.06C1057.07.57,1061.83,5.72,1061.83,12.19Z"/><path class="cls-8" d="M1434.14,70.12h-36c-9.91,0-17.91-8.77-17.91-19.44V19.82c0-10.67,8-19.44,17.91-19.44h190.35c9.91,0,17.91,8.77,17.91,19.44V50.68c0,10.67-8,19.44-17.91,19.44h-36c-9.91,0-17.91,8.76-17.91,19.43V246.94c0,10.67-8,19.43-17.91,19.43H1470c-9.9,0-17.91-8.76-17.91-19.43V89.55C1452.05,78.69,1444.05,70.12,1434.14,70.12Z"/><path class="cls-9" d="M1846.66,214.16v36.4c0,8.76-6.48,15.43-14.29,15.43H1657.45c-8,0-14.29-7.05-14.29-15.43V16c0-8.77,6.48-15.44,14.29-15.44h170.34c8,0,14.29,7.05,14.29,15.44V52.4c0,8.76-6.48,15.43-14.29,15.43h-89.17c-8,0-14.29,7-14.29,15.43h0c0,8.77,6.48,15.44,14.29,15.44h74.88c8,0,14.29,7,14.29,15.43v33.54c0,8.76-6.48,15.43-14.29,15.43h-74.88c-8,0-14.29,7.05-14.29,15.43v4c0,8.77,6.48,15.44,14.29,15.44h93.75A16,16,0,0,1,1846.66,214.16Z"/></g></g></svg>